<svg version="1.1" id="Layer_1" xmlns="http://www.w3.org/2000/svg" x="0" y="0" viewBox="0 0 39.4 31.2" xml:space="preserve"><style>.st0{fill:#7b7f84}.st1{fill:#848a90}</style><path class="st0" d="M31.6 15.5c-.7 0-1.5-.1-2.2-.3-.4-.1-.7-.4-.8-.7-1.1-2.8-2.6-5.2-4.3-6.9-.3-.3-.4-.7-.3-1.1.3-1.6 1-3 2.1-4.2 6.2-6.2 16.2 1.1 12.4 8.9-.3.5-.9.8-1.4.6l-1.9-.5.5 1.9c.5 1.8-2.8 2.3-4.1 2.3z"/><path class="st1" d="M4.3 14.7c-.5-.3-.8-.9-.6-1.4l.5-1.9-1.9.5c-.6.2-1.2-.1-1.4-.6-3.9-7.9 6.2-15.2 12.3-9 1.1 1.1 1.9 2.6 2.1 4.2.1.4-.1.8-.3 1.1-1.7 1.7-3.2 4.1-4.3 6.9-.1.4-.4.6-.8.7-1.8.5-3.8.4-5.6-.5z"/><path d="M19.7 31.2c-7.1 0-12.8-3-12.8-10.1 0-6.9 5.5-18.3 12.8-18.3C27 2.8 32.5 14.2 32.5 21c0 7.2-5.7 10.2-12.8 10.2z" fill="#abadaf"/><path class="st1" d="M19.7 2.8v28.4c7.1 0 12.8-3 12.8-10.1 0-6.9-5.5-18.3-12.8-18.3z"/><path class="st1" d="M22.9 17.6c-1.8-2.9-4.6-2.9-6.4 0-1.8 3-1.5 6.3 2 7v6.6H21v-6.6c3.4-.7 3.7-4 1.9-7z"/><path class="st0" d="M22.9 17.6c-.9-1.5-2-2.2-3.2-2.2v15.8h1.2v-6.6c3.5-.7 3.8-4 2-7z"/><path d="M13.8 11.3c.9 0 1.6.7 1.6 1.6 0 .9-.7 1.6-1.6 1.6-.9 0-1.6-.7-1.6-1.6 0-.8.7-1.6 1.6-1.6z" fill="#5b5f60"/><path d="M25.6 11.3c.9 0 1.6.7 1.6 1.6 0 .9-.7 1.6-1.6 1.6-.9 0-1.6-.7-1.6-1.6 0-.8.7-1.6 1.6-1.6z" fill="#4e5050"/></svg>