<svg version="1.1" id="Layer_1" xmlns="http://www.w3.org/2000/svg" x="0" y="0" viewBox="0 0 43 12.3" xml:space="preserve"><style>.st0{fill:#a9a09a}</style><path class="st0" d="M3.4 10.8L6 9.4l-.5-.9L3 9.9l.4.9zm4.3-2.3l2.6-1.4-.5-.9-2.6 1.4.5.9zm4.2-2.3l2.6-1.4L14 4l-2.6 1.4.5.8zM16.2 4l2.6-1.4-.5-.9-2.6 1.4.5.9zM24.2 2.6L26.8 4l.5-.9-2.6-1.4-.5.9zm4.3 2.3L31 6.2l.5-.9L29 4l-.5.9zm4.2 2.2l2.6 1.4.5-.9-2.6-1.4-.5.9zM37 9.4l2.6 1.4.4-.9-2.6-1.4-.4.9zM.5 12.3l1.3-.7-.5-.9-1.3.8.5.8zM20.4 1.7l1-.6 1 .6.6-.9-1.5-.8-1.5.8.4.9zm20.8 10l1.3.7.5-.9-1.3-.7-.5.9z"/></svg>