<svg version="1.1" id="Layer_1" xmlns="http://www.w3.org/2000/svg" x="0" y="0" viewBox="0 0 43.1 15.2" xml:space="preserve"><style>.st0{fill:#a9a09a}</style><path class="st0" d="M39.5 2L37 3.7l.6.8 2.5-1.7-.6-.8zm-4.2 2.8l-2.5 1.7.6.8 2.5-1.7-.6-.8zM31 7.7l-2.5 1.7.6.8 2.5-1.7-.6-.8zm-4.2 2.8l-2.5 1.7.6.8 2.5-1.7-.6-.8zM18.8 12.2l-2.5-1.7-.6.8 2.5 1.7.6-.8zm-4.2-2.8L12 7.7l-.6.8 2.5 1.7.7-.8zm-4.3-2.9L7.8 4.8l-.6.9 2.5 1.7.6-.9zM6.1 3.7L3.5 2l-.5.8 2.5 1.7.6-.8zM42.5 0l-1.3.8.6.8 1.3-.8-.6-.8zm-20 13.3l-1 .7-1-.7-.5.9 1.5 1 1.5-1-.5-.9zM1.8.8L.6 0 0 .8l1.3.8.5-.8z"/></svg>