<svg version="1.1" id="Layer_1" xmlns="http://www.w3.org/2000/svg" x="0" y="0" viewBox="0 0 35.3 39.7" xml:space="preserve"><style>.st0{fill:#e0a431}.st1{fill:#d7922b}.st2{fill:#e9b538}.st4{fill:#5b4836}</style><path class="st0" d="M25.1 17.9c-.4-.5-.7-2.1-1.4-3.3-.5-.9.2-2 1.2-2H34c.7 0 1.3.6 1.3 1.3 0 5.4-6.6 8-10.2 4z"/><path class="st1" d="M25.4 3.5c0-1.9-1.6-3.5-3.5-3.5s-3.5 1.6-3.5 3.5c0 1.5.9 2.7 2.2 3.3v4.1c0 .7.6 1.3 1.3 1.3.7 0 1.3-.6 1.3-1.3V6.8c1.3-.6 2.2-1.8 2.2-3.3z"/><path class="st2" d="M0 14c0-.7.6-1.3 1.3-1.3h9.1c1 0 1.6 1.1 1.2 2-.7 1.3-.9 2.8-1.4 3.3C6.6 21.9 0 19.3 0 14z"/><path class="st0" d="M11.7 35.7L5.8 24.2c-.2-.3-.2-.7-.1-1l2.9-8.4c3-8.6 15.2-8.6 18.1 0l2.9 8.4c.1.3.1.7-.1 1l-5.9 11.4c-2.1 5.4-9.7 5.4-11.9.1z"/><path class="st1" d="M29.6 23.2l-2.9-8.4c-1.5-4.3-5.3-6.4-9.1-6.4v31.3c2.4 0 4.9-1.3 6-4l5.9-11.4c.2-.4.3-.8.1-1.1z"/><path class="st0" d="M13.5 0c-2 0-3.5 1.6-3.5 3.5 0 1.5.9 2.7 2.2 3.3v4.1c0 .7.6 1.3 1.3 1.3.7 0 1.3-.6 1.3-1.3V6.8C16.1 6.2 17 5 17 3.5 17 1.6 15.4 0 13.5 0z"/><path class="st2" d="M20.3 29.3c-.5 0-2.2-.9-4.8-.1-.9.3-1.7-.4-1.7-1.3 0-4.3.3-7.1-1.6-10.8-.8-1.6-1.4-3.1-1.8-4.6-.1-.4 0-.9.3-1.2 1.8-2 4.3-3 7-3s5.2 1.1 7 3c.3.3.4.8.3 1.2-.4 1.4-1 2.9-1.8 4.6-1.9 3.7-1.6 6.5-1.6 10.8 0 .8-.6 1.4-1.3 1.4z"/><path class="st0" d="M24.7 11.4c-1.8-2-4.3-3-7-3v20.5c1.3 0 2.2.4 2.6.4.7 0 1.3-.6 1.3-1.3 0-4.3-.3-7.1 1.6-10.8.8-1.6 1.4-3.1 1.8-4.6.1-.4 0-.9-.3-1.2z"/><path d="M11.7 35.7c-2.1-4.1-2.5-4.4-1.9-5.3 3.8-5.6 12-5.5 15.8 0 .6.8.2 1.2-1.9 5.3-2.2 5.3-9.8 5.3-12 0z" fill="#f4c33f"/><path class="st2" d="M25.6 30.4c-1.9-2.8-4.9-4.2-7.9-4.2v13.4c2.4 0 4.9-1.3 6-4 2.1-4 2.5-4.3 1.9-5.2zM15.9 31.3c.6 0 1 .5 1 1 0 .6-.5 1-1 1-.6 0-1-.5-1-1 0-.6.5-1 1-1z"/><path class="st0" d="M19.4 31.3c.6 0 1 .5 1 1 0 .6-.5 1-1 1-.6 0-1-.5-1-1 0-.6.4-1 1-1z"/><path class="st4" d="M10 19.1c1 0 1.8.8 1.8 1.8s-.8 1.7-1.8 1.7-1.8-.8-1.8-1.7c.1-1 .9-1.8 1.8-1.8zM25.3 19.1c1 0 1.8.8 1.8 1.8s-.8 1.7-1.8 1.7-1.7-.8-1.7-1.7c0-1 .8-1.8 1.7-1.8z"/></svg>