<svg version="1.1" id="Layer_1" xmlns="http://www.w3.org/2000/svg" x="0" y="0" viewBox="0 0 34.4 34" xml:space="preserve"><style>.st1{fill:#855530}.st3{fill:#724726}.st8{fill:#623c1d}</style><path d="M28.4 14.8c-1.2-2.7-2.8-5-4.7-6.7-.5-.4-.5-1.2-.1-1.6L28.4.8c.7-.9 2-1 2.9-.3 3.7 3.1 4.2 8.6 1.1 12.3l-1.9 2.3c-.7.7-1.8.5-2.1-.3" fill="#714725"/><path class="st1" d="M4 15.1l-2-2.3C-1.1 9.1-.6 3.6 3.1.5 4-.2 5.3-.1 6 .7l4.8 5.7c.4.5.4 1.2-.1 1.6-1.9 1.8-3.6 4.1-4.7 6.8-.4.8-1.5 1-2 .3z"/><path d="M17.2 34C8.7 34 2 30.4 2 22c0-2.6.7-5.6 2-8.4 1.2-2.9 3-5.4 5.1-7.3 5-4.4 10.9-4.6 16.1 0 2.1 1.9 3.9 4.4 5.2 7.3 1.3 2.8 2 5.8 2 8.4 0 8.5-6.8 12-15.2 12" fill="#9b5f31"/><path class="st1" d="M30.4 13.6c-1.3-2.9-3.1-5.4-5.2-7.3-2.6-2.3-5.3-3.4-8.1-3.4V34c8.4 0 15.2-3.5 15.2-12 .1-2.6-.6-5.6-1.9-8.4"/><path class="st1" d="M17.5 21.3h-.7c-.6 0-1.1-.4-1.2-.9-.8-4.4-3.5-8.4-7.4-11.3-.6-.4-.6-1.3-.1-1.8.4-.4.7-.7 1.1-1 5-4.4 10.9-4.6 16.1 0 .4.3.7.6 1.1 1 .5.5.4 1.4-.2 1.8-3.9 2.9-6.5 6.9-7.4 11.3-.2.5-.7.9-1.3.9"/><path class="st3" d="M17.2 2.9v13.9h1.2c.5 0 .9.2 1.2.5 1.3-3.2 3.5-6 6.5-8.2.3-.2.5-.6.5-1 0-.3-.1-.6-.3-.8-.4-.4-.7-.7-1.1-1-2.5-2.3-5.3-3.4-8-3.4"/><path d="M17.2 23.2l-3.6 2.5v3.5c0 .7.5 1.2 1.2 1.2h4.9c.7 0 1.2-.5 1.2-1.2v-3.5l-3.7-2.5z" fill="#f4c33f"/><path d="M17.2 23.2v7.2h2.5c.7 0 1.2-.5 1.2-1.2v-3.5l-3.7-2.5z" fill="#e9b538"/><path class="st1" d="M24.5 21.1c-.7 0-1.2.5-1.2 1.2 0 2-2.3 3.2-3.9 2-1.3-.9-1-2.1-1-4.4 0-.7-.5-1.2-1.2-1.2s-1.2.5-1.2 1.2c0 2.3.3 3.5-1 4.4-1.6 1.2-3.9 0-3.9-2 0-.7-.5-1.2-1.2-1.2s-1.2.5-1.2 1.2c0 2.8 2.3 4.8 4.8 4.8 1 0 2-.3 2.8-.9.3-.2.6-.5.8-.8.2.3.5.5.8.8.8.6 1.8.9 2.8.9 2.6 0 4.8-2.1 4.8-4.8.2-.7-.4-1.2-1-1.2"/><path class="st3" d="M25.7 22.7c-.2 2.6-2.4 4.4-4.8 4.4 2.4 0 4.5-1.8 4.8-4.4m-1.2-1.6c-.7 0-1.2.5-1.2 1.2 0 1.4-1.2 2.5-2.5 2.5-.5 0-1-.1-1.4-.5-1-.7-1.1-1.5-1-2.7 0 1.3.1 2.1 1 2.7.4.3.9.5 1.4.5 1.3 0 2.5-1 2.5-2.5 0-.7.5-1.2 1.2-1.2s1.2.5 1.2 1.2c0-.7-.6-1.2-1.2-1.2"/><path fill="#ca9d2f" d="M20.8 27.1z"/><path class="st3" d="M24.5 21.1c-.7 0-1.2.5-1.2 1.2 0 1.4-1.2 2.5-2.5 2.5-.5 0-1-.1-1.4-.5-1-.7-1.1-1.5-1-2.7l-.4.3-.2.2c-.2.1-.4.2-.6.2v3.2c.2.3.5.5.8.8.8.6 1.8.9 2.8.9 2.5 0 4.6-1.9 4.8-4.4v-.4c.1-.8-.5-1.3-1.1-1.3"/><path d="M16.3 21.9l-1.7-2c-1.1-1.2-.2-3.1 1.4-3.1h2.3c1.6 0 2.5 1.9 1.4 3.1l-1.7 2c-.4.5-1.2.5-1.7 0" fill="#6c533c"/><path class="st8" d="M18 21.9l-.2.2.2-.2"/><path d="M18.3 16.8h-1.2v5.5c.2 0 .5-.1.6-.2l.2-.2 1.7-2c1.2-1.2.4-3.1-1.3-3.1z" fill="#5d4732"/><path d="M10.4 14.7c.9 0 1.6.7 1.6 1.6 0 .9-.7 1.6-1.6 1.6-.9 0-1.6-.7-1.6-1.6 0-.9.7-1.6 1.6-1.6z" fill="#5b4836"/><path d="M24 14.7c.9 0 1.6.7 1.6 1.6 0 .9-.7 1.6-1.6 1.6-.9 0-1.6-.7-1.6-1.6 0-.9.7-1.6 1.6-1.6z" fill="#534230"/></svg>