<svg version="1.1" id="Layer_1" xmlns="http://www.w3.org/2000/svg" x="0" y="0" viewBox="0 0 43.1 15.2" xml:space="preserve"><style>.st0{fill:#a9a09a}</style><path class="st0" d="M3.5 13.2L6 11.5l-.6-.8L3 12.4l.5.8zm4.3-2.8l2.5-1.7-.5-.9-2.6 1.7.6.9zM12 7.5l2.5-1.7L14 5l-2.5 1.7.5.8zm4.3-2.8L18.8 3l-.6-.8-2.5 1.7.6.8zM24.2 3l2.5 1.7.6-.8-2.5-1.7-.6.8zm4.3 2.8L31 7.5l.6-.8L29 5l-.5.8zm4.2 2.9l2.5 1.7.6-.8-2.5-1.7-.6.8zm4.3 2.8l2.5 1.7.6-.8-2.5-1.7-.6.8zM.6 15.2l1.3-.8-.6-.8-1.3.8.6.8zM20.5 1.9l1-.7 1 .7.6-.9-1.5-1L20 1l.5.9zm20.7 12.4l1.3.8.6-.8-1.3-.8-.6.8z"/></svg>