<svg version="1.1" id="Layer_1" xmlns="http://www.w3.org/2000/svg" x="0" y="0" viewBox="0 0 43 15.2" xml:space="preserve"><style>.st0{fill:#a9a09a}</style><path class="st0" d="M3.4 4.4L6 5.8l-.5.8L3 5.3l.4-.9zm4.3 2.3L10.3 8l-.5.9-2.6-1.4.5-.8zm4.2 2.2l2.6 1.4-.5.9-2.6-1.4.5-.9zm4.3 2.3l2.6 1.4-.5.9-2.6-1.4.5-.9zM24.2 12.2l2.5-1.7.6.8-2.5 1.7-.6-.8zm4.3-2.8L31 7.7l.6.8-2.6 1.7-.5-.8zm4.2-2.9l2.5-1.7.6.8-2.5 1.7-.6-.8zM37 3.7L39.5 2l.6.8-2.5 1.7-.6-.8zM.5 2.8l1.3.7-.5.9L0 3.7l.5-.9zm19.9 10.7l1 .5 1-.7.6.8-1.5 1-1.5-.8.4-.8zM41.2.8l1.3-.8.5.8-1.3.8-.5-.8z"/></svg>