<svg xmlns="http://www.w3.org/2000/svg" viewBox="0 0 34.2 14.4"><path d="M1.3 13.5l.8-.6-.2-.2-.8.6.2.2zm1.6-1.3l.8-.6-.2-.2-.8.6.2.2zm1.5-1.3l.8-.6-.2-.2-.8.6.2.2zM6 9.6l.7-.6-.1-.2-.8.6.2.2zm1.5-1.3l.8-.6-.2-.2-.8.6.2.2zM9.1 7l.8-.6-.2-.2-.8.6.2.2zm1.5-1.3l.8-.6-.2-.2-.8.6.2.2zm1.5-1.3l.8-.6-.2-.2-.7.7.1.1zm1.6-1.2l.8-.6-.2-.2-.8.6.2.2zm1.5-1.3l.8-.7-.2-.2-.8.6.2.3zM18.2 1.2l.8.6.2-.2-.9-.6-.1.2zm1.5 1.3l.8.6.1-.1-.8-.6-.1.1zm1.6 1.3l.7.6.2-.2-.8-.6-.1.2zm1.5 1.3l.8.6.2-.2-.8-.6-.2.2zm1.6 1.3l.7.6.2-.2-.8-.6-.1.2zm1.5 1.3l.8.6.2-.2-.8-.6-.2.2zM27.4 9l.8.6.2-.2-.8-.6-.2.2zm1.6 1.2l.8.6.2-.2-.8-.6-.2.2zm1.5 1.3l.8.6.2-.2-.8-.6-.2.2zm1.6 1.3l.8.6.2-.2-.8-.6-.2.2zM.2 14.4l.4-.3-.2-.2-.4.3.2.2zM16.8.6l.3-.3.3.3.2-.2-.4-.3-.1-.1-.5.4.2.2zm16.8 13.5l.4.3.2-.2-.4-.3-.2.2z"/></svg>