<svg xmlns="http://www.w3.org/2000/svg" viewBox="0 0 38.2 34"><path d="M28.6 12.7c-.1-.2-.2-.3-.2-.5-.1-.8-.4-1.6-.7-2.3-.4-.8.2-1.7 1.1-1.7h8.4c.7 0 1.2.5 1.2 1.2-.2 5.1-6.6 7.3-9.8 3.3z" fill="#d7922b"/><path d="M26.2 7.2c-.7 0-1.2-.6-1.2-1.2V1.2c0-.7.5-1.2 1.2-1.2s1.2.5 1.2 1.2V6c0 .6-.6 1.2-1.2 1.2z" fill="#7b7f84"/><path d="M12.1 7.2c-.7 0-1.2-.5-1.2-1.2V1.2c0-.7.5-1.2 1.2-1.2s1.2.5 1.2 1.2V6c-.1.6-.6 1.2-1.2 1.2z" fill="#848a90"/><path d="M5.4 14.8c-3 0-5.4-2.4-5.4-5.4 0-.7.5-1.2 1.2-1.2h8.3c.9 0 1.4.9 1.1 1.7-.3.7-.6 1.5-.7 2.3 0 .2-.1.4-.2.5-1.1 1.3-2.6 2.1-4.3 2.1z" fill="#e0a431"/><path d="M29.2 22c-.6-.3-1.2-.4-1.8-.4H10.9c-.6 0-1.2.1-1.8.4-.8.4-1.7-.2-1.7-1.1 0-7.7-.1-7.9.2-9.2.2-1 .5-2 .9-2.9 3.5-7.4 13.3-9 19-3.3 4.2 4.2 3.5 8.6 3.5 15.4-.1 1-1 1.5-1.8 1.1" fill="#f4c33f"/><path d="M27.5 5.6c-2.3-2.3-5.3-3.5-8.3-3.5v19.5h8.3c.6 0 1.2.1 1.8.4.8.4 1.7-.2 1.7-1.1-.1-6.8.7-11.1-3.5-15.3" fill="#e9b538"/><path d="M27.4 34H10.9c-3.5 0-6.4-2.9-6.4-6.4v-1.9c0-2.5 1.4-4.7 3.6-5.8.9-.4 1.9-.7 2.9-.7h16.5c1 0 2 .2 2.9.7 2.2 1.1 3.6 3.3 3.6 5.8v1.9c-.2 3.5-3.1 6.4-6.6 6.4z" fill="#dc5156"/><path d="M30.2 19.9c-.9-.4-1.9-.7-2.9-.7H19V34h8.3c3.5 0 6.4-2.9 6.4-6.4v-1.9c.1-2.5-1.3-4.7-3.5-5.8z" fill="#d14949"/><path d="M15.8 29.2c-.7 0-1.2-.5-1.2-1.2v-2.8c0-.7.5-1.2 1.2-1.2s1.2.5 1.2 1.2V28c0 .7-.6 1.2-1.2 1.2z" fill="#c24343"/><path d="M8.4 13.6c-.6-.1-1-.7-.9-1.3 0-.2.1-.3.1-.5.2-1 .5-2 .9-2.9 2.2-4.6 7.1-7.3 12.1-6.7.6.1 1.1.6 1 1.2-.3 6.8-6.6 11.7-13.2 10.2" fill="#e69e36"/><path d="M22.5 29.2c-.7 0-1.2-.5-1.2-1.2v-2.8c0-.7.5-1.2 1.2-1.2s1.2.5 1.2 1.2V28c0 .7-.6 1.2-1.2 1.2z" fill="#af3c3e"/><path d="M19.9 2.1h.5-.5" fill="#efefef"/><path fill="#e4b73b" d="M20.2 2.2h.3H20.2"/><path d="M21.599999999999998 3.6000000000000005zM20.5 2.2c.7.1 1.2.6 1.1 1.2.1-.6-.4-1.1-1.1-1.2" fill="#dbaa34"/><path d="M19.1 2.1v7.8l.1-.1c1.4-1.7 2.3-3.9 2.4-6.3v-.1c0-.6-.4-1.1-1-1.2h-.8c-.2-.1-.4-.1-.7-.1" fill="#d79433"/><path d="M13.4 14.3c.9 0 1.6.7 1.6 1.6 0 .9-.7 1.6-1.6 1.6-.9 0-1.6-.7-1.6-1.6 0-.9.7-1.6 1.6-1.6z" fill="#6c533c"/><path d="M24.8 14.3c.9 0 1.6.7 1.6 1.6 0 .9-.7 1.6-1.6 1.6-.9 0-1.6-.7-1.6-1.6.1-.9.8-1.6 1.6-1.6z" fill="#5b4836"/></svg>