<svg version="1.1" id="Layer_1" xmlns="http://www.w3.org/2000/svg" x="0" y="0" viewBox="0 0 70.9 4.8" xml:space="preserve"><style>.st0{fill:#898989}</style><path class="st0" d="M69.4 2.8h-2.6V2h2.6v.8zm-5.1 0h-2.6V2h2.6v.8zm-5.1 0h-2.6V2h2.6v.8zm-5.2 0h-2.6V2H54v.8zm-5.1 0h-2.6V2h2.6v.8zm-5.2 0h-2.6V2h2.6v.8zm-5.1 0H36V2h2.6v.8zm-5.2 0h-2.6V2h2.6v.8zm-5.1 0h-2.6V2h2.6v.8zm-5.2 0h-2.6V2h2.6v.8zm-5.1 0h-2.6V2H18v.8zm-5.1 0h-2.6V2h2.6v.8zm-5.2 0H5.1V2h2.6v.8zm-5.1 0H0V2h2.6v.8z"/><path class="st0" d="M66.6 4.2c0 .5.3.7.8.4l3.2-1.8c.4-.2.4-.6 0-.9L67.4.1c-.4-.2-.8 0-.8.4v3.7z"/></svg>