<svg version="1.1" id="Layer_1" xmlns="http://www.w3.org/2000/svg" x="0" y="0" viewBox="0 0 174.1 41.7" xml:space="preserve"><style>.st0{fill:#a9a09a}.st1{fill:#7b5844}</style><path class="st0" d="M41.4 39.4c-.2-.3-.1-.7.2-.8.3-.2.7-.1.8.2.2.3.1.7-.2.8-.3.2-.7.1-.8-.2zm-1.3-2c-.2-.3-.1-.7.2-.8.3-.2.7-.1.8.2.2.3.1.7-.2.8-.2.2-.6.1-.8-.2zm-1.2-2c-.2-.3-.1-.7.2-.8.3-.2.7-.1.8.2.2.3.1.7-.2.8-.3.2-.7.1-.8-.2zm-1.3-2c-.2-.3-.1-.7.2-.8.3-.2.7-.1.8.2.2.3.1.7-.2.8-.2.2-.6.1-.8-.2zm-1.2-2c-.2-.3-.1-.7.2-.8.3-.2.7-.1.8.2.2.3.1.7-.2.8-.3.2-.7.1-.8-.2zm-1.3-2c-.2-.3-.1-.7.2-.8.3-.2.7-.1.8.2.2.3.1.7-.2.8-.2.2-.6.1-.8-.2zm-1.2-2c-.2-.3-.1-.7.2-.8s.7-.1.8.2c.2.3.1.7-.2.8-.3.2-.7.1-.8-.2zm-1.3-2c-.2-.3-.1-.7.2-.8.3-.2.7-.1.8.2.2.3.1.7-.2.8-.2.2-.6.1-.8-.2zm-1.2-2c-.2-.3-.1-.7.2-.8.3-.2.7-.1.8.2.2.3.1.7-.2.8-.3.2-.7.1-.8-.2zm-1.3-2c-.2-.3-.1-.7.2-.8.3-.2.7-.1.8.2.2.3.1.7-.2.8-.2.2-.6.1-.8-.2zm-1.2-2c-.2-.3-.1-.7.2-.8.3-.2.7-.1.8.2.2.3.1.7-.2.8-.3.2-.7.1-.8-.2zm-1.3-2c-.2-.3-.1-.7.2-.8.3-.2.7-.1.8.2.2.3.1.7-.2.8-.3.2-.6.1-.8-.2zm-1.2-2c-.2-.3-.1-.7.2-.8.3-.2.7-.1.8.2.2.3.1.7-.2.8-.3.2-.7.1-.8-.2zm-1.3-2c-.2-.3-.1-.7.2-.8.3-.2.7-.1.8.2.2.3.1.7-.2.8-.3.2-.6.1-.8-.2zm-1.2-2c-.2-.3-.1-.7.2-.8.3-.2.7-.1.8.2.2.3.1.7-.2.8-.3.2-.7.1-.8-.2zm-1.3-2c-.2-.3-.1-.7.2-.8.3-.2.7-.1.8.2.2.3.1.7-.2.8-.3.2-.6.1-.8-.2zM21.1 9.4c-.2.3-.5.4-.8.2-.3-.2-.4-.5-.2-.8.2-.3.5-.4.8-.2.3.2.4.5.2.8zm-1.2 2c-.2.3-.5.4-.8.2-.3-.2-.4-.5-.2-.8.2-.3.5-.4.8-.2.3.2.3.5.2.8zm-1.3 2c-.2.3-.5.4-.8.2-.3-.2-.4-.5-.2-.8.2-.3.5-.4.8-.2.3.2.4.5.2.8zm-1.2 2c-.2.3-.5.4-.8.2-.3-.2-.4-.5-.2-.8.2-.3.5-.4.8-.2.3.2.3.5.2.8zm-1.3 2c-.2.3-.5.4-.8.2-.3-.2-.4-.5-.2-.8.2-.3.5-.4.8-.2.3.2.4.5.2.8zm-1.2 2c-.2.3-.5.4-.8.2-.3-.2-.4-.5-.2-.8.2-.3.5-.4.8-.2.3.2.3.5.2.8zm-1.3 2c-.2.3-.5.4-.8.2-.3-.2-.4-.5-.2-.8.2-.3.5-.4.8-.2s.4.5.2.8zm-1.2 2c-.2.3-.5.4-.8.2-.3-.2-.4-.5-.2-.8.2-.3.5-.4.8-.2.3.2.3.5.2.8zm-1.3 2c-.2.3-.5.4-.8.2-.3-.2-.4-.5-.2-.8.2-.3.5-.4.8-.2.3.2.4.5.2.8zm-1.2 2c-.2.3-.5.4-.8.2-.3-.2-.4-.5-.2-.8.2-.3.5-.4.8-.2s.3.5.2.8zm-1.3 2c-.2.3-.5.4-.8.2-.3-.2-.4-.5-.2-.8.2-.3.5-.4.8-.2.3.2.4.5.2.8zm-1.2 2c-.2.3-.5.4-.8.2-.3-.2-.4-.5-.2-.8.2-.3.5-.4.8-.2.3.2.3.5.2.8zm-1.3 2c-.2.3-.5.4-.8.2-.3-.2-.4-.5-.2-.8.2-.3.5-.4.8-.2.3.2.4.5.2.8zm-1.2 2c-.2.3-.5.4-.8.2-.3-.2-.4-.5-.2-.8.2-.3.5-.4.8-.2.3.2.3.5.2.8zm-1.3 2c-.2.3-.5.4-.8.2-.3-.2-.4-.5-.2-.8.2-.3.5-.4.8-.2.3.2.4.5.2.8zm-1.2 2c-.2.3-.5.4-.8.2-.3-.2-.4-.5-.2-.8.2-.3.5-.4.8-.2.2.2.3.5.2.8zM43.1 41.7c-.2 0-.3-.1-.4-.2-.1-.1-.2-.3-.2-.4 0-.2.1-.3.2-.4s.3-.2.4-.2c.2 0 .3.1.4.2.1.1.2.3.2.4 0 .2-.1.3-.2.4-.1.1-.2.2-.4.2zm-21.2-34c-.2 0-.3-.1-.4-.2-.1-.1-.2-.3-.2-.4 0-.2.1-.3.2-.4.1-.1.3-.2.4-.2.2 0 .3.1.4.2s.2.3.2.4c0 .2-.1.3-.2.4-.1.1-.3.2-.4.2zM.6 41.7c-.2 0-.3-.1-.4-.2-.1-.1-.2-.2-.2-.4s.1-.3.2-.4c.1-.1.3-.2.4-.2s.3.1.4.2c.1.1.2.3.2.4 0 .2-.1.3-.2.4-.1.1-.2.2-.4.2z"/><path class="st1" d="M.6 5v2.8h172.9V5H.6z"/><path class="st1" d="M86.5 0v6.4h1.2V0"/><path class="st0" d="M171.8 39.4c-.2-.3-.1-.7.2-.8.3-.2.7-.1.8.2.2.3.1.7-.2.8-.3.2-.7.1-.8-.2zm-1.3-2c-.2-.3-.1-.7.2-.8.3-.2.7-.1.8.2.2.3.1.7-.2.8-.3.2-.6.1-.8-.2zm-1.2-2c-.2-.3-.1-.7.2-.8.3-.2.7-.1.8.2.2.3.1.7-.2.8-.3.2-.7.1-.8-.2zm-1.3-2c-.2-.3-.1-.7.2-.8.3-.2.7-.1.8.2.2.3.1.7-.2.8-.3.2-.6.1-.8-.2zm-1.2-2c-.2-.3-.1-.7.2-.8.3-.2.7-.1.8.2.2.3.1.7-.2.8-.3.2-.7.1-.8-.2zm-1.3-2c-.2-.3-.1-.7.2-.8.3-.2.7-.1.8.2.2.3.1.7-.2.8-.3.2-.6.1-.8-.2zm-1.2-2c-.2-.3-.1-.7.2-.8.3-.2.7-.1.8.2.2.3.1.7-.2.8-.3.2-.7.1-.8-.2zm-1.3-2c-.2-.3-.1-.7.2-.8.3-.2.7-.1.8.2.2.3.1.7-.2.8-.3.2-.6.1-.8-.2zm-1.3-2c-.2-.3-.1-.7.2-.8.3-.2.7-.1.8.2.2.3.1.7-.2.8-.2.2-.6.1-.8-.2zm-1.2-2c-.2-.3-.1-.7.2-.8.3-.2.7-.1.8.2.2.3.1.7-.2.8-.3.2-.6.1-.8-.2zm-1.3-2c-.2-.3-.1-.7.2-.8.3-.2.7-.1.8.2.2.3.1.7-.2.8-.2.2-.6.1-.8-.2zm-1.2-2c-.2-.3-.1-.7.2-.8.3-.2.7-.1.8.2s.1.7-.2.8-.6.1-.8-.2zm-1.3-2c-.2-.3-.1-.7.2-.8.3-.2.7-.1.8.2.2.3.1.7-.2.8-.2.2-.6.1-.8-.2zm-1.2-2c-.2-.3-.1-.7.2-.8.3-.2.7-.1.8.2.2.3.1.7-.2.8-.3.2-.6.1-.8-.2zm-1.3-2c-.2-.3-.1-.7.2-.8.3-.2.7-.1.8.2.2.3.1.7-.2.8-.2.2-.6.1-.8-.2zm-1.2-2c-.2-.3-.1-.7.2-.8.3-.2.7-.1.8.2.2.3.1.7-.2.8-.3.2-.6.1-.8-.2zM151.5 9.4c-.2.3-.5.4-.8.2-.3-.2-.4-.5-.2-.8s.5-.4.8-.2c.3.2.4.5.2.8zm-1.2 2c-.2.3-.5.4-.8.2-.3-.2-.4-.5-.2-.8.2-.3.5-.4.8-.2.3.2.3.5.2.8zm-1.3 2c-.2.3-.5.4-.8.2-.3-.2-.4-.5-.2-.8.2-.3.5-.4.8-.2.3.2.4.5.2.8zm-1.2 2c-.2.3-.5.4-.8.2-.3-.2-.4-.5-.2-.8.2-.3.5-.4.8-.2.3.2.3.5.2.8zm-1.3 2c-.2.3-.5.4-.8.2-.3-.2-.4-.5-.2-.8.2-.3.5-.4.8-.2.3.2.4.5.2.8zm-1.2 2c-.2.3-.5.4-.8.2-.3-.2-.4-.5-.2-.8.2-.3.5-.4.8-.2.2.2.3.5.2.8zm-1.3 2c-.2.3-.5.4-.8.2-.3-.2-.4-.5-.2-.8.2-.3.5-.4.8-.2.3.2.4.5.2.8zm-1.2 2c-.2.3-.5.4-.8.2-.3-.2-.4-.5-.2-.8.2-.3.5-.4.8-.2.2.2.3.5.2.8zm-1.3 2c-.2.3-.5.4-.8.2-.3-.2-.4-.5-.2-.8.2-.3.5-.4.8-.2.3.2.4.5.2.8zm-1.2 2c-.2.3-.5.4-.8.2-.3-.2-.4-.5-.2-.8.2-.3.5-.4.8-.2.2.2.3.5.2.8zm-1.3 2c-.2.3-.5.4-.8.2-.3-.2-.4-.5-.2-.8.2-.3.5-.4.8-.2.3.2.4.5.2.8zm-1.2 2c-.2.3-.5.4-.8.2-.3-.2-.4-.5-.2-.8.2-.3.5-.4.8-.2.2.2.3.5.2.8zm-1.3 2c-.2.3-.5.4-.8.2-.3-.2-.4-.5-.2-.8.2-.3.5-.4.8-.2.3.2.4.5.2.8zm-1.2 2c-.2.3-.5.4-.8.2-.3-.2-.4-.5-.2-.8.2-.3.5-.4.8-.2.2.2.3.5.2.8zm-1.3 2c-.2.3-.5.4-.8.2-.3-.2-.4-.5-.2-.8.2-.3.5-.4.8-.2.3.2.4.5.2.8zm-1.2 2c-.2.3-.5.4-.8.2-.3-.2-.4-.5-.2-.8.2-.3.5-.4.8-.2.2.2.3.5.2.8zM173.5 41.7c-.2 0-.3-.1-.4-.2-.1-.1-.2-.3-.2-.4 0-.2.1-.3.2-.4.1-.1.3-.2.4-.2s.3.1.4.2c.1.1.2.3.2.4 0 .2-.1.3-.2.4-.1.1-.2.2-.4.2zm-21.2-34c-.2 0-.3-.1-.4-.2-.1-.1-.2-.3-.2-.4 0-.2.1-.3.2-.4.1-.1.3-.2.4-.2.2 0 .3.1.4.2.1.1.2.3.2.4 0 .2-.1.3-.2.4-.1.1-.3.2-.4.2zm-21.3 34c-.2 0-.3-.1-.4-.2-.1-.1-.2-.3-.2-.4 0-.2.1-.3.2-.4s.3-.2.4-.2.3.1.4.2c.1.1.2.3.2.4 0 .2-.1.3-.2.4-.1.1-.2.2-.4.2z"/><path d="M87.1 8.3c1.1 0 1.9-.9 1.9-1.9 0-1.1-.9-1.9-1.9-1.9-1.1 0-1.9.9-1.9 1.9-.1 1 .8 1.9 1.9 1.9z" fill="#fff"/><path class="st1" d="M87.1 8.3v.5c1.3 0 2.4-1.1 2.4-2.4C89.5 5 88.4 4 87.1 4c-1.3 0-2.4 1.1-2.4 2.4 0 1.3 1.1 2.4 2.4 2.4v-1c-.8 0-1.4-.6-1.4-1.4 0-.8.6-1.4 1.4-1.4.8 0 1.4.6 1.4 1.4 0 .8-.6 1.4-1.4 1.4v.5z"/></svg>