<svg xmlns="http://www.w3.org/2000/svg" viewBox="0 0 23.7 5.8"><path d="M0 1.6h.3v1.1H0zM3.3 5.8h1.2v-.3H3.3v.3zm2.3 0h1.2v-.3H5.6v.3zm2.4 0h1.2v-.3H8v.3zm2.3 0h1.2v-.3h-1.2v.3zm2.3 0h1.2v-.3h-1.2v.3zm2.4 0h1.2v-.3H15v.3zm2.3 0h1.2v-.3h-1.2v.3zm2.3 0h1.2v-.3h-1.2v.3zM23.4 1.8h.3V3h-.3zM0 0v.5h.3V0H0zm0 3.7v.5s0 .3.1.6l.3-.1c0-.1-.1-.3-.1-.4v-.6H0zm1 2c.2.1.4.1.6.1h.6v-.3h-.6c-.2 0-.4 0-.5-.1l-.1.3zm21 .1h.6s.2 0 .4-.1l-.1-.3c-.1 0-.2 0-.2.1H22v.3zm1.6-.7c0-.1.1-.3.1-.4v-.6h-.3v.6c0 .1 0 .2-.1.3l.3.1zm.1-4.5V0h-.3v.6h.3z"/></svg>