<svg version="1.1" id="Layer_1" xmlns="http://www.w3.org/2000/svg" x="0" y="0" viewBox="0 0 28.6 14.4" xml:space="preserve"><style>.st0{fill:#727171}</style><path class="st0" d="M1.5 13.1l.9-.9-.2-.2-.9.9.2.2zm1.8-1.8l.9-.9-.2-.2-.9.9.2.2zm1.8-1.8l.9-.9-.2-.2-.9.9.2.2zm1.8-1.8l.9-.9-.3-.2-.9.9.3.2zM8.6 6l.9-.9-.2-.2-.9.9.2.2zm1.8-1.8l.9-.9-.2-.2-.9.9.2.2zm1.8-1.8l.9-.9-.2-.2-.9.9.2.2zM15.5 1.5l.9.9.2-.2-.9-.9-.2.2zm1.8 1.8l.9.9.2-.2-.9-.9-.2.2zM19 5.1l.9.9.2-.2-.9-.9-.2.2zm1.8 1.8l.9.9.2-.2-.9-1-.2.3zm1.8 1.7l.9.9.2-.2-.9-.9-.2.2zm1.8 1.8l.9.9.2-.2-.9-.9-.2.2zm1.7 1.8l.9.9.2-.2-.9-.9-.2.2zM.2 14.4l.4-.4-.2-.2-.4.4.2.2zM13.9.7l.3-.3.3.3.2-.2-.3-.5h-.2l-.4.4.1.3zm14 13.2l.4.4.2-.2-.4-.4-.2.2z"/></svg>