<svg version="1.1" id="Layer_1" xmlns="http://www.w3.org/2000/svg" x="0" y="0" viewBox="0 0 41.9 47.6" xml:space="preserve"><style>.st0{fill:#898989}</style><path class="st0" d="M37.9 2l-2.3 1.3c-.2.1-.3.4-.2.5.2.2.4.3.6.2l2.3-1.3c.2-.1.3-.4.2-.5-.2-.2-.4-.3-.6-.2zm-4.6 2.6L31 5.9c-.2.1-.3.4-.2.5.1.2.4.3.5.2l2.3-1.3c.2-.1.3-.4.1-.5 0-.2-.2-.3-.4-.2zm-4.6 2.6l-2.3 1.3c-.2.1-.3.4-.1.5.1.2.4.3.5.1l2.3-1.3c.2-.1.3-.4.1-.5 0-.1-.3-.2-.5-.1zm-4.5 2.6l-2.3 1.3c-.2.1-.3.4-.1.5.1.2.4.3.5.1l2.3-1.3c.2-.1.3-.4.1-.5-.1-.1-.3-.2-.5-.1zm-4.6 2.6l-2.3 1.3c-.2.1-.3.4-.1.5.1.2.4.3.5.2l2.3-1.3c.2-.1.3-.4.1-.5-.1-.2-.3-.3-.5-.2zM15 15l-2.3 1.3c-.2.1-.3.4-.1.5.1.2.4.3.5.1l2.3-1.3c.2-.1.3-.4.2-.5-.1-.2-.4-.2-.6-.1zm-4.5 2.6l-2.3 1.3c-.2.1-.3.3-.2.5.1.2.4.3.5.2l2.3-1.3c.2-.1.3-.4.1-.5 0-.3-.2-.3-.4-.2zm-4.6 2.6l-2.3 1.3c-.2.1-.3.4-.1.5.1.2.4.3.5.2l2.3-1.3c.2-.1.3-.4.1-.5-.1-.3-.3-.3-.5-.2zM3.6 26.1l2.3 1.3c.2.1.4 0 .5-.2.1-.2 0-.4-.1-.5L4 25.4c-.2-.1-.4 0-.5.1-.1.2-.1.5.1.6zm4.6 2.6l2.3 1.3c.2.1.4 0 .5-.1.1-.2 0-.4-.1-.5L8.6 28c-.2-.1-.4 0-.5.2-.2.1-.1.4.1.5zm4.6 2.6l2.3 1.3c.2.1.4 0 .5-.1.1-.2 0-.4-.2-.5l-2.3-1.3c-.2-.1-.4 0-.5.1-.1.1 0 .4.2.5zm4.5 2.6l2.3 1.3c.2.1.4 0 .5-.2.1-.2 0-.4-.1-.5l-2.3-1.3c-.2-.1-.4 0-.5.1-.1.2-.1.5.1.6zm4.6 2.6l2.3 1.3c.2.1.4 0 .5-.1.1-.2 0-.4-.1-.5l-2.3-1.3c-.2-.1-.4 0-.5.2-.2 0-.1.3.1.4zm4.6 2.6l2.3 1.3c.2.1.4 0 .5-.1.1-.2 0-.4-.1-.5l-2.3-1.3c-.2-.1-.4 0-.5.1-.2.1-.1.4.1.5zm4.5 2.6l2.3 1.3c.2.1.4 0 .5-.2.1-.2 0-.4-.1-.5L31.4 41c-.2-.1-.4 0-.5.2-.1.1-.1.4.1.5zm4.6 2.6l2.3 1.3c.2.1.4 0 .5-.2.1-.2 0-.4-.2-.5L36 43.6c-.2-.1-.4 0-.5.2-.2.1-.1.4.1.5zM41.3.1l-1.1.6c-.2.1-.3.4-.2.5.1.2.4.3.5.1l1.1-.6c.2-.1.3-.4.1-.5 0-.2-.2-.3-.4-.1zm-40 22.7l-1.1.6c-.1.1-.2.2-.2.4 0 .1.1.3.2.3l1.1.6c.2.1.4 0 .5-.1.1-.2 0-.4-.1-.5l-.5-.3.5-.3c.2-.1.3-.4.1-.5 0-.3-.3-.3-.5-.2zm38.9 24.1l1.1.6c.2.1.4 0 .5-.1.1-.2 0-.4-.1-.5l-1.1-.6c-.2-.1-.4 0-.5.1-.2.1-.1.4.1.5z"/><path class="st0" d="M36.9.8c-.2-.4 0-.8.5-.8l3.6.2c.5 0 .7.4.4.8l-1.9 3c-.3.4-.7.4-.9 0L36.9.8zM36.9 46.8c-.2.4 0 .8.5.8l3.7-.1c.5 0 .7-.4.4-.8l-1.9-3.1c-.3-.4-.7-.4-.9 0l-1.8 3.2z"/></svg>