<svg version="1.1" id="Layer_1" xmlns="http://www.w3.org/2000/svg" xmlns:xlink="http://www.w3.org/1999/xlink" x="0" y="0" viewBox="0 0 10.1 11.8" xml:space="preserve"><style>.st2{fill:#6c9431}</style><path d="M5.1 11.6c-.2 0-.4.1-.7.1-.8.2-1.7-.2-2.2-.7-.6-.5-1-1.1-1.4-1.8-.2-.2-.3-.6-.5-.9-.5-1.5-.5-3.2.5-4.5.5-.6 1.1-1 1.8-1.1.5-.1 1.1 0 1.6.2.3.1.5.3.8.3.3 0 .5-.2.8-.3.5-.2 1.1-.3 1.6-.2.7.1 1.4.5 1.8 1.1 1 1.3 1.1 3 .5 4.5 0 .3-.2.7-.3 1-.4.6-.8 1.3-1.4 1.8-.6.5-1.5.9-2.2.7-.3-.1-.5-.2-.7-.2" fill="#e17d55"/><defs><path id="SVGID_1_" d="M5.1 11.6c-.2 0-.4.1-.7.1-.8.2-1.7-.2-2.2-.7-.6-.5-1-1.1-1.4-1.8-.2-.2-.3-.6-.5-.9-.5-1.5-.5-3.2.5-4.5.5-.6 1.1-1 1.8-1.1.5-.1 1.1 0 1.6.2.3.1.5.3.8.3.3 0 .5-.2.8-.3.5-.2 1.1-.3 1.6-.2.7.1 1.4.5 1.8 1.1 1 1.3 1.1 3 .5 4.5 0 .3-.2.7-.3 1-.4.6-.8 1.3-1.4 1.8-.6.5-1.5.9-2.2.7-.3-.1-.5-.2-.7-.2"/></defs><clipPath id="SVGID_2_"><use xlink:href="#SVGID_1_" overflow="visible"/></clipPath><path d="M9.3 3.7c-.5-.6-1.1-1-1.9-1.1-.4-.1-.7 0-1.1 0 .7.2 1.3.6 1.7 1.1 1 1.3 1.1 3.1.5 4.6 0 .4-.2.7-.3 1-.3.7-.8 1.3-1.4 1.8-.3.3-.8.5-1.2.6l.2.1c.7.2 1.6-.2 2.2-.7.6-.5 1.1-1.1 1.4-1.8.2-.3.3-.6.4-1 .6-1.5.6-3.3-.5-4.6z" clip-path="url(#SVGID_2_)" fill="#cf6258"/><path class="st2" d="M1.1.1s.4 1.2 1.1 1.6c.8.6 1.9.2 3-.1-.9-.8-2-.5-2.8-.7C1.6.8 1.1.1 1.1.1"/><path d="M1.1.1s.5.7 1.3.8c.8.2 1.9-.1 2.9.7 0 .1-.2-1-.9-1.4-.5-.3-1.2-.2-2-.1H1.1" fill="#86a938"/><path class="st2" d="M6.2 1.5c-.1.1-.3.1-.5.2 0 .1-.1.2-.2.3-.1.2-.1.3-.2.5 0 .1-.1.5-.1.7l-.1.1-.2-.1c-.1-.5-.1-1.1 0-1.6s.4-1 .9-1c.2 0 .3.1.4.2.1.2.2.5 0 .7"/></svg>