<svg version="1.1" id="Layer_1" xmlns="http://www.w3.org/2000/svg" xmlns:xlink="http://www.w3.org/1999/xlink" x="0" y="0" viewBox="0 0 8.5 10.3" xml:space="preserve"><style>.st0{fill:#86a938}</style><path class="st0" d="M1.3.9c.2.4.6.8 1.3 1.1.6.2 1.3.2 1.7 0-.2-.4-.7-.9-1.3-1.1C2.3.7 1.7.7 1.3.9z"/><path d="M7.2.9c-.1.4-.6.9-1.3 1.1-.6.2-1.2.2-1.6 0 .2-.4.7-.9 1.3-1.1.6-.2 1.2-.2 1.6 0" fill="#6c9431"/><path class="st0" d="M5.5 0c.2.3.1.7-.2 1.2-.3.4-.7.7-1.1.8-.1-.3-.1-.8.2-1.2.2-.4.7-.7 1.1-.8z"/><path class="st0" d="M3 0c-.1.3-.1.7.2 1.2.3.4.7.7 1.1.8.2-.3.1-.7-.2-1.2C3.9.4 3.4.1 3 0z"/><path d="M8 3.1C7.5 2.4 6.8 2 6 2H2.5c-.8 0-1.5.4-2 1.1-.7 1-.7 2.3 0 3.3l1.8 2.8c1 1.5 3.1 1.6 4 0L8 6.4c.7-1 .7-2.4 0-3.3" fill="#cf4948"/><defs><path id="SVGID_1_" d="M8 3.1C7.5 2.4 6.8 2 6 2H2.5c-.8 0-1.5.4-2 1.1-.7 1-.7 2.3 0 3.3l1.8 2.8c1 1.5 3.1 1.6 4 0L8 6.4c.7-1 .7-2.4 0-3.3"/></defs><clipPath id="SVGID_2_"><use xlink:href="#SVGID_1_" overflow="visible"/></clipPath><path d="M2.5 2.8c-.5 0-1 .3-1.3.7-.4.6-.4 1.3-.3 1.9 0 .2.2.3.4.3h.1c.2-.1.3-.3.2-.4-.1-.5 0-1 .2-1.3.2-.3.4-.4.7-.4h.3c.2 0 .4-.2.4-.4-.1-.2-.2-.4-.4-.4h-.3" clip-path="url(#SVGID_2_)" fill="#e16254"/><path d="M4.8 2c.8 0 1.5.4 2 1.1.7 1 .7 2.3 0 3.3L5 9.1c-.3.6-.8.9-1.4 1.1.2.1.4.1.6.1.7 0 1.4-.3 1.8-.9l.2-.2L8 6.4c.3-.5.5-1 .5-1.6 0-.6-.2-1.2-.5-1.7C7.5 2.4 6.8 2 6 2H4.8z" clip-path="url(#SVGID_2_)" fill="#bd4340"/><path fill="#638330" d="M4.8 2H6 4.8z"/></svg>