<svg version="1.1" id="Layer_1" xmlns="http://www.w3.org/2000/svg" xmlns:xlink="http://www.w3.org/1999/xlink" x="0" y="0" viewBox="0 0 10.4 13.6" xml:space="preserve"><style>.st0{fill:#f1d030}.st2{fill:#3e3a39}</style><path class="st0" d="M3.9 13.4c2.7.5 5.5-1.9 6.2-5.5.7-3.6-.9-6.9-3.5-7.5C3.8-.2 1.1 2.3.3 5.9c-.7 3.6.9 6.9 3.6 7.5z"/><defs><path id="SVGID_1_" d="M3.9 13.4c2.7.5 5.5-1.9 6.2-5.5.7-3.6-.9-6.9-3.5-7.5S1.1 2.3.3 5.9c-.7 3.6.9 6.9 3.6 7.5"/></defs><clipPath id="SVGID_2_"><use xlink:href="#SVGID_1_" overflow="visible"/></clipPath><path d="M6.5.3C8.7.7 9.9 4 9.2 7.7c-.7 3.6-3.1 6.2-5.3 5.8 2.7.6 5.5-1.9 6.3-5.6.7-3.7-1-7.1-3.7-7.6zm0 0C3.8-.3 1 2.2.3 5.9c-.7 3.6.9 7 3.6 7.6C1.7 13 .5 9.7 1.2 6 1.9 2.4 4.3-.2 6.5.3z" clip-path="url(#SVGID_2_)" fill="#e6b200"/><path class="st2" d="M3.9 13.4v.1c2.8.6 5.6-2 6.4-5.6C11 4.3 9.4.8 6.6.2 3.8-.4 1 2.2.2 5.8c-.7 3.6.9 7.1 3.7 7.7v-.2C2.6 12.9 1.6 12 1 10.7.4 9.4.2 7.7.5 5.9c.4-1.8 1.2-3.3 2.3-4.2C3.9.7 5.2.3 6.5.5 7.8.8 8.8 1.7 9.4 3c.6 1.3.8 3 .5 4.8-.3 1.8-1.2 3.3-2.3 4.2-1.1 1-2.4 1.4-3.7 1.2v.2z"/><path class="st0" d="M3.9 13.4c1.3.3 3-2.4 3.7-6 .7-3.6.2-6.7-1.1-7-1.3-.3-3 2.4-3.7 6-.7 3.6-.3 6.7 1.1 7z"/><path class="st2" d="M3.9 13.4v.1c.4.1.8-.1 1.2-.3 1.1-.9 2.2-3.1 2.7-5.8.3-1.8.4-3.5.2-4.8-.1-.7-.3-1.2-.5-1.6-.3-.4-.6-.7-1-.8-.3-.1-.7.1-1.1.3-1.1.9-2.2 3.1-2.8 5.8-.4 1.8-.4 3.5-.2 4.8.1.6.3 1.2.5 1.6.2.4.5.7.9.8l.1-.1v-.1c-.3-.1-.5-.3-.7-.6-.6-1.1-.8-3.5-.2-6.2.4-1.8 1-3.3 1.6-4.4.3-.5.7-.9 1-1.2.3-.3.6-.3.9-.3.3-.1.5.2.7.5.6 1.1.8 3.5.2 6.2-.4 1.8-1 3.3-1.6 4.4-.3.5-.7.9-1 1.2-.3.3-.6.3-.9.3v.2z"/><path class="st0" d="M6.4.9c.4.1.8 0 .8-.2S6.9.3 6.5.2c-.4-.1-.8 0-.8.2s.3.4.7.5z"/><path class="st2" d="M6.4.9V1H7c.2 0 .3-.1.4-.3 0-.2-.1-.3-.2-.4L6.6 0v.1V0v.1V0h-.1l-.1.1.1.1V.1C6.4 0 6.1 0 6 0c-.2 0-.3.1-.4.3 0 .2.1.3.2.4.1.2.3.3.6.3V.8C6.2.7 6.1.6 6 .6L5.9.4c.1-.1.3-.1.6 0h.1l.1-.1-.1-.1v.1l.1-.1h-.1v.1-.1.1-.1.1c.2 0 .4.1.5.2l.1.1c-.2.2-.5.2-.8.1v.2z"/></svg>