<svg data-name="Layer 1" xmlns="http://www.w3.org/2000/svg" viewBox="0 0 192.29 200.24"><path d="M55.45 183c1.92-5.72 4.15-11.77 5.79-17.27 1.73-5.81 3.55-11.6 5.32-17.4 3.51-11.48 7.05-23 10.45-34.47l20.38-69.08 11.48-38.9h-9l21.26 67.23L142.31 140q5.94 18.8 11.9 37.59l9.45-5.5a679.88 679.88 0 0 0-58.58-40.78c-19.8-12.38-40.09-24-60.53-35.24-11.51-6.35-23.06-12.62-34.61-18.89L8.35 89.33q6.29-.93 12.6-1.78l-1.79.24 11.8-1.57-1.8.24q30.48-4.09 61.19-6.22T151.61 78q17.29-.08 34.57.47L181.87 68q-14.14 11-28 22.43t-27.45 23.13q-13.5 11.69-26.69 23.74t-26.18 24.6q-12.92 12.46-25.5 25.27l-3.11 3.17a5.82 5.82 0 0 0 8.23 8.23q24.48-25 50.31-48.69 25.66-23.56 52.52-45.76 15.21-12.57 30.82-24.65l-1.23 1 3.66-2.82a7 7 0 0 0 2.5-2.92 5.87 5.87 0 0 0 .31-4 6.33 6.33 0 0 0-5.89-4.48q-35.3-1.43-70.63-.24-35.11 1.19-70.06 5-20.41 2.22-40.67 5.5a6.31 6.31 0 0 0-2.93 1.71 6.76 6.76 0 0 0 1.35 10.44c20.68 10.87 41.34 21.78 61.73 33.21s40.41 23.33 59.82 36.27q16.37 10.91 32 22.83a5.32 5.32 0 0 0 2.85.77 5.74 5.74 0 0 0 5.45-7.16q-11-33.51-22-67l-21.91-66.66-12.32-37.47a4.65 4.65 0 0 0-9 0L80.2 73.08c-6.53 23.1-13.08 46.19-19.38 69.36l-5.28 19.38c-1.79 6.58-3.29 13.25-4.91 19.88-.76 3.14 3.79 4.36 4.81 1.33z" fill="#ed1f78"/></svg>