<svg id="Layer_1" data-name="Layer 1" xmlns="http://www.w3.org/2000/svg" viewBox="0 0 18.72 18.98"><defs><style>.cls-1{fill:#fff}.cls-3{fill:#68c7ed}</style></defs><path class="cls-1" d="M685.53 388.34a5.59 5.59 0 1 0-5.59-5.59 5.59 5.59 0 0 0 5.59 5.59z" transform="translate(-673.7 -375.52)"/><path d="M690.35 377.58a7 7 0 0 0-9.92 0 7.16 7.16 0 0 0-.5 9.43l-1.16 1.18-.38-.39-4.68 4.75 1.9 1.91 4.68-4.75-.38-.39 1.16-1.18a7 7 0 0 0 9.32-.57 7.15 7.15 0 0 0 0-10zm-1.45 8.54a4.89 4.89 0 0 1-7 0 5 5 0 0 1 0-7 4.89 4.89 0 0 1 7 0 5 5 0 0 1 0 7z" transform="translate(-673.7 -375.52)" fill="#0092a0"/><path class="cls-1" d="M685.42 379.3a3.31 3.31 0 0 0-2.71 1.42" transform="translate(-673.7 -375.52)"/><path class="cls-3" d="M685.42 378.7a3.91 3.91 0 0 0-3.21 1.67l1 .69a2.71 2.71 0 0 1 2.22-1.16v-1.2z" transform="translate(-673.7 -375.52)"/><path class="cls-1" d="M682.26 381.6a3.34 3.34 0 0 0-.16 1" transform="translate(-673.7 -375.52)"/><path class="cls-3" d="M681.69 381.41a3.9 3.9 0 0 0-.18 1.19h1.2a2.71 2.71 0 0 1 .13-.83l-1.14-.37z" transform="translate(-673.7 -375.52)"/></svg>