<svg data-name="Layer 1" xmlns="http://www.w3.org/2000/svg" viewBox="0 0 37.62 10.41"><path d="M4.26 8.81a4.07 4.07 0 0 1-3-1.26 4.47 4.47 0 0 1 0-6.17 4.07 4.07 0 0 1 3-1.26.77.77 0 0 1 .81.81.82.82 0 0 1-.23.6.78.78 0 0 1-.58.23 2.54 2.54 0 0 0-1.89.78 2.8 2.8 0 0 0 0 3.85 2.54 2.54 0 0 0 1.89.78.78.78 0 0 1 .58.23.82.82 0 0 1 .23.6.77.77 0 0 1-.81.81zM6.1 5.61a1 1 0 0 1 0-1.42 1 1 0 0 1 1.39 0 1 1 0 0 1 0 1.42 1 1 0 0 1-1.39 0zM12.4 4.67a1.37 1.37 0 0 0 1-.43 1.43 1.43 0 0 0 .42-1 1.41 1.41 0 0 0-.42-1 1.38 1.38 0 0 0-1-.43 1.36 1.36 0 0 0-1 .43 1.42 1.42 0 0 0-.42 1V8a.77.77 0 0 1-.81.81.77.77 0 0 1-.57-.23.8.8 0 0 1-.23-.58V3.24a3 3 0 0 1 .88-2.21 3.07 3.07 0 0 1 4.33 0 3.21 3.21 0 0 1 0 4.42 2.92 2.92 0 0 1-2.17.9.76.76 0 0 1-.58-.23.83.83 0 0 1-.22-.6.8.8 0 0 1 .22-.59.77.77 0 0 1 .58-.22zM21.05 4.77l-1.52 1.52a.8.8 0 0 1-.56.26.77.77 0 0 1-.58-.26.83.83 0 0 1-.24-.6.81.81 0 0 1 .26-.57l.86-.86h-.31a1.36 1.36 0 0 0-1 .43 1.42 1.42 0 0 0-.42 1 1.44 1.44 0 0 0 .42 1 1.35 1.35 0 0 0 1 .43h1.06a.77.77 0 0 1 .58.22.81.81 0 0 1 .22.59.83.83 0 0 1-.22.6.76.76 0 0 1-.58.23h-1.06a2.9 2.9 0 0 1-2.16-.9 3.22 3.22 0 0 1 0-4.42 3 3 0 0 1 4.36.05.8.8 0 0 1 .24.56.81.81 0 0 1-.35.67zM28.02 10.41a2.47 2.47 0 0 1-1.83-.75 2.57 2.57 0 0 1-.74-1.87V5.21a1 1 0 0 0-.28-.69.91.91 0 0 0-.67-.29 1 1 0 0 0-1 1v2.76a.77.77 0 0 1-.81.81.77.77 0 0 1-.58-.22.81.81 0 0 1-.22-.59V5.21a2.54 2.54 0 0 1 .74-1.86 2.59 2.59 0 0 1 3.66 0 2.54 2.54 0 0 1 .74 1.86v2.57a1 1 0 0 0 .28.7.92.92 0 0 0 .68.29.78.78 0 0 1 .58.23.82.82 0 0 1 .23.6.77.77 0 0 1-.81.81zM31.22 4.21a1.36 1.36 0 0 0-1 .43 1.44 1.44 0 0 0-.42 1 1.42 1.42 0 0 0 .42 1 1.36 1.36 0 0 0 1 .43.78.78 0 0 1 .58.23.82.82 0 0 1 .23.6.77.77 0 0 1-.81.81 2.9 2.9 0 0 1-2.16-.9 3.21 3.21 0 0 1 0-4.41 2.9 2.9 0 0 1 2.16-.9.78.78 0 0 1 .58.23.82.82 0 0 1 .23.6.77.77 0 0 1-.81.81zM34.71.29a1 1 0 0 1 0 1.42 1 1 0 0 1-1.39 0 1 1 0 0 1 0-1.42 1 1 0 0 1 1.39 0zm.11 3.12a.72.72 0 0 0-.81-.81.77.77 0 0 0-.58.22.81.81 0 0 0-.22.59v4.56a.81.81 0 0 0 .22.59.77.77 0 0 0 .58.22.77.77 0 0 0 .81-.81V3.41zM37.62.94v7a.77.77 0 0 1-.81.81.77.77 0 0 1-.58-.22.81.81 0 0 1-.22-.59v-7a.81.81 0 0 1 .22-.59.77.77 0 0 1 .58-.22.72.72 0 0 1 .81.81z"/></svg>