<svg xmlns="http://www.w3.org/2000/svg" xmlns:xlink="http://www.w3.org/1999/xlink" viewBox="0 0 7.1 7.1"><path d="M3.5 7.1c2 0 3.5-1.6 3.5-3.5S5.5 0 3.5 0 0 1.6 0 3.5s1.6 3.6 3.5 3.6z" fill="#fff"/><defs><path id="a" d="M3.5 7.1c2 0 3.5-1.6 3.5-3.5S5.5 0 3.5 0 0 1.6 0 3.5s1.6 3.6 3.5 3.6"/></defs><clipPath id="b"><use xlink:href="#a" overflow="visible"/></clipPath><path d="M3.5 5.2c.9 0 1.7-.7 1.7-1.7 0-.9-.7-1.7-1.7-1.7-.9 0-1.7.7-1.7 1.7.1 1 .8 1.7 1.7 1.7z" clip-path="url(#b)" fill="#fff"/><path d="M3.5 5.2v.6c1.3 0 2.3-1 2.3-2.3 0-1.3-1-2.3-2.3-2.3-1.2 0-2.3 1-2.3 2.3 0 1.2 1 2.3 2.3 2.3V4.6c-.5 0-1-.5-1-1.1 0-.5.5-1 1-1 .6 0 1.1.5 1.1 1.1 0 .6-.5 1.1-1.1 1.1v.5z" clip-path="url(#b)" fill="#e4007f"/></svg>