<svg version="1.1" id="Layer_1" xmlns="http://www.w3.org/2000/svg" xmlns:xlink="http://www.w3.org/1999/xlink" x="0" y="0" viewBox="0 0 18.4 18.4" xml:space="preserve"><style>.st0{fill:#95b860}.st1,.st2,.st3{clip-path:url(#SVGID_2_);fill:#69a16d}.st2,.st3{clip-path:url(#SVGID_4_)}.st3{fill:#f4e8d1}</style><path class="st0" d="M15.1.3c.4.4.4 1.1 0 1.5.4-.4 1.1-.4 1.5 0 .4.4.4 1.1 0 1.5.4-.4 1.1-.4 1.5 0 .4.4.4 1.1 0 1.5l-.5.5c-1.2 1.2-3.2 1.2-4.5 0-1.2-1.2-1.2-3.2 0-4.5l.5-.5c.5-.4 1.1-.4 1.5 0zM.8 13.1c1.2-1.2 3.2-1.2 4.5 0 1.2 1.2 1.2 3.2 0 4.5l-.5.5c-.4.4-1.1.4-1.5 0-.4-.4-.4-1.1 0-1.5-.4.4-1.1.4-1.5 0-.4-.4-.4-1.1 0-1.5-.4.4-1.1.4-1.5 0-.4-.4-.4-1.1 0-1.5l.5-.5z"/><defs><path id="SVGID_1_" d="M15.1.3c.4.4.4 1.1 0 1.5.4-.4 1.1-.4 1.5 0 .4.4.4 1.1 0 1.5.4-.4 1.1-.4 1.5 0 .4.4.4 1.1 0 1.5l-.5.5c-1.2 1.2-3.2 1.2-4.5 0-1.2-1.2-1.2-3.2 0-4.5l.5-.5c.5-.4 1.1-.4 1.5 0M.8 13.1c1.2-1.2 3.2-1.2 4.5 0 1.2 1.2 1.2 3.2 0 4.5l-.5.5c-.4.4-1.1.4-1.5 0-.4-.4-.4-1.1 0-1.5-.4.4-1.1.4-1.5 0-.4-.4-.4-1.1 0-1.5-.4.4-1.1.4-1.5 0-.4-.4-.4-1.1 0-1.5l.5-.5"/></defs><clipPath id="SVGID_2_"><use xlink:href="#SVGID_1_" overflow="visible"/></clipPath><path class="st1" d="M5.1 13.9l-.9.9c-.2.2-.5.2-.7 0-.2-.2-.2-.5 0-.7l.9-.9c.2-.2.5-.2.7 0 .2.2.2.5 0 .7z"/><path class="st1" d="M4.6 13.7H3.4c-.3 0-.5-.2-.5-.5s.2-.5.5-.5h1.2c.3 0 .5.2.5.5s-.2.5-.5.5z"/><path class="st1" d="M5.6 13.7V15c0 .3-.2.5-.5.5s-.5-.2-.5-.5v-1.2c0-.3.2-.5.5-.5.3-.1.5.1.5.4zM13.9 5.1l.9-.9c.2-.2.2-.5 0-.7-.2-.2-.5-.2-.7 0l-.9.9c-.2.2-.2.5 0 .7.2.2.5.2.7 0z"/><path class="st1" d="M13.7 4.6V3.4c0-.3-.2-.5-.5-.5s-.5.2-.5.5v1.2c0 .3.2.5.5.5s.5-.2.5-.5z"/><path class="st1" d="M13.7 5.6H15c.3 0 .5-.2.5-.5s-.2-.5-.5-.5h-1.2c-.3 0-.5.2-.5.5-.1.3.1.5.4.5z"/><path class="st0" d="M8.9 4.8L4.8 8.9c-1.3 1.3-1.3 3.5 0 4.8 1.3 1.3 3.5 1.3 4.8 0l4.1-4.1c1.3-1.3 1.3-3.5 0-4.8-1.4-1.3-3.5-1.3-4.8 0z"/><g><defs><path id="SVGID_3_" d="M8.9 4.8L4.8 8.9c-1.3 1.3-1.3 3.5 0 4.8 1.3 1.3 3.5 1.3 4.8 0l4.1-4.1c1.3-1.3 1.3-3.5 0-4.8-1.4-1.3-3.5-1.3-4.8 0"/></defs><clipPath id="SVGID_4_"><use xlink:href="#SVGID_3_" overflow="visible"/></clipPath><path class="st2" d="M5.9 7.7L4.8 8.9l-.2.1 1.5 5.5c.3.1.7.2 1.1.2.2 0 .4 0 .6-.1L5.9 7.7zM8.8 4.8L7.5 6.1l2 7.6.1-.1 1.2-1.2-2-7.6zM12.2 3.9c-.3-.1-.6-.1-.9-.1-.3 0-.5 0-.7.1l1.9 7 1.3-1.3-1.6-5.7z"/><path class="st3" d="M8.4 11.8c-.3-.3-.8-.3-1.1 0-.3.3-.3.8 0 1.1.3.3.8.3 1.1 0 .3-.3.3-.8 0-1.1zM6.6 11.6c-.2-.2-.5-.2-.7 0-.2.2-.2.5 0 .7.2.2.5.2.7 0 .2-.2.2-.5 0-.7z"/></g></svg>