<svg id="Layer_1" xmlns="http://www.w3.org/2000/svg" xmlns:xlink="http://www.w3.org/1999/xlink" viewBox="0 0 37.1 37.1"><style>.st0{fill:#c1b9b4}</style><path class="st0" d="M7.2 13.6c0 2-1.6 3.5-3.5 3.5S.2 15.5.2 13.6 1.7 10 3.7 10s3.5 1.6 3.5 3.6z"/><defs><path id="SVGID_1_" d="M7.2 13.6c0 2-1.6 3.5-3.5 3.5S.2 15.5.2 13.6 1.7 10 3.7 10s3.5 1.6 3.5 3.6"/></defs><clipPath id="SVGID_2_"><use xlink:href="#SVGID_1_" overflow="visible"/></clipPath><path d="M3.4 12.3c0 .5-.4.9-.9.9s-.9-.4-.9-.9.4-.9.9-.9.9.4.9.9z" clip-path="url(#SVGID_2_)" fill="#d7d1ce"/><path d="M5.6 12.4c-.2 1.6-1.4 2.8-2.9 3h-.3c-.7 0-1 1-.3 1.3.6.3 1.3.5 2 .4C5.7 17 7 15.6 7.2 14c.1-.6 0-1.2-.3-1.8-.3-.7-1.3-.5-1.3.2z" clip-path="url(#SVGID_2_)" fill="#a9a09a"/><path d="M7.2 13.6h-.1c0 1.9-1.5 3.4-3.4 3.4S.3 15.5.3 13.6s1.5-3.4 3.4-3.4 3.4 1.5 3.4 3.4h.2c0-2-1.6-3.7-3.7-3.7-2 0-3.7 1.6-3.7 3.7s1.6 3.7 3.7 3.7c2 0 3.7-1.6 3.7-3.7h-.1z"/><path class="st0" d="M7.2 23.5c0 2-1.6 3.5-3.5 3.5S.2 25.4.2 23.5c0-2 1.6-3.5 3.5-3.5s3.5 1.6 3.5 3.5z"/><defs><path id="SVGID_3_" d="M7.2 23.5c0 2-1.6 3.5-3.5 3.5S.2 25.4.2 23.5c0-2 1.6-3.5 3.5-3.5s3.5 1.6 3.5 3.5"/></defs><clipPath id="SVGID_4_"><use xlink:href="#SVGID_3_" overflow="visible"/></clipPath><path d="M3.4 22.2c0 .5-.4.9-.9.9s-.9-.4-.9-.9.4-.9.9-.9.9.4.9.9z" clip-path="url(#SVGID_4_)" fill="#d7d1ce"/><path d="M5.6 22.3c-.2 1.6-1.4 2.8-2.9 3h-.3c-.7 0-1 1-.3 1.3.6.3 1.3.5 2 .4 1.7-.1 3-1.5 3.2-3.1.1-.6 0-1.2-.3-1.8-.4-.7-1.4-.5-1.4.2z" clip-path="url(#SVGID_4_)" fill="#a9a09a"/><path d="M7.2 23.5h-.1c0 1.9-1.5 3.4-3.4 3.4S.3 25.4.3 23.5s1.5-3.4 3.4-3.4 3.4 1.5 3.4 3.4h.2c0-2-1.6-3.7-3.7-3.7-2 0-3.7 1.6-3.7 3.7 0 2 1.6 3.7 3.7 3.7 2 0 3.7-1.6 3.7-3.7h-.1z"/><path class="st0" d="M17.1 18.5c0 2-1.6 3.5-3.5 3.5-2 0-3.5-1.6-3.5-3.5 0-2 1.6-3.5 3.5-3.5s3.5 1.6 3.5 3.5z"/><defs><path id="SVGID_5_" d="M17.1 18.5c0 2-1.6 3.5-3.5 3.5-2 0-3.5-1.6-3.5-3.5 0-2 1.6-3.5 3.5-3.5s3.5 1.6 3.5 3.5"/></defs><clipPath id="SVGID_6_"><use xlink:href="#SVGID_5_" overflow="visible"/></clipPath><path d="M13.3 17.3c0 .5-.4.9-.9.9s-.9-.4-.9-.9.4-.9.9-.9.9.4.9.9z" clip-path="url(#SVGID_6_)" fill="#d7d1ce"/><path d="M15.5 17.4c-.2 1.6-1.4 2.8-2.9 3h-.3c-.7 0-1 1-.3 1.3.6.3 1.3.5 2 .4 1.7-.1 3-1.5 3.2-3.1.1-.6 0-1.2-.3-1.8-.3-.7-1.3-.6-1.4.2z" clip-path="url(#SVGID_6_)" fill="#a9a09a"/><path d="M17.1 18.5H17c0 1.9-1.5 3.4-3.4 3.4s-3.4-1.5-3.4-3.4 1.5-3.4 3.4-3.4 3.4 1.5 3.4 3.4h.2c0-2-1.6-3.7-3.7-3.7-2 0-3.7 1.6-3.7 3.7 0 2 1.6 3.7 3.7 3.7 2 0 3.7-1.6 3.7-3.7h-.1z"/><path class="st0" d="M27.1 18.5c0 2-1.6 3.5-3.5 3.5-2 0-3.5-1.6-3.5-3.5 0-2 1.6-3.5 3.5-3.5s3.5 1.6 3.5 3.5z"/><defs><path id="SVGID_7_" d="M27.1 18.5c0 2-1.6 3.5-3.5 3.5-2 0-3.5-1.6-3.5-3.5 0-2 1.6-3.5 3.5-3.5s3.5 1.6 3.5 3.5"/></defs><clipPath id="SVGID_8_"><use xlink:href="#SVGID_7_" overflow="visible"/></clipPath><path d="M23.3 17.3c0 .5-.4.9-.9.9s-.9-.4-.9-.9.4-.9.9-.9.9.4.9.9z" clip-path="url(#SVGID_8_)" fill="#d7d1ce"/><path d="M25.4 17.4c-.2 1.6-1.4 2.8-2.9 3h-.3c-.7 0-1 1-.3 1.3.6.3 1.3.5 2 .4 1.7-.1 3-1.5 3.2-3.1.1-.6 0-1.2-.3-1.8-.3-.7-1.3-.6-1.4.2z" clip-path="url(#SVGID_8_)" fill="#a9a09a"/><path d="M27.1 18.5H27c0 1.9-1.5 3.4-3.4 3.4s-3.4-1.5-3.4-3.4 1.5-3.4 3.4-3.4 3.4 1.5 3.4 3.4h.2c0-2-1.6-3.7-3.7-3.7-2 0-3.7 1.6-3.7 3.7 0 2 1.6 3.7 3.7 3.7 2 0 3.7-1.6 3.7-3.7h-.1z"/><path class="st0" d="M17.1 3.7c0 2-1.6 3.5-3.5 3.5-2 0-3.5-1.6-3.5-3.5 0-2 1.6-3.5 3.5-3.5 1.9-.1 3.5 1.5 3.5 3.5z"/><defs><path id="SVGID_9_" d="M17.1 3.7c0 2-1.6 3.5-3.5 3.5-2 0-3.5-1.6-3.5-3.5 0-2 1.6-3.5 3.5-3.5 1.9-.1 3.5 1.5 3.5 3.5"/></defs><clipPath id="SVGID_10_"><use xlink:href="#SVGID_9_" overflow="visible"/></clipPath><path d="M13.3 2.4c0 .5-.4.9-.9.9s-.9-.4-.9-.9.4-.9.9-.9.9.4.9.9z" clip-path="url(#SVGID_10_)" fill="#d7d1ce"/><path d="M15.5 2.5c-.2 1.6-1.4 2.8-2.9 3h-.3c-.7 0-1 1-.3 1.3.6.3 1.3.5 2 .4 1.7-.1 3-1.5 3.2-3.1.1-.6 0-1.2-.3-1.8-.3-.7-1.3-.6-1.4.2z" clip-path="url(#SVGID_10_)" fill="#a9a09a"/><path d="M17.1 3.7H17c0 1.9-1.5 3.4-3.4 3.4s-3.4-1.5-3.4-3.4S11.7.3 13.6.3 17 1.8 17 3.7h.2c0-2-1.6-3.7-3.7-3.7-2 0-3.7 1.6-3.7 3.7 0 2 1.6 3.7 3.7 3.7 2 0 3.7-1.6 3.7-3.7h-.1z"/><path class="st0" d="M27.1 3.7c0 2-1.6 3.5-3.5 3.5-2 0-3.5-1.6-3.5-3.5 0-2 1.6-3.5 3.5-3.5 1.9-.1 3.5 1.5 3.5 3.5z"/><g><defs><path id="SVGID_11_" d="M27.1 3.7c0 2-1.6 3.5-3.5 3.5-2 0-3.5-1.6-3.5-3.5 0-2 1.6-3.5 3.5-3.5 1.9-.1 3.5 1.5 3.5 3.5"/></defs><clipPath id="SVGID_12_"><use xlink:href="#SVGID_11_" overflow="visible"/></clipPath><path d="M23.3 2.4c0 .5-.4.9-.9.9s-.9-.4-.9-.9.4-.9.9-.9.9.4.9.9z" clip-path="url(#SVGID_12_)" fill="#d7d1ce"/><path d="M25.4 2.5c-.2 1.6-1.4 2.8-2.9 3h-.3c-.7 0-1 1-.3 1.3.6.3 1.3.5 2 .4 1.7-.1 3-1.5 3.2-3.1.1-.6 0-1.2-.3-1.8-.3-.7-1.3-.6-1.4.2z" clip-path="url(#SVGID_12_)" fill="#a9a09a"/></g><path d="M27.1 3.7H27c0 1.9-1.5 3.4-3.4 3.4s-3.4-1.5-3.4-3.4S21.7.3 23.6.3 27 1.8 27 3.7h.2c0-2-1.6-3.7-3.7-3.7-2 0-3.7 1.6-3.7 3.7 0 2 1.6 3.7 3.7 3.7 2 0 3.7-1.6 3.7-3.7h-.1z"/><path class="st0" d="M17.1 33.4c0 2-1.6 3.5-3.5 3.5-2 0-3.5-1.6-3.5-3.5 0-2 1.6-3.5 3.5-3.5s3.5 1.6 3.5 3.5z"/><g><defs><path id="SVGID_13_" d="M17.1 33.4c0 2-1.6 3.5-3.5 3.5-2 0-3.5-1.6-3.5-3.5 0-2 1.6-3.5 3.5-3.5s3.5 1.6 3.5 3.5"/></defs><clipPath id="SVGID_14_"><use xlink:href="#SVGID_13_" overflow="visible"/></clipPath><path d="M13.3 32.1c0 .5-.4.9-.9.9s-.9-.4-.9-.9.4-.9.9-.9.9.4.9.9z" clip-path="url(#SVGID_14_)" fill="#d7d1ce"/><path d="M15.5 32.3c-.2 1.6-1.4 2.8-2.9 3h-.3c-.7 0-1 1-.3 1.3.6.3 1.3.5 2 .4 1.7-.1 3-1.5 3.2-3.1.1-.6 0-1.2-.3-1.8-.3-.8-1.3-.6-1.4.2z" clip-path="url(#SVGID_14_)" fill="#a9a09a"/></g><path d="M17.1 33.4H17c0 1.9-1.5 3.4-3.4 3.4s-3.4-1.5-3.4-3.4 1.5-3.4 3.4-3.4 3.4 1.5 3.4 3.4h.2c0-2-1.6-3.7-3.7-3.7-2 0-3.7 1.6-3.7 3.7 0 2 1.6 3.7 3.7 3.7 2 0 3.7-1.6 3.7-3.7h-.1z"/><path class="st0" d="M27.1 33.4c0 2-1.6 3.5-3.5 3.5-2 0-3.5-1.6-3.5-3.5 0-2 1.6-3.5 3.5-3.5s3.5 1.6 3.5 3.5z"/><g><defs><path id="SVGID_15_" d="M27.1 33.4c0 2-1.6 3.5-3.5 3.5-2 0-3.5-1.6-3.5-3.5 0-2 1.6-3.5 3.5-3.5s3.5 1.6 3.5 3.5"/></defs><clipPath id="SVGID_16_"><use xlink:href="#SVGID_15_" overflow="visible"/></clipPath><path d="M23.3 32.1c0 .5-.4.9-.9.9s-.9-.4-.9-.9.4-.9.9-.9.9.4.9.9z" clip-path="url(#SVGID_16_)" fill="#d7d1ce"/><path d="M25.4 32.3c-.2 1.6-1.4 2.8-2.9 3h-.3c-.7 0-1 1-.3 1.3.6.3 1.3.5 2 .4 1.7-.1 3-1.5 3.2-3.1.1-.6 0-1.2-.3-1.8-.3-.8-1.3-.6-1.4.2z" clip-path="url(#SVGID_16_)" fill="#a9a09a"/></g><path d="M27.1 33.4H27c0 1.9-1.5 3.4-3.4 3.4s-3.4-1.5-3.4-3.4 1.5-3.4 3.4-3.4 3.4 1.5 3.4 3.4h.2c0-2-1.6-3.7-3.7-3.7-2 0-3.7 1.6-3.7 3.7 0 2 1.6 3.7 3.7 3.7 2 0 3.7-1.6 3.7-3.7h-.1z"/><path class="st0" d="M37 13.6c0 2-1.6 3.5-3.5 3.5-2 0-3.5-1.6-3.5-3.5s1.6-3.5 3.5-3.5c1.9-.1 3.5 1.5 3.5 3.5z"/><g><defs><path id="SVGID_17_" d="M37 13.6c0 2-1.6 3.5-3.5 3.5-2 0-3.5-1.6-3.5-3.5s1.6-3.5 3.5-3.5c1.9-.1 3.5 1.5 3.5 3.5"/></defs><clipPath id="SVGID_18_"><use xlink:href="#SVGID_17_" overflow="visible"/></clipPath><path d="M33.2 12.3c0 .5-.4.9-.9.9s-.9-.4-.9-.9.4-.9.9-.9.9.4.9.9z" clip-path="url(#SVGID_18_)" fill="#d7d1ce"/><path d="M35.3 12.4c-.2 1.6-1.4 2.8-2.9 3h-.3c-.7 0-1 1-.3 1.3.6.3 1.3.5 2 .4 1.7-.1 3-1.5 3.2-3.1.1-.6 0-1.2-.3-1.8-.3-.7-1.3-.5-1.4.2z" clip-path="url(#SVGID_18_)" fill="#a9a09a"/></g><path d="M37 13.6h-.1c0 1.9-1.5 3.4-3.4 3.4s-3.4-1.5-3.4-3.4 1.5-3.4 3.4-3.4 3.4 1.5 3.4 3.4h.2c0-2-1.6-3.7-3.7-3.7-2 0-3.7 1.6-3.7 3.7s1.6 3.7 3.7 3.7c2 0 3.7-1.6 3.7-3.7H37z"/><path class="st0" d="M37 23.5c0 2-1.6 3.5-3.5 3.5-2 0-3.5-1.6-3.5-3.5 0-2 1.6-3.5 3.5-3.5s3.5 1.6 3.5 3.5z"/><g><defs><path id="SVGID_19_" d="M37 23.5c0 2-1.6 3.5-3.5 3.5-2 0-3.5-1.6-3.5-3.5 0-2 1.6-3.5 3.5-3.5s3.5 1.6 3.5 3.5"/></defs><clipPath id="SVGID_20_"><use xlink:href="#SVGID_19_" overflow="visible"/></clipPath><path d="M33.2 22.2c0 .5-.4.9-.9.9s-.9-.4-.9-.9.4-.9.9-.9.9.4.9.9z" clip-path="url(#SVGID_20_)" fill="#d7d1ce"/><path d="M35.3 22.3c-.2 1.6-1.4 2.8-2.9 3h-.3c-.7 0-1 1-.3 1.3.6.3 1.3.5 2 .4 1.7-.1 3-1.5 3.2-3.1.1-.6 0-1.2-.3-1.8-.3-.7-1.3-.5-1.4.2z" clip-path="url(#SVGID_20_)" fill="#a9a09a"/></g><path d="M37 23.5h-.1c0 1.9-1.5 3.4-3.4 3.4s-3.4-1.5-3.4-3.4 1.5-3.4 3.4-3.4 3.4 1.5 3.4 3.4h.2c0-2-1.6-3.7-3.7-3.7-2 0-3.7 1.6-3.7 3.7 0 2 1.6 3.7 3.7 3.7 2 0 3.7-1.6 3.7-3.7H37z"/></svg>