<svg id="Layer_1" xmlns="http://www.w3.org/2000/svg" viewBox="0 0 120.5 87.9"><style>.st0{fill:#eceae8}</style><path class="st0" d="M119.1 86.5v-85H112v17H63.8v-17h-7.1v39H8.5v-39H1.4v85h7.1v-39h48.2v39h7.1v-17H112v17h7.1zM112 62.4H63.8V25.5H112v36.9z"/><path class="st0" d="M119.1 86.5h1.4V0h-9.9v17H65.2V0h-9.9v39H9.9V0H0v87.9h9.9v-39h45.4v39h9.9v-17h45.4v17h9.9v-1.4h-1.4V85h-5.7V68h-51v17h-4.3V46h-51v39H2.8V2.8h4.3v39h51v-39h4.3v17h51v-17h4.3v83.6h1.4V85v1.5zM112 62.4V61H65.2V27h45.4v35.4h1.4V61v1.4h1.4V24.1h-51v39.7h51v-1.4H112z"/></svg>