<svg xmlns="http://www.w3.org/2000/svg" xmlns:xlink="http://www.w3.org/1999/xlink" viewBox="0 0 7.3 7.3"><path d="M7.2 3.7c0 2-1.6 3.5-3.5 3.5-2 0-3.5-1.6-3.5-3.5C.2 1.7 1.8.2 3.7.2 5.6.1 7.2 1.7 7.2 3.7z" fill="#c1b9b4"/><defs><path id="a" d="M7.2 3.7c0 2-1.6 3.5-3.5 3.5-2 0-3.5-1.6-3.5-3.5C.2 1.7 1.8.2 3.7.2 5.6.1 7.2 1.7 7.2 3.7"/></defs><clipPath id="b"><use xlink:href="#a" overflow="visible"/></clipPath><path d="M3.4 2.4c0 .5-.4.9-.9.9s-.9-.4-.9-.9.4-.9.9-.9.9.4.9.9z" clip-path="url(#b)" fill="#d7d1ce"/><path d="M5.6 2.5c-.2 1.6-1.4 2.8-2.9 3h-.3c-.7 0-1 1-.3 1.3.6.3 1.3.5 2 .4 1.7-.1 3-1.5 3.2-3.1.1-.6 0-1.2-.3-1.8-.4-.7-1.4-.6-1.4.2z" clip-path="url(#b)" fill="#a9a09a"/><path d="M7.2 3.7h-.1c0 1.9-1.5 3.4-3.4 3.4S.3 5.6.3 3.7 1.8.3 3.7.3s3.4 1.5 3.4 3.4h.2c0-2-1.6-3.7-3.7-3.7C1.6 0 0 1.6 0 3.7c0 2 1.6 3.7 3.7 3.7 2 0 3.7-1.6 3.7-3.7h-.2z"/></svg>