<svg version="1.1" id="Layer_1" xmlns="http://www.w3.org/2000/svg" x="0" y="0" viewBox="0 0 12.8 12.8" xml:space="preserve"><style>.st0{fill:#71509e}.st3{fill:#c0b4d8}.st4{fill:#dbd0e6}.st5{fill:#ac98c8}.st6{fill:#cdbedd}</style><path class="st0" d="M6.4 0C2.9 0 0 2.9 0 6.4s2.9 6.4 6.4 6.4c3.5 0 6.4-2.9 6.4-6.4S9.9 0 6.4 0m0 9.1c-1.5 0-2.7-1.2-2.7-2.7 0-1.5 1.2-2.7 2.7-2.7 1.5 0 2.7 1.2 2.7 2.7 0 1.5-1.2 2.7-2.7 2.7"/><path d="M6.4.1C3 .1.2 2.9.2 6.3c0 3.4 2.8 6.2 6.2 6.2 3.4 0 6.2-2.8 6.2-6.2C12.6 2.9 9.8.1 6.4.1m0 8.9C4.9 9 3.7 7.8 3.7 6.3s1.2-2.6 2.6-2.6C7.9 3.7 9 4.9 9 6.3S7.9 9 6.4 9" fill="#8c6faf"/><path d="M11.2 3.4c-.6-1.1-1.4-1.6-2.5-2.1-1-.5-2.6-.7-4-.3-1.4.4-2.7 1.4-3.2 2.8-.5 1.5-.6 3.6.4 4.8 2 2.5 5.7 3.7 8.7.6 1.7-1.6 1.6-4 .6-5.8M6.5 9.7C4.4 9.7 2.8 8.1 2.9 6c0-1.8.7-2.8 2.4-3.4 1.1-.4 2.1-.4 3.2.4 1 .7 1.6 1.5 1.6 2.8 0 1.1 0 2.2-.9 3-.8.8-1.7.9-2.7.9" fill="#bba1cb"/><path class="st3" d="M6.6.4c-.6 0-1.9.2-2.2.7.1-.1.2-.1.3-.1C5.3.8 5.8.8 6.4.8c.9 0 1.7.2 2.4.5 1 .6 1.9 1.1 2.5 2.1.1.2.2.3.2.5.1-.4-.3-1-.6-1.3C9.9 1.4 9 .6 6.8.5L6.6.4"/><path class="st4" d="M6.4.7c-.5 0-1.1.1-1.7.3-.1 0-.2 0-.3.1l-.1.1c-.2.8.4.8.9.9.8 0 1.8-.1 2.6.2 1 .4 1.4.7 1.9 1.2.3.3.7.7 1.1.7.1 0 .2 0 .4-.1s.3-.2.3-.4c-.1-.2-.1-.3-.2-.5-.6-1.1-1.4-1.6-2.5-2.1C8.1.9 7.3.7 6.4.7"/><path class="st3" d="M3.4 1.4h-.2c-.6.2-1 .6-1.2 1 0 .1-.1.3-.1.4.6-.6 1.1-1 1.7-1.4h-.2"/><path class="st4" d="M3.6 1.4c-.6.4-1.1.8-1.5 1.4 0 .1.1.2.2.3.1 0 .2.1.4.1H3c.3-.2.8-.6 1-.9.1-.4 0-.8-.4-.9"/><path class="st0" d="M4.3 3.5c1-.9 2.7-1.1 3.9-.4.5.3 1 .8 1.3 1.4.1.3.3 1.5-.2.9-.5-.5-.3-.8-1.1-1.5-.5-.5-1.4-.6-2.1-.5-.6.1-1.4.3-1.9.8-.1.1-.4.4-.4.1-.1-.4.2-.6.5-.8zM4.2 11.9c-.9-.3-2.2-1.3-2.8-2.2-.1-.2-.9-1.7-.1-1.2.4.3.8 1.6 2.5 2.3 3.8 1.6 5.5-.1 6.4-.7.2-.1.9-.6.7 0-.2.5-.7.8-1.1 1.1-1.7 1.3-3.8 1.3-5.6.7"/><path class="st5" d="M3 7.2c.5 1.5 1.8 2.5 3.4 2.5 1 0 1.9-.2 2.7-.9l.3-.3c-.1 0-.2 0-.3.1-.6.3-1.1.9-2.5.9h-.1c-2.4 0-3-2-3.1-2-.2-.2-.3-.3-.4-.3"/><path class="st6" d="M3 7.2c-.3 0-.4.7-.3 1 .2.7.6 1 1.1 1.5.7.6 1.7.9 2.7.9.8 0 1.7-.2 2.4-.7.9-.6 1.1-1.4.6-1.4l-.3.3c-.8.8-1.7.9-2.7.9-1.7 0-3-1-3.5-2.5"/><path class="st5" d="M10 7.3l-.1.1c-.3.1-.3.6-.2.8.2-.3.3-.6.3-.9"/><path class="st6" d="M10.2 7.3h-.1c-.1.3-.2.6-.4.9.1 0 .2.1.3.1.1 0 .2 0 .3-.1.2-.1.5-.4.4-.6-.2-.2-.4-.3-.5-.3"/></svg>