<svg version="1.1" id="Layer_1" xmlns="http://www.w3.org/2000/svg" xmlns:xlink="http://www.w3.org/1999/xlink" x="0" y="0" viewBox="0 0 17 17" xml:space="preserve"><style>.st0{fill:#e9b31b}.st1{clip-path:url(#SVGID_2_);fill:#e38c19}</style><path class="st0" d="M16.7 3.6c-.5-.5-1.2-.5-1.7 0 .5-.5.5-1.2 0-1.7s-1.2-.5-1.7 0c.5-.5.5-1.2 0-1.7s-1.2-.5-1.7 0L11 1c-1.4 1.4-1.4 3.6 0 5s3.6 1.4 5 0l.7-.7c.4-.5.4-1.2 0-1.7zM6 16c1.4-1.4 1.4-3.6 0-5s-3.6-1.4-5 0l-.7.7c-.5.5-.5 1.2 0 1.7s1.2.5 1.7 0c-.5.5-.5 1.2 0 1.7s1.2.5 1.7 0c-.5.5-.5 1.2 0 1.7s1.2.5 1.7 0L6 16z"/><defs><path id="SVGID_1_" d="M16.7 3.6c-.5-.5-1.2-.5-1.7 0 .5-.5.5-1.2 0-1.7s-1.2-.5-1.7 0c.5-.5.5-1.2 0-1.7s-1.2-.5-1.7 0L11 1c-1.4 1.4-1.4 3.6 0 5s3.6 1.4 5 0l.7-.7c.4-.5.4-1.2 0-1.7M6 16c1.4-1.4 1.4-3.6 0-5s-3.6-1.4-5 0l-.7.7c-.5.5-.5 1.2 0 1.7s1.2.5 1.7 0c-.5.5-.5 1.2 0 1.7s1.2.5 1.7 0c-.5.5-.5 1.2 0 1.7s1.2.5 1.7 0L6 16"/></defs><clipPath id="SVGID_2_"><use xlink:href="#SVGID_1_" overflow="visible"/></clipPath><path class="st1" d="M11.2 5.1l1-1c.2-.2.6-.2.8 0 .2.2.2.6 0 .8l-1 1c-.2.2-.6.2-.8 0-.2-.2-.2-.6 0-.8z"/><path class="st1" d="M11.8 5.3h1.4c.3 0 .5.2.5.5s-.2.5-.5.5h-1.4c-.3 0-.5-.2-.5-.5-.1-.2.2-.5.5-.5z"/><path class="st1" d="M10.7 5.3V4c0-.3.2-.5.5-.5s.5.2.5.5v1.4c0 .3-.2.5-.5.5s-.5-.3-.5-.6zM5.1 11.2l-1 1c-.2.2-.2.6 0 .8.2.2.6.2.8 0l1-1c.2-.2.2-.6 0-.8-.2-.2-.6-.2-.8 0z"/><path class="st1" d="M5.3 11.8v1.4c0 .3.2.5.5.5s.5-.2.5-.5v-1.4c0-.3-.2-.5-.5-.5-.2-.1-.5.2-.5.5z"/><path class="st1" d="M5.3 10.7H4c-.3 0-.5.2-.5.5s.2.5.5.5h1.4c.3 0 .5-.2.5-.5s-.3-.5-.6-.5z"/><path class="st0" d="M11.4 5.6c1.6 1.6 1.6 4.3 0 5.9-1.6 1.6-4.3 1.6-5.9 0-1.6-1.6-1.6-4.3 0-5.9 1.7-1.7 4.3-1.7 5.9 0z"/><g><defs><path id="SVGID_3_" d="M11.4 5.6c1.6 1.6 1.6 4.3 0 5.9-1.6 1.6-4.3 1.6-5.9 0-1.6-1.6-1.6-4.3 0-5.9 1.7-1.7 4.3-1.7 5.9 0"/></defs><clipPath id="SVGID_4_"><use xlink:href="#SVGID_3_" overflow="visible"/></clipPath><path d="M6.5 8.9c.3-.3.3-.7 0-1-.3-.3-.7-.3-1 0-.3.3-.3.7 0 1 .2.3.7.3 1 0zm-.5.7c-.2.2-.2.5 0 .6.2.2.5.2.6 0 .2-.2.2-.5 0-.6-.1-.2-.4-.2-.6 0z" clip-path="url(#SVGID_4_)" fill="#f4e8d1"/></g></svg>