<svg id="Layer_1" xmlns="http://www.w3.org/2000/svg" xmlns:xlink="http://www.w3.org/1999/xlink" viewBox="0 0 34.3 35.7"><style>.st0{fill:#c1b9b4}</style><path class="st0" d="M20.7 17.8c0 2-1.6 3.5-3.5 3.5-2 0-3.5-1.6-3.5-3.5s1.6-3.5 3.5-3.5 3.5 1.6 3.5 3.5z"/><defs><path id="SVGID_1_" d="M20.7 17.8c0 2-1.6 3.5-3.5 3.5s-3.5-1.6-3.5-3.5 1.6-3.5 3.5-3.5 3.5 1.6 3.5 3.5"/></defs><clipPath id="SVGID_2_"><use xlink:href="#SVGID_1_" overflow="visible"/></clipPath><path d="M16.9 16.5c0 .5-.4.9-.9.9s-.9-.4-.9-.9.4-.9.9-.9.9.4.9.9z" clip-path="url(#SVGID_2_)" fill="#d7d1ce"/><path d="M19.1 16.7c-.2 1.6-1.4 2.8-2.9 3h-.3c-.7 0-1 1-.3 1.3.6.3 1.3.5 2 .4 1.7-.1 3-1.5 3.2-3.1.1-.6 0-1.2-.3-1.8-.4-.7-1.4-.6-1.4.2z" clip-path="url(#SVGID_2_)" fill="#a9a09a"/><path d="M20.7 17.8h-.1c0 1.9-1.5 3.4-3.4 3.4s-3.4-1.5-3.4-3.4 1.5-3.4 3.4-3.4 3.4 1.5 3.4 3.4h.2c0-2-1.6-3.7-3.7-3.7s-3.7 1.6-3.7 3.7 1.6 3.7 3.7 3.7 3.7-1.6 3.7-3.7h-.1z"/><path class="st0" d="M20.7 3.7c0 2-1.6 3.5-3.5 3.5-2 0-3.5-1.6-3.5-3.5S15.3.2 17.2.2c1.9-.1 3.5 1.5 3.5 3.5z"/><defs><path id="SVGID_3_" d="M20.7 3.7c0 2-1.6 3.5-3.5 3.5s-3.5-1.6-3.5-3.5S15.3.2 17.2.2s3.5 1.5 3.5 3.5"/></defs><clipPath id="SVGID_4_"><use xlink:href="#SVGID_3_" overflow="visible"/></clipPath><path d="M16.9 2.4c0 .5-.4.9-.9.9s-.9-.4-.9-.9.4-.9.9-.9.9.4.9.9z" clip-path="url(#SVGID_4_)" fill="#d7d1ce"/><path d="M19.1 2.5c-.2 1.6-1.4 2.8-2.9 3h-.3c-.7 0-1 1-.3 1.3.6.3 1.3.5 2 .4 1.7-.1 3-1.5 3.2-3.1.1-.6 0-1.2-.3-1.8-.4-.7-1.4-.6-1.4.2z" clip-path="url(#SVGID_4_)" fill="#a9a09a"/><path d="M20.7 3.7h-.1c0 1.9-1.5 3.4-3.4 3.4s-3.4-1.5-3.4-3.4S15.3.3 17.2.3s3.4 1.5 3.4 3.4h.2c0-2-1.6-3.7-3.7-3.7s-3.7 1.6-3.7 3.7c0 2 1.6 3.7 3.7 3.7s3.7-1.6 3.7-3.7h-.1z"/><path class="st0" d="M20.7 32c0 2-1.6 3.5-3.5 3.5-2 0-3.5-1.6-3.5-3.5s1.6-3.5 3.5-3.5 3.5 1.6 3.5 3.5z"/><defs><path id="SVGID_5_" d="M20.7 32c0 2-1.6 3.5-3.5 3.5S13.6 34 13.6 32s1.6-3.5 3.5-3.5 3.6 1.6 3.6 3.5"/></defs><clipPath id="SVGID_6_"><use xlink:href="#SVGID_5_" overflow="visible"/></clipPath><path d="M16.9 30.7c0 .5-.4.9-.9.9s-.9-.4-.9-.9.4-.9.9-.9.9.4.9.9z" clip-path="url(#SVGID_6_)" fill="#d7d1ce"/><path d="M19.1 30.8c-.2 1.6-1.4 2.8-2.9 3h-.3c-.7 0-1 1-.3 1.3.6.3 1.3.5 2 .4 1.7-.1 3-1.5 3.2-3.1.1-.6 0-1.2-.3-1.8-.4-.7-1.4-.5-1.4.2z" clip-path="url(#SVGID_6_)" fill="#a9a09a"/><path d="M20.7 32h-.1c0 1.9-1.5 3.4-3.4 3.4s-3.4-1.5-3.4-3.4 1.5-3.4 3.4-3.4 3.4 1.5 3.4 3.4h.2c0-2-1.6-3.7-3.7-3.7S13.5 30 13.5 32s1.6 3.7 3.7 3.7c2 0 3.7-1.6 3.7-3.7h-.2z"/><path class="st0" d="M12.4 6.4c0 2-1.6 3.5-3.5 3.5-2 0-3.5-1.6-3.5-3.5S7 2.9 8.9 2.9c1.9-.1 3.5 1.5 3.5 3.5z"/><defs><path id="SVGID_7_" d="M12.4 6.4c0 2-1.6 3.5-3.5 3.5-2 0-3.5-1.6-3.5-3.5S7 2.9 8.9 2.9c1.9-.1 3.5 1.5 3.5 3.5"/></defs><clipPath id="SVGID_8_"><use xlink:href="#SVGID_7_" overflow="visible"/></clipPath><path d="M8.6 5.1c0 .5-.4.9-.9.9s-.9-.4-.9-.9.4-.9.9-.9.9.4.9.9z" clip-path="url(#SVGID_8_)" fill="#d7d1ce"/><path d="M10.7 5.2c-.2 1.6-1.4 2.8-2.9 3h-.3c-.7 0-1 1-.3 1.3.6.3 1.3.5 2 .4 1.7-.1 3-1.5 3.2-3.1.1-.6 0-1.2-.3-1.8-.3-.7-1.3-.5-1.4.2z" clip-path="url(#SVGID_8_)" fill="#a9a09a"/><path d="M12.4 6.4h-.1c0 1.9-1.5 3.4-3.4 3.4S5.5 8.3 5.5 6.4C5.4 4.5 6.9 3 8.8 3s3.4 1.5 3.4 3.4H12.5c0-2-1.6-3.7-3.7-3.7-2 0-3.7 1.6-3.7 3.7 0 2 1.6 3.7 3.7 3.7 2 0 3.7-1.6 3.7-3.7h-.1z"/><path class="st0" d="M29 6.4c0 2-1.6 3.5-3.5 3.5S22 8.3 22 6.4s1.6-3.5 3.5-3.5S29 4.4 29 6.4z"/><defs><path id="SVGID_9_" d="M29 6.4c0 2-1.6 3.5-3.5 3.5S22 8.3 22 6.4s1.6-3.5 3.5-3.5S29 4.4 29 6.4"/></defs><clipPath id="SVGID_10_"><use xlink:href="#SVGID_9_" overflow="visible"/></clipPath><path d="M25.2 5.1c0 .5-.4.9-.9.9s-.9-.4-.9-.9.4-.9.9-.9.9.4.9.9z" clip-path="url(#SVGID_10_)" fill="#d7d1ce"/><path d="M27.4 5.2c-.2 1.6-1.4 2.8-2.9 3h-.3c-.7 0-1 1-.3 1.3.6.3 1.3.5 2 .4 1.7-.1 3-1.5 3.2-3.1.1-.6 0-1.2-.3-1.8-.4-.7-1.4-.5-1.4.2z" clip-path="url(#SVGID_10_)" fill="#a9a09a"/><path d="M29 6.4h-.1c0 1.9-1.5 3.4-3.4 3.4s-3.4-1.5-3.4-3.4S23.6 3 25.5 3s3.4 1.5 3.4 3.4h.2c0-2-1.6-3.7-3.7-3.7-2 0-3.7 1.6-3.7 3.7 0 2 1.6 3.7 3.7 3.7s3.7-1.6 3.7-3.7H29z"/><path class="st0" d="M7.2 13.5c0 2-1.6 3.5-3.5 3.5-2 0-3.5-1.6-3.5-3.5 0-2 1.6-3.5 3.5-3.5 1.9-.1 3.5 1.5 3.5 3.5z"/><defs><path id="SVGID_11_" d="M7.2 13.5c0 2-1.6 3.5-3.5 3.5-2 0-3.5-1.6-3.5-3.5 0-2 1.6-3.5 3.5-3.5 1.9-.1 3.5 1.5 3.5 3.5"/></defs><clipPath id="SVGID_12_"><use xlink:href="#SVGID_11_" overflow="visible"/></clipPath><path d="M3.4 12.2c0 .5-.4.9-.9.9s-.9-.4-.9-.9.4-.9.9-.9.9.4.9.9z" clip-path="url(#SVGID_12_)" fill="#d7d1ce"/><path d="M5.6 12.3c-.2 1.6-1.4 2.8-2.9 3h-.3c-.7 0-1 1-.3 1.3.6.3 1.3.5 2 .4 1.7-.1 3-1.5 3.2-3.1.1-.6 0-1.2-.3-1.8-.4-.7-1.4-.6-1.4.2z" clip-path="url(#SVGID_12_)" fill="#a9a09a"/><path d="M7.2 13.5h-.1c0 1.9-1.5 3.4-3.4 3.4S.3 15.4.3 13.5s1.5-3.4 3.4-3.4 3.4 1.5 3.4 3.4h.2c0-2-1.6-3.7-3.7-3.7-2 0-3.7 1.6-3.7 3.7 0 2 1.6 3.7 3.7 3.7 2 0 3.7-1.6 3.7-3.7h-.1z"/><path class="st0" d="M34.2 13.5c0 2-1.6 3.5-3.5 3.5s-3.5-1.6-3.5-3.5c0-2 1.6-3.5 3.5-3.5s3.5 1.5 3.5 3.5z"/><g><defs><path id="SVGID_13_" d="M34.2 13.5c0 2-1.6 3.5-3.5 3.5s-3.5-1.6-3.5-3.5c0-2 1.6-3.5 3.5-3.5s3.5 1.5 3.5 3.5"/></defs><clipPath id="SVGID_14_"><use xlink:href="#SVGID_13_" overflow="visible"/></clipPath><path d="M30.4 12.2c0 .5-.4.9-.9.9s-.9-.4-.9-.9.4-.9.9-.9.9.4.9.9z" clip-path="url(#SVGID_14_)" fill="#d7d1ce"/><path d="M32.5 12.3c-.2 1.6-1.4 2.8-2.9 3h-.3c-.7 0-1 1-.3 1.3.6.3 1.3.5 2 .4 1.7-.1 3-1.5 3.2-3.1.1-.6 0-1.2-.3-1.8-.3-.7-1.3-.6-1.4.2z" clip-path="url(#SVGID_14_)" fill="#a9a09a"/></g><path d="M34.2 13.5H34c0 1.9-1.5 3.4-3.4 3.4s-3.4-1.5-3.4-3.4 1.5-3.4 3.4-3.4 3.4 1.5 3.4 3.4H34.3c0-2-1.6-3.7-3.7-3.7-2 0-3.7 1.6-3.7 3.7 0 2 1.6 3.7 3.7 3.7 2 0 3.7-1.6 3.7-3.7h-.1z"/><path class="st0" d="M7.2 22.2c0 2-1.6 3.5-3.5 3.5-2 0-3.5-1.6-3.5-3.5 0-2 1.6-3.5 3.5-3.5s3.5 1.6 3.5 3.5z"/><g><defs><path id="SVGID_15_" d="M7.2 22.2c0 2-1.6 3.5-3.5 3.5-2 0-3.5-1.6-3.5-3.5 0-2 1.6-3.5 3.5-3.5s3.5 1.6 3.5 3.5"/></defs><clipPath id="SVGID_16_"><use xlink:href="#SVGID_15_" overflow="visible"/></clipPath><path d="M3.4 20.9c0 .5-.4.9-.9.9s-.9-.4-.9-.9.4-.9.9-.9.9.4.9.9z" clip-path="url(#SVGID_16_)" fill="#d7d1ce"/><path d="M5.6 21c-.2 1.6-1.4 2.8-2.9 3h-.3c-.7 0-1 1-.3 1.3.6.3 1.3.5 2 .4 1.7-.1 3-1.5 3.2-3.1.1-.6 0-1.2-.3-1.8-.4-.7-1.4-.5-1.4.2z" clip-path="url(#SVGID_16_)" fill="#a9a09a"/></g><path d="M7.2 22.2h-.1c0 1.9-1.5 3.4-3.4 3.4S.3 24.1.3 22.2s1.5-3.4 3.4-3.4 3.4 1.5 3.4 3.4h.2c0-2-1.6-3.7-3.7-3.7-2 0-3.7 1.6-3.7 3.7 0 2 1.6 3.7 3.7 3.7 2 0 3.7-1.6 3.7-3.7h-.1z"/><path class="st0" d="M34.2 22.2c0 2-1.6 3.5-3.5 3.5s-3.5-1.6-3.5-3.5c0-2 1.6-3.5 3.5-3.5s3.5 1.6 3.5 3.5z"/><g><defs><path id="SVGID_17_" d="M34.2 22.2c0 2-1.6 3.5-3.5 3.5s-3.5-1.6-3.5-3.5c0-2 1.6-3.5 3.5-3.5s3.5 1.6 3.5 3.5"/></defs><clipPath id="SVGID_18_"><use xlink:href="#SVGID_17_" overflow="visible"/></clipPath><path d="M30.4 20.9c0 .5-.4.9-.9.9s-.9-.4-.9-.9.4-.9.9-.9.9.4.9.9z" clip-path="url(#SVGID_18_)" fill="#d7d1ce"/><path d="M32.5 21c-.2 1.6-1.4 2.8-2.9 3h-.3c-.7 0-1 1-.3 1.3.6.3 1.3.5 2 .4 1.7-.1 3-1.5 3.2-3.1.1-.6 0-1.2-.3-1.8-.3-.7-1.3-.5-1.4.2z" clip-path="url(#SVGID_18_)" fill="#a9a09a"/></g><path d="M34.2 22.2H34c0 1.9-1.5 3.4-3.4 3.4s-3.4-1.5-3.4-3.4 1.5-3.4 3.4-3.4 3.4 1.5 3.4 3.4H34.3c0-2-1.6-3.7-3.7-3.7-2 0-3.7 1.6-3.7 3.7 0 2 1.6 3.7 3.7 3.7 2 0 3.7-1.6 3.7-3.7h-.1z"/><path class="st0" d="M12.4 29.3c0 2-1.6 3.5-3.5 3.5-2 0-3.5-1.6-3.5-3.5s1.6-3.5 3.5-3.5 3.5 1.5 3.5 3.5z"/><g><defs><path id="SVGID_19_" d="M12.4 29.3c0 2-1.6 3.5-3.5 3.5-2 0-3.5-1.6-3.5-3.5s1.6-3.5 3.5-3.5 3.5 1.5 3.5 3.5"/></defs><clipPath id="SVGID_20_"><use xlink:href="#SVGID_19_" overflow="visible"/></clipPath><path d="M8.6 28c0 .5-.4.9-.9.9s-.9-.4-.9-.9.4-.9.9-.9.9.4.9.9z" clip-path="url(#SVGID_20_)" fill="#d7d1ce"/><path d="M10.7 28.1c-.2 1.6-1.4 2.8-2.9 3h-.3c-.7 0-1 1-.3 1.3.6.3 1.3.5 2 .4 1.7-.1 3-1.5 3.2-3.1.1-.6 0-1.2-.3-1.8-.3-.7-1.3-.5-1.4.2z" clip-path="url(#SVGID_20_)" fill="#a9a09a"/></g><path d="M12.4 29.3h-.1c0 1.9-1.5 3.4-3.4 3.4s-3.4-1.5-3.4-3.4 1.5-3.4 3.4-3.4 3.4 1.5 3.4 3.4h.2c0-2-1.6-3.7-3.7-3.7s-3.7 1.6-3.7 3.7S6.8 33 8.8 33s3.7-1.6 3.7-3.7h-.1z"/><path class="st0" d="M29 29.3c0 2-1.6 3.5-3.5 3.5S22 31.2 22 29.3s1.6-3.5 3.5-3.5 3.5 1.5 3.5 3.5z"/><g><defs><path id="SVGID_21_" d="M29 29.3c0 2-1.6 3.5-3.5 3.5S22 31.2 22 29.3s1.6-3.5 3.5-3.5 3.5 1.5 3.5 3.5"/></defs><clipPath id="SVGID_22_"><use xlink:href="#SVGID_21_" overflow="visible"/></clipPath><path d="M25.2 28c0 .5-.4.9-.9.9s-.9-.4-.9-.9.4-.9.9-.9.9.4.9.9z" clip-path="url(#SVGID_22_)" fill="#d7d1ce"/><path d="M27.4 28.1c-.2 1.6-1.4 2.8-2.9 3h-.3c-.7 0-1 1-.3 1.3.6.3 1.3.5 2 .4 1.7-.1 3-1.5 3.2-3.1.1-.6 0-1.2-.3-1.8-.4-.7-1.4-.5-1.4.2z" clip-path="url(#SVGID_22_)" fill="#a9a09a"/></g><path d="M29 29.3h-.1c0 1.9-1.5 3.4-3.4 3.4s-3.4-1.5-3.4-3.4 1.5-3.4 3.4-3.4 3.4 1.5 3.4 3.4h.2c0-2-1.6-3.7-3.7-3.7s-3.7 1.6-3.7 3.7 1.6 3.7 3.7 3.7 3.7-1.6 3.7-3.7H29z"/></svg>