<svg xmlns="http://www.w3.org/2000/svg" viewBox="0 0 8.5 8.6"><path d="M7.1.5V.1L2.5 0h-.2c-.1 0-.3 0-.5.2-.1.1-.2.2-.2.3 0 .2 0 .3.1.5.1.1.2.2.3.4l.6.6L.4 4.3s-.2.2-.3.5c-.1.2-.1.4-.1.6 0 .2.2.4.4.6l2.1 2.1s.2.2.5.3c.2.1.4.1.6.1.2 0 .4-.2.6-.3l2.3-2.3.7.7s.1.1.3.2c.1 0 .2.1.3.1.1 0 .4 0 .5-.2.2-.2.2-.4.2-.7l-.1-4.5s0-.5-.4-1C7.8.3 7.5.1 7.1.1v.8c.2 0 .3.1.4.1.1.1.1.2.1.3v.1L7.7 6v.2h.2-.1l.2.2v-.2h-.2l.2.2v-.2l-.1-.1-1-1c-.2-.2-.4-.2-.6 0L3.7 7.6l-.2.2-.3-.1-.1-.1L1 5.5c-.2-.1-.2-.2-.2-.3V5l.1-.1 2.6-2.6c.1-.1.1-.2.1-.3 0-.1 0-.2-.1-.3l-1-1-.1-.1-.2.1h.2V.6l-.2.1h.2-.2l.2.2.1-.1h-.2l.2.2-.3-.3.1.1-.1-.1.1.1h.2l4.6.1V.5z" fill="#5056d6"/></svg>