<svg id="Layer_1" xmlns="http://www.w3.org/2000/svg" viewBox="0 0 120.5 87.9"><style>.st0{fill:#eceae8}</style><path class="st0" d="M1.4 86.5v-85h7.1v17h48.2v-17h7.1v39H112v-39h7.1v85H112v-39H63.8v39h-7.1v-17H8.5v17H1.4zm7.1-24.1h48.2V25.5H8.5v36.9z"/><path class="st0" d="M1.4 86.5H0V0h9.9v17h45.4V0h9.9v39h45.4V0h9.9v87.9h-9.9v-39H65.2v39h-9.9v-17H9.9v17H0v-1.4h1.4V85h5.7V68h51v17h4.3V46h51v39h4.3V2.8h-4.3v39h-51v-39h-4.3v17h-51v-17H2.8v83.6H1.4V85v1.5zm7.1-24.1V61h46.8V27H9.9v35.4H8.5V61v1.4H7.1V24.1h51v39.7h-51v-1.4h1.4z"/></svg>