<svg id="Layer_1" xmlns="http://www.w3.org/2000/svg" viewBox="0 0 205.3 6.9"><style>.st0{fill:#898989}</style><path class="st0" d="M.6 4h204.1c.3 0 .6-.3.6-.6s-.3-.6-.6-.6H.6c-.3 0-.6.3-.6.6 0 .4.3.6.6.6"/><path class="st0" d="M0 .6v5.7c0 .3.3.6.6.6s.6-.3.6-.6V.6C1.2.3.9 0 .6 0S0 .3 0 .6M51 .6v5.7c0 .3.3.6.6.6s.6-.3.6-.6V.6c0-.3-.2-.6-.6-.6-.3 0-.6.3-.6.6M102 .6v5.7c0 .3.3.6.6.6s.6-.3.6-.6V.6c0-.3-.3-.6-.6-.6s-.6.3-.6.6M153.1.6v5.7c0 .3.3.6.6.6s.6-.3.6-.6V.6c0-.3-.3-.6-.6-.6-.4 0-.6.3-.6.6M204.1.6v5.7c0 .3.3.6.6.6s.6-.3.6-.6V.6c0-.3-.3-.6-.6-.6s-.6.3-.6.6"/></svg>