<svg id="Layer_1" xmlns="http://www.w3.org/2000/svg" viewBox="0 0 23.2 139"><style>.st0{fill:#e85298}</style><path class="st0" d="M11.1 2h2.4v1h-2.4V2zm3.8 0h2.4v1h-2.4V2zM23.2 8v2.5h-1V8h1zm0 4v2.5h-1V12h1zm0 3.9v2.5h-1v-2.5h1zm0 4v2.5h-1v-2.5h1zm0 3.9v2.5h-1v-2.5h1zm0 4v2.5h-1v-2.5h1zm0 3.9v2.5h-1v-2.5h1zm0 4v2.5h-1v-2.5h1zm0 3.9v2.5h-1v-2.5h1zm0 4v2.5h-1v-2.5h1zm0 3.9V50h-1v-2.5h1zm0 4V54h-1v-2.5h1zm0 3.9v2.5h-1v-2.5h1zm0 4v2.5h-1v-2.5h1zm0 3.9v2.5h-1v-2.5h1zm0 4v2.5h-1v-2.5h1zm0 3.9v2.5h-1v-2.5h1zm0 4v2.5h-1v-2.5h1zm0 4v2.5h-1v-2.5h1zm0 3.9v2.5h-1v-2.5h1zm0 4v2.5h-1v-2.5h1zm0 3.9v2.5h-1V91h1zm0 4v2.5h-1V95h1zm0 3.9v2.5h-1v-2.5h1zm0 4v2.5h-1v-2.5h1zm0 3.9v2.5h-1v-2.5h1zm0 4v2.5h-1v-2.5h1zm0 3.9v2.5h-1v-2.5h1zm0 4v2.5h-1v-2.5h1zm0 3.9v2.5h-1v-2.5h1zm0 4v2.5h-1v-2.5h1zm0 3.9v2.5h-1v-2.5h1zM17.1 139h-2.5v-1h2.5v1zm-4 0h-2.5v-1h2.5v1zm-3.9 0H6.7v-1h2.5v1zm-4 0H2.7v-1h2.5v1zM8.5 2h1.2v1H8.5V2zm10.1 0h1.2s.7 0 1.5.4l-.3.8c-.3-.1-.6-.2-.8-.2h-1.6V2zm4.3 1.8c.2.4.3.9.3 1.5v1.2h-1V5.3c0-.5-.1-.8-.2-1.1l.9-.4zm.3 130.7v1.2s0 .7-.4 1.5l-.9-.4c.1-.3.2-.6.2-.8v-1.6h1.1v.1zm-1.8 4.2c-.4.2-.9.3-1.5.3h-1.2v-1h1.2c.5 0 .8-.1 1.1-.2l.4.9zm-20.2.3H0v-1h1.2v1z"/><path class="st0" d="M11.3 4.4c0 .5-.3.7-.8.5l-3.1-2c-.4-.2-.4-.6 0-.9L10.6.1c.4-.3.8 0 .8.5v3.8h-.1z"/><path class="st0" d="M14.9 4.4c0 .5-.3.7-.8.5L10.9 3c-.4-.3-.4-.7 0-.9L14.1.2c.4-.3.8 0 .8.5v3.7z"/></svg>