<svg version="1.1" id="Layer_1" xmlns="http://www.w3.org/2000/svg" x="0" y="0" viewBox="0 0 188.3 79.2" xml:space="preserve"><style>.st0{fill:#a9a09a}</style><path class="st0" d="M187.5 19.9l-24.1 6.3v-8.5c0-.1 0-2.3-1.1-4.5-.6-1.1-1.4-2.3-2.7-3.2-1.3-.9-3-1.4-5.3-1.4h-25.5c-.1 0-2.3 0-4.5 1.1-1.1.6-2.3 1.4-3.2 2.7-.9 1.3-1.4 3-1.4 5.3l-24.1-6.3c-.3-.1-.7.1-.7.4-.1.3.1.7.4.7l24.8 6.5c.2 0 .4 0 .5-.1.1-.1.2-.3.2-.5v-.8c0-2 .5-3.5 1.2-4.6 1.1-1.6 2.7-2.5 4.2-2.9.7-.2 1.3-.3 1.8-.4h26.1c2 0 3.5.5 4.6 1.2 1.6 1.1 2.5 2.7 2.9 4.2.2.7.3 1.3.4 1.8v9.9c0 .2.1.4.2.5.1.1.3.2.5.1l24.8-6.5c.3-.1.5-.4.4-.7.3-.2 0-.4-.4-.3zM.8 59.3l24-6.3v8.5s0 2.2 1.1 4.5c.6 1.1 1.4 2.3 2.7 3.2 1.3.9 3 1.4 5.2 1.4h25.5s2.2 0 4.5-1.1c1.1-.6 2.3-1.4 3.2-2.7.9-1.3 1.4-3 1.4-5.2l24.1 6.3c.3.1.6-.1.7-.4.1-.3-.1-.6-.4-.7L68 60.3c-.2 0-.4 0-.5.1-.1.1-.2.3-.2.5v.8c0 2-.5 3.5-1.2 4.6-1.1 1.6-2.7 2.5-4.2 2.9-.7.2-1.3.3-1.8.4H33.9c-2 0-3.5-.5-4.6-1.2-1.6-1.1-2.5-2.7-2.9-4.2-.2-.7-.3-1.3-.4-1.8v-9.9c0-.2-.1-.4-.2-.5-.1-.1-.3-.2-.5-.1L.5 58.1c-.3.1-.5.4-.4.7 0 .4.3.6.7.5zM92.6 11.4l-24.1 6.3V9.1c0-.1 0-2.3-1.1-4.5-.6-1.1-1.4-2.3-2.7-3.2-1.3-.9-3-1.4-5.2-1.4H33.9c-.1 0-2.2 0-4.5 1.1-1.1.6-2.3 1.4-3.2 2.7-.9 1.3-1.4 3-1.4 5.3L.8 2.9c-.4-.1-.7.1-.8.4-.1.3.1.6.5.7l24.8 6.5c.2 0 .4 0 .5-.1.1-.1.2-.3.2-.5v-.8c0-2 .5-3.5 1.2-4.6C28.3 2.9 30 2 31.4 1.6c.7-.2 1.3-.3 1.8-.4h26.1c2 0 3.5.5 4.6 1.2 1.6 1.1 2.5 2.7 2.9 4.2.2.7.3 1.3.4 1.8v9.9c0 .2.1.4.2.5.1.1.3.2.5.1l24.8-6.5c.3-.1.5-.4.4-.7.1-.2-.2-.4-.5-.3zM95.7 67.8l24.1-6.3V70s.2 2.2 1.5 4.5c.7 1.1 1.6 2.3 3 3.1 1.4.9 3.1 1.4 5.3 1.4h25.5c.1 0 2.1 0 4.2-1.1 1-.6 2.1-1.4 2.9-2.7.8-1.3 1.3-3 1.3-5.2l24.1 6.3c.3.1.6-.1.7-.4.1-.3-.1-.6-.4-.7L163 68.7c-.2 0-.4 0-.5.1-.1.1-.2.3-.2.5v.8c0 2-.5 3.5-1.1 4.6-1 1.6-2.5 2.5-3.8 2.9-.6.2-1.2.3-1.6.4h-26.1c-2 0-3.5-.5-4.7-1.2-1.7-1.1-2.7-2.8-3.3-4.2-.3-.7-.4-1.4-.5-1.8 0-.2-.1-.4-.1-.5v-.1l-.6.1h.6V61c0-.2-.1-.4-.2-.5-.1-.1-.3-.2-.5-.1l-24.8 6.5c-.3.1-.5.4-.4.7-.1.1.2.3.5.2z"/></svg>