<svg id="Layer_1" xmlns="http://www.w3.org/2000/svg" viewBox="0 0 163.1 20.3"><style>.st0{fill:#e85298}</style><path class="st0" d="M4.4 7.1c.5 0 .7-.3.5-.8l-2-3.1c-.2-.5-.6-.5-.9 0L.1 6.3c-.3.4 0 .8.5.8h3.8z"/><path class="st0" d="M4.4 10.6c.5 0 .7-.3.5-.8l-2-3.1c-.2-.4-.6-.4-.9 0L.1 9.9c-.3.4 0 .8.5.8h3.8v-.1z"/><path class="st0" d="M2 8.3v2.4h1V8.3H2zM2 12v2.4h1V12H2zM8 20.3h2.5v-1H8v1zm4 0h2.5v-1H12v1zm4 0h2.5v-1H16v1zm3.9 0h2.5v-1h-2.5v1zm4 0h2.5v-1h-2.5v1zm3.9 0h2.5v-1h-2.5v1zm4 0h2.5v-1h-2.5v1zm4 0h2.5v-1h-2.5v1zm3.9 0h2.5v-1h-2.5v1zm4 0h2.5v-1h-2.5v1zm3.9 0h2.5v-1h-2.5v1zm4 0h2.5v-1h-2.5v1zm4 0h2.5v-1h-2.5v1zm3.9 0H62v-1h-2.5v1zm4 0H66v-1h-2.5v1zm4 0H70v-1h-2.5v1zm3.9 0h2.5v-1h-2.5v1zm4 0h2.5v-1h-2.5v1zm3.9 0h2.5v-1h-2.5v1zm4 0h2.5v-1h-2.5v1zm4 0h2.5v-1h-2.5v1zm3.9 0h2.5v-1h-2.5v1zm4 0h2.5v-1h-2.5v1zm3.9 0h2.5v-1h-2.5v1zm4 0h2.5v-1h-2.5v1zm4 0h2.5v-1h-2.5v1zm3.9 0h2.5v-1H111v1zm4 0h2.5v-1H115v1zm4 0h2.5v-1H119v1zm3.9 0h2.5v-1h-2.5v1zm4 0h2.5v-1h-2.5v1zm3.9 0h2.5v-1h-2.5v1zm4 0h2.5v-1h-2.5v1zm4 0h2.5v-1h-2.5v1zm3.9 0h2.5v-1h-2.5v1zm4 0h2.5v-1h-2.5v1zm3.9 0h2.5v-1h-2.5v1zm4 0h2.5v-1h-2.5v1zM163.1 14.1v-2.6h-1v2.6h1zm0-4.3V7.2h-1v2.6h1zm0-4.2V2.9h-1v2.6h1zM2 5.7v1.2h1V5.7H2zm0 10.1V17s0 .7.4 1.5l.9-.4c-.2-.3-.3-.5-.3-.8v-1.5H2zM3.8 20c.4.2.9.3 1.5.3h1.2v-1H5.3c-.5 0-.8-.1-1.1-.2l-.4.9zm154.8.3h1.2s.7 0 1.5-.4l-.4-.9c-.3.1-.6.2-.8.2h-1.6v1.1h.1zm4.2-1.7c.2-.4.3-.9.3-1.5v-1.3h-1v1.3c0 .5-.1.8-.2 1.1l.9.4zm.3-17.3V0h-1v1.3h1z"/></svg>