<svg id="Layer_1" xmlns="http://www.w3.org/2000/svg" viewBox="0 0 151.8 20.3"><style>.st0{fill:#e85298}</style><path class="st0" d="M149.8 8.3v2.4h-1V8.3h1zm0 3.7v2.4h-1V12h1zM143.8 20.3h-2.5v-1h2.5v1zm-4 0h-2.5v-1h2.5v1zm-4 0h-2.5v-1h2.5v1zm-4 0h-2.5v-1h2.5v1zm-4 0h-2.5v-1h2.5v1zm-3.9 0h-2.5v-1h2.5v1zm-4 0h-2.5v-1h2.5v1zm-4 0h-2.5v-1h2.5v1zm-4 0h-2.5v-1h2.5v1zm-3.9 0h-2.5v-1h2.5v1zm-4 0h-2.5v-1h2.5v1zm-4 0h-2.5v-1h2.5v1zm-4 0h-2.5v-1H96v1zm-3.9 0h-2.5v-1h2.5v1zm-4 0h-2.5v-1h2.5v1zm-4 0h-2.5v-1h2.5v1zm-4 0h-2.5v-1h2.5v1zm-3.9 0h-2.5v-1h2.5v1zm-4 0h-2.5v-1h2.5v1zm-4 0h-2.5v-1h2.5v1zm-4 0h-2.5v-1h2.5v1zm-4 0h-2.5v-1h2.5v1zm-3.9 0h-2.5v-1h2.5v1zm-4 0h-2.5v-1h2.5v1zm-4 0h-2.5v-1h2.5v1zm-4 0h-2.5v-1h2.5v1zm-3.9 0h-2.5v-1h2.5v1zm-4 0h-2.5v-1h2.5v1zm-4 0h-2.5v-1h2.5v1zm-4 0h-2.5v-1h2.5v1zm-3.9 0H22v-1h2.5v1zm-4 0H18v-1h2.5v1zm-4 0H14v-1h2.5v1zm-4 0H10v-1h2.5v1zm-3.9 0H6.1v-1h2.5v1zM0 14.1v-2.6h1v2.6H0zm0-4.3V7.2h1v2.6H0zm0-4.2V2.9h1v2.6H0zM149.8 5.7v1.2h-1V5.7h1zm0 10.1V17s0 .7-.4 1.5l-.9-.4c.1-.3.2-.6.2-.8v-1.6h1.1v.1zM148 20c-.4.2-.9.3-1.5.3h-1.2v-1h1.2c.5 0 .8-.1 1.1-.2l.4.9zm-143.4.3H3.3s-.7 0-1.5-.4l.4-.9c.3.1.6.2.8.2h1.6v1.1zM.3 18.6c-.2-.5-.3-1-.3-1.6v-1.3h1V17c0 .5.1.8.2 1.1l-.9.5zM0 1.3V0h1v1.3H0z"/><path class="st0" d="M151.2 7.1c.5 0 .7-.3.5-.8l-1.9-3.2c-.3-.4-.7-.4-.9 0L147 6.3c-.3.4 0 .8.5.8h3.7z"/><path class="st0" d="M151.2 10.6c.5 0 .7-.3.5-.8l-1.9-3.2c-.3-.4-.7-.4-.9 0L147 9.8c-.3.4 0 .8.5.8h3.7z"/></svg>