<svg id="Layer_1" xmlns="http://www.w3.org/2000/svg" viewBox="0 0 78.1 31.3"><style>.st1{fill:#9dc815}</style><path d="M1.4 8.6v8.5h75s2.8 0 .8-2l-4.5-4.5s-.8-.9-.9-2H1.4z" fill="#8fc31f"/><path class="st1" d="M1.4 8.6V.1h75s2.8 0 .8 2l-4.5 4.5s-.8.9-.9 2H1.4z"/><path class="st1" d="M1.4 8.6h.1V.3h75c.2 0 .5.1.8.2.3.1.4.3.4.5s-.2.6-.7 1.1l-4.5 4.5s-.9.9-.9 2.1h.1v-.2H1.4v.1h.1-.1v.1H72v-.1c0-.5.2-1 .4-1.4.1-.2.2-.3.3-.4l.1-.1-.1-.1.1.1 4.5-4.5c.5-.5.8-.9.8-1.3 0-.2-.1-.4-.3-.6-.5-.3-1.4-.3-1.4-.3H1.3v8.8h.1v-.2z"/><path fill="#898989" d="M0 .1v31.2h1.4V.1H0z"/></svg>