<svg id="Layer_1" xmlns="http://www.w3.org/2000/svg" viewBox="0 0 23.9 139"><style>.st0{fill:#e85298}</style><path class="st0" d="M11.8 137.1h2.4v-1h-2.4v1zm3.8 0H18v-1h-2.4v1zM23.9 131v-2.5h-1v2.5h1zm0-3.9v-2.5h-1v2.5h1zm0-4v-2.5h-1v2.5h1zm0-3.9v-2.5h-1v2.5h1zm0-4v-2.5h-1v2.5h1zm0-3.9v-2.5h-1v2.5h1zm0-4v-2.5h-1v2.5h1zm0-3.9v-2.5h-1v2.5h1zm0-4v-2.5h-1v2.5h1zm0-3.9V93h-1v2.5h1zm0-4V89h-1v2.5h1zm0-3.9v-2.5h-1v2.5h1zm0-4v-2.5h-1v2.5h1zm0-4v-2.5h-1v2.5h1zm0-3.9v-2.5h-1v2.5h1zm0-4v-2.5h-1v2.5h1zm0-3.9v-2.5h-1v2.5h1zm0-4v-2.5h-1v2.5h1zm0-3.9v-2.5h-1v2.5h1zm0-4v-2.5h-1v2.5h1zm0-3.9v-2.5h-1V52h1zm0-4v-2.5h-1V48h1zm0-3.9v-2.5h-1v2.5h1zm0-4v-2.5h-1v2.5h1zm0-3.9v-2.5h-1v2.5h1zm0-4v-2.5h-1v2.5h1zm0-3.9v-2.5h-1v2.5h1zm0-4v-2.5h-1v2.5h1zm0-3.9v-2.5h-1v2.5h1zm0-4V14h-1v2.5h1zm0-3.9V10h-1v2.5h1zm0-4V6h-1v2.5h1zM17.7 0h-2.6v1h2.6V0zm-4.1 0H11v1h2.6V0zM9.5 0H6.9v1h2.6V0zM5.4 0H2.8v1h2.6V0zM9.2 137.1h1.2v-1H9.2v1zm10.2 0h1.2s.7 0 1.5-.4l-.4-.9c-.3.1-.6.2-.8.2h-1.6v1.1h.1zm4.2-1.8c.2-.4.3-.9.3-1.5v-1.2h-1v1.2c0 .5-.1.8-.2 1.1l.9.4zm.3-130.7V3.3s0-.7-.4-1.5l-.9.4c.1.3.2.6.2.8v1.6h1.1zM22.1.3c-.4-.2-.9-.3-1.5-.3h-1.3v1h1.3c.5 0 .8.1 1.1.2l.4-.9zM1.3 0H0v1h1.3V0z"/><path class="st0" d="M11.3 134.7c0-.5-.3-.7-.8-.5l-3.2 1.9c-.4.3-.4.7 0 .9l3.2 1.9c.4.3.8 0 .8-.5v-3.7z"/><path class="st0" d="M14.9 134.7c0-.5-.3-.7-.8-.5l-3.2 1.9c-.4.3-.4.7 0 .9l3.2 1.9c.4.3.8 0 .8-.5v-3.7z"/></svg>