<svg xmlns="http://www.w3.org/2000/svg" viewBox="0 0 53.6 23.6"><path d="M0 .2l.9.4.1-.2L.1 0 0 .2zm1.8.8l.9.4.1-.2-.9-.4-.1.2zm1.8.8l.9.4.1-.2-.9-.4-.1.2zm1.9.8l.9.4.1-.2-.9-.4-.1.2zm1.8.8l.9.4.1-.2-.9-.4-.1.2zm1.8.8l.9.4.1-.2-.9-.4-.1.2zm1.8.8l.9.4.1-.2-.9-.4-.1.2zm1.8.8l.9.4.2-.2-.9-.4-.2.2zm1.9.8l.9.4.1-.2-.9-.4-.1.2zm1.8.8l.9.4.1-.2-.9-.4-.1.2zm1.8.8l.9.4.1-.2-.9-.4-.1.2zM20 9l.9.4.1-.2-.9-.4-.1.2zm1.8.8l.9.4.1-.2-.9-.4-.1.2zm1.9.8l.9.4.1-.2-.9-.4-.1.2zm1.8.8l.9.4.1-.2-.9-.4-.1.2zm1.8.8l.9.4.1-.2-.9-.4-.1.2zm1.8.8l.9.4.1-.2-.9-.4-.1.2zm1.8.8l.9.4.2-.2-1-.4-.1.2zm1.9.8l.9.4.1-.2-.9-.4-.1.2zm1.8.8l.9.4.1-.2-.9-.4-.1.2zm1.8.8l.9.4.1-.2-.9-.4-.1.2zm1.8.8l.9.4.1-.2-.9-.4-.1.2zm1.8.8l.9.4.1-.2-.9-.4-.1.2zm1.9.8l.9.4.1-.2-.9-.4-.1.2zm1.8.8l.9.4.1-.2-.9-.4-.1.2zm1.8.8l.9.4.1-.2-.9-.4-.1.2zm1.8.8l.9.4.1-.2-.9-.4-.1.2z"/><path d="M53.6 23.6L49 19.2l.6 2.7-2.3 1.3 6.3.4"/></svg>