<svg version="1.1" id="Layer_1" xmlns="http://www.w3.org/2000/svg" x="0" y="0" viewBox="0 0 139.1 99.6" xml:space="preserve"><style>.st2{fill:#d1ecfb}.st3{fill:#d8effc}.st4{fill:#c0e5f9}.st5{fill:#ffe500}.st6{fill:#727171}.st10{fill:#666662}.st11{fill:#00afe5}.st12{fill:#fff}</style><path d="M4 38.6S1.5 40 1.5 42.9v14s0 2.8 2.5 4.3l12.1 7s2.5 1.4 4.9 0l12.1-7s2.5-1.4 2.5-4.3v-14s0-2.8-2.5-4.3l-12.1-7s-2.5-1.4-4.9 0L4 38.6z" fill="#fffef3"/><path d="M4 38.6l-.8-1.3c-.1.1-.8.5-1.6 1.4C.8 39.5 0 41 0 42.8v14c0 .1 0 1 .4 2.1.2.6.5 1.2.9 1.8.5.6 1.1 1.2 1.9 1.7l12.1 7c.1.1 1.4.8 3.3.8.9 0 2-.2 3.1-.8l12.1-7c.1-.1.8-.5 1.6-1.4.8-.9 1.6-2.3 1.6-4.2v-14c0-.1 0-1-.4-2.1-.2-.6-.5-1.2-.9-1.8-.5-.6-1.1-1.2-1.9-1.7l-12.1-7c-.1-.1-1.4-.8-3.3-.8-.9 0-2 .2-3.1.8l-12.1 7 .8 1.4.7 1.3 12.1-7c.6-.3 1.1-.4 1.6-.4s1 .1 1.3.2c.2.1.3.1.4.2h.1l12.1 7c.4.2.7.5 1 .9.4.5.6 1 .6 1.5 0 .2.1.4.1.5v.1h.6-.6.6-.6v14c0 1-.4 1.7-.9 2.2-.2.3-.5.5-.6.6l-.2.1.5.8-.4-.8.5.8-.4-.8-12.1 7c-.6.3-1.1.4-1.6.4s-1-.1-1.3-.2c-.2-.1-.3-.1-.4-.2H17l-12.1-7c-.4-.2-.7-.5-1-.9-.4-.5-.6-1-.6-1.5-.3-.2-.3-.4-.3-.5v-.1h-.6.6-.6.6v-14c0-1 .4-1.7.9-2.2.2-.3.5-.5.6-.6l.2-.1-.5-.8.5.8-.5-.8.5.8-.7-1.3z" fill="#a9a09a"/><path class="st2" d="M15.1 52c-1.1.9-2.9 1.5-4.6 1.5-.8 0-1.5-.1-2.2-.3-.4-.1-.8-.4-1.2-.6-.2.5-.4 1-.3 1.7.2 1.5 1.7 2.5 3.2 2.5.4 0 .8-.1 1.1-.2 3.4-1.4 4-4.2 4-4.6"/><path class="st3" d="M8.7 46.4c-1.5 0-2.7 1.5-3 3-.2 1.2.4 2.3 1.3 3 .6-1.1 2-1.7 3.4-1.7 2.4 0 4.6 1 4.6 1.2v.1c.4-.3-2.3-5.5-6.3-5.6"/><path class="st4" d="M10.5 50.7c-1.4 0-2.8.6-3.4 1.7.4.3.8.5 1.2.6.7.2 1.4.3 2.2.3 1.8 0 3.6-.6 4.6-1.5v-.1c.1 0-2.2-1-4.6-1"/><path class="st2" d="M21.6 53.5c-.2.5-1 3.2 1.3 5.9.6.8 1.6 1.2 2.6 1.2.9 0 1.8-.4 2.3-1.1.4-.5.6-1.1.6-1.6-.2 0-.4.1-.6.1-.2 0-.5 0-.7-.1-2.4-.5-4.8-2.5-5.5-4.4"/><path class="st3" d="M27.2 51c-3 0-5.7 2.2-5.6 2.5v-.1s.1-.1.4-.1c.8 0 2.6.3 4.3 1.3 1.2.7 2.2 1.9 2.1 3.2 1.2-.2 2.2-.9 2.6-2 .5-1.4.1-3.3-1.2-4.1-.8-.5-1.7-.7-2.6-.7"/><path class="st4" d="M22 53.4c-.2 0-.3 0-.4.1v.1c.7 1.9 3.1 3.9 5.4 4.3.2 0 .5.1.7.1.2 0 .4 0 .6-.1 0-1.3-.9-2.5-2.1-3.2-1.6-1-3.4-1.3-4.2-1.3"/><path class="st5" d="M16.8 60.5c2 .4 4-1.5 4.7-4.9.7-3.4-.8-4.5-2.7-4.9-2-.4-3.7 0-4.4 3.4-.7 3.4.4 6 2.4 6.4z"/><path d="M18.8 50.7c-1.4-.3-2.7-.2-3.5 1.1 1.2.5 3.9 1.3 5.6-.1-.6-.5-1.3-.8-2.1-1zM21.7 54.2c-2.9.6-6.5-1.1-6.9-1.3-.1.4-.3.8-.3 1.2 0 .2-.1.4-.1.7 3.6 2.7 6.2 2.7 6.7 2.6.2-.5.4-1.1.5-1.8 0-.5.1-1 .1-1.4zM14.2 56.6c.2 2.1 1.2 3.6 2.6 3.9 1 .2 2-.2 2.8-1-2.1-.1-4.4-2-5.4-2.9z"/><path d="M16.1 59.6l.4 1.5.8-1.2-1.2-.3z"/><path class="st6" d="M15.7 38.8c.1-.2.3-.4.6-.3.2.1.4.3.3.6-.1.2-.3.4-.6.3-.2-.1-.4-.4-.3-.6z"/><path class="st6" d="M18.3 39.8c-.4-.5-1.1-.8-2.1-.9v.1c.9 0 1.6.3 2.1.8.4.7.3 1.5.3 1.5h.1s.1-.8-.4-1.5zM25 40.6c0-.3.2-.4.5-.4s.4.2.4.5-.2.4-.5.4-.5-.2-.4-.5z"/><path class="st6" d="M23.2 40.4c-.8.4-1 1.1-1 1.2h.1c-.1 0 .2-.7.9-1.2.6-.2 1.4-.1 2.2.2v-.1c-.9-.3-1.6-.3-2.2-.1z"/><path class="st5" d="M20.7 40.8c3.2.6 5.5 3.5 5 6.6-.5 3.1-3.5 5.1-6.7 4.5-3.2-.6-5.5-3.5-5-6.6.5-3 3.5-5 6.7-4.5z"/><path d="M14.5 45.9c.5-3.1 3.5-5.1 6.7-4.5 1.2.2 2.3.7 3.1 1.5-.9-1-2.2-1.7-3.6-2-3.2-.6-6.3 1.5-6.7 4.5-.3 1.9.5 3.8 1.9 5.1-1.1-1.3-1.7-2.9-1.4-4.6z" fill="#fff06d"/><path d="M22.1 45.9c-.1.4.1.7.3.8.2.1.5-.2.6-.6.1-.4-.1-.7-.3-.8-.2-.1-.5.2-.6.6zM17.3 45.4c-.1.4.1.7.3.7.2 0 .5-.2.5-.6.1-.4-.1-.7-.3-.7-.2 0-.4.2-.5.6z"/><path d="M20.8 48c-.1.5-.2 1.2-.6 1.6l-.1.1c.1-.5-.1-.8-.3-.9-.3-.2-.6-.2-.9.2 0-.3 0-.7.1-1.2.1 0 .8.8 1.8.2z" fill="#a20d15"/><path d="M19.8 48.8c-.3-.2-.6-.2-.9.1.1.3.4 1.3 1.3.8.1-.4-.1-.8-.4-.9z" fill="#eb615e"/><path class="st10" d="M21.2 54l.1-.1s.9.2.9-.6l.1-.1.1.1c-.1.9-1.1.8-1.2.7z"/><path class="st10" d="M22.2 53l.2.1v.2h-.3l.1-.3zM20.9 56h.1s.5.7 1.1.2h.1v.1c-.8.7-1.3-.2-1.3-.3z"/><path class="st10" d="M22.3 56c.1 0 .2.1.1.2 0 .1-.1.2-.2.1-.1 0-.2-.1-.1-.2-.1 0 0-.1.2-.1zM20.5 57.6h.1s-.1.9.7.9l.1.1-.1.1c-.9 0-.8-1-.8-1.1z"/><path class="st10" d="M21.7 58.4l-.1.3h-.2v-.3h.3zM15.2 52.6l-.1-.1s-.9.2-.9-.6l-.1-.1-.1.1c.1.9 1.1.8 1.2.7z"/><path class="st10" d="M14.2 51.6l-.2.1v.2h.3l-.1-.3zM14.8 54.3h-.1s-.5.7-1.1.2h-.1v.1c.7.6 1.2-.2 1.3-.3z"/><path class="st10" d="M13.4 54.3c-.1 0-.2.1-.1.2 0 .1.1.2.2.1.1 0 .2-.1.1-.2 0-.1-.1-.1-.2-.1zM14.5 55.8h-.1s-.2.9-.9.6l-.1.1.1.1c.8.3 1-.7 1-.8zM13.2 56.3l-.1.3.3.1v-.3l-.2-.1z"/><path class="st11" d="M135.1 61s2.5-1.4 2.5-4.3v-14s0-2.8-2.5-4.3l-12.1-7s-2.5-1.4-2.5-4.3v-14s0-2.8-2.5-4.3l-12.1-7s-2.5-1.4-4.9 0L89 9.1s-2.5 1.4-4.9 0L72 2.1s-2.5-1.4-4.9 0L55 9.1s-2.5 1.4-2.5 4.3v14s0 2.8-2.5 4.3l-12.1 7s-2.5 1.4-2.5 4.3v14s0 2.8 2.5 4.3l12.1 7s2.5 1.4 2.5 4.3v14s0 2.8 2.5 4.3l12.1 7s2.5 1.4 4.9 0l12.1-7s2.5-1.4 4.9 0l12.1 7s2.5 1.4 4.9 0l12.1-7s2.5-1.4 2.5-4.3v-14s0-2.8 2.5-4.3l12-7.3z"/><path class="st11" d="M135.1 61l.7 1.3c.1-.1.8-.5 1.6-1.4.8-.9 1.6-2.3 1.6-4.2v-14c0-.1 0-1-.4-2.1-.2-.6-.5-1.2-.9-1.8-.5-.6-1.1-1.2-1.9-1.7l-12.1-7-.4.8.5-.8-.4.8.5-.8c-.1-.1-.6-.4-1-.9s-.7-1.2-.7-2.1v-14c0-.1 0-1-.4-2.1-.2-.6-.5-1.2-.9-1.8-.5-.6-1.1-1.2-1.9-1.7l-12.1-7c-.1-.1-1.4-.8-3.3-.8-.9 0-2 .2-3.1.8l-12.1 7c-.1.1-.9.4-1.8.4-.5 0-1-.1-1.6-.4L72.9.5c-.3.3-1.6-.5-3.5-.5-.9 0-2 .2-3.1.8l-12.1 7c-.1.1-.8.5-1.6 1.4-.8.9-1.6 2.3-1.6 4.2v14h.9-.9.9-.9c0 .1 0 .7-.3 1.3-.3.6-.7 1.2-1.4 1.7l-12.1 7c-.1.1-.8.5-1.6 1.4-.8.7-1.6 2.2-1.6 4v14c0 .1 0 1 .4 2.1.2.6.5 1.2.9 1.8.5.6 1.1 1.2 1.9 1.7l12.1 7 .5-.8-.5.8.5-.8-.5.8c.1.1.6.4 1 .9s.7 1.2.7 2.1v14c0 .1 0 1 .4 2.1.2.6.5 1.2.9 1.8.5.6 1.1 1.2 1.9 1.7l12.1 7c.1.1 1.4.8 3.3.8.9 0 2-.2 3.1-.8l12.1-7c.1-.1.9-.4 1.8-.4.5 0 1 .1 1.6.4l12.1 7c.1.1 1.4.8 3.3.8.9 0 2-.2 3.1-.8l12.1-7c.1-.1.8-.5 1.6-1.4.8-.9 1.6-2.3 1.6-4.2v-14h-.9.9-.9.9c0-.1 0-.7.3-1.3.3-.6.7-1.2 1.4-1.7l12.1-7-.7-1.4-.8-1.3-12.1 7c-.8.5-1.4 1.1-1.9 1.7-.7.9-1 1.9-1.2 2.6-.2.7-.2 1.2-.2 1.3v14c0 1-.4 1.7-.9 2.2-.2.3-.5.5-.6.6l-.2.1.5.8-.5-.8.5.8-.5-.8-12.1 7c-.6.3-1.1.4-1.6.4s-1-.1-1.3-.2c-.2-.1-.3-.1-.4-.2h-.1l-12.1-7c-1.1-.6-2.2-.8-3.1-.8-1.9 0-3.2.8-3.3.8l-12.1 7c-.6.3-1.1.4-1.6.4s-1-.1-1.3-.2c-.2-.1-.3-.1-.4-.2h-.1l-12.1-7c-.4-.2-.7-.5-1-.9-.4-.5-.6-1-.6-1.5 0-.2-.1-.4-.1-.5v-.1h-.6.7-.6.6v-14c0-1.9-.8-3.3-1.6-4.2-.8-.9-1.5-1.3-1.6-1.4l-12.1-7c-.4-.2-.7-.5-1-.9-.4-.5-.6-1-.6-1.5 0-.2-.1-.4-.1-.5v-.1h-.6.6-.6.6v-14c0-1 .4-1.7.9-2.2.2-.3.5-.5.6-.6l.2-.1-.5-.8.4.8-.5-.8.4.8 12.1-7c.8-.5 1.4-1.1 1.9-1.7.7-.9 1-1.9 1.2-2.6.2-.7.2-1.2.2-1.3v-14c0-1 .4-1.7.9-2.2.2-.3.5-.5.6-.6l.2-.1-.5-.8.4.8-.5-.8.4.8 12.1-7c.9-.1 1.4-.2 1.9-.2s1 .1 1.3.2c.2.1.3.1.4.2h.1l12.1 7c1.1.6 2.2.8 3.1.8 1.9 0 3.2-.8 3.3-.8l12.1-7c.6-.3 1.1-.4 1.6-.4s1 .1 1.3.2c.2.1.3.1.4.2h.1l12.1 7c.4.2.7.5 1 .9.4.5.6 1 .6 1.5 0 .2.1.4.1.5v.1h.6-.6.6-.6v14c0 1.9.8 3.3 1.6 4.2.8.9 1.5 1.3 1.6 1.4l12.1 7c.4.2.7.5 1 .9.4.5.6 1 .6 1.5 0 .2.1.4.1.5v.1h.6-.6.6-.6v14c0 1-.4 1.7-.9 2.2-.2.3-.5.5-.6.6l-.2.1.5.8-.5-.8.5.8-.5-.8.8 1.1z"/><path class="st12" d="M89 68s-2.5 1.4-2.5 4.3v14s0 2.8 2.5 4.3l12.1 7s2.5 1.4 4.9 0l12.1-7s2.5-1.4 2.5-4.3v-14s0-2.8-2.5-4.3L106 61s-2.5-1.4-4.9 0L89 68z"/><path class="st11" d="M89 68l-.3-.5s-.7.4-1.4 1.2c-.7.8-1.4 2-1.4 3.6v14s0 .8.3 1.8 1 2.2 2.4 3l12.1 7c.1 0 1.2.7 2.8.7.8 0 1.7-.2 2.7-.7l12.1-7s.7-.4 1.4-1.2c.7-.8 1.4-2 1.4-3.6v-14s0-.8-.3-1.8-1-2.2-2.4-3l-12.1-7c-.1 0-1.2-.7-2.8-.7-.8 0-1.7.2-2.7.7l-12.1 7 .3.5.3.5 12.1-7c.7-.4 1.4-.5 2.1-.5.6 0 1.2.1 1.6.3.2.1.4.1.5.2l.1.1.1-.2-.1.2.1-.2-.1.2 12.1 7c1.1.6 1.6 1.5 1.9 2.3.1.4.2.8.2 1v14.4c0 1.2-.5 2.2-1.1 2.8-.3.3-.6.6-.8.7-.1.1-.2.1-.2.2h-.1l-12.1 7c-.7.4-1.4.5-2.1.6-.6 0-1.2-.1-1.6-.3-.2-.1-.4-.1-.5-.2l-.1-.1-.1.2.1-.2-.1.2.1-.2-12.1-7c-1.1-.6-1.6-1.5-1.9-2.3-.1-.4-.2-.8-.2-1V72.3c0-1.2.5-2.2 1.1-2.8.3-.3.6-.6.8-.7.1-.1.2-.1.2-.2h.1L89 68z"/><path class="st12" d="M55 68s-2.5 1.4-2.5 4.3v14s0 2.8 2.5 4.3l12.1 7s2.5 1.4 4.9 0l12.1-7s2.5-1.4 2.5-4.3v-14s0-2.8-2.5-4.3L72 61s-2.5-1.4-4.9 0L55 68z"/><path class="st11" d="M55 68l-.3-.5s-.7.4-1.4 1.2c-.7.8-1.4 2-1.4 3.6v14s0 .8.3 1.8 1 2.2 2.4 3l12.1 7c.1 0 1.2.7 2.8.7.8 0 1.7-.2 2.7-.7l12.1-7s.7-.4 1.4-1.2c.7-.8 1.4-2 1.4-3.6v-14s0-.8-.3-1.8-1-2.2-2.4-3l-12.1-7c-.1 0-1.2-.7-2.8-.7-.8 0-1.7.2-2.7.7l-12.1 7 .3.5.3.5 12.1-7c.7-.4 1.4-.5 2.1-.5.6 0 1.2.1 1.6.3.2.1.4.1.5.2l.1.1.1-.2-.1.2.1-.2-.1.2 12.1 7c1.1.6 1.6 1.5 1.9 2.3.1.4.2.8.2 1v14.4c0 1.2-.5 2.2-1.1 2.8-.3.3-.6.6-.8.7-.1.1-.2.1-.2.2h-.1l-12.1 7c-.7.4-1.4.5-2.1.6-.6 0-1.2-.1-1.6-.3-.2-.1-.4-.1-.5-.2V97l-.1.2.1-.1-.1.2.1-.1-12.1-7c-1.1-.6-1.6-1.5-1.9-2.3-.1-.4-.2-.8-.2-1V72.5c0-1.2.5-2.2 1.1-2.8.3-.3.6-.6.8-.7.1-.1.2-.1.2-.2h.1L55 68z"/><path class="st12" d="M106 38.6s-2.5 1.4-2.5 4.3v14s0 2.8 2.5 4.3l12.1 7s2.5 1.4 4.9 0l12.1-7s2.5-1.4 2.5-4.3v-14s0-2.8-2.5-4.3l-12.1-7s-2.5-1.4-4.9 0l-12.1 7z"/><path class="st11" d="M106 38.6l-.3-.5s-.7.4-1.4 1.2c-.7.8-1.4 2-1.4 3.6v14s0 .8.3 1.8 1 2.2 2.4 3l12.1 7c.1 0 1.2.7 2.8.7.8 0 1.7-.2 2.7-.7l12.1-7s.7-.4 1.4-1.2c.7-.8 1.4-2 1.4-3.6v-14s0-.8-.3-1.8-1-2.2-2.4-3l-12.1-7c-.1 0-1.2-.7-2.8-.7-.8 0-1.7.2-2.7.7l-12.1 7 .3.5.3.5 12.1-7c.7-.4 1.4-.5 2.1-.5.6 0 1.2.1 1.6.3.2.1.4.1.5.2l.1.1.1-.2-.1.2.1-.2-.1.2 12.1 7c1.1.6 1.6 1.5 1.9 2.3.1.4.2.8.2 1v14.4c0 1.2-.5 2.2-1.1 2.8-.3.3-.6.6-.8.7-.1.1-.2.1-.2.2h-.1l-12.1 7c-.7.4-1.4.5-2.1.5-.6 0-1.2-.1-1.6-.3-.2-.1-.4-.1-.5-.2l-.1-.1-.1.2.1-.2-.1.2.1-.2-12.1-7c-1.1-.6-1.6-1.5-1.9-2.3-.1-.4-.2-.8-.2-1V42.8c0-1.2.5-2.2 1.1-2.8.3-.3.6-.6.8-.7.1-.1.2-.1.2-.2h.1l-.3-.5z"/><path class="st12" d="M72 38.6s-2.5 1.4-2.5 4.3v14s0 2.8 2.5 4.3l12.1 7s2.5 1.4 4.9 0l12.1-7s2.5-1.4 2.5-4.3v-14s0-2.8-2.5-4.3l-12.1-7s-2.5-1.4-4.9 0l-12.1 7z"/><path class="st11" d="M72 38.6l-.3-.5s-.7.4-1.4 1.2c-.7.8-1.4 2-1.4 3.6v14s0 .8.3 1.8 1 2.2 2.4 3l12.1 7s1.2.7 2.8.7c.8 0 1.7-.2 2.7-.7l12.1-7s.7-.4 1.4-1.2c.7-.8 1.4-2 1.4-3.6v-14s0-.8-.3-1.8-1-2.2-2.4-3l-12.1-7c-.1 0-1.2-.7-2.8-.7-.8 0-1.7.2-2.7.7l-12.1 7 .3.5.3.5 12.1-7c.7-.4 1.4-.5 2.1-.5.6 0 1.2.1 1.6.3.2.1.4.1.5.2l.1.1.1-.2-.1.2.1-.2-.1.2 12.1 7c1.1.6 1.6 1.5 1.9 2.3.1.4.2.8.2 1v14.4c0 1.2-.5 2.2-1.1 2.8-.3.3-.6.6-.8.7-.1.1-.2.1-.2.2h-.1l-12.1 7c-.7.4-1.4.5-2.1.5-.6 0-1.2-.1-1.6-.3-.2-.1-.4-.1-.5-.2l-.1-.1-.1.2.1-.2-.1.2.1-.2-12.1-7c-1.1-.6-1.6-1.5-1.9-2.3-.1-.4-.2-.8-.2-1V42.8c0-1.2.5-2.2 1.1-2.8.3-.3.6-.6.8-.7.1-.1.2-.1.2-.2h.1l-.3-.5z"/><path class="st12" d="M38 38.6s-2.5 1.4-2.5 4.3v14s0 2.8 2.5 4.3l12.1 7s2.5 1.4 4.9 0l12.1-7s2.5-1.4 2.5-4.3v-14s0-2.8-2.5-4.3l-12.1-7s-2.5-1.4-4.9 0l-12.1 7z"/><path class="st11" d="M38 38.6l-.3-.5s-.7.4-1.4 1.2c-.7.8-1.4 2-1.4 3.6v14s0 .8.3 1.8 1 2.2 2.4 3l12.1 7c.1 0 1.2.7 2.8.7.8 0 1.7-.2 2.7-.7l12.1-7s.7-.4 1.4-1.2c.7-.8 1.4-2 1.4-3.6v-14s0-.8-.3-1.8-1-2.2-2.4-3l-12.1-7c-.1 0-1.2-.7-2.8-.7-.8 0-1.7.2-2.7.7l-12.1 7 .3.5.3.5 12.1-7c.7-.4 1.4-.5 2.1-.5.6 0 1.2.1 1.6.3.2.1.4.1.5.2l.1.1.1-.2-.1.2.1-.2-.1.2 12.1 7c1.1.6 1.6 1.5 1.9 2.3.1.4.2.8.2 1v14.4c0 1.2-.5 2.2-1.1 2.8-.3.3-.6.6-.8.7-.1.1-.2.1-.2.2h-.1l-12.1 7c-.7.4-1.4.5-2.1.5-.6 0-1.2-.1-1.6-.3-.2-.1-.4-.1-.5-.2l-.1-.1-.1.1.1-.1-.1.1.1-.1-12.1-7c-1.1-.6-1.6-1.5-1.9-2.3-.1-.4-.2-.8-.2-1V42.8c0-1.2.5-2.2 1.1-2.8.3-.3.6-.6.8-.7.1-.1.2-.1.2-.2h.1l-.3-.5z"/><path class="st12" d="M89 9.1s-2.5 1.4-2.5 4.3v14s0 2.8 2.5 4.3l12.1 7s2.5 1.4 4.9 0l12.1-7s2.5-1.4 2.5-4.3v-14s0-2.8-2.5-4.3l-12.1-7s-2.5-1.4-4.9 0L89 9.1z"/><path class="st11" d="M89 9.1l-.3-.5s-.7.4-1.4 1.2c-.7.8-1.4 2-1.4 3.6v14s0 .8.3 1.8 1 2.2 2.4 3l12.1 7c.1 0 1.2.7 2.8.7.8 0 1.7-.2 2.7-.7l12.1-7s.7-.4 1.4-1.2c.7-.8 1.4-2 1.4-3.6v-14s0-.8-.3-1.8-1-2.2-2.4-3l-12.1-7c-.1 0-1.2-.7-2.8-.7-.8 0-1.7.2-2.7.7l-12.1 7 .3.5.3.5 12.1-7c.7-.4 1.4-.5 2.1-.5.6 0 1.2.1 1.6.3.2.1.4.1.5.2l.1.1.1-.2-.1.2.1-.2-.1.2 12.1 7c1.1.6 1.6 1.5 1.9 2.3.1.4.2.8.2 1v14.4c0 1.2-.5 2.2-1.1 2.8-.3.3-.6.6-.8.7-.1.1-.2.1-.2.2h-.1l-12.1 7c-.7.4-1.4.5-2.1.5-.6 0-1.2-.1-1.6-.3-.2-.1-.4-.1-.5-.2l-.1-.1-.1.3.1-.3-.1.3.1-.3-12.1-7c-1.1-.6-1.6-1.5-1.9-2.3-.1-.4-.2-.8-.2-1V13.3c0-1.2.5-2.2 1.1-2.8.3-.3.6-.6.8-.7.1-.1.2-.1.2-.2h.1l-.3-.5z"/><path class="st12" d="M55 9.1s-2.5 1.4-2.5 4.3v14s0 2.8 2.5 4.3l12.1 7s2.5 1.4 4.9 0l12.1-7s2.5-1.4 2.5-4.3v-14s0-2.8-2.5-4.3L72 2.1s-2.5-1.4-4.9 0L55 9.1z"/><path class="st11" d="M55 9.1l-.3-.5s-.7.4-1.4 1.2c-.7.8-1.4 2-1.4 3.6v14s0 .8.3 1.8 1 2.2 2.4 3l12.1 7c.1 0 1.2.7 2.8.7.8 0 1.7-.2 2.7-.7l12.1-7s.7-.4 1.4-1.2c.7-.8 1.4-2 1.4-3.6v-14s0-.8-.3-1.8-1-2.2-2.4-3l-12.1-7c-.1 0-1.2-.7-2.8-.7-.8 0-1.7.2-2.7.7l-12.1 7 .3.5.3.5 12.1-7c.7-.4 1.4-.5 2.1-.5.6 0 1.2.1 1.6.3.2.1.4.1.5.2l.1.1.1-.1-.1.1.1-.1-.1.1 12.1 7c1.1.6 1.6 1.5 1.9 2.3.1.4.2.8.2 1v14.4c0 1.2-.5 2.2-1.1 2.8-.3.3-.6.6-.8.7l-.1.1h-.1l-12.1 7c-.7.4-1.4.5-2.1.5-.6 0-1.2-.1-1.6-.3-.2-.1-.4-.1-.5-.2l-.1-.1-.1.2.1-.2-.1.2.1-.2-12.1-7c-1.1-.6-1.6-1.5-1.9-2.3-.1-.4-.2-.8-.2-1V13.2c0-1.2.5-2.2 1.1-2.8.3-.3.6-.6.8-.7.1-.1.2-.1.2-.2h.1l-.4-.4z"/></svg>