<svg version="1.1" id="Layer_1" xmlns="http://www.w3.org/2000/svg" x="0" y="0" viewBox="0 0 62.1 17.6" xml:space="preserve"><style>.st0{fill:#898989}</style><path class="st0" d="M1.5 13.8c.5-.9 1.1-1.8 1.8-2.6l.8.6c-.7.8-1.2 1.7-1.7 2.5l-.9-.5zm3.3-4.3c.7-.7 1.5-1.5 2.4-2.1l.6.8c-.8.6-1.6 1.3-2.3 2l-.7-.7zM9 6.1c.9-.6 1.8-1.1 2.8-1.6l.5.9c-.9.5-1.8 1-2.7 1.6L9 6.1zm4.7-2.6c1-.4 1.9-.8 3-1.2l.3 1c-1 .3-2 .7-2.9 1.1l-.4-.9zm5.1-1.8c1-.3 2-.5 3.1-.8l.2 1c-1 .2-2 .5-3 .7l-.3-.9zM24 .5c1-.2 2.1-.3 3.2-.4l.1 1c-1.1.1-2.1.2-3.1.4l-.2-1zM34.7.2c1.1.1 2.1.2 3.2.4l-.2 1c-1-.2-2-.3-3.1-.4l.1-1zm5.3.7c1.1.2 2.1.5 3.1.8l-.3 1c-1-.3-2-.5-3-.7L40 .9zm5.2 1.4l3 1.2-.4.9c-.9-.4-1.9-.8-2.9-1.1l.3-1zm5 2.2c1 .5 1.9 1.1 2.8 1.6l-.6.8c-.8-.6-1.7-1.1-2.7-1.6l.5-.8zm4.5 2.9c.9.7 1.7 1.4 2.4 2.1l-.7.7c-.7-.7-1.5-1.4-2.3-2.1l.6-.7zm3.9 3.8c.7.9 1.3 1.7 1.8 2.7l-.9.5c-.5-.9-1.1-1.7-1.7-2.5l.8-.7zM0 17.4c.2-.5.3-1 .5-1.5l.9.4c-.2.5-.4 1-.5 1.4l-.9-.3zM29.4 0h3.2v1h-3.2V0zm32 15.8c.2.5.4 1 .5 1.5l-1 .3c-.1-.5-.3-1-.5-1.4l1-.4z"/><path class="st0" d="M57.9 14.5c-.5.2-.5.6-.1.9l3.1 2.1c.4.3.8.1.8-.4l.4-3.7c.1-.5-.3-.7-.7-.5l-3.5 1.6z"/></svg>