<svg version="1.1" id="Layer_1" xmlns="http://www.w3.org/2000/svg" x="0" y="0" viewBox="0 0 120.5 87.9" xml:space="preserve"><style>.st0{fill:#eceae8}</style><path class="st0" d="M61.3 26.9v8.5H4.6v-8.5h56.7z"/><path class="st0" d="M61.3 26.9h1.4v9.9H3.2V25.5h59.5v1.4h-1.4v1.4H6V34h53.9v-7.1h1.4v1.4-1.4zM119.1 1.4v85.1h-8.5V1.4h8.5z"/><path class="st0" d="M119.1 1.4h1.4v86.5h-11.4V0h11.4v1.4h-1.4v1.4H112V85h5.6V1.4h1.5v1.4-1.4zM64.5 1.4v85.1H56V1.4h8.5z"/><path class="st0" d="M64.5 1.4h1.4v86.5H54.6V0h11.3v1.4h-1.4v1.4h-7.1V85h5.7V1.4h1.4v1.4-1.4zM9.9 1.4v85.1H1.4V1.4h8.5z"/><path class="st0" d="M9.9 1.4h1.4v86.5H0V0h11.3v1.4H9.9v1.4H2.8V85h5.7V1.4h1.4v1.4-1.4zM115.9 52.4v8.5H59.2v-8.5h56.7z"/><path class="st0" d="M115.9 52.4h1.4v10H57.8V51h59.5v1.4h-1.4v1.5H60.6v5.6h53.8v-7.1h1.5v1.5-1.5z"/></svg>