<svg version="1.1" id="Layer_1" xmlns="http://www.w3.org/2000/svg" x="0" y="0" viewBox="0 0 25.6 22.7" xml:space="preserve"><style>.st0{fill:#d1ecfb}.st1{fill:#d8effc}.st2{fill:#c0e5f9}.st3{fill:#ffe500}.st4{fill:#727171}.st8{fill:#666662}</style><path class="st0" d="M9.4 13.5c-1 .9-2.9 1.5-4.6 1.5-.8 0-1.5-.1-2.2-.3-.4-.1-.8-.4-1.2-.6-.2.5-.4 1-.3 1.7.2 1.5 1.7 2.5 3.2 2.5.4 0 .8-.1 1.1-.2 3.3-1.4 3.9-4.1 4-4.6"/><path class="st1" d="M3 7.9c-1.5 0-2.7 1.5-3 3-.2 1.2.4 2.3 1.3 3 .6-1.1 2-1.7 3.4-1.7 2.4 0 4.6 1 4.6 1.2v.1c.4-.3-2.4-5.4-6.3-5.6"/><path class="st2" d="M4.8 12.2c-1.4 0-2.8.6-3.4 1.7.4.3.8.5 1.2.6.6.4 1.4.5 2.2.5 1.8 0 3.6-.6 4.6-1.5v-.1c.1-.1-2.2-1.1-4.6-1.2"/><path class="st0" d="M15.9 15.1c-.2.5-1 3.2 1.3 5.9.6.8 1.6 1.2 2.6 1.2.9 0 1.8-.4 2.3-1.1.4-.5.6-1.1.6-1.6-.2 0-.4.1-.6.1-.2 0-.5 0-.7-.1-2.4-.5-4.8-2.6-5.5-4.4"/><path class="st1" d="M21.5 12.6c-3 0-5.7 2.2-5.6 2.5V15s.1-.1.4-.1c.8 0 2.6.3 4.3 1.3 1.2.7 2.2 1.9 2.1 3.2 1.2-.2 2.2-.9 2.6-2 .5-1.4.1-3.3-1.2-4.1-.8-.5-1.7-.7-2.6-.7"/><path class="st2" d="M16.3 14.9c-.2 0-.3 0-.4.1v.1c.7 1.9 3.1 3.9 5.4 4.3.2 0 .5.1.7.1.2 0 .4 0 .6-.1 0-1.3-.9-2.5-2.1-3.2-1.6-1-3.4-1.3-4.2-1.3"/><path class="st3" d="M11.1 22.1c2 .4 4-1.5 4.7-4.9.7-3.4-.8-4.5-2.7-4.9-2-.4-3.7 0-4.4 3.4-.7 3.3.4 5.9 2.4 6.4z"/><path d="M13 12.2c-1.4-.3-2.7-.2-3.5 1.1 1.2.5 3.9 1.3 5.6-.1-.5-.5-1.2-.8-2.1-1zM15.9 15.7c-2.9.6-6.5-1.1-6.9-1.3-.1.4-.3.8-.3 1.2 0 .2-.1.4-.1.7 3.6 2.7 6.2 2.7 6.7 2.6.2-.5.4-1.1.5-1.8.1-.5.1-.9.1-1.4zM8.5 18.1c.2 2.1 1.2 3.6 2.6 3.9 1 .2 2-.2 2.8-1-2.1-.1-4.5-2-5.4-2.9z"/><path d="M10.4 21.1l.4 1.6.8-1.3-1.2-.3z"/><path class="st4" d="M10 .3c.1-.2.3-.4.6-.3.2.1.4.3.3.6-.1.2-.3.4-.6.3-.3-.1-.4-.3-.3-.6z"/><path class="st4" d="M12.6 1.3c-.4-.5-1.1-.8-2.1-.9v.1c.9.1 1.6.4 2.1.8.4.7.3 1.5.3 1.5h.1s.1-.8-.4-1.5zM19.2 2.2c0-.3.2-.4.5-.4s.4.2.4.5-.2.4-.5.4c-.2-.1-.4-.3-.4-.5z"/><path class="st4" d="M17.5 2c-.8.4-1 1.1-1 1.2h.1c-.1 0 .2-.8.9-1.2.6-.2 1.4-.1 2.2.2v-.1c-.9-.4-1.6-.4-2.2-.1z"/><path class="st3" d="M15 2.4c3.2.6 5.5 3.5 5 6.6-.5 3.1-3.5 5.1-6.7 4.5-3.2-.6-5.5-3.5-5-6.6.4-3.1 3.5-5.1 6.7-4.5z"/><path d="M8.8 7.4c.5-3.1 3.5-5.1 6.7-4.5 1.2.2 2.3.7 3.1 1.5-.9-1-2.2-1.7-3.6-2-3.2-.6-6.3 1.5-6.7 4.5-.3 1.9.4 3.8 1.9 5.1-1.1-1.3-1.7-2.9-1.4-4.6z" fill="#fff06d"/><path d="M16.4 7.4c-.1.4.1.7.3.8.2.1.5-.2.6-.6.1-.4-.1-.7-.3-.8-.2 0-.5.2-.6.6zM11.6 6.9c-.1.4.1.7.3.7.2 0 .5-.2.5-.6.1-.4-.1-.7-.3-.7-.2 0-.4.3-.5.6z"/><path d="M15.1 9.6c-.1.5-.2 1.2-.6 1.6l-.1.1c.1-.5-.1-.8-.3-.9-.3-.2-.6-.2-.9.2 0-.3 0-.7.1-1.2.1-.1.7.7 1.8.2z" fill="#a20d15"/><path d="M14.1 10.4c-.3-.2-.6-.2-.9.1.1.3.4 1.3 1.3.8 0-.5-.2-.8-.4-.9z" fill="#eb615e"/><path class="st8" d="M15.5 15.5l.1-.1s.9.2.9-.6l.1-.1.1.1c-.2 1-1.2.8-1.2.7z"/><path class="st8" d="M16.4 14.5l.3.1v.3l-.3-.1v-.3zM15.1 17.6h.1s.5.7 1.1.2h.1v.1c-.7.6-1.2-.3-1.3-.3z"/><path class="st8" d="M16.5 17.5c.1 0 .2.1.1.2 0 .1-.1.2-.2.1-.1 0-.2-.1-.1-.2 0 0 .1-.1.2-.1zM14.8 19.1h.1s-.1.9.7.9l.1.1-.1.1c-.9 0-.8-1-.8-1.1zM15.9 19.9v.3h-.2v-.3h.2zM9.5 14.1l-.1-.1s-.9.2-.9-.6l-.1-.1-.1.1c.1 1 1.1.8 1.2.7z"/><path class="st8" d="M8.5 13.1l-.3.1.1.3.3-.1-.1-.3zM9 15.8h-.1s-.5.7-1.1.2h-.1v.1a.8.8 0 001.3-.3z"/><path class="st8" d="M7.7 15.8c-.1 0-.2.1-.1.2 0 .1.1.2.2.1.1 0 .2-.1.1-.2 0-.1-.1-.1-.2-.1zM8.8 17.4h-.1s-.2.9-.9.6l-.1.1.1.1c.8.3 1-.7 1-.8zM7.5 17.9l-.1.2.3.1v-.3h-.2z"/></svg>