<svg xmlns="http://www.w3.org/2000/svg" viewBox="0 0 53.6 23.6"><path d="M48.2 2.2l-.9.4.1.2.9-.4-.1-.2zm-1.8.8l-.9.4.1.2.9-.4-.1-.2zm-1.8.8l-.9.4.1.2.9-.4-.1-.2zm-1.8.8l-.9.4.1.3.9-.4-.1-.3zm-1.8.8l-1 .4.1.2.9-.4v-.2zm-1.9.8l-.9.4.1.2.9-.4-.1-.2zm-1.8.8l-.9.4.1.2.9-.4-.1-.2zm-1.8.8l-.9.4.1.2.9-.4-.1-.2zm-1.8.8l-.9.4.1.2.9-.4-.1-.2zm-1.8.8l-.9.4v.2l1-.4-.1-.2zm-1.9.8l-.9.4.1.2.9-.4-.1-.2zm-1.8.8l-.9.4.1.2.9-.4-.1-.2zm-1.8.8l-.9.4.1.2.9-.4-.1-.2zm-1.8.8l-.9.4.1.2.9-.4-.1-.2zm-1.8.8l-.9.4.1.2.9-.4-.1-.2zm-1.9.8l-.9.4.1.2.9-.4-.1-.2zm-1.8.8l-.9.4.1.2.9-.4-.1-.2zm-1.8.8l-.9.4.1.2.9-.4-.1-.2zm-1.8.8l-.9.4.1.2.9-.4-.1-.2zm-1.9.8l-.9.4.1.2.9-.4-.1-.2zm-1.8.8l-.9.4.1.2.9-.4-.1-.2zM10 19l-.9.4.1.2.9-.4-.1-.2zm-1.8.8l-.9.4.1.2.9-.4-.1-.2zm-1.8.8l-.9.4.1.2.9-.4-.1-.2zm-1.9.8l-.9.4.1.2.9-.4-.1-.2zm-1.8.8l-.9.4.1.2.9-.4-.1-.2zM.9 23l-.9.4.1.2.9-.4-.1-.2z"/><path d="M53.6 0l-6.3.4 2.3 1.4-.6 2.6L53.6 0"/></svg>