<svg xmlns="http://www.w3.org/2000/svg" viewBox="0 0 27.7 6.2"><path d="M25.7 6.1c-.1 0-.1 0 0 0l-.1-.4c0-.1 0-.1.1-.1h.7s.1-.1.2-.1c0 0 .1 0 .1.1l.1.3V6c-.2.1-.4.1-.4.1h-.7zm-2.5 0c-.1 0-.1 0 0 0l-.1-.4c0-.1 0-.1.1-.1h1.2c.1 0 .1 0 .1.1V6c0 .1 0 .1-.1.1h-1.2zm-2.4 0c-.1 0-.1 0 0 0l-.1-.4c0-.1 0-.1.1-.1H22c.1 0 .1 0 .1.1V6c0 .1 0 .1-.1.1h-1.2zm-2.5 0c-.1 0-.1 0 0 0l-.1-.4c0-.1 0-.1.1-.1h1.2c.1 0 .1 0 .1.1V6c0 .1 0 .1-.1.1h-1.2zm-2.4 0c-.1 0-.1 0 0 0l-.1-.4c0-.1 0-.1.1-.1h1.2c.1 0 .1 0 .1.1V6c0 .1 0 .1-.1.1h-1.2zm-2.5 0c-.1 0-.1 0-.1-.1v-.3c0-.1 0-.1.1-.1h1.2c.1 0 .1 0 .1.1V6c0 .1 0 .1-.1.1h-1.2zm-2.4 0c-.1 0-.1 0-.1-.1v-.3c0-.1 0-.1.1-.1h1.2c.1 0 .1 0 .1.1V6c0 .1 0 .1-.1.1H11zm-2.5 0c-.1 0-.1 0-.1-.1v-.3c0-.1 0-.1.1-.1h1.2c.1 0 .1 0 .1.1V6c0 .1 0 .1-.1.1H8.5zm-2.4 0C6 6.1 6 6.1 6 6v-.3c0-.1 0-.1.1-.1h1.2c.1 0 .1 0 .1.1V6c0 .1 0 .1-.1.1H6.1zm-2.5 0c-.1 0-.1 0-.1-.1v-.3c0-.1 0-.1.1-.1h1.2c.1 0 .1 0 .1.1V6c0 .1 0 .1-.1.1H3.6zm-1.8 0c-.2 0-.4 0-.6-.1l-.1-.1.1-.3s0-.1.1-.1h.1c.1.1.3.1.4.1h.6c.1 0 .1 0 .1.1V6c0 .1 0 .1-.1.1h-.6zm25.6-.7l-.3-.1s-.1 0-.1-.1v-.1c.1-.1.1-.1.1-.2v-.6c0-.1 0-.1.1-.1h.3c.1 0 .1 0 .1.1v.6c0 .1 0 .1-.1.2v.2s0 .1-.1.1zM.3 5.1s-.1 0 0 0c-.2-.4-.2-.7-.2-.7v-.5c0-.1 0-.1.1-.1h.3c.1 0 .1 0 .1.1v.8c0 .1.1.2.1.2s0 .1-.1.1l-.3.1zm26.8-1.8c-.1 0-.1 0-.1-.1V2c0-.1 0-.1.1-.1h.3c.1 0 .1 0 .1.1v1.2c0 .1 0 .1-.1.1h-.3zM.2 3c-.1 0-.1 0-.1-.1V1.8c0-.1 0-.1.1-.1h.3c.1 0 .1 0 .1.1v1.1c0 .1 0 .1-.1.1H.2zM27.1.9c-.1 0-.1 0-.1-.1V.2c0-.1 0-.1.1-.1h.3c.1 0 .1 0 .1.1v.6c0 .1 0 .1-.1.1h-.3zM.2.8C.1.8.1.8.1.7V.2C.1.1.1.1.2.1h.3C.6.1.6.1.6.2v.5C.6.8.6.8.5.8H.2z"/><path d="M27.4.2v.6h-.3V.2h.3M.5.2v.5H.2V.2h.3m0 1.6v1.1H.2V1.8h.3m26.9.2v1.2h-.3V2h.3M.5 3.9v.6c0 .1.1.3.1.4L.3 5c-.1-.3-.1-.6-.1-.6v-.5h.3m27 .4v.6c0 .1-.1.3-.1.4l-.3-.1c.1-.1.1-.2.1-.3v-.6h.3m-.9 1.3l.1.3c-.2.1-.4.1-.4.1h-.6v-.3h.7s.1-.1.2-.1m-25.3 0c.1.1.3.1.5.1h.6V6h-.6c-.2 0-.4 0-.6-.1l.1-.3m23.1.1V6h-1.2v-.3h1.2m-2.4 0V6h-1.2v-.3H22m-2.5 0V6h-1.2v-.3h1.2m-2.4 0V6h-1.2v-.3h1.2m-2.5 0V6h-1.2v-.3h1.2m-2.4 0V6H11v-.3h1.2m-2.5 0V6H8.5v-.3h1.2m-2.4 0V6H6.1v-.3h1.2m-2.5 0V6H3.6v-.3h1.2M27.4 0h-.3c-.1 0-.2.1-.2.2v.6c0 .1.1.2.2.2h.3c.1 0 .2-.1.2-.2V.2c0-.1-.1-.2-.2-.2zM.5 0H.2C.1 0 0 .1 0 .2v.5c0 .1.1.2.2.2h.3C.6.9.7.8.7.7V.2C.7.1.6 0 .5 0zm0 1.6H.2c-.1 0-.2.1-.2.2v1.1c0 .1.1.2.2.2h.3c.1 0 .2-.1.2-.2V1.8c0-.1-.1-.2-.2-.2zm26.9.2h-.3c-.1 0-.2.1-.2.2v1.2c0 .1.1.2.2.2h.3c.1 0 .2-.1.2-.2V2c0-.1-.1-.2-.2-.2zM.5 3.7H.2c-.1 0-.2.1-.2.2v.5s0 .3.1.7c0 .1.1.1.2.1h.1l.3-.1c.1 0 .1-.1.1-.2s0-.2-.1-.3v-.7c0-.1-.1-.2-.2-.2zm27 .4h-.3c-.1 0-.2.1-.2.2v.8s-.1.1-.1.2.1.1.1.1l.3.1h.2c.1 0 .1-.1.1-.2v-.1c0-.1.1-.2.1-.3v-.6c0-.1-.1-.2-.2-.2zM1.3 5.4c-.1 0-.2.1-.2.1l-.1.3c0 .1 0 .2.1.3.2.1.5.1.7.1h.6c.1 0 .2-.1.2-.2v-.3c0-.1-.1-.2-.2-.2h-1c0-.1 0-.1-.1-.1zm25.3 0c-.1 0-.2.1-.3.1h-.6c-.1 0-.2.1-.2.2V6c0 .1.1.2.2.2h.6s.3 0 .5-.1c.1 0 .1-.1.1-.2l-.1-.3c0-.1-.1-.2-.2-.2zm-2.2.1h-1.2c-.1 0-.2.1-.2.2V6c0 .1.1.2.2.2h1.2c.1 0 .2-.1.2-.2v-.3c0-.1-.1-.2-.2-.2zm-2.4 0h-1.2c-.1 0-.2.1-.2.2V6c0 .1.1.2.2.2H22c.1 0 .2-.1.2-.2v-.3c0-.1-.1-.2-.2-.2zm-2.5 0h-1.2c-.1 0-.2.1-.2.2V6c0 .1.1.2.2.2h1.2c.1 0 .2-.1.2-.2v-.3c0-.1-.1-.2-.2-.2zm-2.4 0h-1.2c-.1 0-.2.1-.2.2V6c0 .1.1.2.2.2h1.2c.1 0 .2-.1.2-.2v-.3c0-.1-.1-.2-.2-.2zm-2.5 0h-1.2c-.1 0-.2.1-.2.2V6c0 .1.1.2.2.2h1.2c.1 0 .2-.1.2-.2v-.3c0-.1-.1-.2-.2-.2zm-2.4 0H11c-.1 0-.2.1-.2.2V6c0 .1.1.2.2.2h1.2c.1 0 .2-.1.2-.2v-.3c0-.1-.1-.2-.2-.2zm-2.5 0H8.5c-.1 0-.2.1-.2.2V6c0 .1.1.2.2.2h1.2c.1 0 .2-.1.2-.2v-.3c0-.1-.1-.2-.2-.2zm-2.4 0H6.1c-.1 0-.2.1-.2.2V6c0 .1.1.2.2.2h1.2c.1 0 .2-.1.2-.2v-.3c0-.1-.1-.2-.2-.2zm-2.5 0H3.6c-.1 0-.2.1-.2.2V6c0 .1.1.2.2.2h1.2c.1 0 .2-.1.2-.2v-.3c0-.1-.1-.2-.2-.2z"/></svg>