<svg version="1.1" id="Layer_1" xmlns="http://www.w3.org/2000/svg" x="0" y="0" viewBox="0 0 120.5 87.9" xml:space="preserve"><style>.st0{fill:#eceae8}</style><path class="st0" d="M59.2 26.9v8.5h56.7v-8.5H59.2z"/><path class="st0" d="M59.2 26.9h-1.4v9.9h59.5V25.5H57.8v1.4h1.4v1.4h55.2V34H60.6v-7.1h-1.4v1.4-1.4zM1.4 1.4v85.1h8.5V1.4H1.4z"/><path class="st0" d="M1.4 1.4H0v86.5h11.3V0H0v1.4h1.4v1.4h7.1V85H2.8V1.4H1.4v1.4-1.4zM56 1.4v85.1h8.5V1.4H56z"/><path class="st0" d="M56 1.4h-1.4v86.5h11.3V0H54.6v1.4H56v1.4h7.1V85h-5.7V1.4H56v1.4-1.4zM110.6 1.4v85.1h8.5V1.4h-8.5z"/><path class="st0" d="M110.6 1.4h-1.5v86.5h11.4V0h-11.4v1.4h1.5v1.4h7V85H112V1.4h-1.4v1.4-1.4zM4.6 52.4v8.5h56.7v-8.5H4.6z"/><path class="st0" d="M4.6 52.4H3.2v10h59.5V51H3.2v1.4h1.4v1.5h55.3v5.6H6v-7.1H4.6v1.5-1.5z"/></svg>