<svg xmlns="http://www.w3.org/2000/svg" viewBox="0 0 73.4 17.2"><path d="M3.5 5.1c.4-.2.4-.6 0-.8L.8 2.9c-.4-.2-.7 0-.7.4L0 6.4c0 .4.3.6.7.4l2.8-1.7z"/><path d="M.2 2.9c.1.3.3.6.4.9l.2-.1c-.1-.3-.2-.6-.4-.9l-.2.1zm1 1.8c.1.3.3.5.5.8l.2-.2c-.2-.2-.4-.5-.5-.7l-.2.1zm1.2 1.6c.2.2.4.5.7.7l.2-.2c-.3-.2-.5-.4-.7-.7l-.2.2zm1.4 1.4c.2.2.5.4.8.7l.2-.2c-.3-.2-.6-.5-.8-.7l-.2.2zM5.4 9c.3.2.5.4.8.6l.1-.2c-.3-.2-.5-.4-.8-.6l-.1.2zM7 10.1c.3.2.6.3.9.5l.1-.2c-.3-.2-.6-.3-.8-.5l-.2.2zm1.7 1c.3.2.6.3.9.5l.1-.2c-.3-.2-.6-.3-.9-.5l-.1.2zm1.8.9c.3.1.6.3.9.4l.1-.2c-.3-.1-.6-.3-.9-.4l-.1.2zm1.9.8c.3.1.6.3.9.4l.1-.2c-.3-.1-.6-.2-.9-.4l-.1.2zm1.8.8l.9.3.1-.2-.9-.3-.1.2zm1.9.6c.3.1.6.2 1 .3l.1-.2c-.3-.1-.6-.2-1-.3l-.1.2zm1.9.6c.3.1.6.2 1 .3l.1-.2c-.3-.1-.6-.2-1-.3l-.1.2zm2 .5c.3.1.6.2 1 .2l.1-.2c-.3-.1-.6-.1-1-.2l-.1.2zm1.9.4c.3.1.7.1 1 .2v-.2c-.3-.1-.7-.1-1-.2v.2zm2 .4c.3.1.7.1 1 .2v-.2c-.3-.1-.7-.1-1-.2v.2zm2 .3c.3 0 .7.1 1 .1v-.2c-.3 0-.7-.1-1-.1v.2zm1.9.3c.3 0 .7.1 1 .1v-.2c-.3 0-.7-.1-1-.1v.2zm2 .2c.3 0 .7.1 1 .1v-.2c-.3 0-.7-.1-1-.1v.2zm2 .1c.3 0 .7 0 1 .1v-.2c-.3 0-.7 0-1-.1v.2zm2 .1h1v-.3h-1v.3zm2 .1h1v-.3h-1v.3zM36.8 17.2h1v-.3h-1v.3zm2-.1h1v-.3h-1v.3zm2 0c.3 0 .7 0 1-.1v-.3c-.3 0-.7 0-1 .1v.3zm1.9-.2c.3 0 .7-.1 1-.1v-.2c-.3 0-.7.1-1 .1v.2zm2-.2c.3 0 .7-.1 1-.1v-.2c-.3 0-.6.1-1 .1v.2zm2-.3c.3-.1.7-.1 1-.2V16c-.3.1-.6.1-1 .2v.2zm1.9-.3c.3-.1.6-.1 1-.2l-.1-.2c-.3.1-.6.1-1 .2l.1.2zm2-.4c.3-.1.6-.1 1-.2l-.1-.2c-.3.1-.6.2-1 .2l.1.2zm1.9-.5c.3-.1.6-.2 1-.3l-.1-.2-.9.3v.2zm1.9-.5l.9-.3-.1-.2-.9.3.1.2zm1.9-.6l.9-.3-.1-.2-.9.3.1.2zm1.8-.7c.3-.1.6-.2.9-.4l-.1-.2c-.3.1-.6.3-.9.4l.1.2zm1.8-.8c.3-.1.6-.3.9-.4l-.1-.2c-.3.1-.6.3-.9.4l.1.2zm1.8-.9c.3-.2.6-.3.9-.5l-.1-.2c-.3.2-.6.3-.9.5l.1.2zm1.8-.9c.3-.2.6-.3.8-.5l-.1-.3c-.3.2-.6.3-.8.5l.1.3zm1.7-1.1c.3-.2.6-.4.8-.6l-.2-.1c-.3.2-.5.4-.8.6l.2.1zm1.6-1.1c.2-.2.5-.4.7-.6l-.2-.2c-.3.2-.5.4-.8.6l.3.2zm1.5-1.3c.2-.2.5-.4.7-.7l-.2-.2c-.2.2-.5.4-.7.7l.2.2zm1.4-1.4l.7-.7-.2-.2c-.2.2-.4.5-.7.7l.2.2zM71 4.4c.2-.3.4-.5.6-.8l-.2-.1c-.2.2-.4.5-.6.8l.2.1zm1.1-1.6c.2-.3.3-.6.5-.9l-.2-.1c-.1.3-.3.6-.5.9l.2.1zm1-1.8c.1-.3.3-.6.4-.9l-.3-.1c-.1.3-.2.6-.4.9l.3.1z"/></svg>