<svg xmlns="http://www.w3.org/2000/svg" viewBox="0 0 37.5 35.9"><path d="M20.3 1.7s-1.5-2.4-3 0l-3.8 6.2S12 10.3 9.3 11l-7.1 1.7s-2.8.7-.9 2.8L6 21s1.8 2.2 1.6 5L7 33.3s-.2 2.8 2.4 1.7l6.7-2.8s2.6-1.1 5.2 0L28 35s2.6 1.1 2.4-1.7L30 26s-.2-2.8 1.6-5l4.7-5.5s1.8-2.2-.9-2.8L28.3 11s-2.8-.7-4.2-3.1l-3.8-6.2z" fill="#fffef3"/><path d="M20.3 1.7l.5-.3s-.2-.3-.5-.7c-.2-.2-.4-.3-.6-.5-.3-.1-.6-.2-1-.2-.3 0-.7.1-1 .3-.3.2-.6.6-.9 1L13 7.6c-.1.2-1.5 2.2-3.9 2.8L2 12.1s-.5.1-.9.4c-.2.1-.5.3-.7.6-.2.3-.4.6-.4 1 0 .6.3 1.1.8 1.7l4.7 5.5c.2.3 1.5 2.1 1.5 4.3v.4l-.6 7.3v.2c0 .3 0 .8.3 1.3.1.2.3.5.6.7.3.2.7.3 1.1.3.4 0 .8-.1 1.3-.3l6.7-2.8c.1 0 1.1-.4 2.5-.4.7 0 1.5.1 2.3.4l6.7 2.8s.6.2 1.3.2c.4 0 .9-.1 1.3-.5s.6-1 .6-1.8V33l-.5-7v-.2c0-.7.1-2.8 1.5-4.3l4.7-5.5s.2-.2.4-.5.4-.8.4-1.3c0-.4-.1-.9-.5-1.2-.3-.4-.8-.6-1.5-.8l-7.1-1.7c-.2-.1-2.6-.8-3.8-2.8l-3.8-6.2-.6.2-.6.3 3.8 6.2c.8 1.3 2 2.2 2.9 2.7.9.5 1.7.7 1.7.7l7.1 1.7c.5.1.8.3.9.4.1.1.1.2.2.4 0 .2-.1.5-.2.7-.1.1-.1.2-.2.2l-.1.1.1.1-.1-.1.1.1-.1-.1-4.7 5.5c-1.6 1.9-1.8 4.2-1.8 5.1v.3l.6 7.3v.3c0 .6-.1.8-.3.9-.1.1-.3.2-.5.2s-.4 0-.6-.1l-.2-.1-.1.1.1-.1-.1.1.1-.1-6.7-2.8c-1-.4-1.9-.5-2.8-.5-1.7 0-2.9.5-2.9.5l-6.7 2.8.2.5-.2-.6c-.4.1-.6.2-.8.2-.2 0-.3 0-.4-.1-.1-.1-.2-.3-.3-.5-.1-.2-.1-.5-.1-.6v-.1l.6-7.3v-.5c0-2.9-1.7-4.9-1.8-4.9l-4.7-5.5c-.4-.5-.5-.8-.5-1 0-.1 0-.2.1-.3.1-.2.4-.3.6-.4.1-.1.2-.1.3-.1h.1l7.1-1.7c1.5-.4 2.7-1.2 3.4-1.9.8-.8 1.2-1.5 1.2-1.5L17.8 2c.2-.4.4-.6.6-.7.2-.1.3-.1.4-.1.1 0 .2 0 .3.1.2.1.4.3.5.4l.2.2V2l.5-.3z" fill="#a9a09a"/></svg>