<svg xmlns="http://www.w3.org/2000/svg" xmlns:xlink="http://www.w3.org/1999/xlink" viewBox="0 0 14.2 14.2"><path d="M7.1 14.2c3.9 0 7.1-3.2 7.1-7.1C14.2 3.2 11 0 7.1 0 3.2 0 0 3.2 0 7.1c0 3.9 3.2 7.1 7.1 7.1" fill="#5495d0"/><defs><path id="a" d="M7.1 14.2c3.9 0 7.1-3.2 7.1-7.1C14.2 3.2 11 0 7.1 0 3.2 0 0 3.2 0 7.1c0 3.9 3.2 7.1 7.1 7.1"/></defs><clipPath id="b"><use xlink:href="#a" overflow="visible"/></clipPath><path d="M7.1 0v14.2c3.9 0 7.1-3.2 7.1-7.1C14.2 3.2 11 0 7.1 0" clip-path="url(#b)" fill="#4176a6"/></svg>