<svg xmlns="http://www.w3.org/2000/svg" viewBox="0 0 32.9 17"><path d="M32.6 13.5h.3v1.4h-.3zM32.4 9.7c-.2-.4-.4-.7-.8-.9l-.2.3c.3.2.6.5.7.8l.3-.2zM28.1 8.4h-1.2v.3h1.2v-.3zm-2.5 0h-1.2v.3h1.2v-.3zm-2.4 0H22v.3h1.2v-.3zm-2.5 0h-1.2v.3h1.2v-.3zm-2.4 0h-1.2v.3h1.2v-.3zm-2.5 0h-1.2v.3h1.2v-.3zm-2.4 0h-1.2v.3h1.2v-.3zm-2.5 0H9.7v.3h1.2v-.3zm-2.4 0H7.3v.3h1.2v-.3zM6 8.4H4.8v.3H6v-.3zM1.3 8.8c-.3.2-.6.5-.9.8l.3.2c.2-.3.5-.6.8-.7l-.2-.3zM0 13.5h.3v1.4H0zM32.9 17v-.7h-.3v.7h.3zm0-5v-.7s0-.2-.1-.6l-.3.1c0 .2 0 .3.1.4V12h.3zm-2.4-3.6h-1.2v.3h1.1l.1-.3zm-26.9 0H3s-.2 0-.6.1l.1.3c.2 0 .3 0 .4-.1h.7v-.3zM0 10.8V12h.3v-.7-.5H0zm0 5.5v.7h.3v-.7H0zM16.3 0v1.2h.3V0h-.3zm0 2.4v1.2h.3V2.4h-.3zm0 2.5v1.2h.3V4.9h-.3zm0 2.4v1.2h.3V7.3h-.3z"/></svg>