<svg xmlns="http://www.w3.org/2000/svg" viewBox="0 0 293 17"><path d="M90 2.1h.3v1.4H90zM90.5 7.4c.2.3.5.6.8.9l.2-.3c-.3-.2-.6-.5-.7-.8l-.3.2zM94.8 8.7H96v-.3h-1.2v.3zm2.5 0h1.2v-.3h-1.2v.3zm2.4 0h1.2v-.3h-1.2v.3zm2.5 0h1.2v-.3h-1.2v.3zm2.4 0h1.2v-.3h-1.2v.3zm2.5 0h1.2v-.3h-1.2v.3zm2.4 0h1.2v-.3h-1.2v.3zm2.5 0h1.2v-.3H112v.3zm2.4 0h1.2v-.3h-1.2v.3zm2.5 0h1.2v-.3h-1.2v.3zM121.6 8.2c.3-.2.6-.4.9-.8l-.3-.2c-.2.3-.5.6-.8.7l.2.3zM122.6 2.1h.3v1.4h-.3zM90 0v.7h.3V0H90zm0 5v.7s0 .2.1.6l.3-.1c0-.2 0-.3-.1-.4V5H90zm2.4 3.6h1.2v-.2h-1.1l-.1.2zm26.9.1h.6s.2 0 .6-.1l-.1-.3c-.2 0-.3 0-.4.1h-.7v.3zm3.6-2.4V5h-.3v1.2l.3.1zm0-5.6V0h-.3v.7h.3zM260.1 2.1h.3v1.4h-.3zM260.6 7.4c.2.3.5.6.8.9l.2-.3c-.3-.2-.6-.5-.7-.8l-.3.2zM264.9 8.7h1.2v-.3h-1.2v.3zm2.4 0h1.2v-.3h-1.2v.3zm2.5 0h1.2v-.3h-1.2v.3zm2.4 0h1.2v-.3h-1.2v.3zm2.5 0h1.2v-.3h-1.2v.3zm2.4 0h1.2v-.3h-1.2v.3zm2.5 0h1.2v-.3h-1.2v.3zm2.4 0h1.2v-.3H282v.3zm2.5 0h1.2v-.3h-1.2v.3zm2.4 0h1.2v-.3h-1.2v.3zM291.7 8.2c.3-.2.6-.4.9-.8l-.3-.2c-.2.3-.5.6-.8.7l.2.3zM292.7 2.1h.3v1.4h-.3zM260.1 0v.7h.3V0h-.3zm0 5v.7s0 .2.1.6l.3-.1c0-.2 0-.3-.1-.4V5h-.3zm2.4 3.6h1.2v-.2h-1.1l-.1.2zm26.9.1h.6s.2 0 .6-.1l-.1-.3c-.2 0-.3 0-.4.1h-.7v.3zm3.5-2.4V5h-.3v1.2l.3.1zm.1-5.6V0h-.3v.7h.3zM0 2.1h.3v1.4H0zM.5 7.4c.2.3.4.6.8.8l.2-.2c-.4-.3-.6-.5-.8-.8l-.2.2zM4.8 8.7H6v-.3H4.8v.3zm2.5 0h1.2v-.3H7.3v.3zm2.4 0H11v-.3H9.7v.3zm2.5 0h1.2v-.3h-1.2v.3zm2.5 0h1.2v-.3h-1.2v.3zm2.4 0h1.2v-.3h-1.2v.3zm2.5 0h1.2v-.3h-1.2v.3zm2.4 0h1.2v-.3H22v.3zm2.5 0h1.2v-.3h-1.2v.3zm2.4 0h1.2v-.3h-1.2v.3zm2.5 0h1.2v-.3h-1.2v.3zm2.5 0h1.2v-.3h-1.2v.3zm2.4 0h1.2v-.3h-1.2v.3zm2.5 0H38v-.3h-1.2v.3zM41.5 8.2c.3-.2.6-.4.9-.8l-.3-.2c-.2.3-.5.6-.8.7l.2.3zM42.5 2.1h.3v1.4h-.3zM0 0v.7h.3V0H0zm0 5v.7s0 .2.1.6l.3-.1c0-.2 0-.3-.1-.4V5H0zm2.4 3.6h1.2v-.2H2.5l-.1.2zm36.8.1h.6s.2 0 .6-.1l-.1-.3c-.2 0-.3 0-.4.1h-.7v.3zm3.6-2.4V5h-.3v1.2l.3.1zm0-5.6V0h-.3v.7h.3zM170.1 2.1h.3v1.4h-.3zM170.6 7.4c.2.3.4.6.8.9l.2-.3c-.3-.2-.6-.5-.7-.8l-.3.2zM174.9 8.7h1.2v-.3h-1.2v.3zm2.5 0h1.2v-.3h-1.2v.3zm2.4 0h1.2v-.3h-1.2v.3zm2.5 0h1.2v-.3h-1.2v.3zm2.4 0h1.2v-.3h-1.2v.3zm2.5 0h1.2v-.3h-1.2v.3zm2.4 0h1.2v-.3h-1.2v.3zm2.5 0h1.2v-.3h-1.2v.3zm2.5 0h1.2v-.3h-1.2v.3zm2.4 0h1.2v-.3H197v.3zm2.5 0h1.2v-.3h-1.2v.3zm2.4 0h1.2v-.3h-1.2v.3zm2.5 0h1.2v-.3h-1.2v.3zm2.4 0h1.2v-.3h-1.2v.3zM211.6 8.2c.3-.2.6-.4.9-.8l-.3-.2c-.2.3-.5.6-.8.7l.2.3zM212.6 2.1h.3v1.4h-.3zM170.1 0v.7h.3V0h-.3zm0 5v.7s0 .2.1.6l.3-.1c0-.2 0-.3-.1-.4V5h-.3zm2.4 3.6h1.2v-.2h-1.1l-.1.2zm36.8.1h.6s.2 0 .6-.1l-.1-.3c-.2 0-.3 0-.4.1h-.7v.3zm3.6-2.4V5h-.3v1.2l.3.1zm0-5.6V0h-.3v.7h.3zM106.6 17v-1.2h-.3V17h.3zm0-2.4v-1.2h-.3v1.2h.3zm0-2.5v-1.2h-.3v1.2h.3zm0-2.4V8.5h-.3v1.2h.3zM276.7 17v-1.2h-.3V17h.3zm0-2.4v-1.2h-.3v1.2h.3zm0-2.5v-1.2h-.3v1.2h.3zm0-2.4V8.5h-.3v1.2h.3zM21.6 17v-1.2h-.3V17h.3zm0-2.4v-1.2h-.3v1.2h.3zm0-2.5v-1.2h-.3v1.2h.3zm0-2.4V8.5h-.3v1.2h.3zM191.6 17v-1.2h-.3V17h.3zm0-2.4v-1.2h-.3v1.2h.3zm0-2.5v-1.2h-.3v1.2h.3zm0-2.4V8.5h-.3v1.2h.3z"/></svg>