<svg id="Layer_1" data-name="Layer 1" xmlns="http://www.w3.org/2000/svg" viewBox="0 0 17.26 17.26"><defs><style>.cls-3{fill:#8cac2a}.cls-4{fill:#b62a23}.cls-5{fill:#a0bb50}.cls-6{fill:#c3524a}.cls-10{fill:#cfdba3}</style><clipPath id="clip-path" transform="translate(-645.4 -356.74)"><path d="M654 373.87a8.5 8.5 0 1 0-8.5-8.5 8.5 8.5 0 0 0 8.5 8.5" fill="none"/></clipPath></defs><g clip-path="url(#clip-path)"><path class="cls-3" d="M648.15 364.48c.41-.66.81-1.37 1.27-2s.92-1.39 1.44-2l.76-1 .81-1c.27-.31.53-.64.81-.93l.62-.64a8.47 8.47 0 0 0-4 1.1 8.61 8.61 0 0 0-1 .7c-.39.34-.77.7-1.13 1.07a8.51 8.51 0 0 0-1.56 8.73l.09-.21.41-.88.47-.92c.31-.64.7-1.28 1.07-2" transform="translate(-645.4 -356.74)"/><path class="cls-4" d="M662.51 364.65c-.39.44-.78.92-1.19 1.38-.52.67-1.08 1.33-1.6 2.05s-1 1.44-1.52 2.2l-.72 1.13c-.23.38-.44.77-.65 1.16s-.38.67-.55 1a8.51 8.51 0 0 0 6.23-8.93" transform="translate(-645.4 -356.74)"/><path class="cls-3" d="M662.13 362.76l-.09.06-1 .72c-.35.25-.68.53-1 .8s-.69.54-1 .83l-1 .89c-.68.58-1.3 1.23-1.93 1.85s-1.2 1.28-1.77 1.9-1.09 1.26-1.56 1.88l-.7.9-.62.85a8.5 8.5 0 0 0 4.95.11c.27-.52.58-1 .88-1.6s.81-1.37 1.27-2 .92-1.39 1.44-2l.76-1c.27-.32.54-.64.81-1s.53-.64.81-.93l.23-.23a8.48 8.48 0 0 0-.39-2" transform="translate(-645.4 -356.74)"/><path class="cls-4" d="M661.44 361.19a8.5 8.5 0 0 0-1.69-2.11l-.48.48-.77.83c-.54.56-1.05 1.2-1.61 1.84s-1.08 1.33-1.6 2.05-1 1.44-1.52 2.2l-.72 1.13c-.23.38-.44.77-.65 1.16s-.43.76-.63 1.14l-.55 1.14c-.18.38-.36.74-.52 1.11l-.35.89a8.65 8.65 0 0 0 1.21.47l.42-.65c.21-.32.46-.63.69-.95l.72-1c.25-.32.53-.63.79-.95l.81-1 .87-.91c.56-.62 1.19-1.18 1.78-1.74s1.23-1.07 1.82-1.58 1.19-1 1.78-1.37l.84-.61a8.55 8.55 0 0 0-.7-1.6" transform="translate(-645.4 -356.74)"/><path class="cls-3" d="M658.71 358.27l-.09.05c-.34.21-.67.45-1 .69l-1 .72c-.35.25-.68.53-1 .8l-1 .83-1 .89c-.68.58-1.3 1.23-1.93 1.85s-1.2 1.28-1.77 1.9-1.09 1.26-1.55 1.88l-.7.9-.62.86-.14.19a8.46 8.46 0 0 0 3.55 3.19c.14-.35.3-.72.49-1.11l.41-.88.47-.93c.31-.64.7-1.28 1.07-2s.81-1.37 1.27-2 .92-1.39 1.44-2l.76-1c.27-.32.54-.64.81-1s.53-.64.81-.93l.84-.86c.28-.28.54-.57.82-.83l.34-.3a8.63 8.63 0 0 0-1.15-.9" transform="translate(-645.4 -356.74)"/><path class="cls-4" d="M658.75 358.29a8.53 8.53 0 0 0-5-1.42c-.49.52-1 1.1-1.47 1.68s-1.08 1.33-1.6 2.05-1 1.44-1.52 2.2l-.72 1.13c-.22.38-.44.78-.65 1.16s-.43.76-.63 1.14l-.55 1.15c-.17.36-.35.71-.5 1.07a8.43 8.43 0 0 0 .52 1.11l.24.41.49-.77c.21-.32.46-.62.69-.95l.72-1c.25-.32.53-.63.79-.95s.53-.64.81-1l.87-.91c.56-.62 1.19-1.18 1.78-1.75s1.23-1.07 1.82-1.58 1.19-1 1.78-1.37l.84-.61.8-.54.49-.32" transform="translate(-645.4 -356.74)"/><path class="cls-5" d="M652.82 357.7a7.16 7.16 0 0 0-6.48 10.21l.25-.53.15-.32c0-.14 0-.28-.05-.44a7.54 7.54 0 0 1 .08-2.09 8 8 0 0 1 .66-2.05 7.91 7.91 0 0 1 1.19-1.8 5.38 5.38 0 0 1 .82-.75 6.78 6.78 0 0 1 .89-.54 8.74 8.74 0 0 1 1.82-.69l.11-.14.74-.85h-.17M647.37 369.18l-.11.17q.21.27.45.51c-.12-.21-.24-.44-.34-.68" transform="translate(-645.4 -356.74)"/><path class="cls-6" d="M646.75 367.06l-.15.32-.25.53a7.14 7.14 0 0 0 .91 1.45l.11-.17a6.83 6.83 0 0 1-.27-.69 3.87 3.87 0 0 1-.1-.5c0-.16-.08-.28-.12-.48s-.06-.33-.09-.51m6.21-9.31l-.74.85-.11.14a8.66 8.66 0 0 1 1.64-.26h.48a8.4 8.4 0 0 1 .94.06 7.2 7.2 0 0 1 1.06.2l.38.11a7.12 7.12 0 0 0-3.65-1.1" transform="translate(-645.4 -356.74)"/><path class="cls-5" d="M660 364.41l-.5.39c-.59.51-1.22 1-1.82 1.58s-1.22 1.13-1.78 1.74l-.9.88-.81 1c-.26.32-.54.63-.79.95l-.72 1-.07.1h.21a7.16 7.16 0 0 0 7.16-7.16v-.44" transform="translate(-645.4 -356.74)"/><path class="cls-6" d="M658.51 360.5l-.65.67c-.28.3-.54.62-.81.93s-.54.63-.81 1l-.76 1c-.52.65-1 1.36-1.44 2s-.86 1.38-1.27 2-.76 1.33-1.07 2l-.47.93-.33.71a7.22 7.22 0 0 0 1.7.26l.07-.1.72-1c.25-.32.53-.63.79-.95l.81-1 .87-.91c.56-.62 1.19-1.18 1.78-1.74s1.23-1.07 1.82-1.58l.5-.39a7.12 7.12 0 0 0-1.46-3.91" transform="translate(-645.4 -356.74)"/><path class="cls-5" d="M650.71 360.53c-.18.12-.35.25-.51.38a4.12 4.12 0 0 0-.58.61 8 8 0 0 0-1 1.54 8.05 8.05 0 0 0-.48 1.31l.25-.44.72-1.13c.47-.77 1-1.48 1.52-2.2l.05-.07" transform="translate(-645.4 -356.74)"/><path fill="#fff" d="M5.08 8.52l-.11.11-.13.16.24-.27"/><path class="cls-5" d="M657.3 359.27l-.68.49c-.59.41-1.16.89-1.78 1.37s-1.22 1-1.82 1.58-1.22 1.13-1.78 1.75l-.76.8-.24.27-.68.8c-.26.32-.54.63-.79.95l-.69.93a9.24 9.24 0 0 0 .42 1.48 10.32 10.32 0 0 0 .58 1.27 7.12 7.12 0 0 0 1.81.79l.33-.71.47-.93c.31-.64.7-1.28 1.07-2s.81-1.37 1.27-2 .92-1.39 1.44-2l.76-1c.27-.32.54-.64.81-1s.53-.64.81-.93l.65-.67a7.22 7.22 0 0 0-1.21-1.23" transform="translate(-645.4 -356.74)"/><path class="cls-6" d="M656.12 358.94h-.93a10.3 10.3 0 0 0-1.31.21 10 10 0 0 0-1.47.46 9.47 9.47 0 0 0-1.51.76l-.19.12-.05.07c-.51.72-1 1.44-1.52 2.2l-.72 1.13-.25.44q-.06.21-.1.41a7.8 7.8 0 0 0-.17 1.75 8.84 8.84 0 0 0 .05.89c0 .1 0 .27.06.4s0 .26.07.39l.69-.93c.25-.32.53-.63.79-.95l.68-.8.13-.15.11-.11.76-.8c.56-.62 1.19-1.18 1.78-1.75s1.23-1.07 1.82-1.58 1.19-1 1.78-1.37l.68-.49-.4-.3h-.79" transform="translate(-645.4 -356.74)"/><path d="M656.65 358.8l.26.17h.24l-.23-.09-.27-.1" transform="translate(-645.4 -356.74)" fill="#d6908b"/><path d="M647.71 369.86l.1.17a7.48 7.48 0 0 0 .82 1.16 7 7 0 0 0 .76.77 5.18 5.18 0 0 0 .55.43l.21.13a7.54 7.54 0 0 1-.55-.73c-.15-.22-.32-.5-.5-.82a7.13 7.13 0 0 1-1.38-1.1" transform="translate(-645.4 -356.74)" fill="#c2d28f"/><path class="cls-10" d="M652.14 358.7a8.74 8.74 0 0 0-1.82.69 6.78 6.78 0 0 0-.89.54 5.38 5.38 0 0 0-.82.75 7.91 7.91 0 0 0-1.19 1.8 8 8 0 0 0-.66 2.05 7.54 7.54 0 0 0-.08 2.09c0 .16 0 .3.05.44l.4-.83c.19-.38.42-.76.63-1.14l.4-.72a8.05 8.05 0 0 1 .48-1.31 8 8 0 0 1 1-1.54 4.12 4.12 0 0 1 .58-.61c.16-.13.34-.26.51-.38.46-.64 1-1.24 1.43-1.84M648.09 368.2c-.23.32-.48.63-.69.94.11.24.22.47.34.68a7.13 7.13 0 0 0 1.38 1.1 10.32 10.32 0 0 1-.58-1.27 9.24 9.24 0 0 1-.42-1.48" transform="translate(-645.4 -356.74)"/><path d="M648.18 364.37l-.4.72c-.21.38-.43.76-.63 1.14l-.4.83c0 .18.06.34.09.51s.08.32.12.48a3.87 3.87 0 0 0 .14.44 6.83 6.83 0 0 0 .27.69c.21-.32.46-.62.69-.94 0-.13-.05-.25-.07-.39s0-.29-.06-.4a8.84 8.84 0 0 1-.05-.89 7.8 7.8 0 0 1 .17-1.75q0-.21.1-.41m6.09-5.95h-.48a8.66 8.66 0 0 0-1.64.26c-.47.6-1 1.2-1.43 1.84l.19-.12a9.47 9.47 0 0 1 1.51-.76 10 10 0 0 1 1.47-.46 10.3 10.3 0 0 1 1.31-.21H656.89l-.26-.17-.38-.11a7.2 7.2 0 0 0-1.06-.2 8.4 8.4 0 0 0-.94-.06" transform="translate(-645.4 -356.74)" fill="#dfa5a2"/></g><path d="M654 373.87v.13a8.63 8.63 0 1 0-8.63-8.63A8.63 8.63 0 0 0 654 374v-.25a8.38 8.38 0 1 1 6-2.45 8.35 8.35 0 0 1-5.92 2.45v.13z" transform="translate(-645.4 -356.74)"/></svg>