<svg data-name="Layer 1" xmlns="http://www.w3.org/2000/svg" viewBox="0 0 17.26 17.26"><defs><clipPath id="a" transform="translate(-645.43 -357.42)"><path d="M662.56 366a8.5 8.5 0 1 1-8.5-8.5 8.5 8.5 0 0 1 8.5 8.5" fill="none"/></clipPath></defs><path d="M17.13 8.58a8.5 8.5 0 1 1-8.5-8.5 8.5 8.5 0 0 1 8.5 8.5z" fill="#69a16d"/><g clip-path="url(#a)"><path d="M15.42 7.06a6.21 6.21 0 0 0-6.85-4.48A6 6 0 0 0 3.9 6.66a4.9 4.9 0 0 0 1.15 4.78c2.59 2.8 7.75 1 7.06-2.72a3 3 0 0 0-1.72-2.23 2 2 0 0 0-2.51.45 1 1 0 0 0 .11 1.71c.64.4 1.74-.31 1.74 1 0 .92-1.22 1.45-1.89 1.36-2.56-.38-2.9-3.7-1.15-5.45a4.13 4.13 0 0 1 6.47.76 5.32 5.32 0 0 1-1.71 7.46C7.2 16.6 1.37 12.56 1.82 7.56a7 7 0 0 1 2.11-4.6A7.94 7.94 0 0 1 11.84.88a9.46 9.46 0 0 1 1.67.75A8.5 8.5 0 0 0 1.7 13.58a8.91 8.91 0 0 0 7 2.82 7.35 7.35 0 0 0 6.71-9.32z" fill="#95b860"/></g><path d="M17.13 8.58h-.12a8.38 8.38 0 1 1-2.46-5.92 8.36 8.36 0 0 1 2.46 5.92h.25a8.63 8.63 0 1 0-8.63 8.63 8.63 8.63 0 0 0 8.63-8.63z"/></svg>