<svg xmlns="http://www.w3.org/2000/svg" viewBox="0 0 87.9 29.9"><path d="M87.1 26.6c-.1-.3-.2-.6-.4-.9l-.2.1.3.9.3-.1zm-.7-1.9c-.1-.3-.3-.6-.4-.9l-.2.1c.1.3.3.6.4.9l.2-.1zm-.8-1.8c-.1-.3-.3-.6-.5-.9l-.2.1c.2.3.3.6.5.9l.2-.1zm-1-1.7c-.2-.3-.3-.6-.5-.8l-.2.1c.2.3.3.6.5.8l.2-.1zm-1-1.7c-.2-.3-.4-.5-.6-.8l-.2.1c.2.3.4.5.5.8l.3-.1zm-1.1-1.6c-.2-.3-.4-.5-.6-.8l-.2.2c.2.3.4.5.6.8l.2-.2zm-1.3-1.6c-.2-.3-.4-.5-.6-.8l-.2.2c.2.2.4.5.6.8l.2-.2zM80 14.9c-.2-.2-.4-.5-.7-.7l-.2.2c.2.2.4.5.7.7l.2-.2zm-1.4-1.5l-.7-.7-.2.2.7.7.2-.2zm-1.4-1.3c-.2-.2-.5-.4-.7-.7l-.2.2c.2.2.5.4.7.6l.2-.1zm-1.5-1.3c-.3-.2-.5-.4-.8-.6l-.2.2c.3.2.5.4.8.6l.2-.2zm-1.6-1.2c-.3-.2-.5-.4-.8-.6l-.1.2c.3.2.5.4.8.6l.1-.2zm-1.6-1.2c-.3-.2-.5-.4-.8-.5l-.1.2c.3.2.5.4.8.5l.1-.2zm-1.7-1.1c-.2-.1-.5-.3-.8-.5l-.1.2c.3.2.6.3.8.5l.1-.2zm-1.7-1c-.3-.2-.6-.3-.9-.5l-.1.2c.3.2.6.3.9.5l.1-.2zm-1.7-.9c-.3-.1-.6-.3-.9-.4l-.1.2c.3.1.6.3.9.4l.1-.2zm-1.8-.8c-.3-.1-.6-.3-.9-.4l-.1.2c.3.1.6.3.9.4l.1-.2zm-1.8-.8c-.3-.1-.6-.2-.9-.4l-.1.2c.3.1.6.2.9.4l.1-.2zM62 3.1c-.3-.1-.6-.2-1-.3V3l.9.3.1-.2zm-1.9-.7l-.9-.3-.1.2.9.3.1-.2zm-1.9-.5c-.3-.1-.6-.2-1-.3l-.1.2c.4.2.7.2 1 .3l.1-.2zm-1.9-.5c-.3-.1-.6-.1-1-.2l-.1.2c.3.1.6.1 1 .2l.1-.2zM54.4 1c-.3-.1-.6-.1-1-.2V1c.3.1.6.1 1 .2V1zm-2-.4c-.3-.1-.6-.1-1-.1v.2c.3 0 .6.1 1 .1V.6zM50.5.4c-.3 0-.7-.1-1-.1v.3c.3 0 .7.1 1 .1V.4zm-2-.2c-.3 0-.7 0-1-.1v.2c.3 0 .7 0 1 .1V.2zm-2-.1h-1v.3h1V.1zM42.6 0h-1v.3h1V0zm-2 .1c-.3 0-.7 0-1 .1v.2c.3 0 .7 0 1-.1V.1zm-2 .2c-.3 0-.7.1-1 .1v.2c.3 0 .7-.1 1-.1V.3zm-1.9.2c-.3 0-.7.1-1 .1v.2c.3 0 .6-.1 1-.1V.5zm-2 .3c-.3.1-.6.1-1 .2v.2c.3-.1.6-.1 1-.2V.8zm-1.9.4c-.3.1-.6.1-1 .2l.1.2c.3-.1.6-.1 1-.2l-.1-.2zm-1.9.4c-.3.1-.6.2-1 .3l.1.2c.3-.1.6-.1.9-.2v-.3zm-1.9.6l-.9.3.1.2.9-.3-.1-.2zm-1.9.5l-.9.3.1.2.9-.3-.1-.2zm-1.9.7c-.3.1-.6.2-.9.4l.1.2c.3-.1.6-.2.9-.4l-.1-.2zm-1.8.8c-.3.1-.6.3-.9.4l.1.2c.3-.1.6-.3.9-.4l-.1-.2zm-1.8.8c-.3.1-.6.3-.9.4l.1.2c.3-.1.6-.3.9-.4l-.1-.2zm-1.7.9c-.3.1-.6.3-.9.4l.1.2c.3-.2.6-.3.9-.5l-.1-.1zm-1.8.9c-.3.2-.6.3-.8.5l.1.2c.3-.1.6-.3.9-.5l-.2-.2zm-1.6 1.1c-.3.2-.6.4-.8.5l.1.2c.3-.2.5-.4.8-.5l-.1-.2zM14.8 9c-.3.2-.5.4-.8.6l.1.2c.3-.2.5-.4.8-.6l-.1-.2zm-1.6 1.1c-.3.2-.5.4-.8.6l.2.2c.3-.2.5-.4.8-.6l-.2-.2zm-1.5 1.3c-.3.2-.5.4-.7.7l.2.2c.2-.2.5-.4.7-.6l-.2-.3zm-1.5 1.3l-.7.7.2.2.7-.7-.2-.2zm-1.4 1.4l-.7.7.3.2c.2-.2.4-.5.7-.7l-.3-.2zm-1.3 1.5c-.2.2-.4.5-.6.8l.2.2c.2-.3.4-.5.6-.7l-.2-.3zm-1.2 1.5c-.2.3-.4.5-.6.8l.2.1c.2-.3.4-.5.6-.8l-.2-.1zm-1.2 1.6c-.2.3-.4.5-.6.8l.2.1c.2-.3.4-.5.6-.8l-.2-.1zM4 20.3c-.2.3-.3.6-.5.9l.2.1c.2-.3.3-.6.5-.8l-.2-.2zm-1 1.8c-.2.3-.3.6-.5.9h.3c.1-.3.3-.6.5-.9H3zm-.9 1.7c-.1.3-.3.6-.4.9l.3.1c.1-.3.3-.6.4-.9l-.3-.1zm-.8 1.8c-.1.3-.2.6-.4.9l.2.1.3-.9-.1-.1zm-.6 1.9l-.3.9.2.1.3-.9-.2-.1zM44.6 0h-1v.3h1V0zM.1 29.4c0 .2-.1.3-.1.5l.2.1c0-.2.1-.3.1-.5l-.2-.1z"/><path d="M87.3 23.2c.4-.2.7 0 .6.4l-.4 3.1c-.1.4-.4.6-.7.3l-2.6-1.7c-.3-.2-.3-.6.1-.7l3-1.4z"/></svg>