<svg id="Layer_1" data-name="Layer 1" xmlns="http://www.w3.org/2000/svg" viewBox="0 0 17.26 17.26"><defs><style>.cls-4{fill:#8163a9}</style><clipPath id="clip-path" transform="translate(-673.89 -376.35)"><path d="M685.38 391.89a3.37 3.37 0 0 0 4-4 3.37 3.37 0 0 0 0-5.72 3.37 3.37 0 0 0-4-4 3.37 3.37 0 0 0-5.72 0 3.37 3.37 0 0 0-4 4 3.37 3.37 0 0 0 0 5.72 3.37 3.37 0 0 0 4 4 3.37 3.37 0 0 0 5.72 0" fill="none"/></clipPath></defs><path d="M685.38 391.89a3.37 3.37 0 0 0 4-4 3.37 3.37 0 0 0 0-5.72 3.37 3.37 0 0 0-4-4 3.37 3.37 0 0 0-5.72 0 3.37 3.37 0 0 0-4 4 3.37 3.37 0 0 0 0 5.72 3.37 3.37 0 0 0 4 4 3.37 3.37 0 0 0 5.72 0z" transform="translate(-673.89 -376.35)" fill="#9478b5"/><g clip-path="url(#clip-path)"><path class="cls-4" d="M686.29 385a4.53 4.53 0 0 1-4.16 4.52h.38a4.54 4.54 0 0 0 0-9.07h-.38a4.53 4.53 0 0 1 4.16 4.52z" transform="translate(-673.89 -376.35)"/><path class="cls-4" d="M691 384.58a3.33 3.33 0 0 0-1.57-2.46 8.12 8.12 0 0 0-3.52.51c2-.22 4.29.58 5.09 1.95zm-2.77-5.88a3.33 3.33 0 0 0-2.85-.63 8.12 8.12 0 0 0-2.13 2.85c1.28-1.58 3.45-2.62 5-2.22zm-5.31 14.76a3.33 3.33 0 0 0 2.46-1.57 8.12 8.12 0 0 0-.51-3.52c.22 2-.58 4.29-1.95 5.09zm-.81-17a3.33 3.33 0 0 0-2.46 1.57 8.12 8.12 0 0 0 .51 3.52c-.22-2 .58-4.29 1.95-5.09zm-3 10.83c-2 .22-4.29-.58-5.09-1.95a3.33 3.33 0 0 0 1.57 2.46 8.12 8.12 0 0 0 3.52-.51zm-.67-3.08c-1.59-1.28-2.62-3.45-2.22-5a3.33 3.33 0 0 0-.63 2.85 8.12 8.12 0 0 0 2.85 2.13zm-1.65 7a3.33 3.33 0 0 0 2.85.63 8.12 8.12 0 0 0 2.13-2.85c-1.28 1.58-3.45 2.62-5 2.22zm9.77-5.55c1.59 1.27 2.62 3.45 2.22 5a3.33 3.33 0 0 0 .63-2.85 8.11 8.11 0 0 0-2.85-2.13z" transform="translate(-673.89 -376.35)"/><path d="M680.53 383.85a.85.85 0 1 1 .85-.85.85.85 0 0 1-.85.85z" transform="translate(-673.89 -376.35)" fill="#b99eca"/><path class="cls-4" d="M682.52 389.36v-.25a4.12 4.12 0 1 1 2.92-1.21 4.11 4.11 0 0 1-2.92 1.21v.5a4.62 4.62 0 1 0-4.62-4.62 4.62 4.62 0 0 0 4.62 4.62v-.25z" transform="translate(-673.89 -376.35)"/></g><path d="M685.38 391.89v.12a3.58 3.58 0 0 0 .81.09 3.5 3.5 0 0 0 3.48-3.48 3.54 3.54 0 0 0-.1-.81h-.12v.19h.07a3.49 3.49 0 0 0 0-5.94h-.07v.13h.12a3.54 3.54 0 0 0 .1-.81 3.48 3.48 0 0 0-4.29-3.38v.12h.12v-.07a3.49 3.49 0 0 0-5.94 0l.11.07V378a3.57 3.57 0 0 0-.81-.1 3.48 3.48 0 0 0-3.38 4.29h.12l-.07-.11a3.49 3.49 0 0 0 0 5.94l.07-.11h-.12a3.54 3.54 0 0 0-.1.81 3.5 3.5 0 0 0 3.48 3.48 3.58 3.58 0 0 0 .81-.09v-.12l-.11.07a3.49 3.49 0 0 0 5.94 0l-.11-.07v.12-.12l-.11-.07a3.24 3.24 0 0 1-5.51 0l-.14-.06a3.31 3.31 0 0 1-.76.09 3.25 3.25 0 0 1-3.23-3.23 3.3 3.3 0 0 1 .09-.75l-.06-.14a3.24 3.24 0 0 1 0-5.51l.06-.14a3.3 3.3 0 0 1-.09-.76 3.25 3.25 0 0 1 3.23-3.23 3.31 3.31 0 0 1 .76.09l.13-.06a3.24 3.24 0 0 1 5.51 0l.11-.07h-.13v.1h.11a3.3 3.3 0 0 1 .75-.09 3.25 3.25 0 0 1 3.23 3.23 3.31 3.31 0 0 1-.09.76v.11h.1v-.12l-.07.11a3.24 3.24 0 0 1 0 5.51l.07.11v-.12h-.1v.11a3.31 3.31 0 0 1 .09.76 3.25 3.25 0 0 1-3.23 3.23 3.25 3.25 0 0 1-.76-.09l-.13.06.11.07z" transform="translate(-673.89 -376.35)"/></svg>