<svg id="Layer_1" data-name="Layer 1" xmlns="http://www.w3.org/2000/svg" viewBox="0 0 17.26 17.26"><defs><style>.cls-3{fill:#f5b957}</style><clipPath id="clip-path" transform="translate(-645.4 -357.42)"><path d="M662.54 366a8.5 8.5 0 1 1-8.5-8.5 8.5 8.5 0 0 1 8.5 8.5" fill="none"/></clipPath></defs><g clip-path="url(#clip-path)"><path class="cls-3" d="M654 357.54a8.5 8.5 0 1 0 8.5 8.5 8.5 8.5 0 0 0-8.5-8.5zm0 11.34a2.83 2.83 0 1 1 2.83-2.83 2.83 2.83 0 0 1-2.83 2.83z" transform="translate(-645.4 -357.42)"/><path d="M654 357.54a8.55 8.55 0 1 0 8.55 8.55 8.55 8.55 0 0 0-8.55-8.55v.1a8.45 8.45 0 1 1-6 2.48 8.43 8.43 0 0 1 6-2.48zm0 11.34a2.78 2.78 0 1 1 2.78-2.79 2.79 2.79 0 0 1-2.78 2.79v.1a2.88 2.88 0 1 0-2.88-2.89 2.89 2.89 0 0 0 2.88 2.89v-.05z" transform="translate(-645.4 -357.42)"/><path class="cls-3" d="M651.58 364.63a5.67 5.67 0 0 1 10.53 3.58 5.67 5.67 0 1 0-10.86-2.91 5.74 5.74 0 0 1 .33-.67z" transform="translate(-645.4 -357.42)"/><path d="M651.58 364.63a5.62 5.62 0 0 1 10.44 3.55v.05h.06a5.72 5.72 0 1 0-11-2.93v.05h.06a5.73 5.73 0 0 1 .33-.67 5.8 5.8 0 0 0-.33.68 5.62 5.62 0 1 1 10.76 2.88 5.72 5.72 0 0 0-10.62-3.61z" transform="translate(-645.4 -357.42)"/><path class="cls-3" d="M654 363.21a5.67 5.67 0 0 1 2.16 10.91 5.67 5.67 0 1 0-2.91-10.86 5.74 5.74 0 0 1 .75-.05z" transform="translate(-645.4 -357.42)"/><path d="M654 363.21v.05a5.62 5.62 0 0 1 2.14 10.81v.06h.05a5.72 5.72 0 1 0-2.94-11v.06h.05a5.64 5.64 0 0 1 .74 0v-.1a5.66 5.66 0 0 0-.75.05 5.62 5.62 0 1 1 2.88 10.76 5.72 5.72 0 0 0-2.18-11z" transform="translate(-645.4 -357.42)"/><path class="cls-3" d="M656.49 364.63a5.67 5.67 0 0 1-8.37 7.33 5.67 5.67 0 1 0 7.95-8 5.8 5.8 0 0 1 .42.62z" transform="translate(-645.4 -357.42)"/><path d="M656.49 364.63a5.62 5.62 0 0 1-8.29 7.26h-.07v.11a5.72 5.72 0 1 0 8-8H656a5.71 5.71 0 0 1 .41.62 5.78 5.78 0 0 0-.42-.63 5.62 5.62 0 1 1-7.88 7.88 5.72 5.72 0 0 0 8.44-7.39z" transform="translate(-645.4 -357.42)"/><path class="cls-3" d="M656.49 367.47a5.67 5.67 0 0 1-10.49-3.59 5.67 5.67 0 1 0 10.86 2.91 5.76 5.76 0 0 1-.33.67z" transform="translate(-645.4 -357.42)"/><path d="M656.49 367.47a5.62 5.62 0 0 1-10.49-3.58v-.06h-.06a5.72 5.72 0 1 0 11 2.94v-.05h-.06a5.65 5.65 0 0 1-.33.67 5.75 5.75 0 0 0 .33-.68A5.62 5.62 0 1 1 646 363.9a5.72 5.72 0 0 0 10.62 3.61z" transform="translate(-645.4 -357.42)"/><path class="cls-3" d="M654 368.88a5.67 5.67 0 0 1-2.13-10.88 5.67 5.67 0 1 0 2.91 10.86 5.74 5.74 0 0 1-.75 0z" transform="translate(-645.4 -357.42)"/><path d="M654 368.88a5.62 5.62 0 0 1-2.11-10.88v-.06h-.05a5.72 5.72 0 1 0 2.94 11v-.06h-.05a5.65 5.65 0 0 1-.74 0v.1a5.83 5.83 0 0 0 .75-.05 5.62 5.62 0 1 1-2.87-10.93 5.72 5.72 0 0 0 2.18 11v-.05z" transform="translate(-645.4 -357.42)"/><path class="cls-3" d="M651.58 367.47a5.67 5.67 0 0 1 8.37-7.33 5.67 5.67 0 1 0-7.95 8 5.78 5.78 0 0 1-.42-.62z" transform="translate(-645.4 -357.42)"/><path d="M651.58 367.47a5.62 5.62 0 0 1 8.29-7.26h.13v-.07a5.72 5.72 0 1 0-8 8v-.07a5.68 5.68 0 0 1-.41-.61 5.8 5.8 0 0 0 .42.63 5.62 5.62 0 1 1 7.88-7.88 5.72 5.72 0 0 0-8.44 7.39z" transform="translate(-645.4 -357.42)"/></g><path d="M662.54 366h-.12a8.38 8.38 0 1 1-2.45-5.92 8.35 8.35 0 0 1 2.45 5.92h.25a8.63 8.63 0 1 0-8.63 8.63 8.63 8.63 0 0 0 8.63-8.63z" transform="translate(-645.4 -357.42)"/></svg>