<svg id="Layer_1" xmlns="http://www.w3.org/2000/svg" viewBox="0 0 91.6 17.7"><style>.st0{fill:#898989}</style><path class="st0" d="M1.9 14.2c.6-.8 1.3-1.5 2.1-2.3l.7.7c-.8.7-1.4 1.4-2 2.2l-.8-.6zm3.7-3.6c.8-.6 1.6-1.2 2.5-1.8l.5.8c-.9.5-1.7 1.1-2.4 1.7l-.6-.7zm4.3-2.8c.9-.5 1.8-.9 2.7-1.4l.4.9c-.9.4-1.8.9-2.7 1.4l-.4-.9zm4.6-2.2c.9-.4 1.9-.8 2.8-1.1l.3.9c-1 .3-1.9.7-2.8 1.1l-.3-.9zm4.8-1.8c.9-.3 1.9-.6 2.9-.9l.3 1c-1 .3-1.9.5-2.9.8l-.3-.9zm4.9-1.4c1-.2 2-.5 3-.7l.2 1c-1 .2-2 .4-2.9.7l-.3-1zm4.9-1c1-.2 2-.3 3-.5l.1 1c-1 .1-2 .3-3 .5l-.1-1zm5.1-.7l3-.3.1 1-3 .3-.1-1zm5-.5c1-.1 2-.1 3-.2v1c-1 0-2 .1-3 .2v-1zM49.4.1c1 0 2 .1 3 .2l-.1 1c-1-.1-2-.1-3-.2l.1-1zm5 .3l3 .3-.1 1-3-.3.1-1zm5.1.5c1 .1 2 .3 3 .5l-.2 1c-1-.2-2-.3-3-.5l.2-1zm5 .9c1 .2 2 .4 3 .7l-.2 1c-1-.2-1.9-.4-2.9-.7l.1-1zM69.4 3c1 .3 2 .6 2.9.9l-.3 1c-.9-.3-1.9-.6-2.9-.8l.3-1.1zm4.9 1.5c1 .3 1.9.7 2.8 1.1l-.4.9c-.9-.4-1.8-.7-2.8-1.1l.4-.9zM79 6.4c.9.4 1.9.9 2.7 1.4l-.5.9c-.8-.5-1.7-.9-2.7-1.4l.5-.9zm4.5 2.4c.9.6 1.7 1.2 2.5 1.8l-.6.8c-.8-.6-1.6-1.2-2.4-1.7l.5-.9zm4.1 3.1c.8.7 1.5 1.5 2.1 2.3l-.8.6c-.6-.7-1.3-1.5-2-2.1l.7-.8zM0 17.3c.2-.5.4-.9.7-1.4l.9.5c-.3.4-.5.9-.7 1.3l-.9-.4zM44.3 0h3v1h-3V0zm46.6 15.9c.3.5.5.9.7 1.4l-.9.4c-.2-.4-.4-.9-.7-1.3l.9-.5z"/><path class="st0" d="M90.4 12.9c.4-.3.8-.1.8.4l.2 3.7c0 .5-.3.7-.8.5l-3.3-1.6c-.4-.2-.5-.6 0-.9l3.1-2.1z"/></svg>