<svg id="Layer_1" data-name="Layer 1" xmlns="http://www.w3.org/2000/svg" viewBox="0 0 17.26 17.26"><defs><style>.cls-1{fill:none}.cls-2{fill:#f5b957}.cls-4{fill:#eba447}</style><clipPath id="clip-path" transform="translate(-645.45 -356.74)"><path class="cls-1" d="M654.08 365.37a4.25 4.25 0 0 1-3 7.26 4.25 4.25 0 1 0 3-7.26m0 0a4.25 4.25 0 0 1 3-7.26 4.25 4.25 0 1 0-3 7.26"/></clipPath><clipPath id="clip-path-2" transform="translate(-645.45 -356.74)"><path class="cls-1" d="M654.08 365.37a4.25 4.25 0 0 1 3 7.26 4.25 4.25 0 1 0-3-7.26m0 0a4.25 4.25 0 0 1-3-7.26 4.25 4.25 0 1 0 3 7.26"/></clipPath><clipPath id="clip-path-3" transform="translate(-645.45 -356.74)"><path class="cls-1" d="M654.08 365.37a4.25 4.25 0 0 1 7.26 3 4.25 4.25 0 1 0-7.26-3m0 0a4.25 4.25 0 0 1-7.26-3 4.25 4.25 0 1 0 7.26 3"/></clipPath><clipPath id="clip-path-4" transform="translate(-645.45 -356.74)"><path class="cls-1" d="M654.08 365.37a4.25 4.25 0 0 1 7.26-3 4.25 4.25 0 1 0-7.26 3m0 0a4.25 4.25 0 0 1-7.26 3 4.25 4.25 0 1 0 7.26-3"/></clipPath></defs><path class="cls-2" d="M654.08 365.37a4.25 4.25 0 0 1-3 7.26 4.25 4.25 0 1 0 3-7.26zm0 0a4.25 4.25 0 0 1 3-7.26 4.25 4.25 0 1 0-3 7.26z" transform="translate(-645.45 -356.74)"/><g clip-path="url(#clip-path)"><path class="cls-4" d="M652.6 372.34a4.25 4.25 0 0 1-1.53.29 4.25 4.25 0 0 0 6.89-1.28 10 10 0 0 0-3.88 1.31 3.62 3.62 0 0 1-1.48-.32zm3-13.94a4.24 4.24 0 0 1 1.53-.29 4.25 4.25 0 0 0-6.89 1.28 10 10 0 0 0 3.88-1.31 3.63 3.63 0 0 1 1.48.32z" transform="translate(-645.45 -356.74)"/></g><path d="M654.08 365.37l-.09.09a4.13 4.13 0 0 1-2.92 7l-.12.08v.14a4.38 4.38 0 1 0 3.1-7.47l-.11.08v.14l.09-.09v.13a4.13 4.13 0 1 1-2.92 7l-.09.09v.13a4.38 4.38 0 0 0 3.09-7.47l-.09.09zm0 0l.09-.09a4.13 4.13 0 0 1 2.92-7l.11-.08v-.14a4.38 4.38 0 1 0-3.09 7.47l.12-.08v-.14l-.09.09v-.12a4.13 4.13 0 1 1 2.92-7l.09-.09V358a4.38 4.38 0 0 0-3.09 7.47l.09-.09z" transform="translate(-645.45 -356.74)"/><path class="cls-2" d="M654.08 365.37a4.25 4.25 0 0 1 3 7.26 4.25 4.25 0 1 0-3-7.26zm0 0a4.25 4.25 0 0 1-3-7.26 4.25 4.25 0 1 0 3 7.26z" transform="translate(-645.45 -356.74)"/><g clip-path="url(#clip-path-2)"><path class="cls-4" d="M658 371.35a4.25 4.25 0 0 1-.87 1.28 4.25 4.25 0 0 0 4-5.78 10 10 0 0 0-1.82 3.67 3.61 3.61 0 0 1-1.27.82zm-7.76-12a4.27 4.27 0 0 1 .88-1.28 4.25 4.25 0 0 0-4 5.78 10 10 0 0 0 1.82-3.67 3.63 3.63 0 0 1 1.27-.82z" transform="translate(-645.45 -356.74)"/></g><path d="M654.08 365.37v.13a4.13 4.13 0 0 1 2.92 7v.14l.12.08a4.38 4.38 0 1 0-3.09-7.47v.14l.11.08v-.12l.09.09a4.13 4.13 0 1 1 2.92 7v.13l.09.09a4.38 4.38 0 0 0-3.09-7.47v.13l.09.09-.09-.09zm0 0v-.12a4.08 4.08 0 0 1-2.89-1.18 4.13 4.13 0 0 1 0-5.86v-.14l-.11-.08a4.38 4.38 0 1 0 3.09 7.47v-.14l-.12-.08v.13l-.09-.09a4.13 4.13 0 1 1-2.92-7v-.12L651 358a4.38 4.38 0 0 0 3.1 7.47v-.12l-.09-.09.09.09z" transform="translate(-645.45 -356.74)"/><path class="cls-2" d="M654.08 365.37a4.25 4.25 0 0 1 7.26 3 4.25 4.25 0 1 0-7.26-3zm0 0a4.25 4.25 0 0 1-7.26-3 4.25 4.25 0 1 0 7.26 3z" transform="translate(-645.45 -356.74)"/><g clip-path="url(#clip-path-3)"><path class="cls-4" d="M661 366.85a4.24 4.24 0 0 1 .29 1.53 4.25 4.25 0 0 0-1.28-6.89 10 10 0 0 0 1.31 3.88 3.61 3.61 0 0 1-.32 1.48zm-13.94-3a4.27 4.27 0 0 1-.29-1.53 4.25 4.25 0 0 0 1.28 6.89 10 10 0 0 0-1.31-3.88 3.62 3.62 0 0 1 .32-1.48z" transform="translate(-645.45 -356.74)"/></g><path d="M654.08 365.37l.09.09a4.13 4.13 0 0 1 7 2.92l.08.11h.14a4.38 4.38 0 1 0-7.47-3.1l.08.12h.14l-.09-.09h.12a4.13 4.13 0 1 1 7 2.92l.09.09h.12a4.38 4.38 0 0 0-7.47-3.1l.09.09zm0 0l-.09-.09a4.13 4.13 0 0 1-7-2.92l-.08-.12h-.14a4.38 4.38 0 1 0 7.47 3.1l-.08-.11h-.14l.09.09H654a4.13 4.13 0 1 1-7-2.92l-.09-.09h-.12a4.38 4.38 0 0 0 7.47 3.1l-.09-.09z" transform="translate(-645.45 -356.74)"/><path class="cls-2" d="M654.08 365.37a4.25 4.25 0 0 1 7.26-3 4.25 4.25 0 1 0-7.26 3zm0 0a4.25 4.25 0 0 1-7.26 3 4.25 4.25 0 1 0 7.26-3z" transform="translate(-645.45 -356.74)"/><g clip-path="url(#clip-path-4)"><path class="cls-4" d="M660.05 361.49a4.27 4.27 0 0 1 1.28.87 4.25 4.25 0 0 0-5.78-4 10 10 0 0 0 3.67 1.82 3.63 3.63 0 0 1 .82 1.27zm-11.95 7.76a4.26 4.26 0 0 1-1.28-.87 4.25 4.25 0 0 0 5.78 4 10.07 10.07 0 0 0-3.67-1.82 3.61 3.61 0 0 1-.82-1.27z" transform="translate(-645.45 -356.74)"/></g><path d="M654.08 365.37h.12a4.13 4.13 0 0 1 7-2.92h.14l.08-.11a4.38 4.38 0 1 0-7.47 3.1h.14l.08-.12h-.12l.09-.09a4.13 4.13 0 1 1 7-2.92h.13l.09-.09a4.38 4.38 0 0 0-7.47 3.1h.13l.09-.09-.09.09zm0 0H654a4.13 4.13 0 0 1-7 2.92h-.14l-.08.12a4.38 4.38 0 1 0 7.47-3.1h-.14l-.08.11h.13l-.09.09a4.13 4.13 0 1 1-7 2.92h-.13l-.09.09a4.38 4.38 0 0 0 7.47-3.1h-.12l-.09.09.09-.09z" transform="translate(-645.45 -356.74)"/></svg>