<svg xmlns="http://www.w3.org/2000/svg" viewBox="0 0 53.5 47.8"><path d="M30.9 3.7c-.1-.1-1.8-3.1-4.3-3.1-1.5 0-2.9 1.1-4.1 3.1L1.6 39.9c-.1.1-1.8 3.1-.5 5.3.7 1.3 2.3 1.9 4.7 1.9h41.8c.1 0 3.6 0 4.9-2.2.7-1.3.5-3-.7-5.1L30.9 3.7" fill="#fffef3"/><path d="M31.4 3.4c-.1-.1-.5-.9-1.3-1.7-.4-.4-.9-.8-1.5-1.1-.6-.4-1.3-.6-2.1-.6-.9 0-1.7.3-2.5.9-.8.6-1.4 1.4-2.1 2.5L1.1 39.6C1 39.7 0 41.4 0 43.4c0 .7.1 1.4.5 2.1.4.8 1.2 1.4 2 1.7.9.4 2 .5 3.2.5h41.8c.1 0 1.1 0 2.2-.3s2.5-.9 3.2-2.2c.3-.6.5-1.3.5-2 0-1.1-.4-2.4-1.2-3.7L31.4 3.4l-1 .6 20.9 36.2c.7 1.2 1 2.3 1 3.1 0 .5-.1 1-.3 1.4-.5.9-1.5 1.4-2.5 1.6-1 .3-1.8.3-1.9.3H5.8c-1.1 0-2.1-.2-2.8-.4-.7-.3-1.2-.7-1.5-1.2-.3-.5-.4-1-.4-1.5 0-1.5.9-3.1.9-3.2L23 4c.6-1 1.2-1.7 1.8-2.2.6-.5 1.2-.7 1.8-.7.5 0 1 .1 1.4.4 1.3.8 2.3 2.5 2.3 2.5l1.1-.6z" fill="#a9a09a"/></svg>