<svg id="Layer_1" xmlns="http://www.w3.org/2000/svg" viewBox="0 0 31 48"><style>.st0{fill:#a9a09a}</style><path class="st0" d="M30.4 47.4V.6c0 .6-.1 1.2-.2 1.7-.1.3-.2.5-.2.8-.1.3-.1.6-.3.8-.2.4-.4.7-.6 1 0 .1-.1.3-.2.4L28 6.5l-.1.1C26.4 8.1 24.3 9 22 9.1h-6.5C7.3 9.1.6 15.8.6 24s6.7 14.9 14.9 14.9H22c2.3 0 4.4 1 5.9 2.5l.1.1c.3.4.7.7.9 1.2.1.1.1.3.2.4.2.3.4.7.6 1 .1.3.2.6.3.8.1.3.2.5.2.8.1.5.2 1.1.2 1.7z"/><path class="st0" d="M30.4 47.4h-.6V.6c0-.2.1-.3.2-.4.1-.1.2-.2.4-.2s.3.1.4.2c.1.1.2.2.2.4 0 .6-.1 1.2-.2 1.8-.1.3-.2.6-.2.8-.1.2-.1.6-.3.9-.2.4-.4.8-.6 1.1 0 .1-.1.2-.2.4-.3.4-.6.9-1 1.2l-.5-.3.5.4-.1.1c-1.6 1.6-3.8 2.7-6.3 2.7h-6.5c-3.9 0-7.5 1.6-10.1 4.2C2.8 16.5 1.2 20 1.2 24H.6h.6-.6.6c0 3.9 1.6 7.5 4.2 10.1 2.6 2.6 6.2 4.2 10.1 4.2H22c2.5 0 4.7 1.1 6.3 2.7l.1.1-.4.4.4-.4c.4.4.7.8 1 1.2.1.2.2.3.2.4.2.3.4.7.6 1.1l.3.9c.1.2.2.5.2.8.1.6.2 1.2.2 1.8 0 .2-.1.3-.2.4-.1.1-.3.2-.4.2-.2 0-.3-.1-.4-.2-.1-.1-.2-.3-.2-.4h.7-.6c0-.5-.1-1.1-.2-1.6 0-.2-.1-.4-.2-.7-.1-.3-.2-.6-.2-.8-.1-.3-.3-.6-.5-1-.1-.2-.2-.3-.2-.4-.3-.4-.6-.7-.9-1.1l-.1-.1.5-.4-.4.4c-1.4-1.4-3.3-2.3-5.5-2.4v-.6.6h-6.5C6.9 39.5 0 32.6 0 24h.6H0C0 15.4 6.9 8.5 15.5 8.5H22v.6-.6c2.1 0 4.1-.9 5.5-2.4l.4.4-.5-.4.1-.1c.3-.3.6-.7.9-1.1l.2-.4c.2-.3.4-.7.5-1 .1-.2.1-.5.2-.8.1-.3.2-.5.2-.7.1-.5.2-1 .2-1.6 0-.2.1-.3.2-.4.2.1.3 0 .5 0s.3.1.4.2c.1.1.2.2.2.4v46.8c0 .2-.1.3-.2.4-.1.1-.3.2-.4.2-.2 0-.3-.1-.4-.2-.1-.1-.2-.3-.2-.4h.6z"/></svg>