<svg id="Layer_1" xmlns="http://www.w3.org/2000/svg" viewBox="0 0 125.7 20.5"><style>.st0{fill:#898989}</style><path d="M79.7 12.8c-.1-.3-.2-.6-.3-1l-.2.1c.1.3.2.6.3 1l.2-.1zm-.7-1.9c-.1-.3-.3-.6-.4-.9l-.2.1c.2.3.3.6.4.9l.2-.1zm-.9-1.8c-.2-.3-.4-.6-.5-.9l-.2.1c.2.3.4.6.5.8h.2zM77 7.4c-.2-.3-.4-.5-.6-.8l-.2.2c.2.3.4.5.6.8l.2-.2zm-1.4-1.5l-.7-.7-.2.2c.3.2.5.4.8.6l.1-.1zm-1.4-1.4c-.3-.2-.5-.4-.8-.6l-.2.1c.3.2.5.4.8.6l.2-.1zm-1.6-1.3c-.3-.2-.6-.3-.9-.5l-.1.2c.3.2.6.4.8.5l.2-.2zm-1.7-1c-.3-.2-.6-.3-.9-.5l-.1.2c.3.1.6.3.9.5l.1-.2zM69 1.3c-.3-.1-.6-.2-.9-.4l-.1.3c.3.1.6.2.9.4l.1-.3zM67.1.6c-.3-.1-.7-.2-1-.2l-.1.2c.3.1.6.2 1 .2l.1-.2zm-2-.4c-.3-.1-.7-.1-1-.1v.2c.3 0 .7.1 1 .1V.2zM61.1.1c-.3 0-.7.1-1 .1v.2c.3 0 .6-.1 1-.1V.1zm-1.9.2c-.3.1-.6.1-1 .2l.1.2c.3-.1.6-.1 1-.2l-.1-.2zm-1.9.4l-.9.3.1.2c.2-.1.5-.2.8-.3V.7zm-1.9.6c-.3.1-.6.2-.9.4l.1.2c.3-.1.6-.3.9-.4l-.1-.2zm-1.8.8c-.3.2-.6.3-.9.5l.1.2c.3-.2.6-.3.8-.5v-.2zm-1.7 1c-.3.2-.5.4-.8.6l.2.2c.3-.2.5-.4.8-.6l-.2-.2zm-1.6 1.2c-.2.2-.5.4-.7.7l.2.2c.2-.2.5-.4.7-.7l-.2-.2zm-1.4 1.4c-.2.2-.4.5-.6.7l.2.2c.2-.3.4-.5.6-.7l-.2-.2zm-1.2 1.5c-.2.3-.4.5-.5.8l.2.1c.2-.3.3-.5.5-.8l-.2-.1zm-1 1.7c-.2.3-.3.6-.4.9l.2.1c.1-.3.3-.6.4-.9l-.2-.1zM80 14.3c0-.2-.1-.3-.1-.5h-.2c0 .2.1.3.1.5h.2zM63.1 0h-1v.2h1V0zM45.9 10.7c-.1.2-.1.3-.2.5l.2.1c0-.2.1-.3.2-.5l-.2-.1z"/><path class="st0" d="M.5 17.6h124.7c.3 0 .5-.2.5-.5s-.2-.5-.5-.5H.5c-.3 0-.5.2-.5.5s.2.5.5.5"/><path class="st0" d="M11.3 14.3V20c0 .3.2.5.5.5s.5-.2.5-.5v-5.7c0-.3-.2-.5-.5-.5-.2 0-.5.2-.5.5M45.4 14.3V20c0 .3.2.5.5.5s.5-.2.5-.5v-5.7c0-.3-.2-.5-.5-.5s-.5.2-.5.5M79.4 14.3V20c0 .3.2.5.5.5s.5-.2.5-.5v-5.7c0-.3-.2-.5-.5-.5s-.5.2-.5.5M113.4 14.3V20c0 .3.2.5.5.5s.5-.2.5-.5v-5.7c0-.3-.2-.5-.5-.5s-.5.2-.5.5"/><path d="M44.7 9.9c-.4-.1-.7.2-.5.6l1.3 2.8c.2.4.5.4.8.1l2-2.4c.3-.3.1-.6-.3-.7l-3.3-.4z"/></svg>