<svg id="Layer_1" data-name="Layer 1" xmlns="http://www.w3.org/2000/svg" viewBox="0 0 17.26 17.26"><defs><style>.cls-2{fill:#ea6b89}</style><clipPath id="clip-path" transform="translate(-645.43 -357.61)"><path d="M662.56 366.24a8.5 8.5 0 1 1-8.5-8.5 8.5 8.5 0 0 1 8.5 8.5" fill="none"/></clipPath></defs><path class="cls-2" d="M662.56 366.24a8.5 8.5 0 1 1-8.5-8.5 8.5 8.5 0 0 1 8.5 8.5z" transform="translate(-645.43 -357.61)"/><g clip-path="url(#clip-path)"><path d="M662 365.39a7.94 7.94 0 1 1-7.94-7.65 7.8 7.8 0 0 1 7.94 7.65z" transform="translate(-645.43 -357.61)" fill="#ef91a3"/></g><path d="M662.56 366.24h-.12a8.38 8.38 0 1 1-2.46-5.92 8.35 8.35 0 0 1 2.46 5.92h.25a8.63 8.63 0 1 0-8.63 8.63 8.63 8.63 0 0 0 8.63-8.63z" transform="translate(-645.43 -357.61)"/><path class="cls-2" d="M649.52 365.39c0 .31-.38.57-.85.57s-.85-.25-.85-.57.85-1.13.85-1.13c0 .45.85.82.85 1.13zM660.29 365.39c0 .31-.38.57-.85.57s-.85-.25-.85-.57.85-1.13.85-1.13c0 .45.85.82.85 1.13zM657.6 361.13c0 .31-.38.57-.85.57s-.85-.25-.85-.57.85-1.13.85-1.13c0 .45.85.82.85 1.13zM652.21 361.13c0 .31-.38.57-.85.57s-.85-.25-.85-.57.85-1.13.85-1.13c0 .45.85.82.85 1.13zM657.6 369.64c0 .31-.38.57-.85.57s-.85-.25-.85-.57.85-1.13.85-1.13c0 .45.85.82.85 1.13zM652.21 369.64c0 .31-.38.57-.85.57s-.85-.25-.85-.57.85-1.13.85-1.13c0 .45.85.82.85 1.13zM654.91 365.39c0 .31-.38.57-.85.57s-.85-.25-.85-.57.85-1.13.85-1.13c0 .45.85.82.85 1.13z" transform="translate(-645.43 -357.61)"/></svg>