<svg xmlns="http://www.w3.org/2000/svg" viewBox="0 0 29.8 33.6"><path d="M28.2 25.6c.1 0 .9-.6.9-1.6V9.6s0-1.1-.9-1.6L15.8.8s-1-.5-1.9 0L1.5 8s-.9.6-.9 1.6V24s0 1.1.9 1.6L14 32.7s1 .5 1.9 0c4.1-2.3 8.2-4.7 12.3-7.1z" fill="#fffef3"/><path d="M28.2 25.6l.3.5c.1 0 .3-.2.6-.6.3-.3.6-.9.6-1.6V9.6c0-.1 0-.4-.2-.8-.1-.4-.5-1-1.1-1.3L16.1.3c-.1 0-.6-.3-1.3-.3-.4 0-.8.1-1.2.3L1.2 7.5s-.3.2-.6.5c-.3.4-.6.9-.6 1.6V24c0 .1 0 .4.2.8.1.4.5 1 1.1 1.3l12.4 7.2c.1 0 .6.3 1.3.3.4 0 .8-.1 1.2-.3 4.1-2.4 8.3-4.8 12.4-7.2l-.4-.5-.3-.5c-4.1 2.4-8.3 4.8-12.4 7.2-.2.1-.4.2-.6.2-.2 0-.4 0-.5-.1l-.1-.1-.3.4.3-.5-12.5-7.1c-.3-.2-.4-.4-.5-.7 0-.1-.1-.2-.1-.3V24H.6h.6V9.6c0-.3.1-.6.3-.8l.2-.2.1-.1v-.1.1-.1.1l12.4-7.2c.2-.1.4-.2.6-.2.2 0 .4 0 .5.1l.1.1.1-.1-.1.1.1-.1-.1.1 12.4 7.2c.3.2.4.4.5.7 0 .1.1.2.1.3v.1h.6-.6V24c0 .3-.1.6-.3.8l-.2.2.3.6-.3-.5.3.5z" fill="#a9a09a"/></svg>