<svg id="Layer_1" data-name="Layer 1" xmlns="http://www.w3.org/2000/svg" viewBox="0 0 125.73 20.47"><defs><style>.cls-1{fill:#898989}</style></defs><path d="M46 12.79q.13-.49.3-1l.24.08q-.17.47-.3 1l-.24-.08zm.67-1.91q.2-.46.43-.92l.22.11q-.23.45-.43.9l-.23-.1zm.92-1.8q.26-.43.54-.85l.21.14q-.28.42-.53.84l-.22-.13zm1.18-1.68q.31-.4.64-.79l.19.16q-.33.38-.63.78l-.2-.15zm1.31-1.54q.35-.36.72-.71l.17.18q-.36.34-.71.71l-.18-.17zm1.47-1.39q.38-.33.79-.64l.15.2q-.4.3-.78.63l-.16-.19zm1.6-1.23c.28-.19.56-.37.85-.55l.13.21-.84.55-.14-.21zm1.72-1.06q.44-.24.9-.46l.11.23q-.45.22-.89.45l-.12-.22zm1.83-.87q.47-.19.95-.36l.08.24c-.31.11-.63.23-.93.36l-.1-.23zm1.91-.67q.49-.14 1-.25l.05.24q-.49.11-1 .24l-.05-.23zm2-.44q.5-.08 1-.13v.25c-.33 0-.66.07-1 .13V.2zM64.59.05l1 .09v.25l-1-.09V.05zm2 .23l1 .19-.05.24-1-.18V.28zm1.87.42l.94.3-.08.24-.93-.29.07-.25zm1.87.62q.46.18.91.38l-.1.23-.89-.38.09-.23zm1.79.81q.44.23.86.48l-.13.22q-.42-.25-.85-.47l.11-.22zm1.69 1q.41.28.8.57l-.15.2q-.39-.29-.79-.57l.14-.21zm1.57 1.19q.38.32.73.66l-.17.18q-.35-.34-.72-.65l.16-.19zm1.41 1.38q.33.36.64.75l-.2.16q-.3-.38-.63-.74l.19-.17zM78 7.24q.28.4.54.83l-.21.13q-.25-.41-.53-.81l.2-.15zm1 1.68q.23.44.43.89l-.23.1q-.2-.45-.38-.91l.18-.08zM45.73 14.28c0-.17.05-.33.08-.5h.25c0 .16-.06.33-.08.49h-.25zM62.61 0h1v.26h-1V0zm17.22 10.72l.16.47-.24.08-.16-.46.23-.09z"/><path class="cls-1" d="M.5 17.63h124.73a.5.5 0 1 0 0-1H.5a.5.5 0 0 0 0 1"/><path class="cls-1" d="M11.34 14.3V20a.5.5 0 1 0 1 0v-5.7a.5.5 0 1 0-1 0M45.36 14.3V20a.5.5 0 1 0 1 0v-5.7a.5.5 0 1 0-1 0M79.37 14.3V20a.5.5 0 1 0 1 0v-5.7a.5.5 0 1 0-1 0M113.39 14.3V20a.5.5 0 1 0 1 0v-5.7a.5.5 0 1 0-1 0"/><path d="M81 9.85c.43-.06.65.2.48.58l-1.25 2.84a.43.43 0 0 1-.79.11l-2-2.38c-.26-.32-.13-.63.31-.69L81 9.85z"/></svg>