<svg xmlns="http://www.w3.org/2000/svg" xmlns:xlink="http://www.w3.org/1999/xlink" viewBox="0 0 19.8 19.8"><path d="M17 7.1c.7-2 2.3-3.1 2.2-3.2-.1-.1-.9.5-3 2.1-.6.4-2.1 1.2-2.7 1.9-.7.7-.9 1-1.3 1.7-.3.5-.6.9-.6.8 0 0 .4-1.4.2-3.1 0-.2-.1-.3-.1-.5-.3-1-.9-2-1.2-3.7-.2-1.4-.2-1.8-.3-2.3 0-.3-.2-.8-.3-.8 0 0-.2.5-.3.8-.1.5 0 .9-.3 2.3-.2 2-1 2.9-1.2 4.2-.2 1.7.2 3 .2 3.1l-.6-.8c-.5-.8-.7-1.1-1.4-1.8-.6-.7-2.2-1.5-2.7-1.9C1.5 4.4.8 3.7.6 3.8.5 3.9 2.1 5 2.8 7.1c.5 1.4.4 1.7 1.3 3.1 1 1.4 3.4 2.8 2.9 2.7-.4-.1-1.6-.8-3.2-.6-.8.1-1.4.3-2 .4-1.1.1-1.8 0-1.8.1.1.4.2 0 2.5.8.7.2 1.5.7 2.6 1 1.1.3 2.4.4 2.2.5-.2.1-.9.7-.9.8 0 0 .7 0 1.4-.2.5-.2.8-.4 1.1-.5l.1-.1V15h.2l.2-.1v.5c0 1.8-.2 3.4-.4 4.4h2c-.3-1-.4-2.6-.4-4.4v-.5h.4l.6.3.6.3c.7.3 1.4.2 1.4.2 0-.1-.7-.7-.9-.8-.2-.1 1.1-.2 2.2-.5s1.9-.8 2.6-1c2.2-.8 2.4-.5 2.5-.8 0-.1-.7 0-1.8-.1-.6-.1-1.1-.3-2-.4-1.6-.2-2.8.5-3.2.6-.4.1 1.9-1.3 2.9-2.7.7-1.2.6-1.5 1.1-2.9z" fill="#de4a2d"/><defs><path id="a" d="M17 7.1c.7-2 2.3-3.1 2.2-3.2-.1-.1-.9.5-3 2.1-.6.4-2.1 1.2-2.7 1.9-.7.7-.9 1-1.3 1.7-.3.5-.6.9-.6.8 0 0 .4-1.4.2-3.1 0-.2-.1-.3-.1-.5-.3-1-.9-2-1.2-3.7-.2-1.4-.2-1.8-.3-2.3 0-.3-.2-.8-.3-.8 0 0-.2.5-.3.8-.1.5 0 .9-.3 2.3-.2 2-1 2.9-1.2 4.2-.2 1.7.2 3 .2 3.1l-.6-.8c-.5-.8-.7-1.1-1.4-1.8-.6-.7-2.2-1.5-2.7-1.9C1.5 4.4.8 3.7.6 3.8.5 3.9 2.1 5 2.8 7.1c.5 1.4.4 1.7 1.3 3.1 1 1.4 3.4 2.8 2.9 2.7-.4-.1-1.6-.8-3.2-.6-.8.1-1.4.3-2 .4-1.1.1-1.8 0-1.8.1.1.4.2 0 2.5.8.7.2 1.5.7 2.6 1 1.1.3 2.4.4 2.2.5-.2.1-.9.7-.9.8 0 0 .7 0 1.4-.2.5-.2.8-.4 1.1-.5l.1-.1V15h.2l.2-.1v.5c0 1.8-.2 3.4-.4 4.4h2c-.3-1-.4-2.6-.4-4.4v-.5h.4l.6.3.6.3c.7.3 1.4.2 1.4.2 0-.1-.7-.7-.9-.8-.2-.1 1.1-.2 2.2-.5s1.9-.8 2.6-1c2.2-.8 2.4-.5 2.5-.8 0-.1-.7 0-1.8-.1-.6-.1-1.1-.3-2-.4-1.6-.2-2.8.5-3.2.6-.4.1 1.9-1.3 2.9-2.7.7-1.2.6-1.5 1.1-2.9"/></defs><clipPath id="b"><use xlink:href="#a" overflow="visible"/></clipPath><path d="M16.2 8.6c.7-1.8 2.1-2.8 2-2.9-.1-.1-.8.5-2.7 1.8-.5.4-1.9 1.1-2.4 1.7-.6.6-.8.9-1.2 1.6-.2.4-.5.8-.5.7 0 0 .3-1.2.1-2.7 0-.1 0-.3-.1-.4-.2-.9-.8-1.7-1.1-3.3-.2-1.3-.2-1.6-.2-2.1 0-.3-.2-.7-.3-.7.1 0-.1.5-.1.7-.1.5 0 .8-.2 2.1-.3 1.8-1 2.6-1.1 3.7-.2 1.5.1 2.7.1 2.7s-.3-.3-.5-.7c-.4-.6-.6-.9-1.2-1.6-.6-.5-2-1.2-2.5-1.6-1.8-1.4-2.5-2-2.7-1.8-.1.1 1.3 1.1 2 2.9.5 1.2.3 1.5 1.2 2.8.8 1.2 2.9 2.5 2.6 2.4-.4-.1-1.4-.7-2.9-.6-.7.1-1.2.3-1.8.3-1 .1-1.6 0-1.6.1.1.3.2 0 2.2.7.6.2 1.3.6 2.3.9 1 .3 2.1.3 1.9.4-.2.1-.8.7-.8.7s.6 0 1.3-.2c.4-.1.7-.3.9-.4l.1-.1h.4v.5c0 1.6-.2 3-.4 3.9h1.8c-.2-.9-.4-2.3-.4-3.9v-.5h.4c.2.1.4.2.5.3.2.1.3.2.6.2.7.2 1.3.2 1.3.2 0-.1-.6-.6-.8-.7-.2-.1.9-.2 1.9-.4 1-.3 1.7-.7 2.3-.9 2-.7 2.1-.4 2.2-.7 0-.1-.7 0-1.6-.1-.5 0-1-.2-1.8-.3-1.4-.1-2.5.4-2.9.6-.4.1 1.7-1.2 2.6-2.4.8-1.3.7-1.6 1.1-2.9z" clip-path="url(#b)" fill="#ee774e"/></svg>