<svg xmlns="http://www.w3.org/2000/svg" xmlns:xlink="http://www.w3.org/1999/xlink" viewBox="0 0 19.8 14.1"><path d="M19.3 7.7c0-.1.1-.8-.2-1.3-.3-.5-1-.8-1.1-1-.1-.1-.4-1.3-.6-1.5-.4-.3-.9-.6-1.2-.6-.6 0-.5-1.5-1.4-1.8-.7-.2-1.1-.3-1.3-.5-.4-.4-.8-1-1.3-1-.8.1-1.5.7-1.6 1.7-.2 1-.5 1.5-.6 1.7-.2-.2-.6-.7-.7-1.7C9.1.7 8.4.1 7.7 0c-.6 0-1 .6-1.3 1.1-.2.2-.6.4-1.3.5-.9.3-.8 1.8-1.4 1.8-.4 0-.9.2-1.2.6-.3.2-.5 1.3-.6 1.5-.1.1-.8.5-1.1 1-.3.4-.2 1.1-.2 1.2-.4 1.1-.7.7-.6 1.8.1 1.5 6.5 1.9 8.3 2.5 1.8.6 1.4 2 1.4 2h.4s-.3-1.4 1.4-2 8.2-1 8.3-2.6c.1-1-.2-.6-.5-1.7z" fill="#ffe200"/><defs><path id="a" d="M19.3 7.7c0-.1.1-.8-.2-1.3-.3-.5-1-.8-1.1-1-.1-.1-.4-1.3-.6-1.5-.4-.3-.9-.6-1.2-.6-.6 0-.5-1.5-1.4-1.8-.7-.2-1.1-.3-1.3-.5-.4-.4-.8-1-1.3-1-.8.1-1.5.7-1.6 1.7-.2 1-.5 1.5-.6 1.7-.2-.2-.6-.7-.7-1.7C9.1.7 8.4.1 7.7 0c-.6 0-1 .6-1.3 1.1-.2.2-.6.4-1.3.5-.9.3-.8 1.8-1.4 1.8-.4 0-.9.2-1.2.6-.3.2-.5 1.3-.6 1.5-.1.1-.8.5-1.1 1-.3.4-.2 1.1-.2 1.2-.4 1.1-.7.7-.6 1.8.1 1.5 6.5 1.9 8.3 2.5 1.8.6 1.4 2 1.4 2h.4s-.3-1.4 1.4-2 8.2-1 8.3-2.6c.1-1-.2-.6-.5-1.7"/></defs><clipPath id="b"><use xlink:href="#a" overflow="visible"/></clipPath><path d="M9.9 3.3c.1-.1.5-.6.6-1.7.1-.9.9-1.6 1.6-1.7.5 0 .9.6 1.3 1.1.1.2.6.4 1.3.5.9.2.9 1.8 1.4 1.8.4 0 .9.2 1.2.6.2.2.5 1.4.6 1.5.1.2.8.5 1.1 1 .3.5.2 1.1.2 1.3.4 1.1.6.7.6 1.7-.1 1.6-6.5 1.9-8.3 2.6s-1.4 2-1.4 2h-.2V3.3z" clip-path="url(#b)" fill="#f0d400"/></svg>