<svg xmlns="http://www.w3.org/2000/svg" xmlns:xlink="http://www.w3.org/1999/xlink" viewBox="0 0 15.3 19.8"><path d="M13.4 7.9c-.6-.3-1.3-.4-2.1-.4.8-.1 1.5-.1 2.1-.4 1.2-.6 2.3-1.5 1.7-3-.4-1.1-2-1.5-2.4-1.4.2-.4-.1-2-1.2-2.5C10-.4 9 .6 8.4 1.7c-.6 1.2-.7 3.2-.8 4.4 0-1.2-.1-3.3-.7-4.4C6.2.6 5.3-.4 3.8.2 2.7.7 2.4 2.3 2.6 2.7c-.4-.1-2 .2-2.4 1.4-.6 1.5.5 2.4 1.7 3 .5.3 1.4.4 2.2.4-.8 0-1.6.1-2.2.4-1.2.6-2.3 1.5-1.7 3 .4 1.1 2 1.5 2.4 1.4-.2.4.1 2 1.2 2.5 1.5.6 2.4-.4 3.1-1.5.2-.4.4-1.2.5-1.8-.2 1.3 0 2.8-1.3 5-.6 1-2.3 2.5-2.3 2.5l1.4.8S6.6 17.9 7 17c.9-1.9 1-3.8.9-5.6.1.8.3 1.4.5 1.8.7 1.2 1.6 2.2 3.1 1.5 1.1-.5 1.4-2.1 1.2-2.5.4.1 2-.2 2.4-1.4.6-1.4-.5-2.3-1.7-2.9z" fill="#598d36"/><defs><path id="a" d="M13.4 7.9c-.6-.3-1.3-.4-2.1-.4.8-.1 1.5-.1 2.1-.4 1.2-.6 2.3-1.5 1.7-3-.4-1.1-2-1.5-2.4-1.4.2-.4-.1-2-1.2-2.5C10-.4 9 .6 8.4 1.7c-.6 1.2-.7 3.2-.8 4.4 0-1.2-.1-3.3-.7-4.4C6.2.6 5.3-.4 3.8.2 2.7.7 2.4 2.3 2.6 2.7c-.4-.1-2 .2-2.4 1.4-.5 1.5.5 2.4 1.7 3 .5.3 1.4.4 2.2.4-.8 0-1.6.1-2.2.4-1.2.6-2.3 1.5-1.7 3 .4 1.1 2 1.5 2.4 1.4-.2.4.1 2 1.2 2.5 1.5.6 2.4-.4 3.1-1.5.2-.4.4-1.2.5-1.8-.2 1.3 0 2.8-1.3 5-.6 1-2.3 2.5-2.3 2.5l1.4.8S6.6 17.9 7 17c.9-1.9 1-3.8.9-5.6.1.8.3 1.4.5 1.8.7 1.2 1.6 2.2 3.1 1.5 1.1-.5 1.4-2.1 1.2-2.5.4.1 2-.2 2.4-1.4.6-1.4-.5-2.3-1.7-2.9"/></defs><clipPath id="b"><use xlink:href="#a" overflow="visible"/></clipPath><path d="M12.8 8.1c-.5-.3-1.2-.3-1.9-.4.7-.1 1.4-.1 1.9-.4 1.1-.5 2-1.3 1.5-2.7-.4-1-1.8-1.3-2.2-1.2.2-.2-.1-1.7-1.1-2.1-1.2-.6-2.1.3-2.7 1.3-.6 1-.7 2.8-.7 3.9 0-1.1-.1-2.9-.7-3.9S5.4.7 4.2 1.2c-.9.5-1.2 2-1.1 2.3-.3-.1-1.8.2-2.1 1.2-.5 1.3.4 2.2 1.5 2.7.5.2 1.3.3 2 .4-.7.1-1.4.1-2 .4-1.1.5-2 1.3-1.5 2.7.4 1 1.8 1.3 2.2 1.2-.1.3.1 1.8 1.1 2.2 1.3.6 2.2-.4 2.7-1.4.2-.3.4-1.1.4-1.6-.1 1.1 0 2.5-1.1 4.5-.5.8-2.1 2.2-2.1 2.2l1.2.8s1.2-1.7 1.6-2.5c.8-1.7.9-3.3.8-5 .1.7.2 1.2.5 1.6.6 1 1.5 1.9 2.7 1.4 1-.4 1.2-1.9 1.1-2.2.4.1 1.8-.2 2.2-1.2.5-1.4-.5-2.3-1.5-2.8z" clip-path="url(#b)" fill="#6daa3b"/></svg>