<svg xmlns="http://www.w3.org/2000/svg" xmlns:xlink="http://www.w3.org/1999/xlink" viewBox="0 0 18 19.8"><path d="M18 5.9c-3.1.2-3.9 2.2-3.5-.2-2.1 1.2-1.6 2.2-2.9 2.6-.3-1.6 1-2.8.6-5.3C10.8 5.5 9 0 9 0S7.2 5.5 5.8 3c-.4 2.6.9 3.7.6 5.3-1.3-.4-.8-1.4-2.9-2.6.4 2.4-.4.4-3.5.2.5.2 3.6 3.8.4 3.6.9 1.6 4.1 2.6 4.1 2.6s-1.7.1-2.4 1.2c2.6-.5-.1.8 0 2.1 2.6-.6 2.8-.6 2 1 2.5-1.1 2.7-2.6 4.7-2.5 0 .7 0 3.8-2.7 5.3.4.1.6.2.7.4l.1.2c.4-.2 2.4-1.5 2.3-6 2-.1 2.2 1.4 4.7 2.5-.8-1.5-.5-1.5 2-1 .1-1.3-2.6-2.6 0-2.1-.7-1.1-2.4-1.2-2.4-1.2s3.1-1 4.1-2.6c-3.2.3-.2-3.3.4-3.5z" fill="#c3393f"/><defs><path id="a" d="M18 5.9c-3.1.2-3.9 2.2-3.5-.2-2.1 1.2-1.6 2.2-2.9 2.6-.3-1.6 1-2.8.6-5.3C10.8 5.5 9 0 9 0S7.2 5.5 5.8 3c-.4 2.6.9 3.7.6 5.3-1.3-.4-.8-1.4-2.9-2.6.4 2.4-.4.4-3.5.2.5.2 3.6 3.8.4 3.6.9 1.6 4.1 2.6 4.1 2.6s-1.7.1-2.4 1.2c2.6-.5-.1.8 0 2.1 2.6-.6 2.8-.6 2 1 2.5-1.1 2.7-2.6 4.7-2.5 0 .7 0 3.8-2.7 5.3.4.1.6.2.7.4l.1.2c.4-.2 2.4-1.5 2.3-6 2-.1 2.2 1.4 4.7 2.5-.8-1.5-.5-1.5 2-1 .1-1.3-2.6-2.6 0-2.1-.7-1.1-2.4-1.2-2.4-1.2s3.1-1 4.1-2.6c-3.2.3-.2-3.3.4-3.5"/></defs><clipPath id="b"><use xlink:href="#a" overflow="visible"/></clipPath><path d="M16 6.8c-2.4.2-3 1.7-2.7-.1-1.6 1-1.3 1.7-2.3 2.1-.3-1.3.8-2.1.4-4.1-1 2-2.4-2.3-2.5-2.4 0 0-1.4 4.3-2.5 2.4-.2 1.8.8 2.7.6 4-1-.4-.7-1.1-2.3-2.1.3 1.9-.3.3-2.7.2.4.1 2.8 3 .3 2.8.7 1.2 3.2 2 3.2 2s-1.3.1-1.9 1c2-.4-.1.7 0 1.6 2-.5 2.2-.4 1.6.7 1.9-.9 2.1-2 3.6-1.9 0 .5 0 2.9-2.1 4.1.3.1.5.2.6.3l.1.2c.3-.2 1.9-1.2 1.8-4.6 1.5-.1 1.7 1.1 3.7 1.9-.6-1.2-.4-1.2 1.6-.7.1-1-2-2.1 0-1.6-.6-.9-1.9-1-1.9-1s2.4-.8 3.2-2c-2.6.1-.2-2.7.2-2.8z" clip-path="url(#b)" fill="#d7494f"/></svg>