<svg version="1.1" id="Layer_1" xmlns="http://www.w3.org/2000/svg" x="0" y="0" viewBox="0 0 114.6 88.4" xml:space="preserve"><style>.st1{fill:#a9a09a}</style><path d="M59.5 87.8s-5.7 0-3.8-5.4l6.2-17.6s1.9-5.4-3.8-5.4h-49s-5.7 0-5.7-5.7V31.2s0-3 3-3h6.3s5.7 0 3.8-5.3l-6.1-17S8.5.6 14.2.6h49.4s5.7 0 3.8 5.3l-6.1 17s-1.9 5.3 3.8 5.3h40.5s5.7 0 5.7 5.7v22.5s0 3-3 3H102s-5.7 0-3.8 5.4l6.2 17.6s1.9 5.4-3.8 5.4H59.5z" fill="#fffcd1"/><path class="st1" d="M6.8.4l7.5 22s.2.5.2 1.2c0 .5-.1 1.1-.6 1.6s-1.2.8-2.2.8H6.3c-.3 0-1.6.1-2.8.8-.6.3-1.1.8-1.6 1.5-.4.7-.7 1.6-.7 2.8v25.5c0 .3.1 1.6.8 2.8.3.6.8 1.1 1.5 1.6.7.4 1.6.7 2.8.7h48.2s1.2 0 2.3.5c.6.2 1.2.6 1.7 1.2s.8 1.4.8 2.4c0 .6-.1 1.3-.4 2.1L52.2 88c-.1.3-.4.5-.8.4-.3-.1-.5-.4-.4-.8l6.7-20.1c.2-.7.3-1.3.3-1.7 0-.7-.2-1.2-.5-1.6-.5-.6-1.2-.9-1.9-1.1-.3-.1-.6-.1-.9-.1H6.3c-1.5 0-2.7-.4-3.6-1-1.4-.9-2-2.2-2.3-3.3-.4-1.2-.4-2.1-.4-2.1V31.1c0-1.5.4-2.7 1-3.6.9-1.4 2.2-2 3.3-2.3 1.1-.3 1.9-.3 2-.3h5.5c.8 0 1.1-.2 1.3-.4.2-.2.3-.5.3-.8 0-.2 0-.4-.1-.6v-.2l.2-.1-.2.1.2-.1-.2.1L5.8.9c-.2-.4 0-.8.3-.9.3-.1.6.1.7.4zM107.7 88l-7.6-22.7s-.2-.5-.2-1.1c0-.5.1-1.1.6-1.7.5-.5 1.2-.8 2.2-.8h5.5c.3 0 1.6-.1 2.8-.8.6-.3 1.1-.8 1.6-1.5.4-.7.7-1.6.7-2.8V31.1c0-.3-.1-1.6-.8-2.8-.3-.6-.8-1.2-1.5-1.6-.7-.4-1.6-.7-2.8-.7H68.6s-1.1 0-2.3-.5c-.6-.2-1.2-.6-1.7-1.2s-.8-1.4-.8-2.4c0-.6.1-1.3.4-2.1L70.9.4c.1-.3.4-.5.8-.4.3.1.4.5.3.8l-6.7 19.4c-.2.7-.3 1.3-.3 1.8 0 .7.2 1.2.5 1.6.5.6 1.2.9 1.9 1.1.3.1.6.1.9.1h40.1c1.5 0 2.7.4 3.6 1 1.4.9 2 2.2 2.3 3.3.3 1.1.3 1.9.3 2v25.5c0 1.5-.4 2.7-1 3.6-.9 1.4-2.2 2-3.3 2.3-1.1.3-1.9.3-2 .3h-5.5c-.8 0-1.1.2-1.3.4-.2.2-.3.5-.3.9 0 .2 0 .4.1.6v.2h-.1.1-.1.1l7.6 22.7c.1.3-.1.7-.4.8-.3 0-.6-.1-.8-.4z"/></svg>