<svg xmlns="http://www.w3.org/2000/svg" viewBox="0 0 36 29.8"><path d="M8.6 28.2s.6.9 1.7.9h15.6s1.1 0 1.7-.9l7.7-12.5s.5-.9 0-1.8L27.5 1.5s-.6-.9-1.7-.9H10.2s-1.1 0-1.7.9L.8 14s-.5.9 0 1.8c2.6 4.1 5.2 8.3 7.8 12.4z" fill="#fffef3"/><path d="M8.6 28.2l-.5.3c0 .1.2.3.6.6.3.3.9.6 1.6.6h15.6c.1 0 .4 0 .8-.2.4-.1 1-.4 1.3-1L35.7 16c0-.1.3-.5.3-1.2 0-.4-.1-.8-.3-1.2L28 1.2c0-.1-.2-.3-.6-.6-.4-.3-.9-.6-1.6-.6H10.2c-.1 0-.4 0-.8.2-.4.1-1 .5-1.3 1L.3 13.7c0 .1-.3.5-.3 1.2 0 .4.1.8.3 1.2 2.6 4.2 5.1 8.3 7.7 12.5l.6-.4.5-.3C6.5 23.7 4 19.6 1.4 15.4c-.1-.2-.1-.4-.2-.5 0-.2 0-.3.1-.4l.1-.1h-.1.1-.1.1L.8 14l.5.3L9.1 1.8c.2-.3.5-.5.7-.5.1 0 .2-.1.3-.1h.1V.6v.6h15.6c.4 0 .6.1.8.3l.2.2.1.1.5-.3-.5.3 7.7 12.5c.1.2.2.4.2.5 0 .2 0 .3-.1.4l-.1.1-7.7 12.5c-.2.3-.5.5-.7.5-.1 0-.2.1-.3.1h-.1v.6-.6H10.2c-.4 0-.6-.1-.8-.3l-.2-.2-.1-.1-.5.4.5-.3-.5.3z" fill="#a9a09a"/></svg>