<svg id="Layer_1" xmlns="http://www.w3.org/2000/svg" viewBox="0 0 216.6 6.9"><style>.st0{fill:#898989}</style><path class="st0" d="M.6 4H216c.3 0 .6-.3.6-.6s-.3-.6-.6-.6H.6c-.3 0-.6.3-.6.6 0 .4.3.6.6.6"/><path class="st0" d="M5.7.6v5.7c0 .3.3.6.6.6s.6-.3.6-.6V.6c0-.3-.3-.6-.6-.6-.4 0-.6.3-.6.6M56.7.6v5.7c0 .3.3.6.6.6s.6-.3.6-.6V.6c0-.3-.3-.6-.6-.6s-.6.3-.6.6M107.7.6v5.7c0 .3.3.6.6.6s.6-.3.6-.6V.6c0-.3-.3-.6-.6-.6s-.6.3-.6.6M158.7.6v5.7c0 .3.3.6.6.6s.6-.3.6-.6V.6c0-.3-.3-.6-.6-.6s-.6.3-.6.6M209.8.6v5.7c0 .3.3.6.6.6s.6-.3.6-.6V.6c0-.3-.3-.6-.6-.6-.4 0-.6.3-.6.6"/></svg>