<svg id="Layer_1" data-name="Layer 1" xmlns="http://www.w3.org/2000/svg" viewBox="0 0 20.62 44.23"><defs><style>.cls-1{fill:#898989}</style></defs><path class="cls-1" d="M19.9 1.5l-2 2.2-.7-.7 2-2.2zm-3.4 3.7l-2 2.2-.7-.7 2-2.2zM13 9l-2 2.2-.7-.7 2-2.2zm-3.4 3.7l-2 2.2-.7-.7 2-2.2zm-3.4 3.7l-2 2.2-.8-.6 2-2.2zm-3.4 3.8l-2 2.2-.8-.7 2-2.2z" transform="translate(0 .06)"/><path class="cls-1" d="M19 4.5c.4.3.8.2.9-.3l.7-3.6c.1-.5-.2-.8-.7-.6l-3.5 1c-.5.1-.6.5-.2.9L19 4.5zM19.9 42.6l-2-2.2-.7.7 2 2.2zm-3.4-3.7l-2-2.2-.7.7 2 2.2zM13 35.2L11 33l-.7.7 2 2.2zm-3.4-3.8l-2-2.2-.7.7 2 2.2zm-3.4-3.7l-2-2.2-.7.7 2 2.2zM2.8 24l-2-2.2-.8.6 2 2.2z" transform="translate(0 .06)"/><path class="cls-1" d="M19 39.6c.4-.3.8-.2.9.3l.7 3.6c.1.5-.2.8-.7.6l-3.5-1c-.5-.1-.6-.5-.2-.9l2.8-2.6z" transform="translate(0 .06)"/></svg>