<svg id="Layer_1" xmlns="http://www.w3.org/2000/svg" viewBox="0 0 44.6 20.9"><style>.st0{fill:#a9a09a}</style><path class="st0" d="M41.4 18.6l-2.2-2 .7-.7 2.2 2-.7.7zm-3.7-3.3l-2.2-2 .7-.7 2.2 2-.7.7zM34 11.9l-2.2-2 .7-.7 2.2 2-.7.7zm-3.6-3.3l-2.2-2 .7-.7 2.2 2-.7.7zm-3.7-3.3l-2.2-2 .7-.7 2.2 2-.7.7zM20 3.1l-2.2 1.8-.6-.8 2.2-1.8.6.8zm-3.6 3l-2.2 1.8-.6-.8 2.2-1.8.6.8zM12.7 9l-2.2 1.8-.6-.8 2.2-1.8.6.8zm-3.6 3l-2.2 1.8-.7-.8 2.2-1.8.7.8zm-3.7 2.9l-2.2 1.8-.6-.8 2.2-1.8.6.8zM43.9 20.9l-1.1-1 .7-.7 1.1 1-.7.7zM23 2l-.8-.7-.8.6-.6-.8L22.3 0l1.4 1.3-.7.7zM1.7 17.9l-1.1.9L0 18l1.1-.9.6.8z"/></svg>