<svg id="Layer_1" xmlns="http://www.w3.org/2000/svg" xmlns:xlink="http://www.w3.org/1999/xlink" viewBox="0 0 19.8 19.8"><style>.st1{clip-path:url(#SVGID_2_)}</style><defs><path id="SVGID_1_" d="M9.9 19.8c5.5 0 9.9-4.4 9.9-9.9S15.4 0 9.9 0 0 4.4 0 9.9s4.4 9.9 9.9 9.9"/></defs><clipPath id="SVGID_2_"><use xlink:href="#SVGID_1_" overflow="visible"/></clipPath><path d="M19.8 9.9c0 5.5-4.4 9.9-9.9 9.9S0 15.4 0 9.9 4.4 0 9.9 0s9.9 4.4 9.9 9.9" clip-path="url(#SVGID_2_)" fill="#e8e8e8"/><path class="st1" d="M4.4 3.8s1-2 3.3-2.6v.1c-2.3.5-3.3 2.4-3.3 2.5M2.6 9.7c-.1.4-.1 2.9 1.6 4.7-1.7-1.9-1.7-4.4-1.6-4.7m14.9-6c-1.6-2.1-3.2-2.6-4.2-2.7v.1c1 .1 2.6.6 4.2 2.6M12 5.2c.1-.8-.3-2.6-.9-3.9H11c.7 1.3 1 3.1 1 3.9M9.1 7.5L5 6.8v.1l4.1.6zm5.9-.2l3.4-.8v-.1l-3.4.9zm-4.6 3.5c-.1 0-1.1 2.1-3 3.9 1.9-1.7 3-3.8 3-3.9zm3.7 0c0 .1 1.6 2.9 1.9 3.8h.1c-.3-.9-2-3.8-2-3.8m-.4 6.7c-2.4.7-4.1.2-4.2.2v.1s.6.2 1.6.2c.7-.1 1.6-.2 2.6-.5zm5.9-8.4c-.1 3.1-1.3 5.1-1.4 5.1.1 0 1.4-1.9 1.4-5.1zM6.9 18.8s-.1.3-.1.5h.1v-.5zM1.6 4.5c0 .3.1.5.1.5h.1s-.2-.2-.2-.5m1.7 12s-.4.1-.7.1l.1.1c.3 0 .6-.1.6-.2zM.7 8.7s-.4.3-.6.7v.1c.2-.4.6-.7.6-.8z"/><path d="M2.5 10C1.8 9.8.8 9.2.7 8.8c-.1-1.6.6-3.2 1-3.8.5-.7 1.7-1.1 2.7-1.4 0 1.5.6 3.2.6 3.2-1 .5-2.2 2.3-2.5 3.2M7.8.2c-.2.2-.3.5-.3 1 .7-.1 2.2-.1 3.8.7.5-.3 1.7-.8 2.4-.8-.1-.1-.3-.3-.4-.5-1-.4-2.2-.6-3.4-.6-.7 0-1.4.1-2.1.2m-4 13.7s-.7 1.9-.6 2.5c.2 1.1 3.3 2.4 3.7 2.4s1.6-.6 2.6-1.2c-.6-.7-1.5-2.2-1.9-3.1-2 .1-3.8-.6-3.8-.6m14.8.9v-1.1c-.2.2-1.9.7-2.7.8-.4 1.1-1.8 2.7-2.5 3.1.5.7 1 .9 1.4 1 1.6-.9 2.9-2.3 3.8-3.8m-4.2-3.5c.5-1.1 1.1-3.4 1-4.1-.9-.8-3-2.2-3.4-2.2 0 0-1.8.9-3.2 2.4.3 1.1 1.3 3.9 1.3 3.9s2.3.2 4.3 0m3.2-7.7h-.1s1 1.6.5 3c.6.8 1.5 1.9 1.6 3 .1-.1.2-.3.2-.4-.1-2.1-.9-4-2.2-5.6" clip-path="url(#SVGID_2_)" fill="#3c3d3c"/><path d="M8.2 1.2h-.6c-1.9.6-2.9 2-3.2 2.4 0 1.4.5 2.8.6 3.1.4.1.8.2 1.2.2.6 0 1.2-.1 1.8-.3 2.1-.8 3.4-2.6 2.9-4-.2-.6-.5-.9-.9-1.2-.7-.2-1.3-.2-1.8-.2M7.5.9c-.5 0-1 .1-1.5.3-1.5.6-2.6 1.7-2.9 2.8.4-.1.9-.3 1.3-.4.3-.4 1.3-1.8 3.2-2.4-.1-.1-.1-.2-.1-.3" clip-path="url(#SVGID_2_)" fill="#fbfbfb"/><path class="st1" d="M7.5 1.2c-1.9.6-2.9 2-3.2 2.4v.1c.4-.5 1.4-1.9 3.2-2.5"/><path d="M4.4 3.6c-.4.1-.9.3-1.3.4-.1.4-.1.9.1 1.2.2.8.9 1.3 1.8 1.5-.1-.3-.6-1.7-.6-3.1M7.9.9h-.4v.3h.7c.5 0 1.1 0 1.8.2-.6-.3-1.3-.5-2.1-.5" clip-path="url(#SVGID_2_)" fill="#767a7d"/><path d="M13.5 17.6c-.9.2-1.7.3-2.3.3-1 0-1.6-.2-1.6-.2-.7.4-1.5.8-2 1 .6.1 1.3.2 2 .2 1.5 0 3-.3 4.3-.9-.3-.1-.3-.3-.4-.4m1.9-4.3c-1.7 1.6-4 2.6-6.5 2.6h-.6c.4.7.9 1.4 1.2 1.8 0 0 .6.2 1.6.2.6 0 1.5-.1 2.4-.3.7-.5 2.1-2.1 2.4-3.1-.1-.4-.3-.8-.5-1.2m2.8-6.4c-.1 2.5-1.1 4.7-2.8 6.3.2.4.4.9.6 1.2.7-.1 2-.5 2.5-.7.2-.3.3-.5.4-.8.3-.8.6-1.9.7-3.4-.2-.9-.8-1.9-1.4-2.6m.2-2.2c.8 1.3 1.3 2.9 1.5 4.5-.1.1-.1.2-.2.3-.1 1.1-.2 2-.5 2.7-.1.5-.3 1.1-.6 1.6v1c-.9 1.6-2.2 2.9-3.8 3.8-.2 0-.3-.1-.5-.2-1.3.7-2.8 1.1-4.4 1.1-1 0-2-.2-2.9-.5 0 .1-.1.2-.1.4h-.1c0-.1.1-.3.1-.4a9.4 9.4 0 0 1-3.5-2c.2.1.4.2.5.4-.3-.2-.5-.5-.6-.7 0 0-.3.1-.6.1l-.1-.1c.3 0 .6-.1.7-.1v-.1c-.1-.5.2-1.6.4-2.2C2 13.2.7 11.5.1 9.5l-.1.1v-.2.6c0 5.5 4.4 9.9 9.9 9.9s9.9-4.4 9.9-9.9v-.1c-.1-2.3-.6-3.8-1.4-5.2" clip-path="url(#SVGID_2_)" fill="#b2adab"/><path class="st1" d="M6.9 19c0 .1-.1.2-.1.4h.1c-.1-.2 0-.3 0-.4m6.6-1.5c-.9.2-1.7.3-2.4.3-1 0-1.6-.2-1.6-.2s.6.2 1.6.2c.7.1 1.5 0 2.4-.3m-10.2-1c-.1 0-.4.1-.7.1l.1.1c.3 0 .6-.1.6-.2m12.1-3.3c.2.5.4.9.5 1.2h.1c-.1-.3-.4-.7-.6-1.2m4.2-3.7c-.1 1.4-.5 2.6-.8 3.4.1-.2.2-.5.3-.7v.1c.3-.8.5-1.7.5-2.8M0 9.4v.2-.2"/><path d="M3.7 14.3c-.2.6-.5 1.7-.4 2.2v.2c.1.2.3.5.6.7 1.1.6 2.3 1.1 3.6 1.3.5-.2 1.3-.6 2-1-.4-.4-.8-1.1-1.2-1.8-1.7-.2-3.3-.7-4.6-1.6m14.9-.5c-.9 2-2.4 3.6-4.3 4.5.2.1.4.2.5.2 1.6-.9 2.9-2.2 3.8-3.8v-.9m-.2-.1c-.4.3-1.7.6-2.4.7h-.1c-.3 1-1.7 2.6-2.4 3.1h-.1c.1.1.2.3.3.4 2-.8 3.6-2.3 4.7-4.2M17.9 4c.2.8.4 1.7.4 2.6V7c.6.7 1.2 1.7 1.3 2.6v.1l.1-.1c.1-.1.1-.2.2-.3-.1-1.6-.6-3.2-1.5-4.5-.2-.3-.4-.6-.5-.8" clip-path="url(#SVGID_2_)" fill="#303232"/><path d="M9.9 19.7v.1c5.5 0 9.9-4.4 9.9-9.9S15.4 0 9.9 0C4.5 0 0 4.4 0 9.9s4.5 9.9 9.9 9.9v-.2c-2.7 0-5.1-1.1-6.8-2.8C1.3 15 .3 12.6.3 9.9s1.1-5.1 2.8-6.8C4.9 1.3 7.3.3 9.9.3c2.7 0 5.1 1.1 6.8 2.8 1.8 1.8 2.8 4.2 2.8 6.8 0 2.7-1.1 5.1-2.8 6.8-1.8 1.8-4.2 2.8-6.8 2.8v.2z"/></svg>