<svg xmlns="http://www.w3.org/2000/svg" viewBox="0 0 38.9 37.3"><path d="M21.4 1.2l.4-.5c-.1-.1-1-.7-2.4-.7-.7 0-1.5.2-2.2.7L1.6 12c-.1.1-.5.3-.8.9-.4.5-.8 1.3-.8 2.3 0 .4.1.8.2 1.2l5.9 18.3c0 .1.3.7.8 1.4.6.7 1.5 1.3 2.9 1.3H29c.1 0 .8 0 1.6-.4.8-.3 1.7-1 2.1-2.3l5.9-18.3c0-.1.2-.5.2-1.2 0-.5-.1-1-.3-1.6-.2-.6-.6-1.1-1.3-1.6C32.1 8.3 26.9 4.5 21.7.7l-.3.5-.4.5C26.2 5.5 31.4 9.2 36.6 13c.5.3.7.7.9 1.1.2.4.2.8.2 1.1 0 .5-.1.8-.1.9l.6.2-.7-.3-5.9 18.3c-.3.9-.9 1.4-1.5 1.6-.6.2-1.1.3-1.1.3v.6-.6H9.8c-1 0-1.6-.4-2-.9-.2-.2-.4-.5-.4-.7-.1-.2-.1-.3-.1-.3L1.3 16c-.1-.3-.1-.6-.1-.8 0-.7.3-1.2.5-1.6.1-.2.3-.3.4-.4l.2-.2L17.9 1.7c.5-.4 1-.5 1.5-.5.4 0 .9.1 1.2.3.2.1.3.1.4.2l.4-.5z" fill="#68c7ed"/></svg>