<svg xmlns="http://www.w3.org/2000/svg" viewBox="0 0 41 36.8"><path d="M32 2.8l.5-.3c-.1-.1-.4-.7-1.1-1.3C30.7.6 29.7 0 28.3 0H12.7c-.1 0-.8 0-1.6.3-.9.3-1.9.9-2.6 2.1L.6 16c0 .1-.6 1.1-.6 2.5 0 .7.2 1.6.6 2.4l7.8 13.5c.1.1.4.7 1.1 1.3.7.6 1.8 1.2 3.2 1.2h15.6c.1 0 .8 0 1.6-.3.9-.3 1.9-.9 2.6-2.1L40.3 21c.1-.1.6-1.1.6-2.5 0-.7-.2-1.6-.6-2.4L32.5 2.6l-.5.2-.5.3 7.8 13.5c.4.6.5 1.2.5 1.8 0 1.1-.5 1.9-.5 1.9l.5.3-.5-.3-7.8 13.5c-.5.9-1.3 1.4-2 1.6-.7.2-1.2.3-1.3.3v.6-.6H12.7c-1 0-1.8-.4-2.4-.9-.3-.2-.5-.5-.6-.7l-.2-.2-.1-.1-7.7-13.5c-.4-.6-.5-1.2-.5-1.8 0-1.1.5-1.9.5-1.9L9.5 3.1c.5-.9 1.3-1.4 2-1.6.7-.2 1.2-.3 1.3-.3V.6v.6h15.6c1 0 1.8.4 2.4.9.5.5.8.9.8 1l.4-.3-.5.3.5-.3z" fill="#68c7ed"/></svg>