<svg xmlns="http://www.w3.org/2000/svg" viewBox="0 0 40.3 40.3"><path d="M18.6 39c.2.2 1.6 1.5 3.2 0L39 21.7c.2-.2 1.5-1.6 0-3.2L21.7 1.3c-.2-.2-1.6-1.5-3.2 0L1.3 18.6c-.2.2-1.5 1.6 0 3.2C7.1 27.5 12.8 33.2 18.6 39z" fill="#fff"/><path d="M18.6 39l-.4.4c.1.1.3.3.7.5.3.2.8.4 1.4.4.6 0 1.3-.3 2-.9l17.3-17.3c.1-.1.3-.3.5-.6s.4-.8.4-1.4c0-.6-.3-1.3-.9-2L22.1.9c-.1-.1-.3-.3-.6-.5-.4-.2-.8-.4-1.4-.4-.6 0-1.3.3-2 .9L.9 18.1c-.1.1-.3.3-.5.6-.2.4-.4.9-.4 1.5s.3 1.3.9 2C6.7 28 12.4 33.7 18.2 39.4l.4-.4.4-.4L1.7 21.3c-.4-.4-.5-.8-.5-1.1 0-.3.1-.6.2-.8.2-.2.3-.4.3-.4L19 1.7c.4-.4.8-.5 1.1-.5.3 0 .6.1.8.2.2.1.4.3.4.3L38.6 19c.4.4.5.8.5 1.1 0 .3-.1.6-.2.8-.1.2-.3.4-.3.4L21.3 38.6c-.4.4-.8.5-1.1.5-.3 0-.6-.1-.8-.2-.2-.1-.4-.3-.4-.3l-.4.4.4-.4-.4.4z" fill="#68c7ed"/></svg>