<svg id="Layer_1" xmlns="http://www.w3.org/2000/svg" viewBox="0 0 102.7 43.4"><style>.st0{fill:#a9a09a}</style><path class="st0" d="M3.4 2.3l2.3 2-.6.7-2.3-2 .6-.7zm3.9 3.3l2.3 2-.6.7-2.3-2 .6-.7zm3.9 3.2l2.3 2-.6.8-2.3-2 .6-.8zm4 3.3l2.3 2-.6.8-2.3-2 .6-.8zm3.9 3.3l2.3 2-.6.8-2.3-2 .6-.8zm3.9 3.2l2.3 2-.6.8-2.3-2 .6-.8zm3.9 3.3l2.3 2-.6.8-2.3-2 .6-.8zm4 3.3l2.3 2-.6.8-2.3-2 .6-.8zm3.9 3.3l2.3 2-.6.8-2.3-2 .6-.8zm3.9 3.2l2.3 2-.6.8-2.3-2 .6-.8zm3.9 3.3l2.3 2-.6.8-2.3-2 .6-.8zm4 3.3l2.3 2-.6.7-2.3-2 .6-.7zM52.2 39.4l1.1-2.8.9.4-1.1 2.8-.9-.4zm1.9-4.7l1.1-2.8.9.4-1.1 2.8-.9-.4zM56 30l1.1-2.8.9.4-1.1 2.8-.9-.4zm1.9-4.8l1.1-2.8.9.4-1.1 2.8-.9-.4zm1.9-4.7l1.1-2.8.9.4-1.1 2.8-.9-.4zm1.9-4.7l1.1-2.8.9.4-1.1 2.8-.9-.4zm1.8-4.7l1.1-2.8.9.4-1.1 2.8-.9-.4zm1.9-4.8l1.1-2.8.9.4-1.1 2.8-.9-.4zM.6 0l1.2 1-.6.7L0 .8.6 0zm49.9 41.5l.6.5.3-.8.9.4-.6 1.4c-.1.1-.2.3-.3.3-.2 0-.3 0-.4-.1l-1.2-1 .7-.7zM67.3 1.6l.6-1.4.9.4-.5 1.4-1-.4z"/><path class="st0" d="M50.9 43.1l-1.1-2.7.9-.4 1.1 2.7-.9.4zm-1.8-4.4L48 36l.9-.4 1.1 2.7-.9.4zm-1.8-4.5l-1.1-2.7.9-.4 1.1 2.7-.9.4zm-1.7-4.4l-1.1-2.7.9-.4 1.1 2.7-.9.4zm-1.8-4.4l-1.1-2.7.9-.4 1.1 2.7-.9.4zM42 21l-1-2.7.9-.4 1.1 2.7-1 .4zm-1.7-4.5l-1.1-2.7.9-.4 1.1 2.7-.9.4zm-1.8-4.4l-1.1-2.7.9-.4 1.1 2.7-.9.4zm-1.8-4.4L35.6 5l.9-.4 1.1 2.7-.9.4zm-1.8-4.5L33.8.5l.9-.4 1.1 2.7-.9.4z"/><path class="st0" d="M51 42.5l2.3-1.9.6.8-2.3 1.9-.6-.8zm3.8-3.1l2.3-1.9.6.8-2.3 1.9-.6-.8zm3.7-3.1l2.3-1.9.6.8-2.2 1.8-.7-.7zm3.8-3.2l2.3-1.9.6.8-2.3 1.9-.6-.8zM66 30l2.3-1.9.6.8-2.3 1.9-.6-.8zm3.8-3.1L72 25l.6.8-2.3 1.9-.5-.8zm3.7-3.1l2.3-1.9.6.8-2.3 1.9-.6-.8zm3.8-3.2l2.3-1.9.6.8-2.3 1.9-.6-.8zm3.7-3.1l2.3-1.9.6.8-2.3 1.9-.6-.8zm3.8-3.1l2.3-1.9.6.8-2.3 1.9-.6-.8zm3.7-3.1l2.3-1.9.6.8-2.2 1.8-.7-.7zm3.8-3.2l2.3-1.9.6.8-2.3 1.9-.6-.8zM96 5l2.3-1.9.6.8-2.3 1.9L96 5zm3.8-3.1L102 0l.6.8-2.3 1.9-.5-.8z"/></svg>