<svg id="Layer_1" xmlns="http://www.w3.org/2000/svg" xmlns:xlink="http://www.w3.org/1999/xlink" viewBox="0 0 19.8 19.8"><style>.st0,.st2,.st6,.st9{clip-path:url(#SVGID_2_);fill:#e8e8e8}.st2,.st6,.st9{fill:#030000}.st6,.st9{fill:#010000}.st9{fill:#141d1b}</style><defs><path id="SVGID_1_" d="M9.9 19.8c5.5 0 9.9-4.4 9.9-9.9S15.4 0 9.9 0 0 4.4 0 9.9s4.4 9.9 9.9 9.9"/></defs><clipPath id="SVGID_2_"><use xlink:href="#SVGID_1_" overflow="visible"/></clipPath><path class="st0" d="M16.2 17.6c-4.2 3.5-10.5 2.8-14-1.4C-1.3 12-.6 5.7 3.6 2.2c4.2-3.5 10.5-2.8 14 1.4 3.5 4.3 2.8 10.5-1.4 14"/><path class="st0" d="M16.2 17.6c-4.2 3.5-10.5 2.8-14-1.4C-1.3 12-.6 5.7 3.6 2.2c4.2-3.5 10.5-2.8 14 1.4 3.5 4.3 2.8 10.5-1.4 14"/><path d="M12.7 6.3v.1c.8.9 4.5 5.5 3.5 11.1l-.1.1-.1.1c1.1-5.7-2.6-10.3-3.4-11.2l-.1-.1-.1.1C10.9 8 10.2 9.4 10 9.8v.1c.5.7 3 4.3 1.8 9.7h-.2c.1-.5.2-1.1.3-1.6v-.1h-.1c-.5.1-1.1.1-1.6.1-2.4 0-5.7-.5-8.5-2.7l-.3-.6c2.8 2.5 6.3 3.1 8.9 3.1.6 0 1.2 0 1.7-.1h.1v-.1c.1-1.2 0-2.5-.3-3.7v-.1h-.1c-.3 0-1.2.2-2.6.2-2.5 0-6-.5-8.9-3v-.3C2.9 13.4 6.4 14 8.9 14c1.3 0 2.3-.2 2.6-.2h.1v-.1c-.5-2-1.4-3.2-1.6-3.6H9c-1.8 0-5.1-.4-8.3-3.4l.1-.2c.1.3.4.5.7.7l.1.1.1-.1c.9-1.9 2.9-5.3 6.7-7 .1-.1.4-.1.6-.2-4.1 1.6-6.3 5.2-7.2 7.4v.1h.1c1 .7 2.1 1.3 3.2 1.7h.1v-.1C5.6 8 7.8 2.5 13.3.6c.1 0 .2.1.3.1C8 2.5 5.8 8.1 5.3 9.2v.1h.1c1.4.5 2.7.5 3.4.5.5 0 .8 0 .9-.1h.1v-.1c.3-.8 2.3-4.7 7.5-6.4l.1.2c-.5.1-.9.3-1.4.5l-.1.1.1.1c1.3 1.8 3.4 5.3 2.9 9.5l-.3.6c.7-4.6-1.7-8.6-2.8-10.1l-.1-.1h-.1c-.9.8-2 1.4-2.9 2.3" clip-path="url(#SVGID_2_)" fill="#3c3d3c"/><path class="st2" d="M9.9 9.8c-.2.1-.6.1-1 .1-.8 0-2-.1-3.4-.5h-.1v.1h.1c1.4.5 2.7.5 3.4.5.5 0 .8 0 .9-.1h.1v-.1c.4-.7 2.3-4.7 7.6-6.3l-.1-.1C12.1 5.1 10.2 9 9.9 9.8z"/><path class="st2" d="M16.1 4.2l-.1-.1s1.3 1.7 2.2 3.9c-.6-1.6-1.4-2.9-2.1-3.8M12.7 6.4c-.1 0 1.8 2.1 2.7 4.6-.9-2.4-2.2-4.1-2.7-4.6zM5.2 9.1l-.2.1c-1.1-.4-2.2-1-3.2-1.7h-.1l.1.1c1 .7 2.1 1.3 3.2 1.7h.1l.1-.2c.4-1 2.7-6.6 8.2-8.5h-.1C7.8 2.5 5.6 8 5.2 9.1M.1 10.9C2.9 13.5 6.4 14 8.9 14c1.3 0 2.3-.2 2.6-.2h.1v-.1c-.1-.5-.3-1-.4-1.4.2.4.3.8.4 1.3v.1h-.1c-.3 0-1.2.2-2.6.2-2.5.1-6-.5-8.8-3zM11.9 18.2v-.1.1l-.3 1.5c.2-.5.3-1 .3-1.5M10.2 17.9c.6 0 1.2 0 1.7-.1h.1v-.1c.1-1.2 0-2.5-.3-3.7v-.1c.3 1.2.4 2.4.3 3.7v.1h-.1c-.6.1-1.2.2-1.7.2-2.6-.1-6.1-.6-8.9-3.2l.1.1c2.7 2.6 6.2 3.1 8.8 3.1M.6 6.5c.3.3.6.5.9.8l.1.1.1-.1C2.6 5.4 4.8 1.9 8.5.2h-.1c-3.7 1.7-5.8 5.1-6.7 7l-.1.1-.1-.1c-.3-.2-.6-.4-.9-.7z"/><path d="M19.8 10c0 2.8-1.3 5.6-3.6 7.6-1.8 1.5-4.1 2.2-6.3 2.2-2.9 0-5.7-1.2-7.7-3.6C.8 14.4 0 12.4 0 10.3c.2 5.3 4.5 9.6 9.9 9.6 5.5-.1 9.9-4.4 9.9-9.9" clip-path="url(#SVGID_2_)" fill="#c5bebb"/><path d="M15.8 12.8c-1 1.1-2.3 2-3.8 2.5.1 1 .1 2.1 0 3.2 1.5-.4 3-1.1 4.1-2.1.2-1.3 0-2.5-.3-3.6m2.3-4.6c-.3 1.7-1 3.2-2.1 4.4.3 1.1.4 2.3.4 3.6 1.1-.9 1.9-2.1 2.5-3.4 0-1.7-.3-3.2-.8-4.6M17.9 4c.2.8.4 1.7.4 2.6 0 .4 0 .8-.1 1.2l.1.3c.5 1.3.8 2.7.9 4.3l.1-.1-.1.2c0 .5 0 .9-.1 1.4l-.3.6c.1-.5.1-.9.1-1.3-.5 1.5-1.4 2.8-2.6 3.9 0 .2-.1.4-.1.6l-.1.1-.1-.1c0-.2.1-.4.1-.6-1.2 1-2.6 1.7-4.2 2.1 0 .1-.1.3-.1.4h-.2c0-.1.1-.3.1-.4-.6.1-1.2.2-1.9.2-2.5 0-4.8-1-6.5-2.5 1.7 1.2 3.8 2 6.1 2 .8 0 1.6-.1 2.4-.3 0-.2 0-.3.1-.5V18h-.1c-.5.1-1.1.1-1.6.1-2.4 0-5.7-.5-8.5-2.7l-.3-.6c2.8 2.5 6.3 3.1 8.9 3.1.6 0 1.2 0 1.7-.1h.1v-.1-.9c0-.5 0-.9-.1-1.4-.9.3-1.9.5-3 .5-3 0-5.7-1.4-7.4-3.7-.5-.3-1-.7-1.4-1V11c.4.3.7.6 1.1.9-.6-.9-1-1.7-1.3-2.6V10.2c.1 2.1.8 4.2 2.2 5.9 2 2.4 4.8 3.6 7.7 3.6 2.2 0 4.4-.7 6.3-2.2 2.4-1.9 3.6-4.7 3.6-7.6v-.1c0-2.1-.7-4.2-1.9-5.8" clip-path="url(#SVGID_2_)" fill="#b2adab"/><path d="M11.9 19.2h-.2c0 .1-.1.3-.1.4h.2c.1-.1.1-.2.1-.4m4.4-2.3l-.2.2c0 .2-.1.4-.1.6l.2-.1.1-.1v-.6m-15-2.1l.3.6c2.8 2.3 6.2 2.7 8.5 2.7.6 0 1.1 0 1.6-.1h.1v.1-.1.1c0 .1 0 .3-.1.4h.2c.2-1.2.2-2.3 0-3.2l-.2.1c.1.8.1 1.6 0 2.4v.1h-.1c-.6.1-1.1.1-1.7.1-2.3-.1-5.8-.6-8.6-3.2zM16 12.6l-.2.2c.3 1.1.4 2.3.3 3.6l.2-.2c.2-1.3 0-2.5-.3-3.6m3.1-.2c-.1.2-.1.5-.2.7 0 .4-.1.9-.1 1.3l.3-.6v-1.4m-19-1.5v.2c.5.4.9.7 1.4 1-.1-.1-.2-.2-.3-.4-.4-.1-.8-.4-1.1-.8m-.1 0zm18.1-3.1c0 .1 0 .3-.1.4.5 1.3.9 2.9.8 4.6.1-.2.1-.3.2-.5 0-1.6-.4-3-.9-4.3v-.2" clip-path="url(#SVGID_2_)" fill="#303232"/><path class="st6" d="M18.1 7.8l.2.3h-.1l-.1-.3M0 10.9c.4.4.8.7 1.2 1l-.1-.1c-.3-.3-.7-.6-1.1-.9M11.8 19.3c-.1.1-.1.3-.1.4 0-.2 0-.3.1-.4m.1-1.3c-.1.2-.1.4-.1.6 0-.1 0-.3.1-.4V18zM1.3 14.8c2.9 2.6 6.3 3.2 8.9 3.2.6 0 1.2 0 1.7-.1h.1v-.1c.1-.8 0-1.6 0-2.4.1.4.1.9.1 1.4v1H12c-.6.1-1.1.1-1.7.1-2.7 0-6.2-.6-9-3.1"/><path d="M11.3 1.7C9.1 3 7.7 4.9 6.7 6.4c.6 0 1.2-.1 1.8-.3 2.1-.8 3.4-2.6 2.9-4 0-.2-.1-.3-.1-.4M7.6.5c-.3 0-.6.1-1 .2-1.7.6-2.9 1.9-3 3.1 1-1.2 2.3-2.4 4-3.3m.9-.1h-.3c-2 .9-3.5 2.4-4.5 3.8 0 .2 0 .4.1.6.4 1 1.4 1.6 2.7 1.6 1-1.6 2.5-3.5 4.7-4.8C10.7.8 9.6.4 8.5.4" clip-path="url(#SVGID_2_)" fill="#fbfbfb"/><path d="M11.2 1.6C9 2.9 7.5 4.8 6.6 6.4h.1c1-1.6 2.4-3.4 4.6-4.7l-.1-.1M8.2.4h-.4C6 1.4 4.7 2.7 3.6 4v.2C4.7 2.8 6.2 1.4 8.2.4" clip-path="url(#SVGID_2_)" fill="#767a7d"/><path class="st9" d="M11.2 1.6C9 2.9 7.4 4.8 6.5 6.4h.1c.9-1.6 2.4-3.5 4.6-4.8M7.7.5h-.1c-1.7.9-3 2.1-4 3.4V4C4.7 2.7 6 1.4 7.7.5"/><path d="M9.9 19.7v.1c5.5 0 9.9-4.4 9.9-9.9S15.3 0 9.9 0 0 4.5 0 9.9c0 5.5 4.5 9.9 9.9 9.9v-.2c-2.7 0-5.1-1.1-6.8-2.8C1.3 15 .3 12.6.2 9.9.2 7.2 1.3 4.8 3 3.1 4.8 1.3 7.2.3 9.8.3c2.7 0 5.1 1.1 6.8 2.8 1.8 1.8 2.8 4.2 2.8 6.8 0 2.7-1.1 5.1-2.8 6.8-1.8 1.8-4.2 2.8-6.8 2.8v.2h.1z"/></svg>