<svg xmlns="http://www.w3.org/2000/svg" viewBox="0 0 38.8 34.1"><path d="M20.3 1.4l.5-.3c-.1-.2-.3-.4-.5-.6-.1-.1-.2-.2-.4-.3-.1-.1-.3-.2-.6-.2-.4 0-.6.2-.8.4-.2.2-.4.4-.5.7L.4 31.6c-.2.3-.4.7-.4 1.2 0 .2 0 .4.1.6.2.3.5.4.7.5.3.1.6.1.9.1H37c.2 0 .5 0 .8-.1.1 0 .3-.1.5-.2s.3-.2.4-.4c.1-.2.1-.4.1-.5 0-.4-.2-.8-.4-1.2l-.5.3.5-.3C32.6 21.4 26.7 11.3 20.8 1.1l-.5.3-.5.3C25.6 11.9 31.5 22 37.4 32.2c.2.3.2.5.2.6h.2l-.1-.1v.1h.2l-.1-.1.5.3-.5-.3.1.1-.1-.1.1.1-.1-.1h-.1c-.2.1-.5.1-.6.1H1.8c-.3 0-.4 0-.6-.1h-.1l-.1.2.1-.1v-.1l-.1.2.1-.1-.5.3.5-.3H1h.1H1h.1c0-.1.1-.5.2-.6L19 1.7c.1-.2.2-.4.3-.5l.1-.1-.1-.1v.2h.1l-.1-.2v.2-.1.1-.1.1h.1c.1.1.3.4.4.5l.5-.3z" fill="#68c7ed"/></svg>