<svg xmlns="http://www.w3.org/2000/svg" viewBox="0 0 38.3 38.1"><path d="M37.6 12.2h.6c0-3.3-1.2-6.4-3.1-8.6C33.2 1.4 30.5 0 27.6 0c-3.2 0-6.3 1.9-8.4 5-2.2-3.1-5.3-5-8.5-5-3 0-5.7 1.4-7.6 3.6C1.2 5.8 0 8.9 0 12.2h.6l-.6-.1v.5c0 1.1.3 4.2 2.8 8.7 2.5 4.4 7.2 10.2 16 16.7.2.2.5.2.7 0 8.8-6.5 13.5-12.3 16-16.7 2.5-4.4 2.8-7.5 2.8-8.6v-.5h-.7.6v-.1l-.6.1h.6H37v.1h.1-.1.1-.1v.4c0 1-.2 3.8-2.6 8C32 25 27.5 30.6 18.8 37l.4.5.4-.5C10.8 30.6 6.2 24.9 3.8 20.7c-2.4-4.3-2.6-7.1-2.6-8.1v-.5C1.2 9 2.3 6.3 4 4.3c1.7-2 4.1-3.2 6.7-3.2 2.7 0 5.5 1.6 7.4 4.4.2.3.6.5 1 .5s.8-.2 1-.5c1.9-2.8 4.7-4.4 7.4-4.4 2.6 0 4.9 1.2 6.7 3.2 1.7 2 2.8 4.8 2.8 7.8l.6.1z" fill="#68c7ed"/></svg>