<svg id="Layer_1" xmlns="http://www.w3.org/2000/svg" viewBox="0 0 119.1 5"><style>.st0{fill:#898989}</style><path class="st0" d="M114.8.6c0-.5.3-.7.8-.5l3.2 1.9c.4.3.4.7 0 .9l-3.2 1.9c-.4.3-.8 0-.8-.5V.6z"/><path class="st0" d="M0 3h3V2H0v1zm4.9 0h3V2h-3v1zm4.9 0h3V2h-3v1zm5 0h3V2h-3v1zm4.9 0h3V2h-3v1zm4.9 0h3V2h-3v1zm4.9 0h3V2h-3v1zm5 0h3V2h-3v1zm4.9 0h3V2h-3v1zm4.9 0h3V2h-3v1zm4.9 0h3V2h-3v1zm5 0h3V2h-3v1zm4.9 0h3V2h-3v1zM64 3h3V2h-3v1zm4.9 0h3V2h-3v1zm5 0h3V2h-3v1zm4.9 0h3V2h-3v1zm4.9 0h3V2h-3v1zm4.9 0h3V2h-3v1zm5 0h3V2h-3v1zm4.9 0h3V2h-3v1zm4.9 0h3V2h-3v1zm4.9 0h3V2h-3v1zm5 0h3V2h-3v1z"/></svg>