<svg xmlns="http://www.w3.org/2000/svg" viewBox="0 0 42.2 40.2"><path d="M20.6 34.5l-.2-.5-11.1 5h-.2c-.1 0-.3 0-.3-.1-.1-.1-.1-.2-.1-.3v-.1L10 26.4v-.2c0-.4-.2-.8-.4-1.1l-8.2-9c-.1-.1-.1-.2-.1-.3 0-.1 0-.2.1-.3.1-.1.2-.1.3-.2l11.9-2.5c.5-.1.9-.4 1.1-.8l6-10.6c.1-.2.2-.2.4-.2s.3.1.4.2l6 10.6c.2.4.6.7 1.1.8l11.9 2.5c.1 0 .2.1.3.2.1.1.1.2.1.3 0 .1 0 .2-.1.3l-8.2 9c-.3.3-.4.7-.4 1.1v.2l1.3 12.1v.1c0 .1-.1.3-.1.3-.1.1-.2.1-.3.1h-.2l-11.1-5c-.2-.1-.5-.1-.7-.1s-.5 0-.7.1l.2.5.2.5h.4l11.1 5c.2.1.5.2.7.2.9 0 1.7-.7 1.7-1.7v-.2l-1.3-12.1v-.1c0-.1 0-.2.1-.3l8.2-9c.3-.3.4-.7.4-1.1 0-.4-.1-.7-.4-1-.2-.3-.6-.5-1-.6l-11.9-2.5c-.1 0-.3-.1-.3-.2L22.5.8c-.3-.5-.9-.8-1.4-.8-.6 0-1.1.3-1.5.8l-6 10.6c-.1.1-.2.2-.3.2l-12 2.5c-.4.1-.8.3-1 .6-.2.3-.3.7-.3 1.1 0 .4.1.8.4 1.1l8.2 9c.1.1.1.2.1.3v.1L7.4 38.4v.2c0 1 .8 1.7 1.7 1.7.2 0 .5 0 .7-.2l11.1-5-.3-.6z" fill="#68c7ec"/></svg>