<svg id="Layer_1" xmlns="http://www.w3.org/2000/svg" viewBox="0 0 42.9 9.5"><style>.st0{fill:#a9a09a}</style><path class="st0" d="M39.6 1.2l-2.6 1 .4.9 2.6-1-.4-.9zm-4.3 1.7l-2.6 1 .4.9 2.6-1-.4-.9zm-4.2 1.7l-2.6 1 .4.9 2.6-1-.4-.9zm-4.3 1.7l-2.6 1 .4.9 2.6-1-.4-.9zM18.7 7.3l-2.6-1-.4.9 2.6 1 .4-.9zm-4.3-1.7l-2.6-1-.4.9 2.6 1 .4-.9zm-4.2-1.7l-2.6-1-.4.9 2.6 1 .4-.9zM5.9 2.2l-2.6-1-.3.9 2.6 1 .3-.9zM42.5 0l-1.3.5.4.9 1.3-.5-.4-.9zM22.6 8l-1.1.4-1.2-.4-.3.9 1.5.6 1.5-.6-.4-.9zM1.7.5L.4 0 0 .9l1.3.5.4-.9z"/></svg>