<svg xmlns="http://www.w3.org/2000/svg" viewBox="0 0 71.2 17"><path d="M0 2.1h.3v1.4H0zM.5 7.4c.2.3.4.6.8.8l.2-.2c-.4-.3-.6-.5-.8-.8l-.2.2zM4.8 8.7H6v-.3H4.8v.3zm2.4 0h1.2v-.3H7.2v.3zm2.4 0h1.2v-.3H9.6v.3zm2.4 0h1.2v-.3H12v.3zm2.5 0h1.2v-.3h-1.2v.3zm2.4 0h1.2v-.3h-1.2v.3zm2.4 0h1.2v-.3h-1.2v.3zm2.4 0h1.2v-.3h-1.2v.3zm2.4 0h1.2v-.3h-1.2v.3zm2.4 0h1.2v-.3h-1.2v.3zm2.4 0h1.2v-.3h-1.2v.3zm2.5 0h1.2v-.3h-1.2v.3zm2.4 0H35v-.3h-1.2v.3zm2.4 0h1.2v-.3h-1.2v.3zm2.4 0h1.2v-.3h-1.2v.3zm2.4 0h1.2v-.3H41v.3zm2.4 0h1.2v-.3h-1.2v.3zm2.4 0H47v-.3h-1.2v.3zm2.5 0h1.2v-.3h-1.2v.3zm2.4 0h1.2v-.3h-1.2v.3zm2.4 0h1.2v-.3h-1.2v.3zm2.4 0h1.2v-.3h-1.2v.3zm2.4 0h1.2v-.3h-1.2v.3zm2.4 0h1.2v-.3h-1.2v.3zm2.4 0H64v-.3h-1.2v.3zm2.5 0h1.2v-.3h-1.2v.3zM69.9 8.2c.3-.2.6-.5.9-.8l-.3-.2c-.2.3-.5.6-.8.7l.2.3zM70.9 2.1h.3v1.4h-.3zM0 0v.7h.3V0H0zm0 5v.7s0 .2.1.6l.3-.1c0-.2 0-.3-.1-.4V5H0zm2.4 3.6h1.2v-.2H2.5l-.1.2zm65.2.1h.6s.2 0 .6-.1l-.1-.3c-.2 0-.3 0-.4.1h-.7v.3zm3.5-2.4V5h-.3v1.2l.3.1zm.1-5.6V0h-.3v.7h.3zM35.4 8.5v1.2h.3V8.5h-.3zm0 2.4v1.2h.3v-1.2h-.3zm0 2.5v1.2h.3v-1.2h-.3zm0 2.4V17h.3v-1.2h-.3z"/></svg>