<svg version="1.1" id="Layer_1" xmlns="http://www.w3.org/2000/svg" x="0" y="0" viewBox="0 0 57 57" xml:space="preserve"><style>.st1{fill:#a9a09a}</style><path d="M28.5 54v3c7.9 0 15-3.2 20.2-8.4 5.2-5.1 8.4-12.3 8.4-20.2 0-7.9-3.2-15-8.4-20.2C43.5 3.2 36.4 0 28.5 0c-7.9 0-15 3.2-20.2 8.3C3.2 13.5 0 20.6 0 28.5c0 7.9 3.2 15 8.4 20.2 5.2 5.2 12.3 8.4 20.2 8.4V51c-6.2 0-11.8-2.5-15.9-6.6C8.5 40.3 6 34.7 6 28.5c0-6.2 2.5-11.8 6.6-15.9S22.3 6 28.5 6c6.2 0 11.8 2.5 15.9 6.6S51 22.3 51 28.5c0 6.2-2.5 11.8-6.6 15.9S34.7 51 28.5 51v3z" fill="#eceae8"/><path class="st1" d="M30.9 54.5c.3 0 .6-.3.5-.6 0-.3-.3-.6-.7-.5-.3 0-.6.3-.5.6s.4.5.7.5zm2.4-.3c.3-.1.5-.4.5-.7-.1-.3-.4-.5-.7-.5-.3.1-.5.4-.5.7.1.3.4.5.7.5zm2.4-.6c.3-.1.5-.4.4-.7-.1-.3-.4-.5-.7-.4-.3.1-.5.4-.4.7 0 .3.3.5.7.4zm2.2-.7c.3-.1.5-.5.3-.8-.1-.3-.5-.5-.8-.3-.3.1-.5.5-.3.8.2.2.5.4.8.3zm2.3-1c.3-.1.4-.5.3-.8-.1-.3-.5-.4-.8-.3-.3.1-.4.5-.3.8.1.3.5.4.8.3zm2.1-1.2c.3-.2.4-.5.2-.8-.2-.3-.5-.4-.8-.2-.3.2-.4.5-.2.8.1.3.5.4.8.2zm1.9-1.3c.3-.2.3-.6.1-.8-.2-.3-.6-.3-.8-.1-.3.2-.3.6-.1.8.2.2.6.2.8.1zm1.9-1.6c.2-.2.3-.6 0-.8-.2-.2-.6-.3-.8 0-.2.2-.3.6 0 .8.2.2.6.2.8 0zm1.7-1.7c.2-.2.2-.6 0-.8-.2-.2-.6-.2-.8 0-.2.2-.2.6 0 .8.2.3.6.2.8 0zm1.5-1.9c.2-.3.1-.6-.1-.8-.3-.2-.6-.1-.8.1-.2.3-.1.6.1.8.3.3.6.2.8-.1zm1.4-1.9c.2-.3.1-.7-.2-.8-.3-.2-.7-.1-.8.2-.2.3-.1.7.2.8.3.1.6 0 .8-.2zm1.2-2.1c.1-.3 0-.7-.3-.8-.3-.1-.7 0-.8.3-.1.3 0 .7.3.8.3.1.6 0 .8-.3zm1-2.2c.1-.3 0-.7-.3-.8-.3-.1-.7 0-.8.3-.1.3 0 .7.3.8.3.1.6 0 .8-.3zm.7-2.3c.1-.3-.1-.7-.4-.7-.3-.1-.7.1-.7.4-.1.3.1.6.4.7.3.1.6-.1.7-.4zm.6-2.4c.1-.3-.2-.6-.5-.7-.3-.1-.6.2-.7.5-.1.3.2.6.5.7.3.1.6-.2.7-.5zm.3-2.4c0-.3-.2-.6-.5-.7-.3 0-.6.2-.7.5 0 .3.2.6.5.7.4.1.7-.1.7-.5zM54.5 26.1c0-.3-.3-.6-.7-.5-.3 0-.6.3-.5.7 0 .3.3.6.7.5.3-.1.5-.4.5-.7zm-.3-2.4c-.1-.3-.4-.5-.7-.5-.3.1-.5.4-.5.7.1.3.4.5.7.5.3 0 .5-.4.5-.7zm-.6-2.3c-.1-.3-.4-.5-.7-.4-.3.1-.5.4-.4.7.1.3.4.5.7.4s.5-.4.4-.7zm-.7-2.3c-.1-.3-.5-.5-.8-.3-.3.1-.5.5-.3.8.1.3.5.5.8.3.2-.2.4-.5.3-.8zm-1-2.2c-.1-.3-.5-.4-.8-.3-.3.1-.4.5-.3.8.1.3.5.4.8.3.3-.2.4-.5.3-.8zm-1.2-2.1c-.2-.3-.5-.4-.8-.2-.3.2-.4.5-.2.8.2.3.5.4.8.2.3-.2.4-.6.2-.8zm-1.3-2c-.2-.3-.6-.3-.8-.1-.3.2-.3.6-.1.8.2.3.6.3.8.1.2-.2.3-.6.1-.8zm-1.6-1.9c-.2-.2-.6-.3-.8 0-.2.2-.3.6 0 .8.2.2.6.3.8 0 .2-.2.2-.5 0-.8zm-1.7-1.7c-.2-.2-.6-.2-.8 0-.2.2-.2.6 0 .9.2.2.6.2.8 0 .3-.3.3-.7 0-.9zm-1.8-1.5c-.3-.2-.6-.1-.8.1-.2.3-.1.6.1.8.3.2.6.1.8-.1.2-.3.1-.6-.1-.8zm-2-1.4c-.3-.2-.7-.1-.8.2-.2.3-.1.7.2.8.3.2.7.1.8-.2.1-.2 0-.6-.2-.8zm-2.1-1.2c-.3-.1-.7 0-.8.3-.1.3 0 .7.3.8.3.1.7 0 .8-.3.1-.3 0-.6-.3-.8zM38 4.2c-.3-.1-.7 0-.8.3-.1.3 0 .7.3.8.3.1.7 0 .8-.3.1-.4 0-.7-.3-.8zm-2.3-.8c-.3-.1-.6.1-.7.4-.1.3.1.6.4.7.3.1.7-.1.7-.4.1-.3-.1-.6-.4-.7zm-2.4-.6c-.3 0-.6.2-.7.5 0 .3.2.7.5.7.3.1.6-.2.7-.5.1-.3-.2-.6-.5-.7zm-2.4-.3c-.3 0-.6.2-.7.5 0 .3.2.6.5.7.3 0 .6-.2.7-.5.1-.4-.1-.7-.5-.7zM26.1 2.5c-.3 0-.6.3-.5.7 0 .3.3.6.7.5.3 0 .6-.3.5-.7-.1-.3-.4-.5-.7-.5zm-2.4.3c-.3.1-.5.4-.5.7.1.3.4.5.7.5.3-.1.5-.4.5-.7 0-.3-.4-.5-.7-.5zm-2.3.6c-.4.1-.5.4-.4.7.1.3.4.5.7.4.3-.1.5-.4.4-.7-.1-.3-.4-.5-.7-.4zm-2.3.8c-.3.1-.5.5-.3.8.1.3.5.5.8.3.3-.1.5-.5.3-.8-.2-.3-.5-.5-.8-.3zm-2.2.9c-.3.1-.4.5-.3.8.1.3.5.4.8.3.3-.1.4-.5.3-.8s-.5-.4-.8-.3zm-2.1 1.2c-.3.2-.4.5-.2.8.2.3.5.4.8.2.3-.2.4-.5.2-.8-.2-.3-.6-.4-.8-.2zm-2 1.4c-.3.2-.3.6-.1.8.2.3.6.3.8.1.3-.2.3-.6.1-.8-.2-.3-.6-.3-.8-.1zm-1.9 1.5c-.2.2-.3.6 0 .8.2.2.6.3.8 0 .2-.2.3-.6 0-.8-.2-.2-.5-.2-.8 0zm-1.7 1.7c-.2.2-.2.6 0 .8.2.2.6.2.8 0 .2-.2.2-.6 0-.8-.2-.2-.6-.2-.8 0zm-1.5 1.9c-.2.3-.1.6.1.8.3.2.6.1.8-.1.2-.3.2-.6-.1-.8-.2-.2-.6-.2-.8.1zm-1.4 2c-.2.3-.1.7.2.8.3.2.7.1.8-.2.2-.3.1-.7-.2-.8-.2-.2-.6-.1-.8.2zm-1.2 2.1c-.1.3 0 .7.3.8.3.1.7 0 .8-.3.1-.3 0-.7-.3-.8-.3-.2-.6 0-.8.3zm-.9 2.2c-.1.3 0 .7.3.8.3.1.7 0 .8-.3.1-.3 0-.7-.3-.8-.4-.2-.7 0-.8.3zm-.8 2.3c-.1.3.1.6.4.7.3.1.6-.1.7-.4.1-.3-.1-.7-.4-.7-.3-.1-.6 0-.7.4zm-.6 2.3c0 .3.2.6.5.7.3.1.7-.1.7-.5.1-.3-.2-.6-.5-.7-.3 0-.6.2-.7.5zm-.3 2.4c0 .3.2.6.5.7.3 0 .6-.2.7-.5 0-.3-.2-.6-.5-.7-.4-.1-.7.2-.7.5zM2.5 30.9c0 .3.3.6.7.5.3 0 .6-.3.5-.6 0-.3-.3-.6-.7-.5-.3 0-.5.3-.5.6zm.3 2.4c.1.3.4.5.7.5.3-.1.5-.4.5-.7-.1-.3-.4-.5-.7-.5-.3.1-.5.4-.5.7zm.6 2.4c.1.3.4.5.7.4s.5-.4.4-.7c-.1-.3-.4-.5-.7-.4-.3 0-.5.3-.4.7zm.8 2.2c.1.3.5.5.8.3.3-.1.5-.5.3-.8-.1-.3-.5-.5-.8-.3-.3.2-.5.5-.3.8zm.9 2.3c.1.3.5.4.8.3.3-.1.4-.5.3-.8-.1-.3-.5-.4-.8-.3-.3.1-.4.5-.3.8zm1.2 2.1c.2.3.5.4.8.2.3-.2.4-.5.2-.8-.2-.3-.5-.4-.8-.2-.3.1-.4.5-.2.8zm1.4 1.9c.2.3.6.3.8.1.3-.2.3-.6.1-.8-.2-.3-.6-.3-.8-.1-.3.2-.3.6-.1.8zm1.5 1.9c.2.2.6.3.8 0 .2-.2.3-.6 0-.8-.2-.2-.6-.3-.8 0-.2.2-.2.6 0 .8zm1.7 1.7c.2.2.6.2.8 0 .2-.2.2-.6 0-.8-.2-.2-.6-.2-.8 0-.2.2-.2.6 0 .8zm1.9 1.5c.3.2.6.1.8-.1s.1-.6-.1-.8c-.3-.2-.6-.2-.8.1-.2.3-.2.6.1.8zm2 1.4c.3.2.7.1.8-.2.2-.3.1-.7-.2-.8-.3-.2-.7-.1-.8.2-.2.3-.1.6.2.8zm2.1 1.2c.3.1.7 0 .8-.3.1-.3 0-.7-.3-.8-.3-.1-.7 0-.8.3-.1.3 0 .6.3.8zm2.2 1c.3.1.7 0 .8-.3.1-.3 0-.7-.3-.8-.3-.1-.7 0-.8.3-.2.3 0 .6.3.8zm2.3.7c.3.1.7-.1.7-.4.1-.3-.1-.6-.4-.7-.3-.1-.7.1-.7.4-.1.3 0 .6.4.7zm2.3.6c.3.1.6-.2.7-.5.1-.3-.2-.6-.5-.7-.3-.1-.6.2-.7.5 0 .3.2.6.5.7zm2.4.3c.3 0 .6-.2.7-.5 0-.3-.2-.6-.5-.7-.3 0-.6.2-.7.5-.1.4.2.7.5.7zM54 29.1c.2 0 .3-.1.4-.2.1-.1.2-.3.2-.4 0-.2-.1-.3-.2-.4-.1-.1-.3-.2-.4-.2-.2 0-.3.1-.4.2-.1.1-.2.3-.2.4 0 .2.1.3.2.4.1.1.3.2.4.2zM28.5 3.6c.2 0 .3-.1.4-.2.1-.1.2-.3.2-.4 0-.2-.1-.3-.2-.4-.1-.1-.3-.2-.4-.2-.2 0-.3.1-.4.2-.1.1-.2.2-.2.4s.1.3.2.4c.1.1.3.2.4.2zM3 29.1c.2 0 .3-.1.4-.2.1-.1.2-.3.2-.4 0-.2-.1-.3-.2-.4-.1-.1-.2-.2-.4-.2s-.3.1-.4.2c-.1.1-.2.3-.2.4 0 .2.1.3.2.4.1.1.2.2.4.2zm25.5 25.5c.2 0 .3-.1.4-.2.1-.1.2-.3.2-.4 0-.2-.1-.3-.2-.4-.1-.1-.3-.2-.4-.2-.2 0-.3.1-.4.2-.1.1-.2.3-.2.4 0 .2.1.3.2.4.1.2.3.2.4.2z"/></svg>