<svg xmlns="http://www.w3.org/2000/svg" viewBox="0 0 61.4 14.3"><path d="M.8 1.5c.1.3.3.5.5.8l.2-.1c-.2-.3-.4-.6-.5-.9l-.2.2zm1 1.7c.2.2.4.5.6.8l.2-.2c-.2-.3-.4-.5-.6-.8l-.2.2zM3 4.7l.7.7.2-.2c-.2-.2-.5-.4-.7-.7l-.2.2zm1.5 1.4c.2.2.5.4.8.6l.2-.2c-.4-.2-.6-.4-.9-.6l-.1.2zM6 7.4c.3.2.5.4.8.6l.1-.2c-.2-.3-.5-.5-.8-.6l-.1.2zm1.6 1.1c.3.1.6.3.9.5l.1-.2c-.3-.2-.6-.4-.8-.5l-.2.2zm1.7 1c.3.2.6.3.9.5l.1-.2c-.3-.2-.6-.4-.9-.5l-.1.2zm1.8.9c.3.1.6.3.9.4l.1-.2c-.3-.1-.6-.3-.9-.4l-.1.2zm1.8.7c.3.1.6.2.9.4l.1-.2c-.3-.1-.6-.2-.9-.4l-.1.2zm1.9.7l.9.3.1-.2-.9-.3-.1.2zm1.8.6c.3.1.6.2 1 .3l.1-.2-.9-.3-.2.2zm2 .5c.3.1.6.2 1 .2l.1-.2c-.3-.1-.6-.1-1-.2l-.1.2zm1.9.5c.3.1.6.1 1 .2v-.2c-.3-.1-.6-.1-1-.2v.2zm1.9.3c.3.1.6.1 1 .1v-.2c-.3 0-.6-.1-1-.1v.2zm2 .3c.3 0 .7.1 1 .1v-.2c-.3 0-.7-.1-1-.1v.2zm1.9.2c.3 0 .7 0 1 .1V14c-.3 0-.7 0-1-.1v.3zm2 .1h1V14h-1v.3zM32.3 14.3h1V14h-1v.3zm1.9-.1c.3 0 .7 0 1-.1v-.2c-.3 0-.7 0-1 .1v.2zm2-.1c.3 0 .7-.1 1-.1v-.2c-.3 0-.6.1-1 .1v.2zm2-.3c.3 0 .7-.1 1-.1v-.2c-.3.1-.6.1-1 .1v.2zm1.9-.3c.3-.1.6-.1 1-.2v-.2c-.3.1-.6.1-1 .2v.2zm1.9-.3c.3-.1.6-.1 1-.2v-.3c-.3.1-.6.2-1 .2v.3zm2-.5c.3-.1.6-.2 1-.3l-.1-.2-.9.3v.2zm1.9-.6l.9-.3-.1-.2-.9.3.1.2zm1.8-.6c.3-.1.6-.2.9-.4l-.1-.2c-.3.1-.6.2-.9.4l.1.2zm1.9-.7c.3-.1.6-.3.9-.4l-.1-.2c-.3.1-.6.3-.9.4l.1.2zm1.8-.9c.3-.1.6-.3.9-.5l-.1-.2c-.3.2-.6.3-.9.5l.1.2zm1.7-.9c.3-.2.6-.3.8-.5l-.1-.2c-.3.2-.6.3-.8.5l.1.2zm1.7-1.1c.3-.2.5-.4.8-.6l-.1-.2c-.3.2-.5.4-.8.6l.1.2zm1.6-1.2c.3-.2.5-.4.8-.6l-.2-.2c-.2.2-.5.4-.7.6l.1.2zm1.4-1.3l.7-.7-.2-.2c-.2.2-.4.5-.7.7l.2.2zM59.2 4c.2-.3.4-.5.6-.8l-.2-.2c-.2.3-.4.5-.6.8l.2.2zm1.1-1.7c.2-.3.3-.6.5-.9l-.2-.1c-.1.3-.3.6-.5.9l.2.1zM.2.1c.1.2.1.3.2.5L.6.5C.5.3.5.2.4 0L.2.1zm30.1 14.2h1V14h-1v.3zM61.2.6c.1-.2.1-.3.2-.5l-.3-.1c0 .2-.1.3-.1.5l.2.1z"/><path d="M3.5 2.3c.4-.2.4-.6 0-.8L.8.1C.4-.1.1.1.1.5L0 3.6c0 .4.3.6.7.3l2.8-1.6z"/></svg>