<svg xmlns="http://www.w3.org/2000/svg" viewBox="0 0 9.9 11.4"><path d="M9.8.7c0-.1.1-.2.1-.4-.1-.2-.3-.2-.3-.2C9.3 0 9 0 8.8 0h-.5c-.8 0-1.7.1-2.6.1-.3 0-.6 0-1 .1-.2 0-.6 0-.5.3 0 .2.1.4.3.4.2 0 .5 0 .7-.1.7 0 1.4-.1 2.2-.1-.1 0-.3 0-.4.1-1.4.5-2.4 1-3.3 1.7C2 3.8.9 5.3.3 6.9c-.4 1.2-.5 2.5-.1 3.8l.3.6c.1.1.2.2.3.2l.2-.1c.1-.1.2-.2.2-.3 0-.1 0-.2-.1-.3-.4-.4-.4-.9-.5-1.5-.1-1.6.4-3.1 1.7-4.6C3.8 2.8 5.8 1.6 8.6 1l-.1.1c-.2.3-.4.5-.6.8-.3.4-.6.7-.8 1.1-.2.3-.5.7-.3 1 .1.2.2.2.3.1.1-.1.2-.3.3-.4l.6-.9c.4-.6.9-1.1 1.3-1.6l.2-.2.3-.3z" fill="#e85298"/></svg>