<svg version="1.1" id="Layer_1" xmlns="http://www.w3.org/2000/svg" x="0" y="0" viewBox="0 0 80.4 23.5" xml:space="preserve"><style>.st0{fill:#898989}</style><path class="st0" d="M1.4 19.5c.4-.7.8-1.5 1.2-2.2.1-.2.4-.2.6-.1.2.1.2.4.1.5l-1.2 2.1c-.1.2-.4.3-.6.2-.2-.1-.2-.3-.1-.5zm2.5-4.2c.5-.7 1-1.3 1.6-1.9.1-.2.4-.2.6 0 .2.1.2.4 0 .6-.5.6-1.1 1.2-1.5 1.9-.2 0-.4.1-.6-.1-.2-.1-.2-.3-.1-.5zm3.3-3.7c.6-.6 1.2-1.1 1.9-1.6.2-.2.4-.1.6 0 .1.2.1.4-.1.6-.6.5-1.2 1-1.8 1.6-.2.2-.4.1-.6 0s-.1-.4 0-.6zm3.9-3.1c.7-.5 1.3-.9 2.1-1.4.2-.1.4-.1.6.1.1.2.1.4-.1.5-.7.4-1.4.9-2 1.3-.2.1-.4.1-.6-.1-.3 0-.2-.3 0-.4zm4.1-2.6c.7-.4 1.4-.8 2.2-1.1.2-.1.4 0 .5.2.1.2 0 .4-.2.5-.7.3-1.5.7-2.2 1.1-.2.1-.4 0-.5-.2 0-.1 0-.4.2-.5zm4.5-2.1c.7-.3 1.5-.6 2.3-.8.2-.1.4 0 .5.2.1.2 0 .4-.2.5-.8.3-1.6.6-2.3.9-.2.1-.4 0-.5-.2-.1-.3 0-.5.2-.6zm4.6-1.6l2.4-.6c.2-.1.4.1.5.3s-.1.4-.3.5c-.8.2-1.6.4-2.3.6-.2.1-.4-.1-.5-.3-.1-.2 0-.4.2-.5zM29.1 1c.8-.2 1.6-.3 2.4-.4.2 0 .4.1.5.3 0 .2-.1.4-.3.5-.8.1-1.6.3-2.4.4-.2 0-.4-.1-.5-.3-.1-.2.1-.4.3-.5zM34 .3c.8-.1 1.6-.2 2.4-.2.2 0 .4.2.4.4s-.2.4-.4.4c-.8.1-1.6.1-2.4.2-.2 0-.4-.1-.4-.4 0-.2.1-.4.4-.4zM43.8.1c.8.1 1.6.1 2.4.2.2 0 .4.2.4.4s-.2.4-.4.4c-.9-.1-1.7-.1-2.5-.2-.2 0-.4-.2-.4-.4.1-.2.2-.4.5-.4zm4.8.5c.8.1 1.6.3 2.4.4.2 0 .4.3.3.5 0 .2-.3.4-.5.3-.8-.2-1.6-.3-2.4-.4-.2 0-.4-.2-.3-.5.1-.2.3-.3.5-.3zm4.9 1l2.4.6c.2.1.3.3.3.5-.2.2-.4.3-.6.3-.8-.2-1.5-.4-2.3-.6-.2-.1-.3-.3-.3-.5s.2-.4.5-.3zM58.2 3c.8.3 1.5.6 2.3.9.2.1.3.3.2.5-.1.2-.3.3-.5.2-.7-.3-1.5-.6-2.3-.8-.2-.1-.3-.3-.2-.5 0-.3.3-.4.5-.3zm4.5 1.8c.8.4 1.5.7 2.2 1.1.2.1.3.3.2.5-.1.2-.3.3-.5.2-.7-.4-1.4-.7-2.2-1.1-.2-.1-.3-.3-.2-.5.1-.2.3-.3.5-.2zm4.4 2.3c.7.4 1.4.9 2.1 1.4.2.1.2.4.1.6-.1.2-.4.2-.6.1-.6-.5-1.3-.9-2-1.3-.2-.1-.2-.4-.1-.6 0-.2.3-.3.5-.2zm4 2.9c.6.5 1.3 1.1 1.9 1.6.2.2.2.4 0 .6-.2.2-.4.2-.6 0-.6-.5-1.2-1.1-1.8-1.6-.2-.1-.2-.4-.1-.6.2-.1.4-.2.6 0zm3.6 3.4c.6.6 1.1 1.3 1.6 1.9.1.2.1.4-.1.6-.2.1-.4.1-.6-.1-.5-.6-1-1.2-1.5-1.9-.1-.2-.1-.4 0-.6.2-.1.4-.1.6.1zm2.9 3.9c.4.7.8 1.4 1.2 2.2.1.2 0 .4-.2.5-.2.1-.4 0-.5-.2-.3-.7-.7-1.4-1.2-2.1-.1-.2-.1-.4.1-.5.3-.1.5-.1.6.1zM0 23c.1-.4.2-.8.4-1.2.1-.2.3-.3.5-.2.2.1.3.3.2.5-.1.4-.3.8-.4 1.1-.1.2-.3.3-.5.3-.1-.1-.2-.3-.2-.5zM38.9 0h2.4c.2 0 .4.2.4.4s-.2.4-.4.4h-2.4c-.2 0-.4-.2-.4-.4s.1-.4.4-.4zm40.9 21.8c.1.4.3.8.4 1.2.1.2-.1.4-.3.5-.2.1-.4-.1-.5-.3-.1-.4-.2-.8-.4-1.1-.1-.2 0-.4.2-.5.3-.1.5 0 .6.2z"/><path class="st0" d="M79.7 18.2c.4-.2.8 0 .7.5l-.4 3.7c-.1.5-.4.6-.8.3l-2.9-2.2c-.4-.3-.3-.7.1-.9l3.3-1.4z"/></svg>