<svg xmlns="http://www.w3.org/2000/svg" viewBox="0 0 129.6 129.6"><path d="M122.9 128.6s5.7 0 5.7-5.7V6.7s0-5.7-5.7-5.7H91.7S86 1 86 6.7v31.2s0 5.7-5.7 5.7H49.2s-5.7 0-5.7 5.7v31.2s0 5.7-5.7 5.7H6.7S1 86.2 1 91.9v31.2s0 5.7 5.7 5.7H122.9v-.2z" fill="#fffde5"/><path d="M122.9 128.6v1c.1 0 1.6 0 3.3-.8.8-.4 1.7-1.1 2.3-2 .6-1 1.1-2.3 1.1-3.8V6.7c0-.1 0-1.6-.8-3.3-.4-.8-1.1-1.7-2-2.3-1-.6-2.3-1.1-3.8-1.1H91.7c-.1 0-1.6 0-3.3.8-.8.4-1.7 1.1-2.3 2-.6 1-1.1 2.3-1.1 3.8v31.2c0 .1 0 1.4-.7 2.5-.3.6-.7 1.1-1.3 1.5-.6.4-1.5.7-2.7.7H49.2c-.1 0-1.6 0-3.3.8-.8.4-1.7 1.1-2.3 2-.6 1-1.1 2.3-1.1 3.8v31.2c0 .1 0 1.4-.7 2.5-.3.6-.7 1.1-1.3 1.5-.6.4-1.5.7-2.7.7H6.7c-.1 0-1.6 0-3.3.8-.8.4-1.7 1.1-2.3 2-.6 1-1.1 2.3-1.1 3.8v31.2c0 .1 0 1.6.8 3.3.4.8 1.1 1.7 2 2.3 1 .6 2.3 1.1 3.8 1.1H122.9v-1.9H6.7c-1.3 0-2.1-.3-2.7-.7-.9-.6-1.4-1.6-1.7-2.4-.1-.4-.2-.8-.2-1.1v-.4h-.3.2-.3.3V91.7c0-1.3.3-2.1.7-2.7.6-.9 1.6-1.4 2.4-1.7.4-.1.8-.2 1.1-.2h.4v-.2.1-.2.2h31.2c1.6 0 2.9-.4 3.8-1.1 1.5-1 2.2-2.4 2.5-3.5.3-1.1.3-2 .3-2.1V49.2c0-1.3.3-2.1.7-2.7.6-.9 1.6-1.4 2.4-1.7.4-.1.8-.2 1.1-.2h.4v-.2.2-.2.2h31.2c1.6 0 2.9-.4 3.8-1.1 1.5-1 2.2-2.4 2.5-3.5.3-1.1.3-2 .3-2.1V6.7c0-1.3.3-2.1.7-2.7.6-.9 1.6-1.4 2.4-1.7.7-.2 1.1-.2 1.4-.3h.4v-.2.2-.2.2h31.2c1.3 0 2.1.3 2.7.7.9.6 1.4 1.6 1.7 2.4.1.4.2.8.2 1.1v.4h.2-.2.2-.2v116.2c0 1.3-.3 2.1-.7 2.7-.6.9-1.6 1.4-2.4 1.7-.4.1-.8.2-1.1.2h-.4v.2-.2.2-.2 1.2z" fill="#a9a09a"/></svg>