<svg id="Layer_1" data-name="Layer 1" xmlns="http://www.w3.org/2000/svg" width="19.37mm" height="20.3mm" viewBox="0 0 54.91 57.55"><defs><style>.cls-1{fill:#002132;}</style></defs><title>el_backArr</title><path class="cls-1" d="M270.17,404.68l20.76,13.63V410h9.54l.46,0,.93,0,.9.14a5.61,5.61,0,0,1,.91.17l.43.12a5.41,5.41,0,0,1,.69.19c.44.18.91.3,1.34.51a14,14,0,0,1-2,26.24,8.29,8.29,0,0,1-1.4.29,7.54,7.54,0,0,1-1.43.15l-.72,0H270.17v10.65h30.42l1.26-.06a23.36,23.36,0,0,0,5-.79,24.6,24.6,0,0,0,3.61-46.27c-.76-.36-1.57-.61-2.36-.91-.4-.15-.81-.23-1.22-.34l-.78-.2a10.64,10.64,0,0,0-1.59-.31c-.53-.08-1.07-.18-1.61-.23l-1.61-.09-.8,0h-9.54V391Z" transform="translate(-270.17 -391.04)"/></svg>