<svg id="Layer_1" data-name="Layer 1" xmlns="http://www.w3.org/2000/svg" width="69.92mm" height="20.36mm" viewBox="0 0 198.19 57.7"><defs><style>.cls-1{fill:#be5571;opacity:0.5;}</style></defs><title>el_tape</title><path class="cls-1" d="M305.83,395l54-.53,6-.06a39.82,39.82,0,0,1,4.48.17,15.06,15.06,0,0,1,4.28,1,8.25,8.25,0,0,1,3.4,2.51c.54,2-.32,9,1.27,2.29-1.4,7.28-4.12,10,.63,2.57-4.75,7.45-6.23,7.56.18,1.79-6.41,5.78-7.35,5.68.08,1.82-7.43,3.86-7.89,3.79.07,1.79-8,2-7.92,2,.16,2.22-8.08-.2-7.48-.08.26,2.2-7.74-2.28-6.61-2.11.36,2.18-7-4.29-2.08-1.93.63,5.33-2.61-6.35-5.9-9.27-.16-3.16-5.74-6.14,0,5.58-.22,7s-.63,1.52-.64.71S378,412.63,382,419.29c-4-6.66-2.16,4.8-2.87,5.84s-1.06,1.21-.7.64,1.12-6.25,3.51-3.79c-2.39-2.46-3.38,3.21-3.94,3.85s-.38.61.43-.11,1.56-7.41,4.2-4.3c-2.64-3.11-3.39,3.58-4.17,4.33s-.91.85-.26.34,2-3.39,4.34-3.26c-2.38-.13-3.9,2.72-4.74,3.33-1.68,1.22-.3.54,4.78-1.36-7.61,2.85-6.55,3,.77-1.27-7.32,4.3-7.57,4.28.25,1.31-7.82,3-7.54,3,.53.79-8.07,2.23-7.88,2.27.38.93-8.26,1.34-7.89,1.41.48,1.15-8.37.26-8,.31.31.69-8.35-.38-7.48-.27.6,1.37-8.08-1.64-8.16-1.65,0-.15-8.12-1.5-7.2-1.42.49,1.11-7.69-2.53-7.37-2.51.15.31-7.52-2.82-6.69-2.79.37.78-7.06-3.57-5.95-3.57.45.91-6.4-4.48-6.78-4.47.22-1.25-7-3.22-5.48-3.27.24,2.17-5.72-5.44-5.56-5.44.6-.86-6.16-4.58-4.52-4.71.35,2.68-4.87-7.39-4.72-7.41.75-.56-5.47-6.85-4.65-6.8.23,2.36-4.88-9.16-2.6-6.55,1,1.8-3.49-8.14,1.41.44,1,1.78.88-.48.7,1.18,1.05,1.77s.7,1.18,1.06,1.77c1.07,1.75,2.15,3.5,3.23,5.22l-53.59-3.85c-10.09-.72-20.23-1.45-30.26-.61-9,.76-17.8,2.77-26.78,3.59s-17.84.46-26.77.11l-12-.46c-2-.08-4-.25-6-.24-2-.17-4-.19-6-.23s-4.13-.74-6-.24a11.72,11.72,0,0,0-6-.23,10.58,10.58,0,0,0-6-.24,8.82,8.82,0,0,0-6-.23c-1.91-.78-5-3.08-6-.23-.68-3.51-1.13-7.18-.83-2.55-.5-5.26-.36-6.91-.75-2.57.32-4.6.59-5.08-.71-2.8,1.27-2.39,1.28-2.46-.5-2.4,1.77-.14.83-.49-1.32-4.57,2,3.7,2,3.41.47-.69,1.51,4-.48.77-1.94-3.36,1.31,3.81,2.69,6.16,1.73,1.7,1,4.41-1.34.27-2.5-2.73.94,2.68,2.39,5.2,2.16,1.17.23,4-1.94,0-2.64-2.14.63,1.36,1.08.38,2.44-1.25-1.36,1.56-2.08,1.52-2.36.39.38.81.95-.45,2.36-1.52-1.41,1-1.9,1.79-2,1,.25.56.81-.61,2.12-1.59-1.36,1-1.44,1.6-1.13.9.46,0,1.35-1.37,2.21-3-.84,1.55-1.67,2.74-2.07,2.77-.3.51-.19-.13,1-1.26-1.22,1.13-1.13,1.42-.62.84a8.49,8.49,0,0,0,2.09-3.53,7.39,7.39,0,0,1-1.88,3.19c-.46.38-.54,0,.43-1.33-1,1.31-.73,1.5-.14.92a8,8,0,0,0,1.92-3.71,7.44,7.44,0,0,1-1.86,3.59c-.58.53-.85.28,0-1.1-1.75,2.7,1.78-.09,2.28-3.57-.36,3.17-3.21,5.43-2.25,2.47-1,2.93,2.7-.67,2.95-3.65-.1,2.66-3.06,5.5-2.93,2.56-.13,2.93,3.15-.32,3.29-2.88-.1,2.71-3.51,6.35-3,3.47-.53,2.86,3.26-1.34,3.42-3.93,0,2.1-2.75,4.83-3.49,2.2.75,2.62,3.8-.36,3.83-2.39,0,2.4-3.64,6.58-3.4,3.81-.24,2.77,3.61-1.6,3.7-4,.08,1.84-2.68,4.35-3.89,2,1.21,2.38,4.55-.53,4.7-2.31.19,2-3.1,5.74-3.85,3.17.75,2.57,4.05-1.21,3.85-3.21-.14,1.74-3.42,4.52-4.72,2.2,1.29,2.33,4.06-.14,4-1.91-.06,2.29-3.86,6.67-3.74,3.92-.11,2.76,3.71-1.58,3.77-3.91.07,1.78-2.66,4.09-4,1.79,1.38,2.26,4.5-1,4.53-2.59.08,1.37-2.41,3.31-4.46,1.53,2.06,1.75,5-.48,5.11-1.89.2,1.13-1.8,1.78-4.57.54,2.77,1.24,4.92.59,4.81-.57,0,1.35-2.68,3-5,1.47,2.37,1.57,5.26.2,5.44-1.19.28,1.54-2.24,3.41-4.55,1.59,1.49,2.05,3.8.45,4.26-1.4.54,1.35.31.89-.5-.38a3.09,3.09,0,0,1-4.67.63c2.67,1.25,4.79-.07,4.67-1.22-.06.65-1.9,0-4.92-.7,3,.67,4.59,1,4.51.32-.07.63-1.81.25-4.77-.34,3,.59,4.6.87,4.61.24,0,.55-1.59.08-4.55-.55,3,.62,4.55.91,4.56.29,0,.28-1.43-.63-4.28-1.59,2.85.95,4.32,1.82,4.3,1.52,0,.52-1.52,0-4.46-.7,2.94.7,4.43,1.15,4.43.6,0,.18-1.43-.8-4.17-2,2.74,1.16,4.14,2.11,4.11,1.92,0,.5-1.52,0-4.44-.72,2.92.72,4.27,1.12,4.18.62-.08.12-1.58-.81-4.24-1.9,2.66,1.09,4.08,1.85,4.18,1.58.12.12-1.08-.79-3.62-2.26,2.54,1.47,3.71,2.29,3.63,2.07-.06.06-1.36-.92-3.75-2.51,2.39,1.57,3.39,2.27,3.35,2a34.82,34.82,0,0,0-2.88-3.63c3.53,4.29,1.82,3.07.43-2.13,1.41,5.12-.72,3.08.49-2.12-1.15,4.95-2.91.25.68-3.61-3.47,2.81-1.39-1.1.06-3.59-1.64.57-.46-2.3-.86-3.58a51.92,51.92,0,0,1,5.88-.72c14.17-.95,31.33,2.73,45.13,3C271.65,395.35,288.74,395.18,305.83,395Z" transform="translate(-198.91 -391.91)"/></svg>