<svg id="Layer_1" data-name="Layer 1" xmlns="http://www.w3.org/2000/svg" xmlns:xlink="http://www.w3.org/1999/xlink" width="41.86mm" height="41.86mm" viewBox="0 0 118.67 118.67"><defs><style>.cls-1{fill:#efd925;}.cls-2{fill:#371e1e;}.cls-3{clip-path:url(#clip-path);}.cls-4{clip-path:url(#clip-path-2);}.cls-5{clip-path:url(#clip-path-3);}.cls-6{clip-path:url(#clip-path-4);}</style><clipPath id="clip-path" transform="translate(-238.5 -361.67)"><path class="cls-1" d="M272.26,413.28H276s0,10.35,0,12.76c0,1.77,3.92,1.79,3.92,0V413.42h3.75c2.35,0,2.35-3.69,0-3.69-2.64,0-11.47-.07-11.47-.07-2.21,0-2.2,3.61,0,3.61"/></clipPath><clipPath id="clip-path-2" transform="translate(-238.5 -361.67)"><path class="cls-1" d="M290.3,414l2.09,6.57H288ZM288,410.87c-.93,2.05-4.28,11.69-5.39,14.25-.81,1.85,2.66,3.36,3.46,1.51l.76-2.64h6.89s-.23.11.68,2.53c.74,2,4.32.59,3.58-1.36-1.06-2.8-4.72-12.86-5.39-14.29a2.83,2.83,0,0,0-2.48-1.13,2.19,2.19,0,0,0-2.11,1.13"/></clipPath><clipPath id="clip-path-3" transform="translate(-238.5 -361.67)"><path class="cls-1" d="M299.25,411.48c0,3.27,0,13.84,0,13.84s-.3,2.1,1.5,2.1l7.57,0c1.77,0,1.76-3.77,0-3.77l-5,0s0-9.77,0-12.14a2.07,2.07,0,0,0-4.08,0"/></clipPath><clipPath id="clip-path-4" transform="translate(-238.5 -361.67)"><path class="cls-1" d="M310.58,411c0,1.43-.05,14.43-.05,15.39,0,1.52,3.87,1.52,3.87,0v-5.11l1.14-.91,5,6.78c1,1.32,4.16-1.07,3.16-2.4l-5.28-6.95s3.58-3.87,5-5.27c.83-.82-1.72-3.39-2.54-2.57l-6.41,6.41s.05-3.53,0-5.48c0-.74-.93-1.1-1.86-1.1s-2,.41-2,1.21"/></clipPath></defs><title>footer_kakao</title><circle class="cls-1" cx="59.33" cy="59.33" r="59.33"/><path class="cls-2" d="M297.8,389.67c-20.22,0-36.61,12.95-36.61,28.94,0,10.41,6.94,19.53,17.37,24.63-.77,2.86-2.78,10.35-3.18,12-.49,2,.73,2,1.54,1.43L291,447.06a47.42,47.42,0,0,0,6.8.5c20.22,0,36.62-13,36.62-28.95S318,389.67,297.8,389.67" transform="translate(-238.5 -361.67)"/><path class="cls-1" d="M272.26,413.28H276s0,10.35,0,12.76c0,1.77,3.92,1.79,3.92,0V413.42h3.75c2.35,0,2.35-3.69,0-3.69-2.64,0-11.47-.07-11.47-.07-2.21,0-2.2,3.61,0,3.61" transform="translate(-238.5 -361.67)"/><g class="cls-3"><rect class="cls-1" x="31.54" y="48" width="16.02" height="18.16"/></g><path class="cls-1" d="M290.3,414l2.09,6.57H288ZM288,410.87c-.93,2.05-4.28,11.69-5.39,14.25-.81,1.85,2.66,3.36,3.46,1.51l.76-2.64h6.89s-.23.11.68,2.53c.74,2,4.32.59,3.58-1.36-1.06-2.8-4.72-12.86-5.39-14.29a2.83,2.83,0,0,0-2.48-1.13,2.19,2.19,0,0,0-2.11,1.13" transform="translate(-238.5 -361.67)"/><g class="cls-4"><rect class="cls-1" x="43.25" y="48.08" width="16.92" height="18.73"/></g><path class="cls-1" d="M299.25,411.48c0,3.27,0,13.84,0,13.84s-.3,2.1,1.5,2.1l7.57,0c1.77,0,1.76-3.77,0-3.77l-5,0s0-9.77,0-12.14a2.07,2.07,0,0,0-4.08,0" transform="translate(-238.5 -361.67)"/><g class="cls-5"><rect class="cls-1" x="60.47" y="48.08" width="11.14" height="17.67"/></g><path class="cls-1" d="M310.58,411c0,1.43-.05,14.43-.05,15.39,0,1.52,3.87,1.52,3.87,0v-5.11l1.14-.91,5,6.78c1,1.32,4.16-1.07,3.16-2.4l-5.28-6.95s3.58-3.87,5-5.27c.83-.82-1.72-3.39-2.54-2.57l-6.41,6.41s.05-3.53,0-5.48c0-.74-.93-1.1-1.86-1.1s-2,.41-2,1.21" transform="translate(-238.5 -361.67)"/><g class="cls-6"><rect class="cls-1" x="72.03" y="47.43" width="14.14" height="19.33"/></g></svg>