<svg id="Layer_1" data-name="Layer 1" xmlns="http://www.w3.org/2000/svg" width="24.47mm" height="30.46mm" viewBox="0 0 69.36 86.34"><defs><style>.cls-1{fill:#fff;}.cls-2{fill:#be5672;}</style></defs><title>millsee_mouse</title><path class="cls-1" d="M313.09,461a5.36,5.36,0,0,1-4.45-2.36l-10.42-15.46-11.28,7.59a7,7,0,0,1-10.75-4.64l-9.61-58a7,7,0,0,1,10.52-7.07l50.07,30.79a7,7,0,0,1,.24,11.71l-11.27,7.57,10.41,15.44A5.37,5.37,0,0,1,325.1,454l-9,6.08a5.32,5.32,0,0,1-3,.91Z" transform="translate(-263.81 -377.37)"/><path class="cls-2" d="M273.46,382.73a4.26,4.26,0,0,1,2.23.64l50.08,30.79a4.29,4.29,0,0,1,.15,7.21l-13.5,9.07,11.91,17.66a2.69,2.69,0,0,1-.73,3.72l-9,6.08a2.65,2.65,0,0,1-1.49.45,2.68,2.68,0,0,1-2.23-1.18L299,439.5l-13.51,9.07a4.26,4.26,0,0,1-6.61-2.85l-9.61-58a4.29,4.29,0,0,1,4.24-5m0-5.36a9.66,9.66,0,0,0-9.52,11.23l9.6,58A9.64,9.64,0,0,0,288.43,453l9.06-6.09,8.93,13.24a8,8,0,0,0,6.67,3.54,7.94,7.94,0,0,0,4.48-1.37l9-6.08a8.05,8.05,0,0,0,2.17-11.16l-8.91-13.21,9.05-6.08a9.64,9.64,0,0,0-.33-16.21L278.5,378.81a9.65,9.65,0,0,0-5-1.44Z" transform="translate(-263.81 -377.37)"/></svg>