<svg id="Layer_1" data-name="Layer 1" xmlns="http://www.w3.org/2000/svg" width="107.76mm" height="27.65mm" viewBox="0 0 305.47 78.37"><defs><style>.cls-1{fill:#fff;}</style></defs><title>millSee_logo_fff</title><g id="Layer_3" data-name="Layer 3"><path class="cls-1" d="M162.76,271.16c8.51-11.58,19.89-11.92,24.77-4.79,3.07-2.16,5.87-5.05,9.28-6.35,8.49-3.23,15.5,1.61,14.71,10.67q-.86,9.85-1.64,19.71a10,10,0,0,0,.09,2.68c.46,2.36,2.54,3.21,4.37,1.66a11.24,11.24,0,0,0,2.89-3.57c2.26-4.68,4.77-9.33,6.31-14.26,1.26-4.05,1.26-8.5,1.88-12.76a10.39,10.39,0,0,1,.84-3c.81-1.71,2.23-2.69,4.16-2.17a3.21,3.21,0,0,1,2.46,3.73c-.53,4.52-1.36,9-1.7,13.56s-.3,9.26-.33,13.89a7.65,7.65,0,0,0,.7,2.82c1.4,3.37,4.45,4,7,1.39a19.18,19.18,0,0,0,3.23-4.55c1.9-3.78,3.63-7.64,5.29-11.53a8.76,8.76,0,0,0,.46-3.33c0-11.18.37-22.34,3.51-33.16a47.3,47.3,0,0,1,4.31-9.77,11.89,11.89,0,0,1,7.74-5.93c6.05-1.45,10.76,1.52,11.85,7.65,1.34,7.6-.64,14.72-3.62,21.6a75.84,75.84,0,0,1-14.1,21c-1.78,1.94-2.64,3.79-1.89,6.31.83,2.8,1.3,5.75,2.52,8.36,2.46,5.23,6.64,5.85,10.69,1.77s6.67-9.4,8.82-14.79a8.34,8.34,0,0,0,.22-2.9c0-11,.32-22,3.35-32.69a63.21,63.21,0,0,1,4.39-10.27,10.92,10.92,0,0,1,2.83-3.33c3.3-2.85,7.12-4.08,11.32-2.43s5.56,5.33,5.83,9.42A40.63,40.63,0,0,1,299,260c-3.74,6.07-8.36,11.59-12.48,17.44-.72,1-1.44,2.56-1.2,3.64.86,3.77,1.66,7.67,3.37,11.08,2,4.07,5.71,4.39,9.13,1.35,4.63-4.12,7.13-9.63,9.55-15.17.29-.67.4-1.57.9-2,.93-.73,2.6-1.88,3-1.56,1,.7,2.27,2.49,2,3.34-2.83,8.19-6,16.28-13.19,21.81a11.52,11.52,0,0,1-16.14-2.22l0,0c-2-2.56-3.37-5.68-5.1-8.69-.33.52-.72,1.26-1.22,1.93-1.83,2.48-3.45,5.19-5.6,7.35-5.91,5.94-14.34,5.12-19.14-1.79a69.67,69.67,0,0,1-3.89-7.35c-.41.69-.81,1.42-1.26,2.1-1.67,2.5-3.1,5.23-5.09,7.43-6.3,7-15.21,4.9-18-4-.26-.82-.49-1.65-.83-2.83a40.72,40.72,0,0,1-2.67,4.07,25.57,25.57,0,0,1-4.72,4.86c-5.63,3.83-12.81.67-13.25-6.1-.36-5.47.37-11,.68-16.54.12-2.28.54-4.54.6-6.81.15-4.93-3.48-7.1-7.8-4.66-4.05,2.28-6.28,6.07-8,10.21-2.53,6.25-3,12.79-2.48,19.44,0,.57.13,1.14.15,1.71.07,2.66-1.08,4.25-3.17,4.41a3.51,3.51,0,0,1-3.92-3,3.37,3.37,0,0,1,0-.71c.11-6.32.61-12.63,1.06-18.94.17-2.51.79-5,.89-7.5s-1.2-3.82-3.6-3.51a12.94,12.94,0,0,0-5.78,2.15c-4.83,3.51-7.39,8.62-8.73,14.28a63.91,63.91,0,0,0-1.12,8.93c-.14,1.54,0,3.1-.09,4.64-.24,2.64-1.56,3.85-3.87,3.74-2.07-.09-3.31-1.46-3.26-4q.24-11.61.7-23.2c.14-3.5.5-7,.79-10.48a16.08,16.08,0,0,1,.38-2.66,3.41,3.41,0,0,1,3.85-2.9h.05c2.16.17,3,1.65,3,3.51C163.28,265.51,163,268.34,162.76,271.16ZM285,268.6c5.17-6.21,9.42-12.93,11.4-20.74a50.27,50.27,0,0,0,1.33-12.47c0-3.07-3-4-5.19-1.74a14.73,14.73,0,0,0-3,4.7c-3.81,9.68-4.28,19.93-4.57,30.26Zm-30.32-.13a52.28,52.28,0,0,0,10.62-17.19,35.76,35.76,0,0,0,2.72-14.77c-.09-1.67-.35-3.7-2.26-3.82a6.13,6.13,0,0,0-4.05,1.94,9.64,9.64,0,0,0-2.42,4.44c-1.47,6.49-2.83,13-3.95,19.56a92.78,92.78,0,0,0-.69,9.85Z" transform="translate(-154.7 -224.91)"/><path class="cls-1" d="M413.3,289.86c-.89,1.17-1.59,2.14-2.34,3.08-4.91,6.22-11.2,9.82-19.2,10.11-10,.36-17.42-5.14-20.06-14.77-3.09-11.3,1.44-23.69,10.38-28.35a17.53,17.53,0,0,1,12.57-1.5,12.15,12.15,0,0,1,9.75,11.89A13.89,13.89,0,0,1,394.29,284a21.93,21.93,0,0,1-13.43-.46c-.83-.28-1.65-.6-2.52-.92a12.92,12.92,0,0,0,12.15,13.66l.8,0a18,18,0,0,0,13.6-5.65c4-4.27,7-9.08,7.91-15.08,1.73-10.95,10-18.11,20-17.61,7.16.36,12.07,4.57,12.84,11a13.66,13.66,0,0,1-9.82,15,21.72,21.72,0,0,1-13.66-.47l-2.31-.8c-.7,7.2,5.4,13.65,12.87,13.62a18.7,18.7,0,0,0,16.1-8.66,108.72,108.72,0,0,0,5.38-9.82c.27-.5.32-1.27.71-1.52,1.07-.67,2.36-1.69,3.4-1.52,1.65.26,2.17,2,1.69,3.5a43.26,43.26,0,0,1-2.32,5.9c-3.24,6.82-7.41,12.87-14.42,16.35C431.34,306.46,420.24,302.58,413.3,289.86Zm-25.17-10.59a32.92,32.92,0,0,0,5.68-2,7.45,7.45,0,0,0,3.14-8.53c-.88-2.64-3.55-4.1-7.12-3.95-5.66.25-9.76,5.21-11.07,10.49-.12.5.68,1.64,1.26,1.84,2.6.85,5.28,1.46,8.11,2.2Zm41.36,0a34.23,34.23,0,0,0,6-2.21,7.33,7.33,0,0,0,2.9-8.38c-.95-2.62-3.46-4-6.89-3.95-6.22.18-10.09,5.66-11.3,10.51-.12.5.71,1.65,1.3,1.85,2.51.83,5.11,1.42,8,2.18Z" transform="translate(-154.7 -224.91)"/><path class="cls-1" d="M339.68,303.27a25.58,25.58,0,0,1-13.29-3.46c-7.87-4.73-11.12-13.82-8.38-23.46a24.12,24.12,0,0,1,1.78-4.78,3.61,3.61,0,0,1,4.73-1.92h0c2.07.78,2.33,2.52,1.88,4.45-.39,1.66-.89,3.3-1.21,5-1.73,9.11,2.69,15.52,11.78,17.12,8.49,1.49,16.36-3.22,18.22-11,1.1-4.6.24-8.9-3-12.27s-6.9-6.18-10.36-9.25c-3.9-3.45-8-6.74-11.61-10.43a17,17,0,0,1-5-11.41c-.51-10.06,7.62-17.42,18.62-16.94,7.7.34,13.38,4.34,14.75,10.83a21.34,21.34,0,0,1-.06,7.22,3.25,3.25,0,0,1-3.46,3,4.34,4.34,0,0,1-.54-.09c-2.27-.36-2.84-2-2.54-4,1.34-8.82-7.29-11.77-13.5-9.27a8.79,8.79,0,0,0-5.19,11.3,8.09,8.09,0,0,0,.61,1.3,35.55,35.55,0,0,0,7.27,8.39c4.53,4.09,9.51,7.66,14.08,11.72,5.43,4.81,8.67,10.74,7.93,18.31-1.06,10.88-10.12,19-21.77,19.59C340.83,303.29,340.26,303.27,339.68,303.27Z" transform="translate(-154.7 -224.91)"/><path class="cls-1" d="M235.32,249a4.2,4.2,0,0,1-8.4-.12h0a4.2,4.2,0,1,1,8.4.12Z" transform="translate(-154.7 -224.91)"/></g></svg>