<svg xmlns="http://www.w3.org/2000/svg" width="107.79mm" height="101.5mm" viewBox="0 0 305.55 287.71"><defs><style>.cls-1{fill:none;stroke:#000;stroke-linecap:round;stroke-miterlimit:10;stroke-width:6px;}</style></defs><title>millSee_logo</title><g id="Layer_2" data-name="Layer 2"><circle cx="152.15" cy="16.93" r="5.75"/><circle cx="135.59" cy="18.1" r="5.75"/><circle cx="119.32" cy="21.42" r="5.75"/><circle cx="103.62" cy="26.83" r="5.75"/><circle cx="88.77" cy="34.25" r="5.75"/><circle cx="75.01" cy="43.54" r="5.75"/><circle cx="62.58" cy="54.55" r="5.75"/><circle cx="63.47" cy="234.05" r="5.75"/><circle cx="76.01" cy="244.93" r="5.75"/><circle cx="89.86" cy="254.09" r="5.75"/><circle cx="104.78" cy="261.36" r="5.75"/><circle cx="120.53" cy="266.62" r="5.75"/><circle cx="136.83" cy="269.78" r="5.75"/><circle cx="153.4" cy="270.78" r="5.75"/><circle cx="169.96" cy="269.61" r="5.75"/><circle cx="186.23" cy="266.29" r="5.75"/><circle cx="201.93" cy="260.88" r="5.75"/><circle cx="216.78" cy="253.46" r="5.75"/><circle cx="230.54" cy="244.17" r="5.75"/><circle cx="242.97" cy="233.16" r="5.75"/><circle cx="242.08" cy="53.67" r="5.75"/><circle cx="229.54" cy="42.78" r="5.75"/><circle cx="215.69" cy="33.63" r="5.75"/><circle cx="200.77" cy="26.36" r="5.75"/><circle cx="185.02" cy="21.1" r="5.75"/><circle cx="168.72" cy="17.94" r="5.75"/><path class="cls-1" d="M397.24,520.55a140.87,140.87,0,0,1-199.2,0" transform="translate(-144.86 -277.09)"/><path class="cls-1" d="M198,321.34a140.87,140.87,0,0,1,199.2,0" transform="translate(-144.86 -277.09)"/></g><g id="Layer_3" data-name="Layer 3"><path d="M153,428c8.51-11.58,19.89-11.92,24.77-4.79,3.07-2.16,5.87-5.05,9.28-6.35,8.49-3.23,15.5,1.61,14.71,10.67q-.85,9.85-1.64,19.71a10,10,0,0,0,.09,2.68c.46,2.36,2.54,3.21,4.37,1.66a11.18,11.18,0,0,0,2.89-3.57c2.26-4.68,4.77-9.33,6.31-14.26,1.26-4.05,1.26-8.5,1.88-12.76a10.56,10.56,0,0,1,.84-3c.81-1.71,2.23-2.69,4.16-2.17a3.2,3.2,0,0,1,2.46,3.73c-.53,4.52-1.36,9-1.7,13.56s-.3,9.26-.33,13.89a7.85,7.85,0,0,0,.7,2.82c1.4,3.37,4.45,4,7,1.39a19.18,19.18,0,0,0,3.23-4.55c1.9-3.78,3.63-7.64,5.29-11.53a8.57,8.57,0,0,0,.46-3.33c0-11.18.37-22.34,3.51-33.16a47.47,47.47,0,0,1,4.31-9.77,11.86,11.86,0,0,1,7.74-5.93c6.05-1.45,10.76,1.52,11.85,7.65,1.34,7.6-.64,14.72-3.62,21.6a75.65,75.65,0,0,1-14.1,21c-1.78,1.94-2.64,3.79-1.89,6.31.83,2.8,1.3,5.75,2.52,8.36,2.46,5.23,6.64,5.85,10.69,1.77s6.67-9.4,8.82-14.79a8.18,8.18,0,0,0,.22-2.9c0-11,.32-22,3.35-32.69a63.45,63.45,0,0,1,4.39-10.27,11.09,11.09,0,0,1,2.83-3.33c3.3-2.85,7.12-4.08,11.32-2.43s5.56,5.33,5.83,9.42a40.61,40.61,0,0,1-6.33,24.2c-3.74,6.07-8.36,11.59-12.48,17.44-.72,1-1.44,2.56-1.2,3.64.86,3.77,1.66,7.67,3.37,11.08,2.05,4.07,5.71,4.39,9.13,1.35,4.63-4.12,7.13-9.63,9.55-15.17.29-.67.4-1.57.9-2,.93-.73,2.6-1.88,3-1.56,1,.7,2.27,2.49,2,3.34-2.83,8.19-6,16.28-13.19,21.81a11.52,11.52,0,0,1-16.17-2.26c-2-2.56-3.37-5.68-5.1-8.69-.33.52-.72,1.26-1.22,1.93-1.83,2.48-3.45,5.19-5.6,7.35-5.91,5.94-14.34,5.12-19.14-1.79a69.83,69.83,0,0,1-3.89-7.35c-.41.69-.81,1.42-1.26,2.1-1.67,2.5-3.1,5.23-5.09,7.43-6.3,6.95-15.21,4.9-18-4-.26-.82-.49-1.65-.83-2.83a40.56,40.56,0,0,1-2.67,4.07,25.32,25.32,0,0,1-4.72,4.86c-5.63,3.83-12.81.67-13.25-6.1-.36-5.47.37-11,.68-16.54.12-2.28.54-4.54.6-6.81.15-4.93-3.48-7.1-7.8-4.66-4.05,2.28-6.28,6.07-7.95,10.21-2.53,6.25-3,12.79-2.48,19.44,0,.57.13,1.14.15,1.71.07,2.66-1.08,4.25-3.17,4.41a3.51,3.51,0,0,1-3.94-3.75c.11-6.32.61-12.63,1.06-18.94.17-2.51.79-5,.89-7.5s-1.2-3.82-3.6-3.51a13,13,0,0,0-5.78,2.15c-4.83,3.51-7.39,8.62-8.73,14.28a64.67,64.67,0,0,0-1.12,8.93c-.14,1.54,0,3.1-.09,4.64-.24,2.64-1.56,3.85-3.87,3.74-2.07-.09-3.31-1.46-3.26-4q.25-11.61.7-23.2c.14-3.5.5-7,.79-10.48a17,17,0,0,1,.38-2.66,3.41,3.41,0,0,1,3.9-2.89c2.16.17,3,1.65,3,3.51C153.52,422.35,153.19,425.18,153,428Zm122.27-2.56c5.17-6.21,9.42-12.93,11.4-20.74A50.29,50.29,0,0,0,288,392.23c0-3.07-3-4-5.19-1.74a14.85,14.85,0,0,0-3,4.7C276,404.87,275.53,415.12,275.24,425.45Zm-30.32-.13a52.24,52.24,0,0,0,10.62-17.19,35.63,35.63,0,0,0,2.72-14.77c-.09-1.67-.35-3.7-2.26-3.82a6.13,6.13,0,0,0-4.05,1.94,9.74,9.74,0,0,0-2.42,4.44c-1.47,6.49-2.83,13-3.95,19.56A94.33,94.33,0,0,0,244.92,425.32Z" transform="translate(-144.86 -277.09)"/><path d="M403.55,446.7c-.89,1.17-1.6,2.14-2.35,3.08C396.29,456,390,459.6,382,459.89c-10,.36-17.42-5.14-20.06-14.77-3.09-11.3,1.44-23.69,10.38-28.35a17.51,17.51,0,0,1,12.57-1.5,12.15,12.15,0,0,1,9.75,11.89,13.87,13.87,0,0,1-10.11,13.7,21.94,21.94,0,0,1-13.43-.46c-.83-.28-1.65-.6-2.52-.92a12.93,12.93,0,0,0,12.95,13.68,18,18,0,0,0,13.6-5.65c4-4.27,7-9.08,7.91-15.08,1.73-10.95,10-18.11,20-17.61,7.16.36,12.07,4.57,12.84,11a13.67,13.67,0,0,1-9.82,15,21.72,21.72,0,0,1-13.66-.47l-2.31-.8c-.7,7.2,5.4,13.65,12.87,13.62a18.72,18.72,0,0,0,16.1-8.66,109.61,109.61,0,0,0,5.38-9.82c.27-.5.32-1.27.71-1.52,1.07-.67,2.36-1.69,3.4-1.52,1.65.26,2.17,2,1.69,3.5a44.59,44.59,0,0,1-2.32,5.9c-3.24,6.82-7.41,12.87-14.42,16.35C421.59,463.3,410.49,459.42,403.55,446.7Zm-25.18-10.59a32.94,32.94,0,0,0,5.68-2.05,7.44,7.44,0,0,0,3.14-8.53c-.88-2.64-3.55-4.1-7.12-3.95-5.66.25-9.76,5.21-11.07,10.49-.12.5.68,1.64,1.26,1.84C372.86,434.76,375.54,435.37,378.37,436.11Zm41.37,0c2-.7,4.15-1.14,6-2.21a7.35,7.35,0,0,0,2.9-8.38c-.95-2.62-3.46-4-6.89-3.95-6.22.18-10.09,5.66-11.3,10.51-.12.5.71,1.65,1.3,1.85C414.26,434.76,416.86,435.35,419.74,436.11Z" transform="translate(-144.86 -277.09)"/><path d="M329.92,460.11a25.58,25.58,0,0,1-13.29-3.46c-7.87-4.73-11.12-13.82-8.38-23.46a24.45,24.45,0,0,1,1.78-4.78,3.61,3.61,0,0,1,4.75-1.91c2.07.78,2.33,2.52,1.88,4.45-.39,1.66-.89,3.3-1.21,5-1.73,9.11,2.69,15.52,11.78,17.12,8.49,1.49,16.36-3.22,18.22-11,1.1-4.6.24-8.9-3-12.27s-6.9-6.18-10.36-9.25c-3.9-3.45-7.95-6.74-11.61-10.43a17.09,17.09,0,0,1-5-11.41c-.51-10.06,7.62-17.42,18.62-16.94,7.7.34,13.38,4.34,14.75,10.83a21.36,21.36,0,0,1-.06,7.22,3.24,3.24,0,0,1-4,2.92c-2.27-.36-2.84-2-2.54-4,1.34-8.82-7.29-11.77-13.5-9.27a8.79,8.79,0,0,0-4.58,12.6,36,36,0,0,0,7.27,8.39c4.53,4.09,9.51,7.66,14.08,11.72,5.43,4.81,8.67,10.74,7.93,18.31-1.06,10.88-10.12,19-21.77,19.59C331.07,460.13,330.5,460.11,329.92,460.11Z" transform="translate(-144.86 -277.09)"/><path d="M225.56,405.84a4.2,4.2,0,0,1-8.4-.12,4.2,4.2,0,1,1,8.4.12Z" transform="translate(-144.86 -277.09)"/></g></svg>