<svg data-name="Layer 1" xmlns="http://www.w3.org/2000/svg" width="386.62" height="104.56"><path d="M544.32 231.5a30.65 30.65 0 0 0-6.28-.38c-.27-1.47-2.1-2.71-4.43-2.89s-4.39.81-4.83 2.26a5.14 5.14 0 0 0-7.32-.25 6.58 6.58 0 0 0-4.8-2.74 4.7 4.7 0 0 0-4.45-3.21 4.63 4.63 0 0 0-2 .47 8.77 8.77 0 0 0-13.44-2.3A12.45 12.45 0 0 0 484.2 221a8.78 8.78 0 0 0-10.57-7.46v-.2a8.79 8.79 0 0 0-8.79-8.79 9.07 9.07 0 0 0-1.9.21 20.78 20.78 0 0 0-32.19-11.45 15.26 15.26 0 0 0-26.41-8.69A27.27 27.27 0 0 0 359.92 166 35.62 35.62 0 0 0 296 179.39a27.71 27.71 0 0 0-35.22 23.4 16.33 16.33 0 0 0-5.3-.9 16.15 16.15 0 0 0-14.06 8.19 18.88 18.88 0 0 0-21.21 7.76 8.09 8.09 0 0 0-12.21 4.45 6 6 0 0 0-8.14 3.79 6.79 6.79 0 0 0-4.48 3.18h-.2a5.16 5.16 0 0 0-3.78 1.65c-.45-1.45-2.47-2.43-4.83-2.25s-4.17 1.42-4.43 2.89a30.66 30.66 0 0 0-6.29.37c-5.19.8-9.24 2.49-9 3.78s3.71 1.59 8.18 1.09a9.4 9.4 0 0 0 5.3 1.5 10.34 10.34 0 0 0 5-.9 4.11 4.11 0 0 0 5.94.48 5.18 5.18 0 0 0 6.78.94 6.71 6.71 0 0 0 8.12-1.37 8.09 8.09 0 0 0 13.1-.5 18.94 18.94 0 0 0 31.56 3.31 16.66 16.66 0 0 0 31.27-1.45 16.64 16.64 0 0 0 30.23 2 27.71 27.71 0 0 0 43.51 5.1 17.54 17.54 0 0 0 28.08 2.34 30 30 0 0 0 42.4-3 19.86 19.86 0 0 0 28.48-3.79 15.26 15.26 0 0 0 23.71-2.69 12.45 12.45 0 0 0 20 2.21 8.65 8.65 0 0 0 12.78-2.48 6.54 6.54 0 0 0 10.27-.57 5.15 5.15 0 0 0 7.44-.4 4.12 4.12 0 0 0 6-.48 10.44 10.44 0 0 0 5 .89 9.34 9.34 0 0 0 5.3-1.5c4.47.5 8 .07 8.17-1.08s-3.95-3.05-9.15-3.85Z" transform="translate(-166.75 -151)" style="fill:#fff"/></svg>