<?xml version="1.0" encoding="utf-8"?>
<!-- Generator: Adobe Illustrator 23.0.1, SVG Export Plug-In . SVG Version: 6.00 Build 0)  -->
<svg version="1.1" id="Layer_1" xmlns="http://www.w3.org/2000/svg" xmlns:xlink="http://www.w3.org/1999/xlink" x="0px" y="0px"
	 viewBox="0 0 173.7 174.1" style="enable-background:new 0 0 173.7 174.1;" xml:space="preserve">
<style type="text/css">
	.st0{opacity:0.6;fill:#C75876;}
</style>
<title>un_intro_heart</title>
<path class="st0" d="M82.1,29.5C92.1,15.8,107-0.2,125.4,0c16.6,0.2,36.9,14.7,44,29.3c4.4,9,5,19.6,3.5,29.5
	c-7.1,47.4-40,85.8-75.8,115.1c-2.3,1.9-28.4-16.4-30.7-17.9c-19.7-12.9-40.4-26.6-53.1-46.9c-13.5-21.6-16.9-52-9.4-76.4
	c3.1-10,9.5-19.4,19.1-23.6c11.4-5,26.3-2.3,36.9,3.7C62.2,14.2,82.9,28.4,82.1,29.5z"/>
</svg>
