<svg data-name="Layer 1" xmlns="http://www.w3.org/2000/svg" width="340.01" height="100.34"><path d="M529.52 229.21c0-2.36-8.34-4.28-18.89-4.45v-.18c0-4.27-3.18-7.72-7.11-7.72a6.67 6.67 0 0 0-4.23 1.53l-.06-.1c-1.59-8.55-8.54-15-16.88-15a16 16 0 0 0-4.12.56 10.59 10.59 0 0 0-9.63-6.74 10.23 10.23 0 0 0-7.88 3.83 11.74 11.74 0 0 0-9.82-5.54 11.14 11.14 0 0 0-1.74.15 20.18 20.18 0 0 0 .63-5c0-10.32-7.71-18.69-17.22-18.69a16.6 16.6 0 0 0-12.6 6 14.89 14.89 0 0 0-13.64-9.74 14.59 14.59 0 0 0-12.46 7.37 10 10 0 0 0-8.56-5.14 9 9 0 0 0-2.85.46 13.09 13.09 0 0 0-23.78-.43h-.55a10 10 0 0 0-8.71 5.41 16.4 16.4 0 0 0-24.88 1 25.69 25.69 0 0 0-15.87-5.56 26.24 26.24 0 0 0-20.44 10.07 14.74 14.74 0 0 0-6.43-1.49c-8.73 0-15.8 7.68-15.8 17.15 0 .36 0 .71.05 1.06a9.63 9.63 0 0 0-2.58-.37 10 10 0 0 0-9 5.9 14.11 14.11 0 0 0-6.84-1.79c-6.52 0-12.06 4.48-14.21 10.75a7.59 7.59 0 0 0-1.27-.11c-4.58 0-8.34 3.76-8.8 8.6h-.37a6.12 6.12 0 0 0-5.81 4.88c-.68-.05-1.37-.08-2.09-.08-5.7 0-10.48 1.61-11.89 3.8h-1.39c-6.8 0-12.32 2.3-12.32 5.15s5.52 5.14 12.32 5.14c.88 0 1.74 0 2.57-.11 2 1.69 6.19 2.86 11 2.86h1.4a5.81 5.81 0 0 0 5.55 4.84 5.19 5.19 0 0 0 1.77-.31 10.48 10.48 0 0 0 8.66 4.77 10.07 10.07 0 0 0 4.94-1.31 8.34 8.34 0 0 0 12.31-.06 14.72 14.72 0 0 0 11.83 6.17 14.47 14.47 0 0 0 10.21-4.31 7.89 7.89 0 0 0 7.17 5 7.8 7.8 0 0 0 6.73-4.09 14.14 14.14 0 0 0 7.81 2.37 14.35 14.35 0 0 0 9.33-3.5 7.46 7.46 0 0 0 11.6.1 12.09 12.09 0 0 0 10.36 6.14 11.81 11.81 0 0 0 8.77-4 26.09 26.09 0 0 0 16.83 5.7c8.26 0 15.47-3.34 19.37-8.31a13.38 13.38 0 0 0 11.61 7.11 12.56 12.56 0 0 0 4.66-.91 9.85 9.85 0 0 0 17.5.08 23.26 23.26 0 0 0 14.5 5.12 24.16 24.16 0 0 0 20.38-11.7 14.06 14.06 0 0 0 21.85-.41 8.27 8.27 0 0 0 6.69-.18 32.9 32.9 0 0 0 9.95 1.48c10.31 0 18.8-4.34 20.11-10a4.36 4.36 0 0 0 .51 0 7 7 0 0 0 5.83-3.3 6.71 6.71 0 0 0 3.34.9 7.3 7.3 0 0 0 7-6.47c8.97-.5 15.58-2.25 15.58-4.35Z" transform="translate(-189.51 -163)" style="fill:#fff"/></svg>