<svg id="bg" xmlns="http://www.w3.org/2000/svg" width="720" height="405"><defs><style>.cls-2{fill:#fff}</style></defs><path transform="rotate(180 360 202.5)" style="fill:#012038" d="M0 0h720v405H0z"/><path class="cls-2" d="M207.32 89.68c-2.44.53-2.87.95-3.4 3.4-.53-2.45-1-2.87-3.4-3.4 2.44-.53 2.87-1 3.4-3.41.53 2.45.96 2.88 3.4 3.41ZM262.83 250.9c-3.73.8-4.38 1.46-5.19 5.19-.81-3.73-1.47-4.39-5.2-5.19 3.73-.81 4.39-1.47 5.2-5.2.81 3.73 1.46 4.39 5.19 5.2Z"/><circle class="cls-2" cx="306.52" cy="96.71" r="2.55"/><path class="cls-2" d="M359.59 229.9c-4.31.93-5.07 1.69-6 6-.94-4.3-1.69-5.06-6-6 4.31-.94 5.06-1.7 6-6 .93 4.3 1.69 5.1 6 6ZM419.55 73.8c-3.4.74-4 1.34-4.73 4.74-.74-3.4-1.34-4-4.74-4.74 3.4-.74 4-1.33 4.74-4.73.74 3.4 1.33 3.99 4.73 4.73ZM119.06 28.45c-1.49.32-1.75.58-2.07 2.06-.32-1.48-.58-1.74-2.06-2.06 1.48-.32 1.74-.59 2.06-2.07.32 1.48.58 1.75 2.07 2.07ZM318.06 27.31c-2.44.53-2.87 1-3.4 3.4-.53-2.44-1-2.87-3.4-3.4 2.44-.53 2.87-1 3.4-3.4.53 2.44.96 2.87 3.4 3.4ZM357.86 139.56c-3.88.85-4.56 1.53-5.4 5.41-.85-3.88-1.53-4.56-5.41-5.41 3.88-.84 4.56-1.52 5.41-5.4.84 3.84 1.54 4.56 5.4 5.4ZM588.32 289.68c-2.44.53-2.87.95-3.4 3.4-.53-2.45-1-2.87-3.4-3.4 2.44-.53 2.87-1 3.4-3.41.53 2.45.96 2.88 3.4 3.41Z"/><circle class="cls-2" cx="447.67" cy="368.15" r="3.4"/><path class="cls-2" d="M457.83 285.9c-3.73.8-4.38 1.46-5.19 5.19-.81-3.73-1.47-4.39-5.2-5.19 3.73-.81 4.39-1.47 5.2-5.2.81 3.73 1.46 4.39 5.19 5.2Z"/><circle class="cls-2" cx="678.27" cy="357.33" r="2.55"/><path class="cls-2" d="M500.06 228.45c-1.49.32-1.75.58-2.07 2.06-.32-1.48-.58-1.74-2.06-2.06 1.48-.32 1.74-.59 2.06-2.07.32 1.48.58 1.75 2.07 2.07ZM699.06 227.31c-2.44.53-2.87 1-3.4 3.4-.53-2.44-1-2.87-3.4-3.4 2.44-.53 2.87-1 3.4-3.4.53 2.44.96 2.87 3.4 3.4ZM141.32 367.68c-2.44.53-2.87.95-3.4 3.4-.53-2.45-1-2.87-3.4-3.4 2.44-.53 2.87-1 3.4-3.41.53 2.45.96 2.88 3.4 3.41ZM353.55 351.8c-3.4.74-4 1.34-4.73 4.74-.74-3.4-1.34-4-4.74-4.74 3.4-.74 4-1.33 4.74-4.73.74 3.4 1.33 3.99 4.73 4.73ZM53.06 306.45c-1.49.32-1.75.58-2.07 2.06-.32-1.48-.58-1.74-2.06-2.06 1.48-.32 1.74-.59 2.06-2.07.32 1.48.58 1.75 2.07 2.07ZM252.06 305.31c-2.44.53-2.87 1-3.4 3.4-.53-2.44-1-2.87-3.4-3.4 2.44-.53 2.87-1 3.4-3.4.53 2.44.96 2.87 3.4 3.4ZM652.32 105.68c-2.44.53-2.87.95-3.4 3.4-.53-2.45-1-2.87-3.4-3.4 2.44-.53 2.87-1 3.4-3.41.53 2.45.96 2.88 3.4 3.41ZM521.83 101.9c-3.73.8-4.38 1.46-5.19 5.19-.81-3.73-1.47-4.39-5.2-5.19 3.73-.81 4.39-1.47 5.2-5.2.81 3.73 1.46 4.39 5.19 5.2Z"/><circle class="cls-2" cx="135.52" cy="108.71" r="2.55"/><path class="cls-2" d="M81.59 135.9c-4.31.93-5.07 1.69-6 6-.94-4.3-1.69-5.06-6-6 4.31-.94 5.06-1.7 6-6 .93 4.3 1.69 5.1 6 6ZM616.55 212.8c-3.4.74-4 1.34-4.73 4.74-.74-3.4-1.34-4-4.74-4.74 3.4-.74 4-1.33 4.74-4.73.74 3.4 1.33 3.99 4.73 4.73ZM564.06 44.45c-1.49.32-1.75.58-2.07 2.06-.32-1.48-.58-1.74-2.06-2.06 1.48-.32 1.74-.59 2.06-2.07.32 1.48.58 1.75 2.07 2.07ZM567.06 148.31c-2.44.53-2.87 1-3.4 3.4-.53-2.44-1-2.87-3.4-3.4 2.44-.53 2.87-1 3.4-3.4.53 2.44.96 2.87 3.4 3.4ZM79.86 45.56c-3.88.85-4.56 1.53-5.4 5.41-.85-3.88-1.53-4.56-5.41-5.41 3.88-.84 4.56-1.52 5.41-5.4.84 3.84 1.54 4.56 5.4 5.4ZM310.32 195.68c-2.44.53-2.87.95-3.4 3.4-.53-2.45-1-2.87-3.4-3.4 2.44-.53 2.87-1 3.4-3.41.53 2.45.96 2.88 3.4 3.41Z"/><circle class="cls-2" cx="140.67" cy="262.15" r="3.4"/><path class="cls-2" d="M179.83 191.9c-3.73.8-4.38 1.46-5.19 5.19-.81-3.73-1.47-4.39-5.2-5.19 3.73-.81 4.39-1.47 5.2-5.2.81 3.73 1.46 4.39 5.19 5.2Z"/><circle class="cls-2" cx="400.27" cy="263.33" r="2.55"/><path class="cls-2" d="M222.06 134.45c-1.49.32-1.75.58-2.07 2.06-.32-1.48-.58-1.74-2.06-2.06 1.48-.32 1.74-.59 2.06-2.07.32 1.48.58 1.75 2.07 2.07ZM421.06 133.31c-2.44.53-2.87 1-3.4 3.4-.53-2.44-1-2.87-3.4-3.4 2.44-.53 2.87-1 3.4-3.4.53 2.44.96 2.87 3.4 3.4ZM586.32 383.68c-2.44.53-2.87.95-3.4 3.4-.53-2.45-1-2.87-3.4-3.4 2.44-.53 2.87-1 3.4-3.41.53 2.45.96 2.88 3.4 3.41ZM75.55 257.8c-3.4.74-4 1.34-4.73 4.74-.74-3.4-1.34-4-4.74-4.74 3.4-.74 4-1.33 4.74-4.73.74 3.4 1.33 3.99 4.73 4.73ZM498.06 322.45c-1.49.32-1.75.58-2.07 2.06-.32-1.48-.58-1.74-2.06-2.06 1.48-.32 1.74-.59 2.06-2.07.32 1.48.58 1.75 2.07 2.07ZM697.06 321.31c-2.44.53-2.87 1-3.4 3.4-.53-2.44-1-2.87-3.4-3.4 2.44-.53 2.87-1 3.4-3.4.53 2.44.96 2.87 3.4 3.4Z"/></svg>