<?xml version="1.0" encoding="utf-8"?>
<!-- Generator: Adobe Illustrator 23.0.1, SVG Export Plug-In . SVG Version: 6.00 Build 0)  -->
<svg version="1.1" id="Layer_1" xmlns="http://www.w3.org/2000/svg" xmlns:xlink="http://www.w3.org/1999/xlink" x="0px" y="0px"
	 viewBox="0 0 205.9 213.9" style="enable-background:new 0 0 205.9 213.9;" xml:space="preserve">
<style type="text/css">
	.st0{opacity:0.6;fill:#C75876;}
	.st1{fill:#C75876;}
</style>
<title>un_intro_heart_hover</title>
<path class="st0" d="M82.1,69.3c10-13.7,24.9-29.7,43.3-29.5c16.6,0.2,36.9,14.7,44,29.3c4.4,9,5,19.6,3.5,29.5
	c-7.1,47.4-40,85.8-75.8,115.1c-2.3,1.9-28.4-16.4-30.7-17.9C46.7,183,26,169.3,13.3,149C-0.2,127.3-3.6,97,3.9,72.6
	c3.1-10,9.5-19.4,19.1-23.6c11.4-5,26.3-2.3,36.9,3.7C62.2,54,82.9,68.2,82.1,69.3z"/>
<path class="st1" d="M122.9,4.3c-1,6.1-1.4,12.2-1.3,18.4c0.3,7.6,12.2,7.7,11.9,0c-0.2-5.1,0-10.2,0.8-15.2
	c0.5-3.2-0.8-6.4-4.2-7.3C127.4-0.6,123.4,1.2,122.9,4.3z"/>
<path class="st1" d="M165,9.6c-3.9,5.8-8.2,11.3-13,16.4c-5.3,5.6,3.1,14,8.4,8.4c5.5-5.8,10.5-12.1,14.9-18.8
	C179.5,9.2,169.2,3.2,165,9.6L165,9.6z"/>
<path class="st1" d="M198.5,36.5c-6.8,1.8-13.4,3.9-20,6.3c-7.1,2.6-4.1,14.1,3.2,11.5c6.6-2.4,13.2-4.5,20-6.3
	C209,45.9,205.9,34.4,198.5,36.5z"/>
</svg>
