<svg id="star" xmlns="http://www.w3.org/2000/svg" width="650.13" height="363.17" viewBox="0 0 650.13 363.17"><defs><style>.cls-1{fill:#fff;opacity:0.3;}</style></defs><title>un_intro_star</title><path class="cls-1" d="M158.39,65.77c-2.44.53-2.87,1-3.4,3.4-.53-2.45-1-2.87-3.4-3.4,2.44-.53,2.87-1,3.4-3.41C155.52,64.81,156,65.24,158.39,65.77ZM213.9,227c-3.73.8-4.38,1.46-5.19,5.19-.81-3.73-1.47-4.39-5.2-5.19,3.73-.81,4.39-1.47,5.2-5.2C209.52,225.52,210.17,226.18,213.9,227Z" transform="translate(0 0)"/><circle class="cls-1" cx="257.59" cy="72.8" r="2.55" transform="translate(144.47 315.4) rotate(-80.78)"/><path class="cls-1" d="M310.66,206c-4.31.93-5.07,1.69-6,6-.94-4.3-1.69-5.06-6-6,4.31-.94,5.06-1.7,6-6C305.59,204.29,306.35,205.09,310.66,206Zm60-156.1c-3.4.74-4,1.34-4.73,4.74-.74-3.4-1.34-4-4.74-4.74,3.4-.74,4-1.33,4.74-4.73.7,3.4,1.29,4,4.69,4.73ZM70.13,4.54c-1.49.32-1.75.58-2.07,2.06-.32-1.48-.58-1.74-2.06-2.06,1.48-.32,1.74-.59,2.06-2.07C68.38,4,68.64,4.22,70.13,4.54Zm199-1.14c-2.44.53-2.87,1-3.4,3.4-.53-2.44-1-2.87-3.4-3.4,2.44-.53,2.87-1,3.4-3.4C266.26,2.44,266.69,2.87,269.13,3.4Zm39.8,112.25c-3.88.85-4.56,1.53-5.4,5.41-.85-3.88-1.53-4.56-5.41-5.41,3.88-.84,4.56-1.52,5.41-5.4C304.37,114.09,305.07,114.81,308.93,115.65ZM539.39,265.77c-2.44.53-2.87,1-3.4,3.4-.53-2.45-1-2.87-3.4-3.4,2.44-.53,2.87-1,3.4-3.41C536.52,264.81,537,265.24,539.39,265.77Z" transform="translate(0 0)"/><circle class="cls-1" cx="398.74" cy="344.24" r="3.4"/><path class="cls-1" d="M408.9,262c-3.73.8-4.38,1.46-5.19,5.19-.81-3.73-1.47-4.39-5.2-5.19,3.73-.81,4.39-1.47,5.2-5.2C404.52,260.52,405.17,261.18,408.9,262Z" transform="translate(0 0)"/><circle class="cls-1" cx="629.34" cy="333.42" r="2.55"/><path class="cls-1" d="M451.13,204.54c-1.49.32-1.75.58-2.07,2.06-.32-1.48-.58-1.74-2.06-2.06,1.48-.32,1.74-.59,2.06-2.07C449.38,204,449.64,204.22,451.13,204.54Zm199-1.14c-2.44.53-2.87,1-3.4,3.4-.53-2.44-1-2.87-3.4-3.4,2.44-.53,2.87-1,3.4-3.4C647.26,202.44,647.69,202.87,650.13,203.4ZM92.39,343.77c-2.44.53-2.87,1-3.4,3.4-.53-2.45-1-2.87-3.4-3.4,2.44-.53,2.87-1,3.4-3.41C89.52,342.81,90,343.24,92.39,343.77Zm212.23-15.88c-3.4.74-4,1.34-4.73,4.74-.74-3.4-1.34-4-4.74-4.74,3.4-.74,4-1.33,4.74-4.73C300.63,326.56,301.22,327.15,304.62,327.89ZM4.13,282.54c-1.49.32-1.75.58-2.07,2.06-.32-1.48-.58-1.74-2.06-2.06,1.48-.32,1.74-.59,2.06-2.07C2.38,282,2.64,282.22,4.13,282.54Zm199-1.14c-2.44.53-2.87,1-3.4,3.4-.53-2.44-1-2.87-3.4-3.4,2.44-.53,2.87-1,3.4-3.4C200.26,280.44,200.69,280.87,203.13,281.4ZM603.39,81.77c-2.44.53-2.87,1-3.4,3.4-.53-2.45-1-2.87-3.4-3.4,2.44-.53,2.87-1,3.4-3.41C600.52,80.81,601,81.24,603.39,81.77ZM472.9,78c-3.73.8-4.38,1.46-5.19,5.19-.81-3.73-1.47-4.39-5.2-5.19,3.73-.81,4.39-1.47,5.2-5.2C468.52,76.52,469.17,77.18,472.9,78Z" transform="translate(0 0)"/><circle class="cls-1" cx="86.59" cy="84.8" r="2.55"/><path class="cls-1" d="M32.66,112c-4.31.93-5.07,1.69-6,6-.94-4.3-1.69-5.06-6-6,4.31-.94,5.06-1.7,6-6C27.59,110.29,28.35,111.09,32.66,112Zm535,76.9c-3.4.74-4,1.34-4.73,4.74-.74-3.4-1.34-4-4.74-4.74,3.4-.74,4-1.33,4.74-4.73.7,3.4,1.29,4,4.69,4.73ZM515.13,20.54c-1.49.32-1.75.58-2.07,2.06-.32-1.48-.58-1.74-2.06-2.06,1.48-.32,1.74-.59,2.06-2.07C513.38,20,513.64,20.22,515.13,20.54Zm3,103.86c-2.44.53-2.87,1-3.4,3.4-.53-2.44-1-2.87-3.4-3.4,2.44-.53,2.87-1,3.4-3.4C515.26,123.44,515.69,123.87,518.13,124.4ZM30.93,21.65c-3.88.85-4.56,1.53-5.4,5.41-.85-3.88-1.53-4.56-5.41-5.41,3.88-.84,4.56-1.52,5.41-5.4C26.37,20.09,27.07,20.81,30.93,21.65ZM261.39,171.77c-2.44.53-2.87.95-3.4,3.4-.53-2.45-1-2.87-3.4-3.4,2.44-.53,2.87-1,3.4-3.41C258.52,170.81,259,171.24,261.39,171.77Z" transform="translate(0 0)"/><circle class="cls-1" cx="91.74" cy="238.24" r="3.4"/><path class="cls-1" d="M130.9,168c-3.73.8-4.38,1.46-5.19,5.19-.81-3.73-1.47-4.39-5.2-5.19,3.73-.81,4.39-1.47,5.2-5.2C126.52,166.52,127.17,167.18,130.9,168Z" transform="translate(0 0)"/><circle class="cls-1" cx="351.34" cy="239.42" r="2.55"/><path class="cls-1" d="M173.13,110.54c-1.49.32-1.75.58-2.07,2.06-.32-1.48-.58-1.74-2.06-2.06,1.48-.32,1.74-.59,2.06-2.07C171.38,110,171.64,110.22,173.13,110.54Zm199-1.14c-2.44.53-2.87,1-3.4,3.4-.53-2.44-1-2.87-3.4-3.4,2.44-.53,2.87-1,3.4-3.4C369.26,108.44,369.69,108.87,372.13,109.4ZM537.39,359.77c-2.44.53-2.87,1-3.4,3.4-.53-2.45-1-2.87-3.4-3.4,2.44-.53,2.87-1,3.4-3.41C534.52,358.81,535,359.24,537.39,359.77ZM26.62,233.89c-3.4.74-4,1.34-4.73,4.74-.74-3.4-1.34-4-4.74-4.74,3.4-.74,4-1.33,4.74-4.73C22.63,232.56,23.22,233.15,26.62,233.89Zm422.51,64.65c-1.49.32-1.75.58-2.07,2.06-.32-1.48-.58-1.74-2.06-2.06,1.48-.32,1.74-.59,2.06-2.07.32,1.48.58,1.75,2.07,2.07Zm199-1.14c-2.44.53-2.87,1-3.4,3.4-.53-2.44-1-2.87-3.4-3.4,2.44-.53,2.87-1,3.4-3.4.53,2.44,1,2.87,3.4,3.4Z" transform="translate(0 0)"/></svg>