<svg xmlns="http://www.w3.org/2000/svg" width="112" height="88" viewBox="0 0 112 88">
    <g fill="none" fill-rule="evenodd" opacity=".7">
        <g>
            <g>
                <g>
                    <path d="M0 0H112V88H0z" transform="translate(26 -146) translate(-26 115) translate(0 31)"/>
                    <path fill="#FBF50D" fill-opacity=".9" d="M69.93 18.505l35.013 57.838c2.197 3.628 1.036 8.35-2.593 10.547-1.2.726-2.575 1.11-3.977 1.11H28.347c-4.242 0-7.68-3.438-7.68-7.68 0-1.402.384-2.778 1.11-3.977L56.79 18.505c2.197-3.629 6.919-4.79 10.547-2.593 1.061.642 1.95 1.532 2.593 2.593z" transform="translate(26 -146) translate(-26 115) translate(0 31)"/>
                    <path stroke="#48DCF7" stroke-width="1.28" d="M44.63 7.064c1.495-.371 3.13-.172 4.553.685.84.506 1.545 1.21 2.05 2.05h0l34.303 56.963c.857 1.423 1.056 3.06.685 4.553-.371 1.495-1.312 2.847-2.735 3.704-.937.565-2.01.863-3.104.863h0-68.604c-1.662 0-3.166-.674-4.254-1.762-1.089-1.089-1.762-2.593-1.762-4.254 0-1.094.298-2.167.862-3.104h0L40.926 9.8c.857-1.423 2.21-2.364 3.704-2.735z" transform="translate(26 -146) translate(-26 115) translate(0 31)"/>
                </g>
            </g>
        </g>
    </g>
</svg>
