<svg xmlns="http://www.w3.org/2000/svg" width="30" height="30" viewBox="0 0 30 30">
    <g fill="none" fill-rule="evenodd">
        <g fill="#03C75B" fill-rule="nonzero">
            <g>
                <g>
                    <path d="M24.786 20.844c-.333.118-.556.433-.556.786v2.184l-2.682-2.442c-.153-.14-.354-.217-.561-.217H18.91c-1.844 0-3.473-.947-4.43-2.405h1.145c4.668 0 8.527-3.415 9.245-7.88 2.052.77 3.463 2.75 3.463 4.964 0 2.246-1.425 4.26-3.547 5.01M17.115 8.125c.708 0 1.282.574 1.282 1.283 0 .707-.574 1.281-1.282 1.281-.708 0-1.282-.574-1.282-1.281 0-.709.574-1.283 1.282-1.283M12.5 10.689c-.708 0-1.283-.574-1.283-1.281 0-.709.575-1.283 1.283-1.283.707 0 1.282.574 1.282 1.283 0 .707-.575 1.281-1.282 1.281m-4.616 0c-.708 0-1.282-.574-1.282-1.281 0-.709.574-1.283 1.282-1.283.708 0 1.282.574 1.282 1.283 0 .707-.574 1.281-1.282 1.281m17.114-1.552l-.01-.001C24.858 4.07 20.721 0 15.625 0h-6.25C4.197 0 0 4.197 0 9.375c0 3.76 2.217 6.993 5.412 8.488v4.321c0 .761.46.963 1.023.448l4.263-3.882h1.865c1.112 2.438 3.553 4.072 6.347 4.072h1.754l2.831 2.576c.427.393.82.499 1.122.499.218 0 .388-.056.488-.1.238-.105.792-.456.792-1.454v-2.151C28.374 21.068 30 18.584 30 15.834c0-3.07-2.057-5.825-5.002-6.697" transform="translate(-322 -674) translate(309 661) translate(13 13) translate(0 2)"/>
                </g>
            </g>
        </g>
    </g>
</svg>
