<svg xmlns="http://www.w3.org/2000/svg" width="191" height="18" viewBox="0 0 191 18">
    <g fill="none" fill-rule="evenodd">
        <g fill="#03C75A">
            <g>
                <g>
                    <g>
                        <path d="M182.554 0c2.868 0 5.203.755 7.138 2.307l.093.075-2.52 3.559-.103-.073c-1.53-1.075-3.21-1.668-4.731-1.668-.98 0-1.589.374-1.589.976v.05c0 .658.433.99 2.867 1.542 3.9.848 6.496 2.102 6.496 5.468v.049c0 3.525-2.706 5.715-7.063 5.715-3.169 0-6.054-1.021-8.124-2.876l-.092-.082 2.806-3.35.096.077c1.692 1.347 3.537 2.031 5.485 2.031 1.166 0 1.834-.383 1.834-1.05v-.049c0-.59-.418-.968-2.794-1.519-3.461-.79-6.569-1.806-6.569-5.515v-.05c0-3.36 2.72-5.617 6.77-5.617zm-53.777 0c5.154 0 9.192 3.932 9.192 8.951V9c0 5.046-4.059 9-9.24 9-5.156 0-9.194-3.932-9.194-8.952V9c0-5.047 4.06-9 9.242-9zM31.81.416l6.733 17.168H32.82l-.813-2.272h-6.453l-.812 2.272h-5.724L25.751.416h6.06zm38.46 0v4.208h-7.911v2.314h7.826v4.124H62.36v2.314h8.079v4.208h-13.55V.416H70.27zm-28.95 0l4.04 11.288L49.398.416h5.722L48.39 17.584h-6.06L35.598.416h5.723zm-36.019 0l6.396 9.189V.416h5.555v17.168H11.95L5.554 8.395v9.189H0V.416h5.301zm75.077 0c2.587 0 4.468.431 5.918 1.356 1.56.996 2.35 2.6 2.35 4.769 0 2.293-1.014 4.1-3.01 4.935l-.52.218 4.34 5.89h-5.722l-3.282-4.797h-1.935v4.797H73.13V.416zm66.948 0c2.588 0 4.47.431 5.919 1.356 1.56.996 2.351 2.6 2.351 4.769 0 2.293-1.015 4.1-3.01 4.935l-.52.218 4.34 5.89h-5.723l-3.282-4.797h-1.935v4.797h-5.386V.416zm16.247 0v6.14h1.414l3.966-6.14h5.534l-5.381 8.327 6.065 8.841h-5.534l-4.563-6.653h-1.501v6.653h-5.302V.416h5.302zm-63.937 0l2.805 9.188 2.422-9.188h4.079l2.422 9.188L114.17.416h5.194l-5.652 17.083-.028.085h-3.864l-2.906-9.189-.011.037-.012-.037-2.906 9.189h-3.864l-.028-.085L94.44.416h5.195zm29.092 4.11c-2.359 0-4.138 1.902-4.138 4.425V9c0 2.51 1.84 4.474 4.187 4.474 2.372 0 4.161-1.903 4.161-4.426V9c0-2.51-1.849-4.475-4.21-4.475zm-99.947 1.3l-1.92 5.362H30.7l-1.92-5.363zm52.597-1.034h-2.946v3.619h2.946c1 0 1.81-.81 1.81-1.81 0-.999-.81-1.809-1.81-1.809zm66.949 0h-2.946v3.619h2.946c1 0 1.81-.81 1.81-1.81 0-.999-.81-1.809-1.81-1.809z" transform="translate(-420 -131) translate(100 100) translate(320 31)"/>
                    </g>
                </g>
            </g>
        </g>
    </g>
</svg>
